<?xml version="1.0" encoding="utf-8" standalone="no"?>
<!DOCTYPE svg PUBLIC "-//W3C//DTD SVG 1.1//EN"
  "http://www.w3.org/Graphics/SVG/1.1/DTD/svg11.dtd">
<!-- Created with matplotlib (https://matplotlib.org/) -->
<svg height="723.584125pt" version="1.1" viewBox="0 0 1087.886875 723.584125" width="1087.886875pt" xmlns="http://www.w3.org/2000/svg" xmlns:xlink="http://www.w3.org/1999/xlink">
 <defs>
  <style type="text/css">
*{stroke-linecap:butt;stroke-linejoin:round;}
  </style>
 </defs>
 <g id="figure_1">
  <g id="patch_1">
   <path d="M 0 723.584125 
L 1087.886875 723.584125 
L 1087.886875 0 
L 0 0 
z
" style="fill:none;"/>
  </g>
  <g id="axes_1">
   <g id="patch_2">
    <path d="M 76.286875 678.285375 
L 1080.686875 678.285375 
L 1080.686875 25.965375 
L 76.286875 25.965375 
z
" style="fill:#ffffff;"/>
   </g>
   <g id="matplotlib.axis_1">
    <g id="xtick_1">
     <g id="line2d_1">
      <path clip-path="url(#p80e83e7e8d)" d="M 76.286875 678.285375 
L 76.286875 25.965375 
" style="fill:none;stroke:#b0b0b0;stroke-linecap:square;stroke-width:0.8;"/>
     </g>
     <g id="line2d_2">
      <defs>
       <path d="M 0 0 
L 0 3.5 
" id="mb2ab72730b" style="stroke:#000000;stroke-width:0.8;"/>
      </defs>
      <g>
       <use style="stroke:#000000;stroke-width:0.8;" x="76.286875" xlink:href="#mb2ab72730b" y="678.285375"/>
      </g>
     </g>
     <g id="text_1">
      <!-- 2020-01-22 -->
      <defs>
       <path d="M 12.796875 55.515625 
L 7.328125 55.515625 
L 7.328125 68.5 
Q 12.546875 71.296875 17.84375 72.75 
Q 23.140625 74.21875 28.21875 74.21875 
Q 39.59375 74.21875 46.1875 68.703125 
Q 52.78125 63.1875 52.78125 53.71875 
Q 52.78125 43.015625 37.84375 28.125 
Q 36.671875 27 36.078125 26.421875 
L 17.671875 8.015625 
L 48.09375 8.015625 
L 48.09375 17 
L 53.8125 17 
L 53.8125 0 
L 6.78125 0 
L 6.78125 5.328125 
L 28.90625 27.390625 
Q 36.234375 34.71875 39.359375 40.84375 
Q 42.484375 46.96875 42.484375 53.71875 
Q 42.484375 61.078125 38.640625 65.234375 
Q 34.8125 69.390625 28.078125 69.390625 
Q 21.09375 69.390625 17.28125 65.921875 
Q 13.484375 62.453125 12.796875 55.515625 
z
" id="DejaVuSerif-50"/>
       <path d="M 31.78125 3.421875 
Q 39.265625 3.421875 42.96875 11.625 
Q 46.6875 19.828125 46.6875 36.375 
Q 46.6875 52.984375 42.96875 61.1875 
Q 39.265625 69.390625 31.78125 69.390625 
Q 24.3125 69.390625 20.59375 61.1875 
Q 16.890625 52.984375 16.890625 36.375 
Q 16.890625 19.828125 20.59375 11.625 
Q 24.3125 3.421875 31.78125 3.421875 
z
M 31.78125 -1.421875 
Q 19.921875 -1.421875 13.25 8.53125 
Q 6.59375 18.5 6.59375 36.375 
Q 6.59375 54.296875 13.25 64.25 
Q 19.921875 74.21875 31.78125 74.21875 
Q 43.703125 74.21875 50.34375 64.25 
Q 56.984375 54.296875 56.984375 36.375 
Q 56.984375 18.5 50.34375 8.53125 
Q 43.703125 -1.421875 31.78125 -1.421875 
z
" id="DejaVuSerif-48"/>
       <path d="M 4.390625 30.609375 
L 29.390625 30.609375 
L 29.390625 23 
L 4.390625 23 
z
" id="DejaVuSerif-45"/>
       <path d="M 14.203125 0 
L 14.203125 5.171875 
L 26.90625 5.171875 
L 26.90625 65.828125 
L 12.203125 56.296875 
L 12.203125 62.703125 
L 29.984375 74.21875 
L 36.71875 74.21875 
L 36.71875 5.171875 
L 49.421875 5.171875 
L 49.421875 0 
z
" id="DejaVuSerif-49"/>
      </defs>
      <g transform="translate(35.925312 695.923187)scale(0.14 -0.14)">
       <use xlink:href="#DejaVuSerif-50"/>
       <use x="63.623047" xlink:href="#DejaVuSerif-48"/>
       <use x="127.246094" xlink:href="#DejaVuSerif-50"/>
       <use x="190.869141" xlink:href="#DejaVuSerif-48"/>
       <use x="254.492188" xlink:href="#DejaVuSerif-45"/>
       <use x="288.28125" xlink:href="#DejaVuSerif-48"/>
       <use x="351.904297" xlink:href="#DejaVuSerif-49"/>
       <use x="415.527344" xlink:href="#DejaVuSerif-45"/>
       <use x="449.316406" xlink:href="#DejaVuSerif-50"/>
       <use x="512.939453" xlink:href="#DejaVuSerif-50"/>
      </g>
     </g>
    </g>
    <g id="xtick_2">
     <g id="line2d_3">
      <path clip-path="url(#p80e83e7e8d)" d="M 377.606875 678.285375 
L 377.606875 25.965375 
" style="fill:none;stroke:#b0b0b0;stroke-linecap:square;stroke-width:0.8;"/>
     </g>
     <g id="line2d_4">
      <g>
       <use style="stroke:#000000;stroke-width:0.8;" x="377.606875" xlink:href="#mb2ab72730b" y="678.285375"/>
      </g>
     </g>
     <g id="text_2">
      <!-- 2020-02-21 -->
      <g transform="translate(337.245313 695.923187)scale(0.14 -0.14)">
       <use xlink:href="#DejaVuSerif-50"/>
       <use x="63.623047" xlink:href="#DejaVuSerif-48"/>
       <use x="127.246094" xlink:href="#DejaVuSerif-50"/>
       <use x="190.869141" xlink:href="#DejaVuSerif-48"/>
       <use x="254.492188" xlink:href="#DejaVuSerif-45"/>
       <use x="288.28125" xlink:href="#DejaVuSerif-48"/>
       <use x="351.904297" xlink:href="#DejaVuSerif-50"/>
       <use x="415.527344" xlink:href="#DejaVuSerif-45"/>
       <use x="449.316406" xlink:href="#DejaVuSerif-50"/>
       <use x="512.939453" xlink:href="#DejaVuSerif-49"/>
      </g>
     </g>
    </g>
    <g id="xtick_3">
     <g id="line2d_5">
      <path clip-path="url(#p80e83e7e8d)" d="M 678.926875 678.285375 
L 678.926875 25.965375 
" style="fill:none;stroke:#b0b0b0;stroke-linecap:square;stroke-width:0.8;"/>
     </g>
     <g id="line2d_6">
      <g>
       <use style="stroke:#000000;stroke-width:0.8;" x="678.926875" xlink:href="#mb2ab72730b" y="678.285375"/>
      </g>
     </g>
     <g id="text_3">
      <!-- 2020-03-22 -->
      <defs>
       <path d="M 9.71875 69.828125 
Q 15.4375 71.96875 20.671875 73.09375 
Q 25.921875 74.21875 30.515625 74.21875 
Q 41.21875 74.21875 47.21875 69.59375 
Q 53.21875 64.984375 53.21875 56.78125 
Q 53.21875 50.203125 49.0625 45.78125 
Q 44.921875 41.359375 37.3125 39.796875 
Q 46.296875 38.53125 51.25 33.28125 
Q 56.203125 28.03125 56.203125 19.671875 
Q 56.203125 9.46875 49.34375 4.015625 
Q 42.484375 -1.421875 29.59375 -1.421875 
Q 23.875 -1.421875 18.421875 -0.1875 
Q 12.984375 1.03125 7.625 3.515625 
L 7.625 17.671875 
L 13.09375 17.671875 
Q 13.578125 10.640625 17.828125 7.03125 
Q 22.078125 3.421875 29.78125 3.421875 
Q 37.25 3.421875 41.578125 7.734375 
Q 45.90625 12.0625 45.90625 19.578125 
Q 45.90625 28.171875 41.453125 32.59375 
Q 37.015625 37.015625 28.421875 37.015625 
L 23.78125 37.015625 
L 23.78125 42 
L 26.21875 42 
Q 34.765625 42 39.03125 45.53125 
Q 43.3125 49.078125 43.3125 56.203125 
Q 43.3125 62.59375 39.796875 65.984375 
Q 36.28125 69.390625 29.6875 69.390625 
Q 23.09375 69.390625 19.453125 66.265625 
Q 15.828125 63.140625 15.1875 56.984375 
L 9.71875 56.984375 
z
" id="DejaVuSerif-51"/>
      </defs>
      <g transform="translate(638.565313 695.923187)scale(0.14 -0.14)">
       <use xlink:href="#DejaVuSerif-50"/>
       <use x="63.623047" xlink:href="#DejaVuSerif-48"/>
       <use x="127.246094" xlink:href="#DejaVuSerif-50"/>
       <use x="190.869141" xlink:href="#DejaVuSerif-48"/>
       <use x="254.492188" xlink:href="#DejaVuSerif-45"/>
       <use x="288.28125" xlink:href="#DejaVuSerif-48"/>
       <use x="351.904297" xlink:href="#DejaVuSerif-51"/>
       <use x="415.527344" xlink:href="#DejaVuSerif-45"/>
       <use x="449.316406" xlink:href="#DejaVuSerif-50"/>
       <use x="512.939453" xlink:href="#DejaVuSerif-50"/>
      </g>
     </g>
    </g>
    <g id="xtick_4">
     <g id="line2d_7">
      <path clip-path="url(#p80e83e7e8d)" d="M 980.246875 678.285375 
L 980.246875 25.965375 
" style="fill:none;stroke:#b0b0b0;stroke-linecap:square;stroke-width:0.8;"/>
     </g>
     <g id="line2d_8">
      <g>
       <use style="stroke:#000000;stroke-width:0.8;" x="980.246875" xlink:href="#mb2ab72730b" y="678.285375"/>
      </g>
     </g>
     <g id="text_4">
      <!-- 2020-04-21 -->
      <defs>
       <path d="M 34.90625 24.703125 
L 34.90625 63.484375 
L 10.015625 24.703125 
z
M 56.390625 0 
L 23.1875 0 
L 23.1875 5.171875 
L 34.90625 5.171875 
L 34.90625 19.484375 
L 3.078125 19.484375 
L 3.078125 24.8125 
L 35.015625 74.21875 
L 44.671875 74.21875 
L 44.671875 24.703125 
L 58.59375 24.703125 
L 58.59375 19.484375 
L 44.671875 19.484375 
L 44.671875 5.171875 
L 56.390625 5.171875 
z
" id="DejaVuSerif-52"/>
      </defs>
      <g transform="translate(939.885313 695.923187)scale(0.14 -0.14)">
       <use xlink:href="#DejaVuSerif-50"/>
       <use x="63.623047" xlink:href="#DejaVuSerif-48"/>
       <use x="127.246094" xlink:href="#DejaVuSerif-50"/>
       <use x="190.869141" xlink:href="#DejaVuSerif-48"/>
       <use x="254.492188" xlink:href="#DejaVuSerif-45"/>
       <use x="288.28125" xlink:href="#DejaVuSerif-48"/>
       <use x="351.904297" xlink:href="#DejaVuSerif-52"/>
       <use x="415.527344" xlink:href="#DejaVuSerif-45"/>
       <use x="449.316406" xlink:href="#DejaVuSerif-50"/>
       <use x="512.939453" xlink:href="#DejaVuSerif-49"/>
      </g>
     </g>
    </g>
    <g id="text_5">
     <!-- Dates -->
     <defs>
      <path d="M 24.703125 5.171875 
L 33.796875 5.171875 
Q 48 5.171875 55.59375 13.28125 
Q 63.1875 21.390625 63.1875 36.53125 
Q 63.1875 51.65625 55.609375 59.65625 
Q 48.046875 67.671875 33.796875 67.671875 
L 24.703125 67.671875 
z
M 5.515625 0 
L 5.515625 5.171875 
L 14.796875 5.171875 
L 14.796875 67.671875 
L 5.515625 67.671875 
L 5.515625 72.90625 
L 34.515625 72.90625 
Q 53.375 72.90625 63.890625 63.28125 
Q 74.421875 53.65625 74.421875 36.53125 
Q 74.421875 19.34375 63.875 9.671875 
Q 53.328125 0 34.515625 0 
z
" id="DejaVuSerif-68"/>
      <path d="M 39.796875 16.3125 
L 39.796875 27.296875 
L 28.21875 27.296875 
Q 21.53125 27.296875 18.25 24.40625 
Q 14.984375 21.53125 14.984375 15.578125 
Q 14.984375 10.15625 18.296875 6.984375 
Q 21.625 3.8125 27.296875 3.8125 
Q 32.90625 3.8125 36.34375 7.28125 
Q 39.796875 10.75 39.796875 16.3125 
z
M 48.78125 32.421875 
L 48.78125 5.171875 
L 56.78125 5.171875 
L 56.78125 0 
L 39.796875 0 
L 39.796875 5.609375 
Q 36.8125 2 32.90625 0.28125 
Q 29 -1.421875 23.78125 -1.421875 
Q 15.140625 -1.421875 10.0625 3.171875 
Q 4.984375 7.765625 4.984375 15.578125 
Q 4.984375 23.640625 10.796875 28.078125 
Q 16.609375 32.515625 27.203125 32.515625 
L 39.796875 32.515625 
L 39.796875 36.078125 
Q 39.796875 42 36.203125 45.234375 
Q 32.625 48.484375 26.125 48.484375 
Q 20.75 48.484375 17.578125 46.046875 
Q 14.40625 43.609375 13.625 38.8125 
L 8.984375 38.8125 
L 8.984375 49.3125 
Q 13.671875 51.3125 18.09375 52.3125 
Q 22.515625 53.328125 26.703125 53.328125 
Q 37.5 53.328125 43.140625 47.96875 
Q 48.78125 42.625 48.78125 32.421875 
z
" id="DejaVuSerif-97"/>
      <path d="M 10.796875 46.6875 
L 2.875 46.6875 
L 2.875 51.90625 
L 10.796875 51.90625 
L 10.796875 68.015625 
L 19.828125 68.015625 
L 19.828125 51.90625 
L 36.71875 51.90625 
L 36.71875 46.6875 
L 19.828125 46.6875 
L 19.828125 13.71875 
Q 19.828125 7.125 21.09375 5.265625 
Q 22.359375 3.421875 25.78125 3.421875 
Q 29.296875 3.421875 30.90625 5.484375 
Q 32.515625 7.5625 32.625 12.203125 
L 39.40625 12.203125 
Q 39.015625 5.125 35.546875 1.84375 
Q 32.078125 -1.421875 25 -1.421875 
Q 17.234375 -1.421875 14.015625 2.015625 
Q 10.796875 5.46875 10.796875 13.71875 
z
" id="DejaVuSerif-116"/>
      <path d="M 54.203125 25 
L 15.484375 25 
L 15.484375 24.609375 
Q 15.484375 14.109375 19.4375 8.765625 
Q 23.390625 3.421875 31.109375 3.421875 
Q 37.015625 3.421875 40.796875 6.515625 
Q 44.578125 9.625 46.09375 15.71875 
L 53.328125 15.71875 
Q 51.171875 7.171875 45.375 2.875 
Q 39.59375 -1.421875 30.171875 -1.421875 
Q 18.796875 -1.421875 11.890625 6.078125 
Q 4.984375 13.578125 4.984375 25.984375 
Q 4.984375 38.28125 11.765625 45.796875 
Q 18.5625 53.328125 29.59375 53.328125 
Q 41.359375 53.328125 47.65625 46.0625 
Q 53.953125 38.8125 54.203125 25 
z
M 43.609375 30.171875 
Q 43.3125 39.265625 39.765625 43.875 
Q 36.234375 48.484375 29.59375 48.484375 
Q 23.390625 48.484375 19.828125 43.84375 
Q 16.265625 39.203125 15.484375 30.171875 
z
" id="DejaVuSerif-101"/>
      <path d="M 5.609375 2.875 
L 5.609375 14.984375 
L 10.796875 14.984375 
Q 10.984375 9.1875 14.421875 6.296875 
Q 17.875 3.421875 24.609375 3.421875 
Q 30.671875 3.421875 33.84375 5.6875 
Q 37.015625 7.953125 37.015625 12.3125 
Q 37.015625 15.71875 34.6875 17.8125 
Q 32.375 19.921875 24.90625 22.3125 
L 18.40625 24.515625 
Q 11.71875 26.65625 8.71875 29.875 
Q 5.71875 33.109375 5.71875 38.09375 
Q 5.71875 45.21875 10.9375 49.265625 
Q 16.15625 53.328125 25.390625 53.328125 
Q 29.5 53.328125 34.03125 52.25 
Q 38.578125 51.171875 43.40625 49.125 
L 43.40625 37.796875 
L 38.234375 37.796875 
Q 38.03125 42.828125 34.703125 45.65625 
Q 31.390625 48.484375 25.6875 48.484375 
Q 20.015625 48.484375 17.109375 46.484375 
Q 14.203125 44.484375 14.203125 40.484375 
Q 14.203125 37.203125 16.40625 35.21875 
Q 18.609375 33.25 25.203125 31.203125 
L 32.328125 29 
Q 39.703125 26.703125 42.9375 23.265625 
Q 46.1875 19.828125 46.1875 14.40625 
Q 46.1875 7.03125 40.546875 2.796875 
Q 34.90625 -1.421875 25 -1.421875 
Q 19.96875 -1.421875 15.1875 -0.34375 
Q 10.40625 0.734375 5.609375 2.875 
z
" id="DejaVuSerif-115"/>
     </defs>
     <g transform="translate(558.152969 713.472562)scale(0.14 -0.14)">
      <use xlink:href="#DejaVuSerif-68"/>
      <use x="80.175781" xlink:href="#DejaVuSerif-97"/>
      <use x="139.794922" xlink:href="#DejaVuSerif-116"/>
      <use x="179.980469" xlink:href="#DejaVuSerif-101"/>
      <use x="239.160156" xlink:href="#DejaVuSerif-115"/>
     </g>
    </g>
   </g>
   <g id="matplotlib.axis_2">
    <g id="ytick_1">
     <g id="line2d_9">
      <path clip-path="url(#p80e83e7e8d)" d="M 76.286875 678.285375 
L 1080.686875 678.285375 
" style="fill:none;stroke:#b0b0b0;stroke-linecap:square;stroke-width:0.8;"/>
     </g>
     <g id="line2d_10">
      <defs>
       <path d="M 0 0 
L -3.5 0 
" id="m50a56db226" style="stroke:#000000;stroke-width:0.8;"/>
      </defs>
      <g>
       <use style="stroke:#000000;stroke-width:0.8;" x="76.286875" xlink:href="#m50a56db226" y="678.285375"/>
      </g>
     </g>
     <g id="text_6">
      <!-- 0 -->
      <g transform="translate(60.379375 683.604281)scale(0.14 -0.14)">
       <use xlink:href="#DejaVuSerif-48"/>
      </g>
     </g>
    </g>
    <g id="ytick_2">
     <g id="line2d_11">
      <path clip-path="url(#p80e83e7e8d)" d="M 76.286875 569.565375 
L 1080.686875 569.565375 
" style="fill:none;stroke:#b0b0b0;stroke-linecap:square;stroke-width:0.8;"/>
     </g>
     <g id="line2d_12">
      <g>
       <use style="stroke:#000000;stroke-width:0.8;" x="76.286875" xlink:href="#m50a56db226" y="569.565375"/>
      </g>
     </g>
     <g id="text_7">
      <!-- 2000 -->
      <g transform="translate(33.656875 574.884281)scale(0.14 -0.14)">
       <use xlink:href="#DejaVuSerif-50"/>
       <use x="63.623047" xlink:href="#DejaVuSerif-48"/>
       <use x="127.246094" xlink:href="#DejaVuSerif-48"/>
       <use x="190.869141" xlink:href="#DejaVuSerif-48"/>
      </g>
     </g>
    </g>
    <g id="ytick_3">
     <g id="line2d_13">
      <path clip-path="url(#p80e83e7e8d)" d="M 76.286875 460.845375 
L 1080.686875 460.845375 
" style="fill:none;stroke:#b0b0b0;stroke-linecap:square;stroke-width:0.8;"/>
     </g>
     <g id="line2d_14">
      <g>
       <use style="stroke:#000000;stroke-width:0.8;" x="76.286875" xlink:href="#m50a56db226" y="460.845375"/>
      </g>
     </g>
     <g id="text_8">
      <!-- 4000 -->
      <g transform="translate(33.656875 466.164281)scale(0.14 -0.14)">
       <use xlink:href="#DejaVuSerif-52"/>
       <use x="63.623047" xlink:href="#DejaVuSerif-48"/>
       <use x="127.246094" xlink:href="#DejaVuSerif-48"/>
       <use x="190.869141" xlink:href="#DejaVuSerif-48"/>
      </g>
     </g>
    </g>
    <g id="ytick_4">
     <g id="line2d_15">
      <path clip-path="url(#p80e83e7e8d)" d="M 76.286875 352.125375 
L 1080.686875 352.125375 
" style="fill:none;stroke:#b0b0b0;stroke-linecap:square;stroke-width:0.8;"/>
     </g>
     <g id="line2d_16">
      <g>
       <use style="stroke:#000000;stroke-width:0.8;" x="76.286875" xlink:href="#m50a56db226" y="352.125375"/>
      </g>
     </g>
     <g id="text_9">
      <!-- 6000 -->
      <defs>
       <path d="M 32.71875 3.421875 
Q 39.59375 3.421875 43.296875 8.46875 
Q 47.015625 13.53125 47.015625 23 
Q 47.015625 32.46875 43.296875 37.515625 
Q 39.59375 42.578125 32.71875 42.578125 
Q 25.734375 42.578125 22.0625 37.6875 
Q 18.40625 32.8125 18.40625 23.578125 
Q 18.40625 13.875 22.109375 8.640625 
Q 25.828125 3.421875 32.71875 3.421875 
z
M 16.796875 40.140625 
Q 20.125 43.796875 24.3125 45.59375 
Q 28.515625 47.40625 33.796875 47.40625 
Q 44.671875 47.40625 51 40.859375 
Q 57.328125 34.328125 57.328125 23 
Q 57.328125 11.921875 50.515625 5.25 
Q 43.703125 -1.421875 32.328125 -1.421875 
Q 19.96875 -1.421875 13.328125 7.78125 
Q 6.6875 17 6.6875 34.078125 
Q 6.6875 53.21875 14.546875 63.71875 
Q 22.40625 74.21875 36.71875 74.21875 
Q 40.578125 74.21875 44.828125 73.484375 
Q 49.078125 72.75 53.515625 71.296875 
L 53.515625 59.28125 
L 48 59.28125 
Q 47.40625 64.203125 44.234375 66.796875 
Q 41.0625 69.390625 35.6875 69.390625 
Q 26.21875 69.390625 21.578125 62.203125 
Q 16.9375 55.03125 16.796875 40.140625 
z
" id="DejaVuSerif-54"/>
      </defs>
      <g transform="translate(33.656875 357.444281)scale(0.14 -0.14)">
       <use xlink:href="#DejaVuSerif-54"/>
       <use x="63.623047" xlink:href="#DejaVuSerif-48"/>
       <use x="127.246094" xlink:href="#DejaVuSerif-48"/>
       <use x="190.869141" xlink:href="#DejaVuSerif-48"/>
      </g>
     </g>
    </g>
    <g id="ytick_5">
     <g id="line2d_17">
      <path clip-path="url(#p80e83e7e8d)" d="M 76.286875 243.405375 
L 1080.686875 243.405375 
" style="fill:none;stroke:#b0b0b0;stroke-linecap:square;stroke-width:0.8;"/>
     </g>
     <g id="line2d_18">
      <g>
       <use style="stroke:#000000;stroke-width:0.8;" x="76.286875" xlink:href="#m50a56db226" y="243.405375"/>
      </g>
     </g>
     <g id="text_10">
      <!-- 8000 -->
      <defs>
       <path d="M 46.578125 19.921875 
Q 46.578125 27.734375 42.6875 32.046875 
Q 38.8125 36.375 31.78125 36.375 
Q 24.75 36.375 20.875 32.046875 
Q 17 27.734375 17 19.921875 
Q 17 12.0625 20.875 7.734375 
Q 24.75 3.421875 31.78125 3.421875 
Q 38.8125 3.421875 42.6875 7.734375 
Q 46.578125 12.0625 46.578125 19.921875 
z
M 44.578125 55.328125 
Q 44.578125 61.96875 41.203125 65.671875 
Q 37.84375 69.390625 31.78125 69.390625 
Q 25.78125 69.390625 22.390625 65.671875 
Q 19 61.96875 19 55.328125 
Q 19 48.640625 22.390625 44.921875 
Q 25.78125 41.21875 31.78125 41.21875 
Q 37.84375 41.21875 41.203125 44.921875 
Q 44.578125 48.640625 44.578125 55.328125 
z
M 39.3125 38.8125 
Q 47.609375 37.703125 52.25 32.6875 
Q 56.890625 27.6875 56.890625 19.921875 
Q 56.890625 9.671875 50.390625 4.125 
Q 43.890625 -1.421875 31.78125 -1.421875 
Q 19.734375 -1.421875 13.203125 4.125 
Q 6.6875 9.671875 6.6875 19.921875 
Q 6.6875 27.6875 11.328125 32.6875 
Q 15.96875 37.703125 24.3125 38.8125 
Q 16.9375 40.140625 13 44.40625 
Q 9.078125 48.6875 9.078125 55.328125 
Q 9.078125 64.109375 15.125 69.15625 
Q 21.1875 74.21875 31.78125 74.21875 
Q 42.390625 74.21875 48.4375 69.15625 
Q 54.5 64.109375 54.5 55.328125 
Q 54.5 48.6875 50.5625 44.40625 
Q 46.625 40.140625 39.3125 38.8125 
z
" id="DejaVuSerif-56"/>
      </defs>
      <g transform="translate(33.656875 248.724281)scale(0.14 -0.14)">
       <use xlink:href="#DejaVuSerif-56"/>
       <use x="63.623047" xlink:href="#DejaVuSerif-48"/>
       <use x="127.246094" xlink:href="#DejaVuSerif-48"/>
       <use x="190.869141" xlink:href="#DejaVuSerif-48"/>
      </g>
     </g>
    </g>
    <g id="ytick_6">
     <g id="line2d_19">
      <path clip-path="url(#p80e83e7e8d)" d="M 76.286875 134.685375 
L 1080.686875 134.685375 
" style="fill:none;stroke:#b0b0b0;stroke-linecap:square;stroke-width:0.8;"/>
     </g>
     <g id="line2d_20">
      <g>
       <use style="stroke:#000000;stroke-width:0.8;" x="76.286875" xlink:href="#m50a56db226" y="134.685375"/>
      </g>
     </g>
     <g id="text_11">
      <!-- 10000 -->
      <g transform="translate(24.749375 140.004281)scale(0.14 -0.14)">
       <use xlink:href="#DejaVuSerif-49"/>
       <use x="63.623047" xlink:href="#DejaVuSerif-48"/>
       <use x="127.246094" xlink:href="#DejaVuSerif-48"/>
       <use x="190.869141" xlink:href="#DejaVuSerif-48"/>
       <use x="254.492188" xlink:href="#DejaVuSerif-48"/>
      </g>
     </g>
    </g>
    <g id="ytick_7">
     <g id="line2d_21">
      <path clip-path="url(#p80e83e7e8d)" d="M 76.286875 25.965375 
L 1080.686875 25.965375 
" style="fill:none;stroke:#b0b0b0;stroke-linecap:square;stroke-width:0.8;"/>
     </g>
     <g id="line2d_22">
      <g>
       <use style="stroke:#000000;stroke-width:0.8;" x="76.286875" xlink:href="#m50a56db226" y="25.965375"/>
      </g>
     </g>
     <g id="text_12">
      <!-- 12000 -->
      <g transform="translate(24.749375 31.284281)scale(0.14 -0.14)">
       <use xlink:href="#DejaVuSerif-49"/>
       <use x="63.623047" xlink:href="#DejaVuSerif-50"/>
       <use x="127.246094" xlink:href="#DejaVuSerif-48"/>
       <use x="190.869141" xlink:href="#DejaVuSerif-48"/>
       <use x="254.492188" xlink:href="#DejaVuSerif-48"/>
      </g>
     </g>
    </g>
    <g id="text_13">
     <!-- Cumulative Counts -->
     <defs>
      <path d="M 70.515625 19.28125 
Q 67.28125 9.078125 59.6875 3.828125 
Q 52.09375 -1.421875 40.484375 -1.421875 
Q 33.34375 -1.421875 27.234375 1.015625 
Q 21.140625 3.46875 16.40625 8.203125 
Q 10.9375 13.671875 8.265625 20.625 
Q 5.609375 27.59375 5.609375 36.375 
Q 5.609375 53.375 15.421875 63.796875 
Q 25.25 74.21875 41.3125 74.21875 
Q 47.265625 74.21875 54 72.65625 
Q 60.75 71.09375 68.5 67.921875 
L 68.5 51.125 
L 62.984375 51.125 
Q 61.1875 60.296875 55.734375 64.640625 
Q 50.296875 69 40.484375 69 
Q 28.8125 69 22.796875 60.71875 
Q 16.796875 52.4375 16.796875 36.375 
Q 16.796875 20.359375 22.796875 12.078125 
Q 28.8125 3.8125 40.484375 3.8125 
Q 48.640625 3.8125 53.90625 7.6875 
Q 59.1875 11.578125 61.53125 19.28125 
z
" id="DejaVuSerif-67"/>
      <path d="M 35.40625 51.90625 
L 52.203125 51.90625 
L 52.203125 5.171875 
L 60.6875 5.171875 
L 60.6875 0 
L 43.21875 0 
L 43.21875 9.1875 
Q 40.71875 4 36.765625 1.28125 
Q 32.8125 -1.421875 27.59375 -1.421875 
Q 18.953125 -1.421875 14.875 3.484375 
Q 10.796875 8.40625 10.796875 18.890625 
L 10.796875 46.6875 
L 2.6875 46.6875 
L 2.6875 51.90625 
L 19.828125 51.90625 
L 19.828125 21.6875 
Q 19.828125 12.203125 22.140625 8.6875 
Q 24.46875 5.171875 30.421875 5.171875 
Q 36.671875 5.171875 39.9375 9.765625 
Q 43.21875 14.359375 43.21875 23.09375 
L 43.21875 46.6875 
L 35.40625 46.6875 
z
" id="DejaVuSerif-117"/>
      <path d="M 51.8125 41.796875 
Q 54.390625 47.515625 58.421875 50.421875 
Q 62.453125 53.328125 67.828125 53.328125 
Q 75.984375 53.328125 79.984375 48.265625 
Q 83.984375 43.21875 83.984375 33.015625 
L 83.984375 5.171875 
L 92.09375 5.171875 
L 92.09375 0 
L 67.1875 0 
L 67.1875 5.171875 
L 75 5.171875 
L 75 31.984375 
Q 75 39.9375 72.65625 43.3125 
Q 70.3125 46.6875 64.890625 46.6875 
Q 58.890625 46.6875 55.734375 42.140625 
Q 52.59375 37.59375 52.59375 28.90625 
L 52.59375 5.171875 
L 60.40625 5.171875 
L 60.40625 0 
L 35.796875 0 
L 35.796875 5.171875 
L 43.609375 5.171875 
L 43.609375 32.328125 
Q 43.609375 40.09375 41.265625 43.390625 
Q 38.921875 46.6875 33.5 46.6875 
Q 27.484375 46.6875 24.328125 42.140625 
Q 21.1875 37.59375 21.1875 28.90625 
L 21.1875 5.171875 
L 29 5.171875 
L 29 0 
L 4.109375 0 
L 4.109375 5.171875 
L 12.203125 5.171875 
L 12.203125 46.78125 
L 3.609375 46.78125 
L 3.609375 51.90625 
L 21.1875 51.90625 
L 21.1875 42.671875 
Q 23.6875 47.859375 27.53125 50.59375 
Q 31.390625 53.328125 36.28125 53.328125 
Q 42.328125 53.328125 46.375 50.3125 
Q 50.4375 47.3125 51.8125 41.796875 
z
" id="DejaVuSerif-109"/>
      <path d="M 20.515625 5.171875 
L 29 5.171875 
L 29 0 
L 2.875 0 
L 2.875 5.171875 
L 11.53125 5.171875 
L 11.53125 70.796875 
L 2.875 70.796875 
L 2.875 75.984375 
L 20.515625 75.984375 
z
" id="DejaVuSerif-108"/>
      <path d="M 9.71875 68.015625 
Q 9.71875 70.265625 11.34375 71.921875 
Q 12.984375 73.578125 15.28125 73.578125 
Q 17.53125 73.578125 19.15625 71.921875 
Q 20.796875 70.265625 20.796875 68.015625 
Q 20.796875 65.71875 19.1875 64.109375 
Q 17.578125 62.5 15.28125 62.5 
Q 12.984375 62.5 11.34375 64.109375 
Q 9.71875 65.71875 9.71875 68.015625 
z
M 21.1875 5.171875 
L 29.6875 5.171875 
L 29.6875 0 
L 3.609375 0 
L 3.609375 5.171875 
L 12.203125 5.171875 
L 12.203125 46.6875 
L 3.609375 46.6875 
L 3.609375 51.90625 
L 21.1875 51.90625 
z
" id="DejaVuSerif-105"/>
      <path d="M 24.703125 0 
L 5.609375 46.6875 
L -0.296875 46.6875 
L -0.296875 51.90625 
L 23.578125 51.90625 
L 23.578125 46.6875 
L 15.28125 46.6875 
L 29.890625 10.984375 
L 44.484375 46.6875 
L 36.71875 46.6875 
L 36.71875 51.90625 
L 56.203125 51.90625 
L 56.203125 46.6875 
L 50.390625 46.6875 
L 31.296875 0 
z
" id="DejaVuSerif-118"/>
      <path id="DejaVuSerif-32"/>
      <path d="M 30.078125 3.421875 
Q 37.3125 3.421875 40.984375 9.125 
Q 44.671875 14.84375 44.671875 25.984375 
Q 44.671875 37.109375 40.984375 42.796875 
Q 37.3125 48.484375 30.078125 48.484375 
Q 22.859375 48.484375 19.171875 42.796875 
Q 15.484375 37.109375 15.484375 25.984375 
Q 15.484375 14.84375 19.1875 9.125 
Q 22.90625 3.421875 30.078125 3.421875 
z
M 30.078125 -1.421875 
Q 18.75 -1.421875 11.859375 6.078125 
Q 4.984375 13.578125 4.984375 25.984375 
Q 4.984375 38.375 11.84375 45.84375 
Q 18.703125 53.328125 30.078125 53.328125 
Q 41.453125 53.328125 48.3125 45.84375 
Q 55.171875 38.375 55.171875 25.984375 
Q 55.171875 13.578125 48.3125 6.078125 
Q 41.453125 -1.421875 30.078125 -1.421875 
z
" id="DejaVuSerif-111"/>
      <path d="M 4.109375 0 
L 4.109375 5.171875 
L 12.203125 5.171875 
L 12.203125 46.6875 
L 3.609375 46.6875 
L 3.609375 51.90625 
L 21.1875 51.90625 
L 21.1875 42.671875 
Q 23.6875 47.953125 27.65625 50.640625 
Q 31.640625 53.328125 36.921875 53.328125 
Q 45.515625 53.328125 49.5625 48.390625 
Q 53.609375 43.453125 53.609375 33.015625 
L 53.609375 5.171875 
L 61.625 5.171875 
L 61.625 0 
L 36.8125 0 
L 36.8125 5.171875 
L 44.578125 5.171875 
L 44.578125 30.171875 
Q 44.578125 39.703125 42.234375 43.234375 
Q 39.890625 46.78125 33.984375 46.78125 
Q 27.734375 46.78125 24.453125 42.203125 
Q 21.1875 37.640625 21.1875 28.90625 
L 21.1875 5.171875 
L 29 5.171875 
L 29 0 
z
" id="DejaVuSerif-110"/>
     </defs>
     <g transform="translate(17.837812 419.916)rotate(-90)scale(0.14 -0.14)">
      <use xlink:href="#DejaVuSerif-67"/>
      <use x="76.513672" xlink:href="#DejaVuSerif-117"/>
      <use x="140.917969" xlink:href="#DejaVuSerif-109"/>
      <use x="235.742188" xlink:href="#DejaVuSerif-117"/>
      <use x="300.146484" xlink:href="#DejaVuSerif-108"/>
      <use x="332.128906" xlink:href="#DejaVuSerif-97"/>
      <use x="391.748047" xlink:href="#DejaVuSerif-116"/>
      <use x="431.933594" xlink:href="#DejaVuSerif-105"/>
      <use x="463.916016" xlink:href="#DejaVuSerif-118"/>
      <use x="520.410156" xlink:href="#DejaVuSerif-101"/>
      <use x="579.589844" xlink:href="#DejaVuSerif-32"/>
      <use x="611.376953" xlink:href="#DejaVuSerif-67"/>
      <use x="687.890625" xlink:href="#DejaVuSerif-111"/>
      <use x="748.095703" xlink:href="#DejaVuSerif-117"/>
      <use x="812.5" xlink:href="#DejaVuSerif-110"/>
      <use x="876.904297" xlink:href="#DejaVuSerif-116"/>
      <use x="917.089844" xlink:href="#DejaVuSerif-115"/>
     </g>
    </g>
   </g>
   <g id="line2d_23">
    <path clip-path="url(#p80e83e7e8d)" d="M 76.286875 678.231015 
L 116.462875 678.122295 
L 146.594875 678.067935 
L 156.638875 678.067935 
L 166.682875 677.687415 
L 206.858875 677.415615 
L 236.990875 676.980735 
L 257.078875 676.926375 
L 277.166875 676.763295 
L 337.430875 676.654575 
L 357.518875 676.600215 
L 367.562875 672.631935 
L 377.606875 667.195935 
L 387.650875 654.747495 
L 397.694875 645.560655 
L 407.738875 633.003495 
L 417.782875 625.175655 
L 427.826875 609.737415 
L 437.870875 582.285615 
L 447.914875 551.246055 
L 457.958875 507.051375 
L 468.002875 475.196415 
L 478.046875 442.634775 
L 488.090875 396.374415 
L 498.134875 372.727815 
L 508.178875 347.341695 
L 518.222875 319.889895 
L 528.266875 295.536615 
L 538.310875 280.696335 
L 548.354875 271.781295 
L 558.398875 269.878695 
L 568.442875 256.723575 
L 578.486875 250.526535 
L 588.530875 244.546935 
L 598.574875 238.730415 
L 618.662875 230.576415 
L 628.706875 226.010175 
L 638.750875 220.954695 
L 648.794875 212.691975 
L 658.838875 207.962655 
L 668.882875 199.971735 
L 678.926875 191.165415 
L 688.970875 191.165415 
L 699.014875 187.034055 
L 709.058875 181.598055 
L 719.102875 175.944615 
L 729.146875 170.997855 
L 739.190875 163.061295 
L 749.234875 157.353495 
L 759.278875 153.113415 
L 769.322875 146.318415 
L 779.366875 140.828055 
L 789.410875 135.990015 
L 799.454875 131.315055 
L 809.498875 126.205215 
L 819.542875 121.802055 
L 839.630875 116.692215 
L 849.674875 113.811135 
L 859.718875 111.691095 
L 869.762875 110.223375 
L 889.850875 106.853055 
L 909.938875 104.026335 
L 919.982875 102.558615 
L 940.070875 100.166775 
L 950.114875 99.188295 
L 960.158875 98.753415 
L 970.202875 98.046735 
L 990.290875 96.959535 
L 1000.334875 96.198495 
L 1030.466875 94.567695 
L 1040.510875 93.806655 
L 1050.554875 93.317415 
L 1060.598875 93.099975 
L 1070.642875 92.610735 
L 1080.686875 92.284575 
L 1088.886875 91.707636 
L 1088.886875 91.707636 
" style="fill:none;stroke:#f08080;stroke-dasharray:5.55,2.4;stroke-dashoffset:0;stroke-width:1.5;"/>
   </g>
   <g id="line2d_24">
    <path clip-path="url(#p80e83e7e8d)" d="M 367.562875 678.285375 
L 367.562875 25.965375 
" style="fill:none;stroke:#008080;stroke-linecap:square;stroke-width:1.5;"/>
   </g>
   <g id="line2d_25">
    <path clip-path="url(#p80e83e7e8d)" d="M 357.518875 678.285375 
L 357.518875 25.965375 
" style="fill:none;stroke:#4b0082;stroke-linecap:square;stroke-width:1.5;"/>
   </g>
   <g id="line2d_26">
    <path clip-path="url(#p80e83e7e8d)" d="M 357.518875 678.285375 
L 357.518875 25.965375 
" style="fill:none;stroke:#ffd700;stroke-linecap:square;stroke-width:1.5;"/>
   </g>
   <g id="line2d_27">
    <path clip-path="url(#p80e83e7e8d)" d="M 367.562875 678.285375 
L 367.562875 25.965375 
" style="fill:none;stroke:#a0522d;stroke-linecap:square;stroke-width:1.5;"/>
   </g>
   <g id="line2d_28">
    <path clip-path="url(#p80e83e7e8d)" d="M 367.562875 678.285375 
L 367.562875 25.965375 
" style="fill:none;stroke:#a0522d;stroke-linecap:square;stroke-width:1.5;"/>
   </g>
   <g id="line2d_29">
    <path clip-path="url(#p80e83e7e8d)" d="M 387.650875 678.285375 
L 387.650875 25.965375 
" style="fill:none;stroke:#32cd32;stroke-linecap:square;stroke-width:1.5;"/>
   </g>
   <g id="line2d_30">
    <path clip-path="url(#p80e83e7e8d)" d="M 417.782875 678.285375 
L 417.782875 25.965375 
" style="fill:none;stroke:#32cd32;stroke-linecap:square;stroke-width:1.5;"/>
   </g>
   <g id="line2d_31">
    <path clip-path="url(#p80e83e7e8d)" d="M 417.782875 678.285375 
L 417.782875 25.965375 
" style="fill:none;stroke:#ffd700;stroke-linecap:square;stroke-width:1.5;"/>
   </g>
   <g id="line2d_32">
    <path clip-path="url(#p80e83e7e8d)" d="M 417.782875 678.285375 
L 417.782875 25.965375 
" style="fill:none;stroke:#ffd700;stroke-linecap:square;stroke-width:1.5;"/>
   </g>
   <g id="line2d_33">
    <path clip-path="url(#p80e83e7e8d)" d="M 447.914875 678.285375 
L 447.914875 25.965375 
" style="fill:none;stroke:#a0522d;stroke-linecap:square;stroke-width:1.5;"/>
   </g>
   <g id="line2d_34">
    <path clip-path="url(#p80e83e7e8d)" d="M 638.750875 678.285375 
L 638.750875 25.965375 
" style="fill:none;stroke:#ffd700;stroke-linecap:square;stroke-width:1.5;"/>
   </g>
   <g id="line2d_35">
    <path clip-path="url(#p80e83e7e8d)" d="M 407.738875 678.285375 
L 407.738875 25.965375 
" style="fill:none;stroke:#ffd700;stroke-linecap:square;stroke-width:1.5;"/>
   </g>
   <g id="line2d_36">
    <path clip-path="url(#p80e83e7e8d)" d="M 427.826875 678.285375 
L 427.826875 25.965375 
" style="fill:none;stroke:#ffd700;stroke-linecap:square;stroke-width:1.5;"/>
   </g>
   <g id="line2d_37">
    <path clip-path="url(#p80e83e7e8d)" d="M 377.606875 678.285375 
L 377.606875 25.965375 
" style="fill:none;stroke:#4b0082;stroke-linecap:square;stroke-width:1.5;"/>
   </g>
   <g id="line2d_38">
    <path clip-path="url(#p80e83e7e8d)" d="M 397.694875 678.285375 
L 397.694875 25.965375 
" style="fill:none;stroke:#4169e1;stroke-linecap:square;stroke-width:1.5;"/>
   </g>
   <g id="line2d_39">
    <path clip-path="url(#p80e83e7e8d)" d="M 397.694875 678.285375 
L 397.694875 25.965375 
" style="fill:none;stroke:#4169e1;stroke-linecap:square;stroke-width:1.5;"/>
   </g>
   <g id="line2d_40">
    <path clip-path="url(#p80e83e7e8d)" d="M 488.090875 678.285375 
L 488.090875 25.965375 
" style="fill:none;stroke:#a0522d;stroke-linecap:square;stroke-width:1.5;"/>
   </g>
   <g id="line2d_41">
    <path clip-path="url(#p80e83e7e8d)" d="M 407.738875 678.285375 
L 407.738875 25.965375 
" style="fill:none;stroke:#4169e1;stroke-linecap:square;stroke-width:1.5;"/>
   </g>
   <g id="line2d_42">
    <path clip-path="url(#p80e83e7e8d)" d="M 407.738875 678.285375 
L 407.738875 25.965375 
" style="fill:none;stroke:#4169e1;stroke-linecap:square;stroke-width:1.5;"/>
   </g>
   <g id="line2d_43">
    <path clip-path="url(#p80e83e7e8d)" d="M 407.738875 678.285375 
L 407.738875 25.965375 
" style="fill:none;stroke:#4169e1;stroke-linecap:square;stroke-width:1.5;"/>
   </g>
   <g id="line2d_44">
    <path clip-path="url(#p80e83e7e8d)" d="M 206.858875 678.285375 
L 206.858875 25.965375 
" style="fill:none;stroke:#ffd700;stroke-linecap:square;stroke-width:1.5;"/>
   </g>
   <g id="line2d_45">
    <path clip-path="url(#p80e83e7e8d)" d="M 206.858875 678.285375 
L 206.858875 25.965375 
" style="fill:none;stroke:#ffd700;stroke-linecap:square;stroke-width:1.5;"/>
   </g>
   <g id="line2d_46">
    <path clip-path="url(#p80e83e7e8d)" d="M 287.210875 678.285375 
L 287.210875 25.965375 
" style="fill:none;stroke:#ffd700;stroke-linecap:square;stroke-width:1.5;"/>
   </g>
   <g id="line2d_47">
    <path clip-path="url(#p80e83e7e8d)" d="M 287.210875 678.285375 
L 287.210875 25.965375 
" style="fill:none;stroke:#ffd700;stroke-linecap:square;stroke-width:1.5;"/>
   </g>
   <g id="line2d_48">
    <path clip-path="url(#p80e83e7e8d)" d="M 287.210875 678.285375 
L 287.210875 25.965375 
" style="fill:none;stroke:#32cd32;stroke-linecap:square;stroke-width:1.5;"/>
   </g>
   <g id="line2d_49">
    <path clip-path="url(#p80e83e7e8d)" d="M 287.210875 678.285375 
L 287.210875 25.965375 
" style="fill:none;stroke:#ffd700;stroke-linecap:square;stroke-width:1.5;"/>
   </g>
   <g id="line2d_50">
    <path clip-path="url(#p80e83e7e8d)" d="M 337.430875 678.285375 
L 337.430875 25.965375 
" style="fill:none;stroke:#32cd32;stroke-linecap:square;stroke-width:1.5;"/>
   </g>
   <g id="line2d_51">
    <path clip-path="url(#p80e83e7e8d)" d="M 337.430875 678.285375 
L 337.430875 25.965375 
" style="fill:none;stroke:#32cd32;stroke-linecap:square;stroke-width:1.5;"/>
   </g>
   <g id="line2d_52">
    <path clip-path="url(#p80e83e7e8d)" d="M 367.562875 678.285375 
L 367.562875 25.965375 
" style="fill:none;stroke:#32cd32;stroke-linecap:square;stroke-width:1.5;"/>
   </g>
   <g id="line2d_53">
    <path clip-path="url(#p80e83e7e8d)" d="M 367.562875 678.285375 
L 367.562875 25.965375 
" style="fill:none;stroke:#32cd32;stroke-linecap:square;stroke-width:1.5;"/>
   </g>
   <g id="line2d_54">
    <path clip-path="url(#p80e83e7e8d)" d="M 377.606875 678.285375 
L 377.606875 25.965375 
" style="fill:none;stroke:#d8bfd8;stroke-linecap:square;stroke-width:1.5;"/>
   </g>
   <g id="line2d_55">
    <path clip-path="url(#p80e83e7e8d)" d="M 377.606875 678.285375 
L 377.606875 25.965375 
" style="fill:none;stroke:#32cd32;stroke-linecap:square;stroke-width:1.5;"/>
   </g>
   <g id="line2d_56">
    <path clip-path="url(#p80e83e7e8d)" d="M 397.694875 678.285375 
L 397.694875 25.965375 
" style="fill:none;stroke:#d8bfd8;stroke-linecap:square;stroke-width:1.5;"/>
   </g>
   <g id="line2d_57">
    <path clip-path="url(#p80e83e7e8d)" d="M 407.738875 678.285375 
L 407.738875 25.965375 
" style="fill:none;stroke:#d8bfd8;stroke-linecap:square;stroke-width:1.5;"/>
   </g>
   <g id="line2d_58">
    <path clip-path="url(#p80e83e7e8d)" d="M 407.738875 678.285375 
L 407.738875 25.965375 
" style="fill:none;stroke:#4169e1;stroke-linecap:square;stroke-width:1.5;"/>
   </g>
   <g id="line2d_59">
    <path clip-path="url(#p80e83e7e8d)" d="M 407.738875 678.285375 
L 407.738875 25.965375 
" style="fill:none;stroke:#4169e1;stroke-linecap:square;stroke-width:1.5;"/>
   </g>
   <g id="line2d_60">
    <path clip-path="url(#p80e83e7e8d)" d="M 427.826875 678.285375 
L 427.826875 25.965375 
" style="fill:none;stroke:#32cd32;stroke-linecap:square;stroke-width:1.5;"/>
   </g>
   <g id="line2d_61">
    <path clip-path="url(#p80e83e7e8d)" d="M 437.870875 678.285375 
L 437.870875 25.965375 
" style="fill:none;stroke:#32cd32;stroke-linecap:square;stroke-width:1.5;"/>
   </g>
   <g id="line2d_62">
    <path clip-path="url(#p80e83e7e8d)" d="M 437.870875 678.285375 
L 437.870875 25.965375 
" style="fill:none;stroke:#32cd32;stroke-linecap:square;stroke-width:1.5;"/>
   </g>
   <g id="line2d_63">
    <path clip-path="url(#p80e83e7e8d)" d="M 447.914875 678.285375 
L 447.914875 25.965375 
" style="fill:none;stroke:#32cd32;stroke-linecap:square;stroke-width:1.5;"/>
   </g>
   <g id="line2d_64">
    <path clip-path="url(#p80e83e7e8d)" d="M 447.914875 678.285375 
L 447.914875 25.965375 
" style="fill:none;stroke:#ffd700;stroke-linecap:square;stroke-width:1.5;"/>
   </g>
   <g id="line2d_65">
    <path clip-path="url(#p80e83e7e8d)" d="M 447.914875 678.285375 
L 447.914875 25.965375 
" style="fill:none;stroke:#4b0082;stroke-linecap:square;stroke-width:1.5;"/>
   </g>
   <g id="line2d_66">
    <path clip-path="url(#p80e83e7e8d)" d="M 457.958875 678.285375 
L 457.958875 25.965375 
" style="fill:none;stroke:#32cd32;stroke-linecap:square;stroke-width:1.5;"/>
   </g>
   <g id="line2d_67">
    <path clip-path="url(#p80e83e7e8d)" d="M 468.002875 678.285375 
L 468.002875 25.965375 
" style="fill:none;stroke:#32cd32;stroke-linecap:square;stroke-width:1.5;"/>
   </g>
   <g id="line2d_68">
    <path clip-path="url(#p80e83e7e8d)" d="M 468.002875 678.285375 
L 468.002875 25.965375 
" style="fill:none;stroke:#32cd32;stroke-linecap:square;stroke-width:1.5;"/>
   </g>
   <g id="line2d_69">
    <path clip-path="url(#p80e83e7e8d)" d="M 468.002875 678.285375 
L 468.002875 25.965375 
" style="fill:none;stroke:#32cd32;stroke-linecap:square;stroke-width:1.5;"/>
   </g>
   <g id="line2d_70">
    <path clip-path="url(#p80e83e7e8d)" d="M 468.002875 678.285375 
L 468.002875 25.965375 
" style="fill:none;stroke:#a0522d;stroke-linecap:square;stroke-width:1.5;"/>
   </g>
   <g id="line2d_71">
    <path clip-path="url(#p80e83e7e8d)" d="M 468.002875 678.285375 
L 468.002875 25.965375 
" style="fill:none;stroke:#32cd32;stroke-linecap:square;stroke-width:1.5;"/>
   </g>
   <g id="line2d_72">
    <path clip-path="url(#p80e83e7e8d)" d="M 478.046875 678.285375 
L 478.046875 25.965375 
" style="fill:none;stroke:#a0522d;stroke-linecap:square;stroke-width:1.5;"/>
   </g>
   <g id="line2d_73">
    <path clip-path="url(#p80e83e7e8d)" d="M 478.046875 678.285375 
L 478.046875 25.965375 
" style="fill:none;stroke:#a0522d;stroke-linecap:square;stroke-width:1.5;"/>
   </g>
   <g id="line2d_74">
    <path clip-path="url(#p80e83e7e8d)" d="M 478.046875 678.285375 
L 478.046875 25.965375 
" style="fill:none;stroke:#32cd32;stroke-linecap:square;stroke-width:1.5;"/>
   </g>
   <g id="line2d_75">
    <path clip-path="url(#p80e83e7e8d)" d="M 478.046875 678.285375 
L 478.046875 25.965375 
" style="fill:none;stroke:#32cd32;stroke-linecap:square;stroke-width:1.5;"/>
   </g>
   <g id="line2d_76">
    <path clip-path="url(#p80e83e7e8d)" d="M 478.046875 678.285375 
L 478.046875 25.965375 
" style="fill:none;stroke:#32cd32;stroke-linecap:square;stroke-width:1.5;"/>
   </g>
   <g id="line2d_77">
    <path clip-path="url(#p80e83e7e8d)" d="M 478.046875 678.285375 
L 478.046875 25.965375 
" style="fill:none;stroke:#32cd32;stroke-linecap:square;stroke-width:1.5;"/>
   </g>
   <g id="line2d_78">
    <path clip-path="url(#p80e83e7e8d)" d="M 528.266875 678.285375 
L 528.266875 25.965375 
" style="fill:none;stroke:#32cd32;stroke-linecap:square;stroke-width:1.5;"/>
   </g>
   <g id="line2d_79">
    <path clip-path="url(#p80e83e7e8d)" d="M 538.310875 678.285375 
L 538.310875 25.965375 
" style="fill:none;stroke:#32cd32;stroke-linecap:square;stroke-width:1.5;"/>
   </g>
   <g id="line2d_80">
    <path clip-path="url(#p80e83e7e8d)" d="M 568.442875 678.285375 
L 568.442875 25.965375 
" style="fill:none;stroke:#32cd32;stroke-linecap:square;stroke-width:1.5;"/>
   </g>
   <g id="line2d_81">
    <path clip-path="url(#p80e83e7e8d)" d="M 568.442875 678.285375 
L 568.442875 25.965375 
" style="fill:none;stroke:#ffd700;stroke-linecap:square;stroke-width:1.5;"/>
   </g>
   <g id="line2d_82">
    <path clip-path="url(#p80e83e7e8d)" d="M 568.442875 678.285375 
L 568.442875 25.965375 
" style="fill:none;stroke:#ffd700;stroke-linecap:square;stroke-width:1.5;"/>
   </g>
   <g id="line2d_83">
    <path clip-path="url(#p80e83e7e8d)" d="M 578.486875 678.285375 
L 578.486875 25.965375 
" style="fill:none;stroke:#32cd32;stroke-linecap:square;stroke-width:1.5;"/>
   </g>
   <g id="line2d_84">
    <path clip-path="url(#p80e83e7e8d)" d="M 608.618875 678.285375 
L 608.618875 25.965375 
" style="fill:none;stroke:#ffd700;stroke-linecap:square;stroke-width:1.5;"/>
   </g>
   <g id="line2d_85">
    <path clip-path="url(#p80e83e7e8d)" d="M 618.662875 678.285375 
L 618.662875 25.965375 
" style="fill:none;stroke:#32cd32;stroke-linecap:square;stroke-width:1.5;"/>
   </g>
   <g id="line2d_86">
    <path clip-path="url(#p80e83e7e8d)" d="M 618.662875 678.285375 
L 618.662875 25.965375 
" style="fill:none;stroke:#ffd700;stroke-linecap:square;stroke-width:1.5;"/>
   </g>
   <g id="line2d_87">
    <path clip-path="url(#p80e83e7e8d)" d="M 648.794875 678.285375 
L 648.794875 25.965375 
" style="fill:none;stroke:#ffd700;stroke-linecap:square;stroke-width:1.5;"/>
   </g>
   <g id="line2d_88">
    <path clip-path="url(#p80e83e7e8d)" d="M 648.794875 678.285375 
L 648.794875 25.965375 
" style="fill:none;stroke:#ffd700;stroke-linecap:square;stroke-width:1.5;"/>
   </g>
   <g id="line2d_89">
    <path clip-path="url(#p80e83e7e8d)" d="M 648.794875 678.285375 
L 648.794875 25.965375 
" style="fill:none;stroke:#32cd32;stroke-linecap:square;stroke-width:1.5;"/>
   </g>
   <g id="line2d_90">
    <path clip-path="url(#p80e83e7e8d)" d="M 658.838875 678.285375 
L 658.838875 25.965375 
" style="fill:none;stroke:#32cd32;stroke-linecap:square;stroke-width:1.5;"/>
   </g>
   <g id="line2d_91">
    <path clip-path="url(#p80e83e7e8d)" d="M 678.926875 678.285375 
L 678.926875 25.965375 
" style="fill:none;stroke:#ffd700;stroke-linecap:square;stroke-width:1.5;"/>
   </g>
   <g id="line2d_92">
    <path clip-path="url(#p80e83e7e8d)" d="M 678.926875 678.285375 
L 678.926875 25.965375 
" style="fill:none;stroke:#ffd700;stroke-linecap:square;stroke-width:1.5;"/>
   </g>
   <g id="line2d_93">
    <path clip-path="url(#p80e83e7e8d)" d="M 678.926875 678.285375 
L 678.926875 25.965375 
" style="fill:none;stroke:#32cd32;stroke-linecap:square;stroke-width:1.5;"/>
   </g>
   <g id="line2d_94">
    <path clip-path="url(#p80e83e7e8d)" d="M 678.926875 678.285375 
L 678.926875 25.965375 
" style="fill:none;stroke:#4169e1;stroke-linecap:square;stroke-width:1.5;"/>
   </g>
   <g id="line2d_95">
    <path clip-path="url(#p80e83e7e8d)" d="M 688.970875 678.285375 
L 688.970875 25.965375 
" style="fill:none;stroke:#32cd32;stroke-linecap:square;stroke-width:1.5;"/>
   </g>
   <g id="line2d_96">
    <path clip-path="url(#p80e83e7e8d)" d="M 709.058875 678.285375 
L 709.058875 25.965375 
" style="fill:none;stroke:#32cd32;stroke-linecap:square;stroke-width:1.5;"/>
   </g>
   <g id="line2d_97">
    <path clip-path="url(#p80e83e7e8d)" d="M 709.058875 678.285375 
L 709.058875 25.965375 
" style="fill:none;stroke:#32cd32;stroke-linecap:square;stroke-width:1.5;"/>
   </g>
   <g id="line2d_98">
    <path clip-path="url(#p80e83e7e8d)" d="M 709.058875 678.285375 
L 709.058875 25.965375 
" style="fill:none;stroke:#4b0082;stroke-linecap:square;stroke-width:1.5;"/>
   </g>
   <g id="line2d_99">
    <path clip-path="url(#p80e83e7e8d)" d="M 729.146875 678.285375 
L 729.146875 25.965375 
" style="fill:none;stroke:#ffd700;stroke-linecap:square;stroke-width:1.5;"/>
   </g>
   <g id="line2d_100">
    <path clip-path="url(#p80e83e7e8d)" d="M 759.278875 678.285375 
L 759.278875 25.965375 
" style="fill:none;stroke:#ffd700;stroke-linecap:square;stroke-width:1.5;"/>
   </g>
   <g id="line2d_101">
    <path clip-path="url(#p80e83e7e8d)" d="M 779.366875 678.285375 
L 779.366875 25.965375 
" style="fill:none;stroke:#ffd700;stroke-linecap:square;stroke-width:1.5;"/>
   </g>
   <g id="line2d_102">
    <path clip-path="url(#p80e83e7e8d)" d="M 779.366875 678.285375 
L 779.366875 25.965375 
" style="fill:none;stroke:#ffd700;stroke-linecap:square;stroke-width:1.5;"/>
   </g>
   <g id="line2d_103">
    <path clip-path="url(#p80e83e7e8d)" d="M 789.410875 678.285375 
L 789.410875 25.965375 
" style="fill:none;stroke:#a0522d;stroke-linecap:square;stroke-width:1.5;"/>
   </g>
   <g id="line2d_104">
    <path clip-path="url(#p80e83e7e8d)" d="M 809.498875 678.285375 
L 809.498875 25.965375 
" style="fill:none;stroke:#32cd32;stroke-linecap:square;stroke-width:1.5;"/>
   </g>
   <g id="line2d_105">
    <path clip-path="url(#p80e83e7e8d)" d="M 809.498875 678.285375 
L 809.498875 25.965375 
" style="fill:none;stroke:#32cd32;stroke-linecap:square;stroke-width:1.5;"/>
   </g>
   <g id="line2d_106">
    <path clip-path="url(#p80e83e7e8d)" d="M 809.498875 678.285375 
L 809.498875 25.965375 
" style="fill:none;stroke:#32cd32;stroke-linecap:square;stroke-width:1.5;"/>
   </g>
   <g id="line2d_107">
    <path clip-path="url(#p80e83e7e8d)" d="M 809.498875 678.285375 
L 809.498875 25.965375 
" style="fill:none;stroke:#32cd32;stroke-linecap:square;stroke-width:1.5;"/>
   </g>
   <g id="line2d_108">
    <path clip-path="url(#p80e83e7e8d)" d="M 819.542875 678.285375 
L 819.542875 25.965375 
" style="fill:none;stroke:#4b0082;stroke-linecap:square;stroke-width:1.5;"/>
   </g>
   <g id="line2d_109">
    <path clip-path="url(#p80e83e7e8d)" d="M 829.586875 678.285375 
L 829.586875 25.965375 
" style="fill:none;stroke:#a0522d;stroke-linecap:square;stroke-width:1.5;"/>
   </g>
   <g id="line2d_110">
    <path clip-path="url(#p80e83e7e8d)" d="M 829.586875 678.285375 
L 829.586875 25.965375 
" style="fill:none;stroke:#32cd32;stroke-linecap:square;stroke-width:1.5;"/>
   </g>
   <g id="line2d_111">
    <path clip-path="url(#p80e83e7e8d)" d="M 829.586875 678.285375 
L 829.586875 25.965375 
" style="fill:none;stroke:#a0522d;stroke-linecap:square;stroke-width:1.5;"/>
   </g>
   <g id="line2d_112">
    <path clip-path="url(#p80e83e7e8d)" d="M 829.586875 678.285375 
L 829.586875 25.965375 
" style="fill:none;stroke:#a0522d;stroke-linecap:square;stroke-width:1.5;"/>
   </g>
   <g id="line2d_113">
    <path clip-path="url(#p80e83e7e8d)" d="M 849.674875 678.285375 
L 849.674875 25.965375 
" style="fill:none;stroke:#a0522d;stroke-linecap:square;stroke-width:1.5;"/>
   </g>
   <g id="line2d_114">
    <path clip-path="url(#p80e83e7e8d)" d="M 849.674875 678.285375 
L 849.674875 25.965375 
" style="fill:none;stroke:#a0522d;stroke-linecap:square;stroke-width:1.5;"/>
   </g>
   <g id="line2d_115">
    <path clip-path="url(#p80e83e7e8d)" d="M 869.762875 678.285375 
L 869.762875 25.965375 
" style="fill:none;stroke:#32cd32;stroke-linecap:square;stroke-width:1.5;"/>
   </g>
   <g id="line2d_116">
    <path clip-path="url(#p80e83e7e8d)" d="M 879.806875 678.285375 
L 879.806875 25.965375 
" style="fill:none;stroke:#32cd32;stroke-linecap:square;stroke-width:1.5;"/>
   </g>
   <g id="line2d_117">
    <path clip-path="url(#p80e83e7e8d)" d="M 879.806875 678.285375 
L 879.806875 25.965375 
" style="fill:none;stroke:#4169e1;stroke-linecap:square;stroke-width:1.5;"/>
   </g>
   <g id="line2d_118">
    <path clip-path="url(#p80e83e7e8d)" d="M 879.806875 678.285375 
L 879.806875 25.965375 
" style="fill:none;stroke:#32cd32;stroke-linecap:square;stroke-width:1.5;"/>
   </g>
   <g id="line2d_119">
    <path clip-path="url(#p80e83e7e8d)" d="M 879.806875 678.285375 
L 879.806875 25.965375 
" style="fill:none;stroke:#32cd32;stroke-linecap:square;stroke-width:1.5;"/>
   </g>
   <g id="line2d_120">
    <path clip-path="url(#p80e83e7e8d)" d="M 889.850875 678.285375 
L 889.850875 25.965375 
" style="fill:none;stroke:#ffd700;stroke-linecap:square;stroke-width:1.5;"/>
   </g>
   <g id="line2d_121">
    <path clip-path="url(#p80e83e7e8d)" d="M 930.026875 678.285375 
L 930.026875 25.965375 
" style="fill:none;stroke:#a0522d;stroke-linecap:square;stroke-width:1.5;"/>
   </g>
   <g id="line2d_122">
    <path clip-path="url(#p80e83e7e8d)" d="M 940.070875 678.285375 
L 940.070875 25.965375 
" style="fill:none;stroke:#4b0082;stroke-linecap:square;stroke-width:1.5;"/>
   </g>
   <g id="line2d_123">
    <path clip-path="url(#p80e83e7e8d)" d="M 970.202875 678.285375 
L 970.202875 25.965375 
" style="fill:none;stroke:#8b008b;stroke-linecap:square;stroke-width:1.5;"/>
   </g>
   <g id="line2d_124">
    <path clip-path="url(#p80e83e7e8d)" d="M 970.202875 678.285375 
L 970.202875 25.965375 
" style="fill:none;stroke:#8b008b;stroke-linecap:square;stroke-width:1.5;"/>
   </g>
   <g id="patch_3">
    <path d="M 76.286875 678.285375 
L 76.286875 25.965375 
" style="fill:none;stroke:#000000;stroke-linecap:square;stroke-linejoin:miter;stroke-width:0.8;"/>
   </g>
   <g id="patch_4">
    <path d="M 1080.686875 678.285375 
L 1080.686875 25.965375 
" style="fill:none;stroke:#000000;stroke-linecap:square;stroke-linejoin:miter;stroke-width:0.8;"/>
   </g>
   <g id="patch_5">
    <path d="M 76.286875 678.285375 
L 1080.686875 678.285375 
" style="fill:none;stroke:#000000;stroke-linecap:square;stroke-linejoin:miter;stroke-width:0.8;"/>
   </g>
   <g id="patch_6">
    <path d="M 76.286875 25.965375 
L 1080.686875 25.965375 
" style="fill:none;stroke:#000000;stroke-linecap:square;stroke-linejoin:miter;stroke-width:0.8;"/>
   </g>
   <g id="text_14">
    <!-- Visualization of Infected Persons and NPIs in South Korea -->
    <defs>
     <path d="M 17.484375 67.671875 
L 39.015625 11.71875 
L 60.5 67.671875 
L 52.296875 67.671875 
L 52.296875 72.90625 
L 73.6875 72.90625 
L 73.6875 67.671875 
L 66.609375 67.671875 
L 40.578125 0 
L 32.171875 0 
L 6.296875 67.671875 
L -0.984375 67.671875 
L -0.984375 72.90625 
L 25.59375 72.90625 
L 25.59375 67.671875 
z
" id="DejaVuSerif-86"/>
     <path d="M 4 0 
L 4 4.203125 
L 36.53125 46.6875 
L 10.796875 46.6875 
L 10.796875 37.703125 
L 5.609375 37.703125 
L 5.609375 51.90625 
L 48.09375 51.90625 
L 48.09375 47.703125 
L 15.578125 5.171875 
L 43.796875 5.171875 
L 43.796875 14.59375 
L 49.03125 14.59375 
L 49.03125 0 
z
" id="DejaVuSerif-122"/>
     <path d="M 43.015625 63.71875 
L 38.28125 63.71875 
Q 38.234375 67.390625 36.203125 69.28125 
Q 34.1875 71.1875 30.328125 71.1875 
Q 25.296875 71.1875 23.234375 68.421875 
Q 21.1875 65.671875 21.1875 58.59375 
L 21.1875 51.90625 
L 35.6875 51.90625 
L 35.6875 46.6875 
L 21.1875 46.6875 
L 21.1875 5.171875 
L 32.71875 5.171875 
L 32.71875 0 
L 3.609375 0 
L 3.609375 5.171875 
L 12.203125 5.171875 
L 12.203125 46.6875 
L 3.609375 46.6875 
L 3.609375 51.90625 
L 12.203125 51.90625 
L 12.203125 58.40625 
Q 12.203125 67.09375 16.71875 71.53125 
Q 21.234375 75.984375 29.984375 75.984375 
Q 33.25 75.984375 36.515625 75.390625 
Q 39.796875 74.8125 43.015625 73.578125 
z
" id="DejaVuSerif-102"/>
     <path d="M 24.703125 5.171875 
L 33.984375 5.171875 
L 33.984375 0 
L 5.515625 0 
L 5.515625 5.171875 
L 14.796875 5.171875 
L 14.796875 67.671875 
L 5.515625 67.671875 
L 5.515625 72.90625 
L 33.984375 72.90625 
L 33.984375 67.671875 
L 24.703125 67.671875 
z
" id="DejaVuSerif-73"/>
     <path d="M 51.421875 15.578125 
Q 49.515625 7.28125 44.09375 2.921875 
Q 38.671875 -1.421875 30.078125 -1.421875 
Q 18.75 -1.421875 11.859375 6.078125 
Q 4.984375 13.578125 4.984375 25.984375 
Q 4.984375 38.421875 11.859375 45.875 
Q 18.75 53.328125 30.078125 53.328125 
Q 35.015625 53.328125 39.890625 52.171875 
Q 44.78125 51.03125 49.703125 48.6875 
L 49.703125 35.40625 
L 44.484375 35.40625 
Q 43.453125 42.234375 40.015625 45.359375 
Q 36.578125 48.484375 30.171875 48.484375 
Q 22.90625 48.484375 19.1875 42.84375 
Q 15.484375 37.203125 15.484375 25.984375 
Q 15.484375 14.75 19.171875 9.078125 
Q 22.859375 3.421875 30.171875 3.421875 
Q 35.984375 3.421875 39.453125 6.4375 
Q 42.921875 9.46875 44.1875 15.578125 
z
" id="DejaVuSerif-99"/>
     <path d="M 52.484375 5.171875 
L 61.078125 5.171875 
L 61.078125 0 
L 43.5 0 
L 43.5 8.109375 
Q 40.875 3.21875 36.796875 0.890625 
Q 32.71875 -1.421875 26.703125 -1.421875 
Q 17.140625 -1.421875 11.0625 6.171875 
Q 4.984375 13.765625 4.984375 25.984375 
Q 4.984375 38.1875 11.03125 45.75 
Q 17.09375 53.328125 26.703125 53.328125 
Q 32.71875 53.328125 36.796875 51 
Q 40.875 48.6875 43.5 43.796875 
L 43.5 70.796875 
L 35.015625 70.796875 
L 35.015625 75.984375 
L 52.484375 75.984375 
z
M 43.5 23.390625 
L 43.5 28.515625 
Q 43.5 37.84375 39.90625 42.765625 
Q 36.328125 47.703125 29.5 47.703125 
Q 22.5625 47.703125 19.015625 42.234375 
Q 15.484375 36.765625 15.484375 25.984375 
Q 15.484375 15.234375 19.015625 9.71875 
Q 22.5625 4.203125 29.5 4.203125 
Q 36.328125 4.203125 39.90625 9.109375 
Q 43.5 14.015625 43.5 23.390625 
z
" id="DejaVuSerif-100"/>
     <path d="M 24.703125 37.109375 
L 37.59375 37.109375 
Q 44.875 37.109375 48.671875 41.03125 
Q 52.484375 44.96875 52.484375 52.390625 
Q 52.484375 59.859375 48.671875 63.765625 
Q 44.875 67.671875 37.59375 67.671875 
L 24.703125 67.671875 
z
M 5.515625 0 
L 5.515625 5.171875 
L 14.796875 5.171875 
L 14.796875 67.671875 
L 5.515625 67.671875 
L 5.515625 72.90625 
L 39.984375 72.90625 
Q 50.921875 72.90625 57.3125 67.359375 
Q 63.71875 61.8125 63.71875 52.390625 
Q 63.71875 43.015625 57.3125 37.453125 
Q 50.921875 31.890625 39.984375 31.890625 
L 24.703125 31.890625 
L 24.703125 5.171875 
L 35.984375 5.171875 
L 35.984375 0 
z
" id="DejaVuSerif-80"/>
     <path d="M 47.796875 52 
L 47.796875 39.015625 
L 42.625 39.015625 
Q 42.390625 42.875 40.484375 44.78125 
Q 38.578125 46.6875 34.90625 46.6875 
Q 28.265625 46.6875 24.71875 42.09375 
Q 21.1875 37.5 21.1875 28.90625 
L 21.1875 5.171875 
L 31.59375 5.171875 
L 31.59375 0 
L 4.109375 0 
L 4.109375 5.171875 
L 12.203125 5.171875 
L 12.203125 46.78125 
L 3.609375 46.78125 
L 3.609375 51.90625 
L 21.1875 51.90625 
L 21.1875 42.671875 
Q 23.828125 48.09375 27.96875 50.703125 
Q 32.125 53.328125 38.09375 53.328125 
Q 40.28125 53.328125 42.703125 52.984375 
Q 45.125 52.640625 47.796875 52 
z
" id="DejaVuSerif-114"/>
     <path d="M 4.890625 0 
L 4.890625 5.171875 
L 14.703125 5.171875 
L 14.703125 67.671875 
L 4.890625 67.671875 
L 4.890625 72.90625 
L 23.578125 72.90625 
L 67.28125 15.375 
L 67.28125 67.671875 
L 57.515625 67.671875 
L 57.515625 72.90625 
L 83.109375 72.90625 
L 83.109375 67.671875 
L 73.296875 67.671875 
L 73.296875 -1.421875 
L 67.390625 -1.421875 
L 20.703125 60.015625 
L 20.703125 5.171875 
L 30.515625 5.171875 
L 30.515625 0 
z
" id="DejaVuSerif-78"/>
     <path d="M 9.28125 3.515625 
L 9.28125 20.125 
L 14.890625 20.0625 
Q 15.140625 11.765625 19.703125 7.78125 
Q 24.265625 3.8125 33.59375 3.8125 
Q 42.28125 3.8125 46.84375 7.25 
Q 51.421875 10.6875 51.421875 17.28125 
Q 51.421875 22.5625 48.65625 25.390625 
Q 45.90625 28.21875 37.015625 30.90625 
L 27.390625 33.796875 
Q 16.9375 36.96875 12.671875 41.703125 
Q 8.40625 46.4375 8.40625 54.6875 
Q 8.40625 63.96875 14.984375 69.09375 
Q 21.578125 74.21875 33.5 74.21875 
Q 38.578125 74.21875 44.625 73.109375 
Q 50.6875 72.015625 57.515625 69.921875 
L 57.515625 54.390625 
L 52 54.390625 
Q 51.171875 62.109375 46.84375 65.546875 
Q 42.53125 69 33.6875 69 
Q 25.984375 69 21.953125 65.84375 
Q 17.921875 62.703125 17.921875 56.6875 
Q 17.921875 51.46875 20.9375 48.484375 
Q 23.96875 45.515625 33.796875 42.578125 
L 42.828125 39.890625 
Q 52.734375 36.921875 56.953125 32.296875 
Q 61.1875 27.6875 61.1875 19.921875 
Q 61.1875 9.328125 54.390625 3.953125 
Q 47.609375 -1.421875 34.1875 -1.421875 
Q 28.171875 -1.421875 21.9375 -0.1875 
Q 15.71875 1.03125 9.28125 3.515625 
z
" id="DejaVuSerif-83"/>
     <path d="M 4.109375 0 
L 4.109375 5.171875 
L 12.203125 5.171875 
L 12.203125 70.796875 
L 3.609375 70.796875 
L 3.609375 75.984375 
L 21.1875 75.984375 
L 21.1875 42.671875 
Q 23.6875 47.953125 27.65625 50.640625 
Q 31.640625 53.328125 36.921875 53.328125 
Q 45.515625 53.328125 49.5625 48.390625 
Q 53.609375 43.453125 53.609375 33.015625 
L 53.609375 5.171875 
L 61.625 5.171875 
L 61.625 0 
L 36.8125 0 
L 36.8125 5.171875 
L 44.578125 5.171875 
L 44.578125 30.171875 
Q 44.578125 39.703125 42.25 43.1875 
Q 39.9375 46.6875 33.984375 46.6875 
Q 27.734375 46.6875 24.453125 42.140625 
Q 21.1875 37.59375 21.1875 28.90625 
L 21.1875 5.171875 
L 29 5.171875 
L 29 0 
z
" id="DejaVuSerif-104"/>
     <path d="M 5.515625 0 
L 5.515625 5.171875 
L 14.796875 5.171875 
L 14.796875 67.671875 
L 5.515625 67.671875 
L 5.515625 72.90625 
L 33.984375 72.90625 
L 33.984375 67.671875 
L 24.703125 67.671875 
L 24.703125 40.09375 
L 56.109375 67.671875 
L 48.1875 67.671875 
L 48.1875 72.90625 
L 72.40625 72.90625 
L 72.40625 67.671875 
L 64.203125 67.671875 
L 32.90625 40.1875 
L 67.921875 5.171875 
L 76.21875 5.171875 
L 76.21875 0 
L 59.28125 0 
L 24.703125 34.625 
L 24.703125 5.171875 
L 33.984375 5.171875 
L 33.984375 0 
z
" id="DejaVuSerif-75"/>
    </defs>
    <g transform="translate(330.3325 19.965375)scale(0.168 -0.168)">
     <use xlink:href="#DejaVuSerif-86"/>
     <use x="72.201172" xlink:href="#DejaVuSerif-105"/>
     <use x="104.183594" xlink:href="#DejaVuSerif-115"/>
     <use x="155.501953" xlink:href="#DejaVuSerif-117"/>
     <use x="219.90625" xlink:href="#DejaVuSerif-97"/>
     <use x="279.525391" xlink:href="#DejaVuSerif-108"/>
     <use x="311.507812" xlink:href="#DejaVuSerif-105"/>
     <use x="343.490234" xlink:href="#DejaVuSerif-122"/>
     <use x="396.175781" xlink:href="#DejaVuSerif-97"/>
     <use x="455.794922" xlink:href="#DejaVuSerif-116"/>
     <use x="495.980469" xlink:href="#DejaVuSerif-105"/>
     <use x="527.962891" xlink:href="#DejaVuSerif-111"/>
     <use x="588.167969" xlink:href="#DejaVuSerif-110"/>
     <use x="652.572266" xlink:href="#DejaVuSerif-32"/>
     <use x="684.359375" xlink:href="#DejaVuSerif-111"/>
     <use x="744.564453" xlink:href="#DejaVuSerif-102"/>
     <use x="781.576172" xlink:href="#DejaVuSerif-32"/>
     <use x="813.363281" xlink:href="#DejaVuSerif-73"/>
     <use x="852.865234" xlink:href="#DejaVuSerif-110"/>
     <use x="917.269531" xlink:href="#DejaVuSerif-102"/>
     <use x="954.28125" xlink:href="#DejaVuSerif-101"/>
     <use x="1013.460938" xlink:href="#DejaVuSerif-99"/>
     <use x="1069.466797" xlink:href="#DejaVuSerif-116"/>
     <use x="1109.652344" xlink:href="#DejaVuSerif-101"/>
     <use x="1168.832031" xlink:href="#DejaVuSerif-100"/>
     <use x="1232.845703" xlink:href="#DejaVuSerif-32"/>
     <use x="1264.632812" xlink:href="#DejaVuSerif-80"/>
     <use x="1331.855469" xlink:href="#DejaVuSerif-101"/>
     <use x="1391.035156" xlink:href="#DejaVuSerif-114"/>
     <use x="1438.837891" xlink:href="#DejaVuSerif-115"/>
     <use x="1490.15625" xlink:href="#DejaVuSerif-111"/>
     <use x="1550.361328" xlink:href="#DejaVuSerif-110"/>
     <use x="1614.765625" xlink:href="#DejaVuSerif-115"/>
     <use x="1666.083984" xlink:href="#DejaVuSerif-32"/>
     <use x="1697.871094" xlink:href="#DejaVuSerif-97"/>
     <use x="1757.490234" xlink:href="#DejaVuSerif-110"/>
     <use x="1821.894531" xlink:href="#DejaVuSerif-100"/>
     <use x="1885.908203" xlink:href="#DejaVuSerif-32"/>
     <use x="1917.695312" xlink:href="#DejaVuSerif-78"/>
     <use x="2005.195312" xlink:href="#DejaVuSerif-80"/>
     <use x="2072.480469" xlink:href="#DejaVuSerif-73"/>
     <use x="2111.982422" xlink:href="#DejaVuSerif-115"/>
     <use x="2163.300781" xlink:href="#DejaVuSerif-32"/>
     <use x="2195.087891" xlink:href="#DejaVuSerif-105"/>
     <use x="2227.070312" xlink:href="#DejaVuSerif-110"/>
     <use x="2291.474609" xlink:href="#DejaVuSerif-32"/>
     <use x="2323.261719" xlink:href="#DejaVuSerif-83"/>
     <use x="2391.767578" xlink:href="#DejaVuSerif-111"/>
     <use x="2451.972656" xlink:href="#DejaVuSerif-117"/>
     <use x="2516.376953" xlink:href="#DejaVuSerif-116"/>
     <use x="2556.5625" xlink:href="#DejaVuSerif-104"/>
     <use x="2620.966797" xlink:href="#DejaVuSerif-32"/>
     <use x="2652.753906" xlink:href="#DejaVuSerif-75"/>
     <use x="2727.429688" xlink:href="#DejaVuSerif-111"/>
     <use x="2787.634766" xlink:href="#DejaVuSerif-114"/>
     <use x="2835.4375" xlink:href="#DejaVuSerif-101"/>
     <use x="2894.617188" xlink:href="#DejaVuSerif-97"/>
    </g>
   </g>
   <g id="legend_1">
    <g id="patch_7">
     <path d="M 86.086875 222.906 
L 539.77 222.906 
Q 542.57 222.906 542.57 220.106 
L 542.57 35.765375 
Q 542.57 32.965375 539.77 32.965375 
L 86.086875 32.965375 
Q 83.286875 32.965375 83.286875 35.765375 
L 83.286875 220.106 
Q 83.286875 222.906 86.086875 222.906 
z
" style="fill:#ffffff;opacity:0.8;stroke:#cccccc;stroke-linejoin:miter;"/>
    </g>
    <g id="line2d_125">
     <path d="M 88.886875 44.303187 
L 116.886875 44.303187 
" style="fill:none;stroke:#f08080;stroke-dasharray:5.55,2.4;stroke-dashoffset:0;stroke-width:1.5;"/>
    </g>
    <g id="line2d_126"/>
    <g id="text_15">
     <!-- Infected -->
     <g transform="translate(128.086875 49.203187)scale(0.14 -0.14)">
      <use xlink:href="#DejaVuSerif-73"/>
      <use x="39.501953" xlink:href="#DejaVuSerif-110"/>
      <use x="103.90625" xlink:href="#DejaVuSerif-102"/>
      <use x="140.917969" xlink:href="#DejaVuSerif-101"/>
      <use x="200.097656" xlink:href="#DejaVuSerif-99"/>
      <use x="256.103516" xlink:href="#DejaVuSerif-116"/>
      <use x="296.289062" xlink:href="#DejaVuSerif-101"/>
      <use x="355.46875" xlink:href="#DejaVuSerif-100"/>
     </g>
    </g>
    <g id="line2d_127">
     <path d="M 88.886875 64.852562 
L 116.886875 64.852562 
" style="fill:none;stroke:#008080;stroke-linecap:square;stroke-width:1.5;"/>
    </g>
    <g id="line2d_128"/>
    <g id="text_16">
     <!-- Environmental measures -->
     <defs>
      <path d="M 5.515625 0 
L 5.515625 5.171875 
L 14.796875 5.171875 
L 14.796875 67.671875 
L 5.515625 67.671875 
L 5.515625 72.90625 
L 64.203125 72.90625 
L 64.203125 56.6875 
L 58.203125 56.6875 
L 58.203125 66.890625 
L 24.703125 66.890625 
L 24.703125 42.484375 
L 48.578125 42.484375 
L 48.578125 51.609375 
L 54.59375 51.609375 
L 54.59375 27.390625 
L 48.578125 27.390625 
L 48.578125 36.53125 
L 24.703125 36.53125 
L 24.703125 6 
L 58.984375 6 
L 58.984375 16.21875 
L 64.984375 16.21875 
L 64.984375 0 
z
" id="DejaVuSerif-69"/>
     </defs>
     <g transform="translate(128.086875 69.752562)scale(0.14 -0.14)">
      <use xlink:href="#DejaVuSerif-69"/>
      <use x="72.998047" xlink:href="#DejaVuSerif-110"/>
      <use x="137.402344" xlink:href="#DejaVuSerif-118"/>
      <use x="193.896484" xlink:href="#DejaVuSerif-105"/>
      <use x="225.878906" xlink:href="#DejaVuSerif-114"/>
      <use x="273.681641" xlink:href="#DejaVuSerif-111"/>
      <use x="333.886719" xlink:href="#DejaVuSerif-110"/>
      <use x="398.291016" xlink:href="#DejaVuSerif-109"/>
      <use x="493.115234" xlink:href="#DejaVuSerif-101"/>
      <use x="552.294922" xlink:href="#DejaVuSerif-110"/>
      <use x="616.699219" xlink:href="#DejaVuSerif-116"/>
      <use x="656.884766" xlink:href="#DejaVuSerif-97"/>
      <use x="716.503906" xlink:href="#DejaVuSerif-108"/>
      <use x="748.486328" xlink:href="#DejaVuSerif-32"/>
      <use x="780.273438" xlink:href="#DejaVuSerif-109"/>
      <use x="875.097656" xlink:href="#DejaVuSerif-101"/>
      <use x="934.277344" xlink:href="#DejaVuSerif-97"/>
      <use x="993.896484" xlink:href="#DejaVuSerif-115"/>
      <use x="1045.214844" xlink:href="#DejaVuSerif-117"/>
      <use x="1109.619141" xlink:href="#DejaVuSerif-114"/>
      <use x="1157.421875" xlink:href="#DejaVuSerif-101"/>
      <use x="1216.601562" xlink:href="#DejaVuSerif-115"/>
     </g>
    </g>
    <g id="line2d_129">
     <path d="M 88.886875 85.401937 
L 116.886875 85.401937 
" style="fill:none;stroke:#4b0082;stroke-linecap:square;stroke-width:1.5;"/>
    </g>
    <g id="line2d_130"/>
    <g id="text_17">
     <!-- Resource allocation -->
     <defs>
      <path d="M 47.90625 36.1875 
Q 51.3125 35.25 53.78125 33.03125 
Q 56.25 30.8125 58.203125 26.8125 
L 68.796875 5.171875 
L 77.6875 5.171875 
L 77.6875 0 
L 60.5 0 
L 49.125 23.1875 
Q 45.84375 29.9375 43.109375 31.90625 
Q 40.375 33.890625 35.59375 33.890625 
L 24.703125 33.890625 
L 24.703125 5.171875 
L 35.015625 5.171875 
L 35.015625 0 
L 5.515625 0 
L 5.515625 5.171875 
L 14.796875 5.171875 
L 14.796875 67.671875 
L 5.515625 67.671875 
L 5.515625 72.90625 
L 42.484375 72.90625 
Q 53.125 72.90625 58.90625 67.828125 
Q 64.703125 62.75 64.703125 53.421875 
Q 64.703125 45.90625 60.46875 41.578125 
Q 56.25 37.25 47.90625 36.1875 
z
M 24.703125 39.109375 
L 39.109375 39.109375 
Q 46.484375 39.109375 50 42.59375 
Q 53.515625 46.09375 53.515625 53.421875 
Q 53.515625 60.75 50 64.203125 
Q 46.484375 67.671875 39.109375 67.671875 
L 24.703125 67.671875 
z
" id="DejaVuSerif-82"/>
     </defs>
     <g transform="translate(128.086875 90.301937)scale(0.14 -0.14)">
      <use xlink:href="#DejaVuSerif-82"/>
      <use x="75.292969" xlink:href="#DejaVuSerif-101"/>
      <use x="134.472656" xlink:href="#DejaVuSerif-115"/>
      <use x="185.791016" xlink:href="#DejaVuSerif-111"/>
      <use x="245.996094" xlink:href="#DejaVuSerif-117"/>
      <use x="310.400391" xlink:href="#DejaVuSerif-114"/>
      <use x="358.203125" xlink:href="#DejaVuSerif-99"/>
      <use x="414.208984" xlink:href="#DejaVuSerif-101"/>
      <use x="473.388672" xlink:href="#DejaVuSerif-32"/>
      <use x="505.175781" xlink:href="#DejaVuSerif-97"/>
      <use x="564.794922" xlink:href="#DejaVuSerif-108"/>
      <use x="596.777344" xlink:href="#DejaVuSerif-108"/>
      <use x="628.759766" xlink:href="#DejaVuSerif-111"/>
      <use x="688.964844" xlink:href="#DejaVuSerif-99"/>
      <use x="744.970703" xlink:href="#DejaVuSerif-97"/>
      <use x="804.589844" xlink:href="#DejaVuSerif-116"/>
      <use x="844.775391" xlink:href="#DejaVuSerif-105"/>
      <use x="876.757812" xlink:href="#DejaVuSerif-111"/>
      <use x="936.962891" xlink:href="#DejaVuSerif-110"/>
     </g>
    </g>
    <g id="line2d_131">
     <path d="M 88.886875 105.951312 
L 116.886875 105.951312 
" style="fill:none;stroke:#ffd700;stroke-linecap:square;stroke-width:1.5;"/>
    </g>
    <g id="line2d_132"/>
    <g id="text_18">
     <!-- Case identification, contact tracing and related measures -->
     <defs>
      <path d="M 3.609375 -9.71875 
Q 8.203125 -6.34375 10.34375 -1.78125 
Q 12.5 2.78125 12.5 9.28125 
L 12.5 11.078125 
L 22.125 11.078125 
Q 21.734375 2.734375 18.1875 -3.25 
Q 14.65625 -9.234375 7.515625 -13.625 
z
" id="DejaVuSerif-44"/>
      <path d="M 52.484375 46.6875 
L 52.484375 1.125 
Q 52.484375 -10.0625 46.328125 -16.140625 
Q 40.1875 -22.21875 28.8125 -22.21875 
Q 23.6875 -22.21875 19 -21.28125 
Q 14.3125 -20.359375 10.015625 -18.5 
L 10.015625 -7.625 
L 14.703125 -7.625 
Q 15.578125 -12.703125 18.84375 -15.046875 
Q 22.125 -17.390625 28.21875 -17.390625 
Q 36.140625 -17.390625 39.8125 -12.921875 
Q 43.5 -8.453125 43.5 1.125 
L 43.5 8.109375 
Q 40.875 3.21875 36.796875 0.890625 
Q 32.71875 -1.421875 26.703125 -1.421875 
Q 17.140625 -1.421875 11.0625 6.171875 
Q 4.984375 13.765625 4.984375 25.984375 
Q 4.984375 38.1875 11.03125 45.75 
Q 17.09375 53.328125 26.703125 53.328125 
Q 32.71875 53.328125 36.796875 51 
Q 40.875 48.6875 43.5 43.796875 
L 43.5 51.90625 
L 61.078125 51.90625 
L 61.078125 46.6875 
z
M 43.5 28.515625 
Q 43.5 37.84375 39.90625 42.765625 
Q 36.328125 47.703125 29.5 47.703125 
Q 22.5625 47.703125 19.015625 42.234375 
Q 15.484375 36.765625 15.484375 25.984375 
Q 15.484375 15.234375 19.015625 9.71875 
Q 22.5625 4.203125 29.5 4.203125 
Q 36.328125 4.203125 39.90625 9.109375 
Q 43.5 14.015625 43.5 23.390625 
z
" id="DejaVuSerif-103"/>
     </defs>
     <g transform="translate(128.086875 110.851312)scale(0.14 -0.14)">
      <use xlink:href="#DejaVuSerif-67"/>
      <use x="76.513672" xlink:href="#DejaVuSerif-97"/>
      <use x="136.132812" xlink:href="#DejaVuSerif-115"/>
      <use x="187.451172" xlink:href="#DejaVuSerif-101"/>
      <use x="246.630859" xlink:href="#DejaVuSerif-32"/>
      <use x="278.417969" xlink:href="#DejaVuSerif-105"/>
      <use x="310.400391" xlink:href="#DejaVuSerif-100"/>
      <use x="374.414062" xlink:href="#DejaVuSerif-101"/>
      <use x="433.59375" xlink:href="#DejaVuSerif-110"/>
      <use x="497.998047" xlink:href="#DejaVuSerif-116"/>
      <use x="538.183594" xlink:href="#DejaVuSerif-105"/>
      <use x="570.166016" xlink:href="#DejaVuSerif-102"/>
      <use x="607.177734" xlink:href="#DejaVuSerif-105"/>
      <use x="639.160156" xlink:href="#DejaVuSerif-99"/>
      <use x="695.166016" xlink:href="#DejaVuSerif-97"/>
      <use x="754.785156" xlink:href="#DejaVuSerif-116"/>
      <use x="794.970703" xlink:href="#DejaVuSerif-105"/>
      <use x="826.953125" xlink:href="#DejaVuSerif-111"/>
      <use x="887.158203" xlink:href="#DejaVuSerif-110"/>
      <use x="951.5625" xlink:href="#DejaVuSerif-44"/>
      <use x="983.349609" xlink:href="#DejaVuSerif-32"/>
      <use x="1015.136719" xlink:href="#DejaVuSerif-99"/>
      <use x="1071.142578" xlink:href="#DejaVuSerif-111"/>
      <use x="1131.347656" xlink:href="#DejaVuSerif-110"/>
      <use x="1195.751953" xlink:href="#DejaVuSerif-116"/>
      <use x="1235.9375" xlink:href="#DejaVuSerif-97"/>
      <use x="1295.556641" xlink:href="#DejaVuSerif-99"/>
      <use x="1351.5625" xlink:href="#DejaVuSerif-116"/>
      <use x="1391.748047" xlink:href="#DejaVuSerif-32"/>
      <use x="1423.535156" xlink:href="#DejaVuSerif-116"/>
      <use x="1463.720703" xlink:href="#DejaVuSerif-114"/>
      <use x="1511.523438" xlink:href="#DejaVuSerif-97"/>
      <use x="1571.142578" xlink:href="#DejaVuSerif-99"/>
      <use x="1627.148438" xlink:href="#DejaVuSerif-105"/>
      <use x="1659.130859" xlink:href="#DejaVuSerif-110"/>
      <use x="1723.535156" xlink:href="#DejaVuSerif-103"/>
      <use x="1787.548828" xlink:href="#DejaVuSerif-32"/>
      <use x="1819.335938" xlink:href="#DejaVuSerif-97"/>
      <use x="1878.955078" xlink:href="#DejaVuSerif-110"/>
      <use x="1943.359375" xlink:href="#DejaVuSerif-100"/>
      <use x="2007.373047" xlink:href="#DejaVuSerif-32"/>
      <use x="2039.160156" xlink:href="#DejaVuSerif-114"/>
      <use x="2086.962891" xlink:href="#DejaVuSerif-101"/>
      <use x="2146.142578" xlink:href="#DejaVuSerif-108"/>
      <use x="2178.125" xlink:href="#DejaVuSerif-97"/>
      <use x="2237.744141" xlink:href="#DejaVuSerif-116"/>
      <use x="2277.929688" xlink:href="#DejaVuSerif-101"/>
      <use x="2337.109375" xlink:href="#DejaVuSerif-100"/>
      <use x="2401.123047" xlink:href="#DejaVuSerif-32"/>
      <use x="2432.910156" xlink:href="#DejaVuSerif-109"/>
      <use x="2527.734375" xlink:href="#DejaVuSerif-101"/>
      <use x="2586.914062" xlink:href="#DejaVuSerif-97"/>
      <use x="2646.533203" xlink:href="#DejaVuSerif-115"/>
      <use x="2697.851562" xlink:href="#DejaVuSerif-117"/>
      <use x="2762.255859" xlink:href="#DejaVuSerif-114"/>
      <use x="2810.058594" xlink:href="#DejaVuSerif-101"/>
      <use x="2869.238281" xlink:href="#DejaVuSerif-115"/>
     </g>
    </g>
    <g id="line2d_133">
     <path d="M 88.886875 126.69975 
L 116.886875 126.69975 
" style="fill:none;stroke:#a0522d;stroke-linecap:square;stroke-width:1.5;"/>
    </g>
    <g id="line2d_134"/>
    <g id="text_19">
     <!-- Healthcare and public health capacity -->
     <defs>
      <path d="M 5.515625 0 
L 5.515625 5.171875 
L 14.796875 5.171875 
L 14.796875 67.671875 
L 5.515625 67.671875 
L 5.515625 72.90625 
L 33.984375 72.90625 
L 33.984375 67.671875 
L 24.703125 67.671875 
L 24.703125 42.484375 
L 62.5 42.484375 
L 62.5 67.671875 
L 53.21875 67.671875 
L 53.21875 72.90625 
L 81.6875 72.90625 
L 81.6875 67.671875 
L 72.40625 67.671875 
L 72.40625 5.171875 
L 81.6875 5.171875 
L 81.6875 0 
L 53.21875 0 
L 53.21875 5.171875 
L 62.5 5.171875 
L 62.5 36.53125 
L 24.703125 36.53125 
L 24.703125 5.171875 
L 33.984375 5.171875 
L 33.984375 0 
z
" id="DejaVuSerif-72"/>
      <path d="M 20.515625 28.515625 
L 20.515625 23.390625 
Q 20.515625 14.015625 24.09375 9.109375 
Q 27.6875 4.203125 34.515625 4.203125 
Q 41.40625 4.203125 44.9375 9.71875 
Q 48.484375 15.234375 48.484375 25.984375 
Q 48.484375 36.765625 44.9375 42.234375 
Q 41.40625 47.703125 34.515625 47.703125 
Q 27.6875 47.703125 24.09375 42.765625 
Q 20.515625 37.84375 20.515625 28.515625 
z
M 11.53125 46.6875 
L 2.875 46.6875 
L 2.875 51.90625 
L 20.515625 51.90625 
L 20.515625 43.796875 
Q 23.140625 48.6875 27.21875 51 
Q 31.296875 53.328125 37.3125 53.328125 
Q 46.875 53.328125 52.921875 45.75 
Q 58.984375 38.1875 58.984375 25.984375 
Q 58.984375 13.765625 52.921875 6.171875 
Q 46.875 -1.421875 37.3125 -1.421875 
Q 31.296875 -1.421875 27.21875 0.890625 
Q 23.140625 3.21875 20.515625 8.109375 
L 20.515625 -15.578125 
L 29 -15.578125 
L 29 -20.796875 
L 2.875 -20.796875 
L 2.875 -15.578125 
L 11.53125 -15.578125 
z
" id="DejaVuSerif-112"/>
      <path d="M 11.53125 5.171875 
L 11.53125 70.796875 
L 2.875 70.796875 
L 2.875 75.984375 
L 20.515625 75.984375 
L 20.515625 43.796875 
Q 23.140625 48.6875 27.21875 51 
Q 31.296875 53.328125 37.3125 53.328125 
Q 46.875 53.328125 52.921875 45.75 
Q 58.984375 38.1875 58.984375 25.984375 
Q 58.984375 13.765625 52.921875 6.171875 
Q 46.875 -1.421875 37.3125 -1.421875 
Q 31.296875 -1.421875 27.21875 0.890625 
Q 23.140625 3.21875 20.515625 8.109375 
L 20.515625 0 
L 2.875 0 
L 2.875 5.171875 
z
M 20.515625 23.390625 
Q 20.515625 14.015625 24.09375 9.109375 
Q 27.6875 4.203125 34.515625 4.203125 
Q 41.40625 4.203125 44.9375 9.71875 
Q 48.484375 15.234375 48.484375 25.984375 
Q 48.484375 36.765625 44.9375 42.234375 
Q 41.40625 47.703125 34.515625 47.703125 
Q 27.6875 47.703125 24.09375 42.765625 
Q 20.515625 37.84375 20.515625 28.515625 
z
" id="DejaVuSerif-98"/>
      <path d="M 21.578125 -9.515625 
L 25 -0.875 
L 5.609375 46.6875 
L -0.296875 46.6875 
L -0.296875 51.90625 
L 23.578125 51.90625 
L 23.578125 46.6875 
L 15.28125 46.6875 
L 29.890625 10.984375 
L 44.484375 46.6875 
L 36.71875 46.6875 
L 36.71875 51.90625 
L 56.203125 51.90625 
L 56.203125 46.6875 
L 50.390625 46.6875 
L 26.609375 -11.71875 
Q 24.171875 -17.78125 21.1875 -20 
Q 18.21875 -22.21875 12.796875 -22.21875 
Q 10.5 -22.21875 8.078125 -21.828125 
Q 5.671875 -21.4375 3.21875 -20.703125 
L 3.21875 -10.796875 
L 7.8125 -10.796875 
Q 8.109375 -14.109375 9.5 -15.546875 
Q 10.890625 -17 13.8125 -17 
Q 16.5 -17 18.140625 -15.5 
Q 19.78125 -14.015625 21.578125 -9.515625 
z
" id="DejaVuSerif-121"/>
     </defs>
     <g transform="translate(128.086875 131.59975)scale(0.14 -0.14)">
      <use xlink:href="#DejaVuSerif-72"/>
      <use x="87.207031" xlink:href="#DejaVuSerif-101"/>
      <use x="146.386719" xlink:href="#DejaVuSerif-97"/>
      <use x="206.005859" xlink:href="#DejaVuSerif-108"/>
      <use x="237.988281" xlink:href="#DejaVuSerif-116"/>
      <use x="278.173828" xlink:href="#DejaVuSerif-104"/>
      <use x="342.578125" xlink:href="#DejaVuSerif-99"/>
      <use x="398.583984" xlink:href="#DejaVuSerif-97"/>
      <use x="458.203125" xlink:href="#DejaVuSerif-114"/>
      <use x="506.005859" xlink:href="#DejaVuSerif-101"/>
      <use x="565.185547" xlink:href="#DejaVuSerif-32"/>
      <use x="596.972656" xlink:href="#DejaVuSerif-97"/>
      <use x="656.591797" xlink:href="#DejaVuSerif-110"/>
      <use x="720.996094" xlink:href="#DejaVuSerif-100"/>
      <use x="785.009766" xlink:href="#DejaVuSerif-32"/>
      <use x="816.796875" xlink:href="#DejaVuSerif-112"/>
      <use x="880.810547" xlink:href="#DejaVuSerif-117"/>
      <use x="945.214844" xlink:href="#DejaVuSerif-98"/>
      <use x="1009.228516" xlink:href="#DejaVuSerif-108"/>
      <use x="1041.210938" xlink:href="#DejaVuSerif-105"/>
      <use x="1073.193359" xlink:href="#DejaVuSerif-99"/>
      <use x="1129.199219" xlink:href="#DejaVuSerif-32"/>
      <use x="1160.986328" xlink:href="#DejaVuSerif-104"/>
      <use x="1225.390625" xlink:href="#DejaVuSerif-101"/>
      <use x="1284.570312" xlink:href="#DejaVuSerif-97"/>
      <use x="1344.189453" xlink:href="#DejaVuSerif-108"/>
      <use x="1376.171875" xlink:href="#DejaVuSerif-116"/>
      <use x="1416.357422" xlink:href="#DejaVuSerif-104"/>
      <use x="1480.761719" xlink:href="#DejaVuSerif-32"/>
      <use x="1512.548828" xlink:href="#DejaVuSerif-99"/>
      <use x="1568.554688" xlink:href="#DejaVuSerif-97"/>
      <use x="1628.173828" xlink:href="#DejaVuSerif-112"/>
      <use x="1692.1875" xlink:href="#DejaVuSerif-97"/>
      <use x="1751.806641" xlink:href="#DejaVuSerif-99"/>
      <use x="1807.8125" xlink:href="#DejaVuSerif-105"/>
      <use x="1839.794922" xlink:href="#DejaVuSerif-116"/>
      <use x="1879.980469" xlink:href="#DejaVuSerif-121"/>
     </g>
    </g>
    <g id="line2d_135">
     <path d="M 88.886875 147.448187 
L 116.886875 147.448187 
" style="fill:none;stroke:#32cd32;stroke-linecap:square;stroke-width:1.5;"/>
    </g>
    <g id="line2d_136"/>
    <g id="text_20">
     <!-- Risk communication -->
     <defs>
      <path d="M 28.609375 0 
L 3.421875 0 
L 3.421875 5.171875 
L 11.53125 5.171875 
L 11.53125 70.796875 
L 2.875 70.796875 
L 2.875 75.984375 
L 20.515625 75.984375 
L 20.515625 26.515625 
L 42.390625 46.6875 
L 34.90625 46.6875 
L 34.90625 51.90625 
L 58.40625 51.90625 
L 58.40625 46.6875 
L 49.515625 46.6875 
L 34.078125 32.421875 
L 53.8125 5.171875 
L 61.28125 5.171875 
L 61.28125 0 
L 35.6875 0 
L 35.6875 5.171875 
L 43.109375 5.171875 
L 27.59375 26.515625 
L 20.515625 19.921875 
L 20.515625 5.171875 
L 28.609375 5.171875 
z
" id="DejaVuSerif-107"/>
     </defs>
     <g transform="translate(128.086875 152.348187)scale(0.14 -0.14)">
      <use xlink:href="#DejaVuSerif-82"/>
      <use x="75.292969" xlink:href="#DejaVuSerif-105"/>
      <use x="107.275391" xlink:href="#DejaVuSerif-115"/>
      <use x="158.59375" xlink:href="#DejaVuSerif-107"/>
      <use x="219.189453" xlink:href="#DejaVuSerif-32"/>
      <use x="250.976562" xlink:href="#DejaVuSerif-99"/>
      <use x="306.982422" xlink:href="#DejaVuSerif-111"/>
      <use x="367.1875" xlink:href="#DejaVuSerif-109"/>
      <use x="462.011719" xlink:href="#DejaVuSerif-109"/>
      <use x="556.835938" xlink:href="#DejaVuSerif-117"/>
      <use x="621.240234" xlink:href="#DejaVuSerif-110"/>
      <use x="685.644531" xlink:href="#DejaVuSerif-105"/>
      <use x="717.626953" xlink:href="#DejaVuSerif-99"/>
      <use x="773.632812" xlink:href="#DejaVuSerif-97"/>
      <use x="833.251953" xlink:href="#DejaVuSerif-116"/>
      <use x="873.4375" xlink:href="#DejaVuSerif-105"/>
      <use x="905.419922" xlink:href="#DejaVuSerif-111"/>
      <use x="965.625" xlink:href="#DejaVuSerif-110"/>
     </g>
    </g>
    <g id="line2d_137">
     <path d="M 88.886875 167.997562 
L 116.886875 167.997562 
" style="fill:none;stroke:#4169e1;stroke-linecap:square;stroke-width:1.5;"/>
    </g>
    <g id="line2d_138"/>
    <g id="text_21">
     <!-- Social distancing -->
     <g transform="translate(128.086875 172.897562)scale(0.14 -0.14)">
      <use xlink:href="#DejaVuSerif-83"/>
      <use x="68.505859" xlink:href="#DejaVuSerif-111"/>
      <use x="128.710938" xlink:href="#DejaVuSerif-99"/>
      <use x="184.716797" xlink:href="#DejaVuSerif-105"/>
      <use x="216.699219" xlink:href="#DejaVuSerif-97"/>
      <use x="276.318359" xlink:href="#DejaVuSerif-108"/>
      <use x="308.300781" xlink:href="#DejaVuSerif-32"/>
      <use x="340.087891" xlink:href="#DejaVuSerif-100"/>
      <use x="404.101562" xlink:href="#DejaVuSerif-105"/>
      <use x="436.083984" xlink:href="#DejaVuSerif-115"/>
      <use x="487.402344" xlink:href="#DejaVuSerif-116"/>
      <use x="527.587891" xlink:href="#DejaVuSerif-97"/>
      <use x="587.207031" xlink:href="#DejaVuSerif-110"/>
      <use x="651.611328" xlink:href="#DejaVuSerif-99"/>
      <use x="707.617188" xlink:href="#DejaVuSerif-105"/>
      <use x="739.599609" xlink:href="#DejaVuSerif-110"/>
      <use x="804.003906" xlink:href="#DejaVuSerif-103"/>
     </g>
    </g>
    <g id="line2d_139">
     <path d="M 88.886875 188.746 
L 116.886875 188.746 
" style="fill:none;stroke:#d8bfd8;stroke-linecap:square;stroke-width:1.5;"/>
    </g>
    <g id="line2d_140"/>
    <g id="text_22">
     <!-- Travel restriction -->
     <defs>
      <path d="M 19.09375 0 
L 19.09375 5.171875 
L 28.421875 5.171875 
L 28.421875 67.09375 
L 6.984375 67.09375 
L 6.984375 55.71875 
L 0.984375 55.71875 
L 0.984375 72.90625 
L 65.71875 72.90625 
L 65.71875 55.71875 
L 59.71875 55.71875 
L 59.71875 67.09375 
L 38.28125 67.09375 
L 38.28125 5.171875 
L 47.609375 5.171875 
L 47.609375 0 
z
" id="DejaVuSerif-84"/>
     </defs>
     <g transform="translate(128.086875 193.646)scale(0.14 -0.14)">
      <use xlink:href="#DejaVuSerif-84"/>
      <use x="66.699219" xlink:href="#DejaVuSerif-114"/>
      <use x="114.501953" xlink:href="#DejaVuSerif-97"/>
      <use x="174.121094" xlink:href="#DejaVuSerif-118"/>
      <use x="230.615234" xlink:href="#DejaVuSerif-101"/>
      <use x="289.794922" xlink:href="#DejaVuSerif-108"/>
      <use x="321.777344" xlink:href="#DejaVuSerif-32"/>
      <use x="353.564453" xlink:href="#DejaVuSerif-114"/>
      <use x="401.367188" xlink:href="#DejaVuSerif-101"/>
      <use x="460.546875" xlink:href="#DejaVuSerif-115"/>
      <use x="511.865234" xlink:href="#DejaVuSerif-116"/>
      <use x="552.050781" xlink:href="#DejaVuSerif-114"/>
      <use x="599.853516" xlink:href="#DejaVuSerif-105"/>
      <use x="631.835938" xlink:href="#DejaVuSerif-99"/>
      <use x="687.841797" xlink:href="#DejaVuSerif-116"/>
      <use x="728.027344" xlink:href="#DejaVuSerif-105"/>
      <use x="760.009766" xlink:href="#DejaVuSerif-111"/>
      <use x="820.214844" xlink:href="#DejaVuSerif-110"/>
     </g>
    </g>
    <g id="line2d_141">
     <path d="M 88.886875 209.295375 
L 116.886875 209.295375 
" style="fill:none;stroke:#8b008b;stroke-linecap:square;stroke-width:1.5;"/>
    </g>
    <g id="line2d_142"/>
    <g id="text_23">
     <!-- Returning to normal life -->
     <g transform="translate(128.086875 214.195375)scale(0.14 -0.14)">
      <use xlink:href="#DejaVuSerif-82"/>
      <use x="75.292969" xlink:href="#DejaVuSerif-101"/>
      <use x="134.472656" xlink:href="#DejaVuSerif-116"/>
      <use x="174.658203" xlink:href="#DejaVuSerif-117"/>
      <use x="239.0625" xlink:href="#DejaVuSerif-114"/>
      <use x="286.865234" xlink:href="#DejaVuSerif-110"/>
      <use x="351.269531" xlink:href="#DejaVuSerif-105"/>
      <use x="383.251953" xlink:href="#DejaVuSerif-110"/>
      <use x="447.65625" xlink:href="#DejaVuSerif-103"/>
      <use x="511.669922" xlink:href="#DejaVuSerif-32"/>
      <use x="543.457031" xlink:href="#DejaVuSerif-116"/>
      <use x="583.642578" xlink:href="#DejaVuSerif-111"/>
      <use x="643.847656" xlink:href="#DejaVuSerif-32"/>
      <use x="675.634766" xlink:href="#DejaVuSerif-110"/>
      <use x="740.039062" xlink:href="#DejaVuSerif-111"/>
      <use x="800.244141" xlink:href="#DejaVuSerif-114"/>
      <use x="848.046875" xlink:href="#DejaVuSerif-109"/>
      <use x="942.871094" xlink:href="#DejaVuSerif-97"/>
      <use x="1002.490234" xlink:href="#DejaVuSerif-108"/>
      <use x="1034.472656" xlink:href="#DejaVuSerif-32"/>
      <use x="1066.259766" xlink:href="#DejaVuSerif-108"/>
      <use x="1098.242188" xlink:href="#DejaVuSerif-105"/>
      <use x="1130.224609" xlink:href="#DejaVuSerif-102"/>
      <use x="1167.236328" xlink:href="#DejaVuSerif-101"/>
     </g>
    </g>
   </g>
  </g>
 </g>
 <defs>
  <clipPath id="p80e83e7e8d">
   <rect height="652.32" width="1004.4" x="76.286875" y="25.965375"/>
  </clipPath>
 </defs>
</svg>
