<?xml version="1.0" encoding="utf-8" standalone="no"?>
<!DOCTYPE svg PUBLIC "-//W3C//DTD SVG 1.1//EN"
  "http://www.w3.org/Graphics/SVG/1.1/DTD/svg11.dtd">
<!-- Created with matplotlib (https://matplotlib.org/) -->
<svg height="723.584125pt" version="1.1" viewBox="0 0 1087.886875 723.584125" width="1087.886875pt" xmlns="http://www.w3.org/2000/svg" xmlns:xlink="http://www.w3.org/1999/xlink">
 <defs>
  <style type="text/css">
*{stroke-linecap:butt;stroke-linejoin:round;}
  </style>
 </defs>
 <g id="figure_1">
  <g id="patch_1">
   <path d="M 0 723.584125 
L 1087.886875 723.584125 
L 1087.886875 0 
L 0 0 
z
" style="fill:none;"/>
  </g>
  <g id="axes_1">
   <g id="patch_2">
    <path d="M 76.286875 678.285375 
L 1080.686875 678.285375 
L 1080.686875 25.965375 
L 76.286875 25.965375 
z
" style="fill:#ffffff;"/>
   </g>
   <g id="matplotlib.axis_1">
    <g id="xtick_1">
     <g id="line2d_1">
      <path clip-path="url(#pb2dd3f5a70)" d="M 121.94142 678.285375 
L 121.94142 25.965375 
" style="fill:none;stroke:#b0b0b0;stroke-linecap:square;stroke-width:0.8;"/>
     </g>
     <g id="line2d_2">
      <defs>
       <path d="M 0 0 
L 0 3.5 
" id="m6758a66f89" style="stroke:#000000;stroke-width:0.8;"/>
      </defs>
      <g>
       <use style="stroke:#000000;stroke-width:0.8;" x="121.94142" xlink:href="#m6758a66f89" y="678.285375"/>
      </g>
     </g>
     <g id="text_1">
      <!-- 2020-01-31 -->
      <defs>
       <path d="M 12.796875 55.515625 
L 7.328125 55.515625 
L 7.328125 68.5 
Q 12.546875 71.296875 17.84375 72.75 
Q 23.140625 74.21875 28.21875 74.21875 
Q 39.59375 74.21875 46.1875 68.703125 
Q 52.78125 63.1875 52.78125 53.71875 
Q 52.78125 43.015625 37.84375 28.125 
Q 36.671875 27 36.078125 26.421875 
L 17.671875 8.015625 
L 48.09375 8.015625 
L 48.09375 17 
L 53.8125 17 
L 53.8125 0 
L 6.78125 0 
L 6.78125 5.328125 
L 28.90625 27.390625 
Q 36.234375 34.71875 39.359375 40.84375 
Q 42.484375 46.96875 42.484375 53.71875 
Q 42.484375 61.078125 38.640625 65.234375 
Q 34.8125 69.390625 28.078125 69.390625 
Q 21.09375 69.390625 17.28125 65.921875 
Q 13.484375 62.453125 12.796875 55.515625 
z
" id="DejaVuSerif-50"/>
       <path d="M 31.78125 3.421875 
Q 39.265625 3.421875 42.96875 11.625 
Q 46.6875 19.828125 46.6875 36.375 
Q 46.6875 52.984375 42.96875 61.1875 
Q 39.265625 69.390625 31.78125 69.390625 
Q 24.3125 69.390625 20.59375 61.1875 
Q 16.890625 52.984375 16.890625 36.375 
Q 16.890625 19.828125 20.59375 11.625 
Q 24.3125 3.421875 31.78125 3.421875 
z
M 31.78125 -1.421875 
Q 19.921875 -1.421875 13.25 8.53125 
Q 6.59375 18.5 6.59375 36.375 
Q 6.59375 54.296875 13.25 64.25 
Q 19.921875 74.21875 31.78125 74.21875 
Q 43.703125 74.21875 50.34375 64.25 
Q 56.984375 54.296875 56.984375 36.375 
Q 56.984375 18.5 50.34375 8.53125 
Q 43.703125 -1.421875 31.78125 -1.421875 
z
" id="DejaVuSerif-48"/>
       <path d="M 4.390625 30.609375 
L 29.390625 30.609375 
L 29.390625 23 
L 4.390625 23 
z
" id="DejaVuSerif-45"/>
       <path d="M 14.203125 0 
L 14.203125 5.171875 
L 26.90625 5.171875 
L 26.90625 65.828125 
L 12.203125 56.296875 
L 12.203125 62.703125 
L 29.984375 74.21875 
L 36.71875 74.21875 
L 36.71875 5.171875 
L 49.421875 5.171875 
L 49.421875 0 
z
" id="DejaVuSerif-49"/>
       <path d="M 9.71875 69.828125 
Q 15.4375 71.96875 20.671875 73.09375 
Q 25.921875 74.21875 30.515625 74.21875 
Q 41.21875 74.21875 47.21875 69.59375 
Q 53.21875 64.984375 53.21875 56.78125 
Q 53.21875 50.203125 49.0625 45.78125 
Q 44.921875 41.359375 37.3125 39.796875 
Q 46.296875 38.53125 51.25 33.28125 
Q 56.203125 28.03125 56.203125 19.671875 
Q 56.203125 9.46875 49.34375 4.015625 
Q 42.484375 -1.421875 29.59375 -1.421875 
Q 23.875 -1.421875 18.421875 -0.1875 
Q 12.984375 1.03125 7.625 3.515625 
L 7.625 17.671875 
L 13.09375 17.671875 
Q 13.578125 10.640625 17.828125 7.03125 
Q 22.078125 3.421875 29.78125 3.421875 
Q 37.25 3.421875 41.578125 7.734375 
Q 45.90625 12.0625 45.90625 19.578125 
Q 45.90625 28.171875 41.453125 32.59375 
Q 37.015625 37.015625 28.421875 37.015625 
L 23.78125 37.015625 
L 23.78125 42 
L 26.21875 42 
Q 34.765625 42 39.03125 45.53125 
Q 43.3125 49.078125 43.3125 56.203125 
Q 43.3125 62.59375 39.796875 65.984375 
Q 36.28125 69.390625 29.6875 69.390625 
Q 23.09375 69.390625 19.453125 66.265625 
Q 15.828125 63.140625 15.1875 56.984375 
L 9.71875 56.984375 
z
" id="DejaVuSerif-51"/>
      </defs>
      <g transform="translate(81.579858 695.923187)scale(0.14 -0.14)">
       <use xlink:href="#DejaVuSerif-50"/>
       <use x="63.623047" xlink:href="#DejaVuSerif-48"/>
       <use x="127.246094" xlink:href="#DejaVuSerif-50"/>
       <use x="190.869141" xlink:href="#DejaVuSerif-48"/>
       <use x="254.492188" xlink:href="#DejaVuSerif-45"/>
       <use x="288.28125" xlink:href="#DejaVuSerif-48"/>
       <use x="351.904297" xlink:href="#DejaVuSerif-49"/>
       <use x="415.527344" xlink:href="#DejaVuSerif-45"/>
       <use x="449.316406" xlink:href="#DejaVuSerif-51"/>
       <use x="512.939453" xlink:href="#DejaVuSerif-49"/>
      </g>
     </g>
    </g>
    <g id="xtick_2">
     <g id="line2d_3">
      <path clip-path="url(#pb2dd3f5a70)" d="M 278.829893 678.285375 
L 278.829893 25.965375 
" style="fill:none;stroke:#b0b0b0;stroke-linecap:square;stroke-width:0.8;"/>
     </g>
     <g id="line2d_4">
      <g>
       <use style="stroke:#000000;stroke-width:0.8;" x="278.829893" xlink:href="#m6758a66f89" y="678.285375"/>
      </g>
     </g>
     <g id="text_2">
      <!-- 2020-04-14 -->
      <defs>
       <path d="M 34.90625 24.703125 
L 34.90625 63.484375 
L 10.015625 24.703125 
z
M 56.390625 0 
L 23.1875 0 
L 23.1875 5.171875 
L 34.90625 5.171875 
L 34.90625 19.484375 
L 3.078125 19.484375 
L 3.078125 24.8125 
L 35.015625 74.21875 
L 44.671875 74.21875 
L 44.671875 24.703125 
L 58.59375 24.703125 
L 58.59375 19.484375 
L 44.671875 19.484375 
L 44.671875 5.171875 
L 56.390625 5.171875 
z
" id="DejaVuSerif-52"/>
      </defs>
      <g transform="translate(238.46833 695.923187)scale(0.14 -0.14)">
       <use xlink:href="#DejaVuSerif-50"/>
       <use x="63.623047" xlink:href="#DejaVuSerif-48"/>
       <use x="127.246094" xlink:href="#DejaVuSerif-50"/>
       <use x="190.869141" xlink:href="#DejaVuSerif-48"/>
       <use x="254.492188" xlink:href="#DejaVuSerif-45"/>
       <use x="288.28125" xlink:href="#DejaVuSerif-48"/>
       <use x="351.904297" xlink:href="#DejaVuSerif-52"/>
       <use x="415.527344" xlink:href="#DejaVuSerif-45"/>
       <use x="449.316406" xlink:href="#DejaVuSerif-49"/>
       <use x="512.939453" xlink:href="#DejaVuSerif-52"/>
      </g>
     </g>
    </g>
    <g id="xtick_3">
     <g id="line2d_5">
      <path clip-path="url(#pb2dd3f5a70)" d="M 435.718365 678.285375 
L 435.718365 25.965375 
" style="fill:none;stroke:#b0b0b0;stroke-linecap:square;stroke-width:0.8;"/>
     </g>
     <g id="line2d_6">
      <g>
       <use style="stroke:#000000;stroke-width:0.8;" x="435.718365" xlink:href="#m6758a66f89" y="678.285375"/>
      </g>
     </g>
     <g id="text_3">
      <!-- 2020-06-03 -->
      <defs>
       <path d="M 32.71875 3.421875 
Q 39.59375 3.421875 43.296875 8.46875 
Q 47.015625 13.53125 47.015625 23 
Q 47.015625 32.46875 43.296875 37.515625 
Q 39.59375 42.578125 32.71875 42.578125 
Q 25.734375 42.578125 22.0625 37.6875 
Q 18.40625 32.8125 18.40625 23.578125 
Q 18.40625 13.875 22.109375 8.640625 
Q 25.828125 3.421875 32.71875 3.421875 
z
M 16.796875 40.140625 
Q 20.125 43.796875 24.3125 45.59375 
Q 28.515625 47.40625 33.796875 47.40625 
Q 44.671875 47.40625 51 40.859375 
Q 57.328125 34.328125 57.328125 23 
Q 57.328125 11.921875 50.515625 5.25 
Q 43.703125 -1.421875 32.328125 -1.421875 
Q 19.96875 -1.421875 13.328125 7.78125 
Q 6.6875 17 6.6875 34.078125 
Q 6.6875 53.21875 14.546875 63.71875 
Q 22.40625 74.21875 36.71875 74.21875 
Q 40.578125 74.21875 44.828125 73.484375 
Q 49.078125 72.75 53.515625 71.296875 
L 53.515625 59.28125 
L 48 59.28125 
Q 47.40625 64.203125 44.234375 66.796875 
Q 41.0625 69.390625 35.6875 69.390625 
Q 26.21875 69.390625 21.578125 62.203125 
Q 16.9375 55.03125 16.796875 40.140625 
z
" id="DejaVuSerif-54"/>
      </defs>
      <g transform="translate(395.356803 695.923187)scale(0.14 -0.14)">
       <use xlink:href="#DejaVuSerif-50"/>
       <use x="63.623047" xlink:href="#DejaVuSerif-48"/>
       <use x="127.246094" xlink:href="#DejaVuSerif-50"/>
       <use x="190.869141" xlink:href="#DejaVuSerif-48"/>
       <use x="254.492188" xlink:href="#DejaVuSerif-45"/>
       <use x="288.28125" xlink:href="#DejaVuSerif-48"/>
       <use x="351.904297" xlink:href="#DejaVuSerif-54"/>
       <use x="415.527344" xlink:href="#DejaVuSerif-45"/>
       <use x="449.316406" xlink:href="#DejaVuSerif-48"/>
       <use x="512.939453" xlink:href="#DejaVuSerif-51"/>
      </g>
     </g>
    </g>
    <g id="xtick_4">
     <g id="line2d_7">
      <path clip-path="url(#pb2dd3f5a70)" d="M 592.606838 678.285375 
L 592.606838 25.965375 
" style="fill:none;stroke:#b0b0b0;stroke-linecap:square;stroke-width:0.8;"/>
     </g>
     <g id="line2d_8">
      <g>
       <use style="stroke:#000000;stroke-width:0.8;" x="592.606838" xlink:href="#m6758a66f89" y="678.285375"/>
      </g>
     </g>
     <g id="text_4">
      <!-- 2020-07-23 -->
      <defs>
       <path d="M 56.390625 67.921875 
L 27.875 0 
L 20.609375 0 
L 47.796875 64.890625 
L 14.109375 64.890625 
L 14.109375 55.90625 
L 8.40625 55.90625 
L 8.40625 72.90625 
L 56.390625 72.90625 
z
" id="DejaVuSerif-55"/>
      </defs>
      <g transform="translate(552.245275 695.923187)scale(0.14 -0.14)">
       <use xlink:href="#DejaVuSerif-50"/>
       <use x="63.623047" xlink:href="#DejaVuSerif-48"/>
       <use x="127.246094" xlink:href="#DejaVuSerif-50"/>
       <use x="190.869141" xlink:href="#DejaVuSerif-48"/>
       <use x="254.492188" xlink:href="#DejaVuSerif-45"/>
       <use x="288.28125" xlink:href="#DejaVuSerif-48"/>
       <use x="351.904297" xlink:href="#DejaVuSerif-55"/>
       <use x="415.527344" xlink:href="#DejaVuSerif-45"/>
       <use x="449.316406" xlink:href="#DejaVuSerif-50"/>
       <use x="512.939453" xlink:href="#DejaVuSerif-51"/>
      </g>
     </g>
    </g>
    <g id="xtick_5">
     <g id="line2d_9">
      <path clip-path="url(#pb2dd3f5a70)" d="M 749.49531 678.285375 
L 749.49531 25.965375 
" style="fill:none;stroke:#b0b0b0;stroke-linecap:square;stroke-width:0.8;"/>
     </g>
     <g id="line2d_10">
      <g>
       <use style="stroke:#000000;stroke-width:0.8;" x="749.49531" xlink:href="#m6758a66f89" y="678.285375"/>
      </g>
     </g>
     <g id="text_5">
      <!-- 2020-09-11 -->
      <defs>
       <path d="M 46.78125 32.671875 
Q 43.5 29 39.25 27.1875 
Q 35.015625 25.390625 29.6875 25.390625 
Q 18.84375 25.390625 12.5625 31.9375 
Q 6.296875 38.484375 6.296875 49.8125 
Q 6.296875 60.890625 13.109375 67.546875 
Q 19.921875 74.21875 31.296875 74.21875 
Q 43.65625 74.21875 50.265625 65.015625 
Q 56.890625 55.8125 56.890625 38.71875 
Q 56.890625 19.578125 49.015625 9.078125 
Q 41.15625 -1.421875 26.90625 -1.421875 
Q 23.046875 -1.421875 18.796875 -0.6875 
Q 14.546875 0.046875 10.109375 1.515625 
L 10.109375 13.625 
L 15.578125 13.625 
Q 16.21875 8.6875 19.390625 6.046875 
Q 22.5625 3.421875 27.875 3.421875 
Q 37.359375 3.421875 41.984375 10.5625 
Q 46.625 17.71875 46.78125 32.671875 
z
M 30.90625 69.390625 
Q 23.96875 69.390625 20.28125 64.328125 
Q 16.609375 59.28125 16.609375 49.8125 
Q 16.609375 40.328125 20.28125 35.25 
Q 23.96875 30.171875 30.90625 30.171875 
Q 37.84375 30.171875 41.53125 35.078125 
Q 45.21875 39.984375 45.21875 49.21875 
Q 45.21875 58.9375 41.5 64.15625 
Q 37.796875 69.390625 30.90625 69.390625 
z
" id="DejaVuSerif-57"/>
      </defs>
      <g transform="translate(709.133747 695.923187)scale(0.14 -0.14)">
       <use xlink:href="#DejaVuSerif-50"/>
       <use x="63.623047" xlink:href="#DejaVuSerif-48"/>
       <use x="127.246094" xlink:href="#DejaVuSerif-50"/>
       <use x="190.869141" xlink:href="#DejaVuSerif-48"/>
       <use x="254.492188" xlink:href="#DejaVuSerif-45"/>
       <use x="288.28125" xlink:href="#DejaVuSerif-48"/>
       <use x="351.904297" xlink:href="#DejaVuSerif-57"/>
       <use x="415.527344" xlink:href="#DejaVuSerif-45"/>
       <use x="449.316406" xlink:href="#DejaVuSerif-49"/>
       <use x="512.939453" xlink:href="#DejaVuSerif-49"/>
      </g>
     </g>
    </g>
    <g id="xtick_6">
     <g id="line2d_11">
      <path clip-path="url(#pb2dd3f5a70)" d="M 906.383782 678.285375 
L 906.383782 25.965375 
" style="fill:none;stroke:#b0b0b0;stroke-linecap:square;stroke-width:0.8;"/>
     </g>
     <g id="line2d_12">
      <g>
       <use style="stroke:#000000;stroke-width:0.8;" x="906.383782" xlink:href="#m6758a66f89" y="678.285375"/>
      </g>
     </g>
     <g id="text_6">
      <!-- 2020-10-31 -->
      <g transform="translate(866.02222 695.923187)scale(0.14 -0.14)">
       <use xlink:href="#DejaVuSerif-50"/>
       <use x="63.623047" xlink:href="#DejaVuSerif-48"/>
       <use x="127.246094" xlink:href="#DejaVuSerif-50"/>
       <use x="190.869141" xlink:href="#DejaVuSerif-48"/>
       <use x="254.492188" xlink:href="#DejaVuSerif-45"/>
       <use x="288.28125" xlink:href="#DejaVuSerif-49"/>
       <use x="351.904297" xlink:href="#DejaVuSerif-48"/>
       <use x="415.527344" xlink:href="#DejaVuSerif-45"/>
       <use x="449.316406" xlink:href="#DejaVuSerif-51"/>
       <use x="512.939453" xlink:href="#DejaVuSerif-49"/>
      </g>
     </g>
    </g>
    <g id="xtick_7">
     <g id="line2d_13">
      <path clip-path="url(#pb2dd3f5a70)" d="M 1063.272255 678.285375 
L 1063.272255 25.965375 
" style="fill:none;stroke:#b0b0b0;stroke-linecap:square;stroke-width:0.8;"/>
     </g>
     <g id="line2d_14">
      <g>
       <use style="stroke:#000000;stroke-width:0.8;" x="1063.272255" xlink:href="#m6758a66f89" y="678.285375"/>
      </g>
     </g>
    </g>
    <g id="text_7">
     <!-- Dates -->
     <defs>
      <path d="M 24.703125 5.171875 
L 33.796875 5.171875 
Q 48 5.171875 55.59375 13.28125 
Q 63.1875 21.390625 63.1875 36.53125 
Q 63.1875 51.65625 55.609375 59.65625 
Q 48.046875 67.671875 33.796875 67.671875 
L 24.703125 67.671875 
z
M 5.515625 0 
L 5.515625 5.171875 
L 14.796875 5.171875 
L 14.796875 67.671875 
L 5.515625 67.671875 
L 5.515625 72.90625 
L 34.515625 72.90625 
Q 53.375 72.90625 63.890625 63.28125 
Q 74.421875 53.65625 74.421875 36.53125 
Q 74.421875 19.34375 63.875 9.671875 
Q 53.328125 0 34.515625 0 
z
" id="DejaVuSerif-68"/>
      <path d="M 39.796875 16.3125 
L 39.796875 27.296875 
L 28.21875 27.296875 
Q 21.53125 27.296875 18.25 24.40625 
Q 14.984375 21.53125 14.984375 15.578125 
Q 14.984375 10.15625 18.296875 6.984375 
Q 21.625 3.8125 27.296875 3.8125 
Q 32.90625 3.8125 36.34375 7.28125 
Q 39.796875 10.75 39.796875 16.3125 
z
M 48.78125 32.421875 
L 48.78125 5.171875 
L 56.78125 5.171875 
L 56.78125 0 
L 39.796875 0 
L 39.796875 5.609375 
Q 36.8125 2 32.90625 0.28125 
Q 29 -1.421875 23.78125 -1.421875 
Q 15.140625 -1.421875 10.0625 3.171875 
Q 4.984375 7.765625 4.984375 15.578125 
Q 4.984375 23.640625 10.796875 28.078125 
Q 16.609375 32.515625 27.203125 32.515625 
L 39.796875 32.515625 
L 39.796875 36.078125 
Q 39.796875 42 36.203125 45.234375 
Q 32.625 48.484375 26.125 48.484375 
Q 20.75 48.484375 17.578125 46.046875 
Q 14.40625 43.609375 13.625 38.8125 
L 8.984375 38.8125 
L 8.984375 49.3125 
Q 13.671875 51.3125 18.09375 52.3125 
Q 22.515625 53.328125 26.703125 53.328125 
Q 37.5 53.328125 43.140625 47.96875 
Q 48.78125 42.625 48.78125 32.421875 
z
" id="DejaVuSerif-97"/>
      <path d="M 10.796875 46.6875 
L 2.875 46.6875 
L 2.875 51.90625 
L 10.796875 51.90625 
L 10.796875 68.015625 
L 19.828125 68.015625 
L 19.828125 51.90625 
L 36.71875 51.90625 
L 36.71875 46.6875 
L 19.828125 46.6875 
L 19.828125 13.71875 
Q 19.828125 7.125 21.09375 5.265625 
Q 22.359375 3.421875 25.78125 3.421875 
Q 29.296875 3.421875 30.90625 5.484375 
Q 32.515625 7.5625 32.625 12.203125 
L 39.40625 12.203125 
Q 39.015625 5.125 35.546875 1.84375 
Q 32.078125 -1.421875 25 -1.421875 
Q 17.234375 -1.421875 14.015625 2.015625 
Q 10.796875 5.46875 10.796875 13.71875 
z
" id="DejaVuSerif-116"/>
      <path d="M 54.203125 25 
L 15.484375 25 
L 15.484375 24.609375 
Q 15.484375 14.109375 19.4375 8.765625 
Q 23.390625 3.421875 31.109375 3.421875 
Q 37.015625 3.421875 40.796875 6.515625 
Q 44.578125 9.625 46.09375 15.71875 
L 53.328125 15.71875 
Q 51.171875 7.171875 45.375 2.875 
Q 39.59375 -1.421875 30.171875 -1.421875 
Q 18.796875 -1.421875 11.890625 6.078125 
Q 4.984375 13.578125 4.984375 25.984375 
Q 4.984375 38.28125 11.765625 45.796875 
Q 18.5625 53.328125 29.59375 53.328125 
Q 41.359375 53.328125 47.65625 46.0625 
Q 53.953125 38.8125 54.203125 25 
z
M 43.609375 30.171875 
Q 43.3125 39.265625 39.765625 43.875 
Q 36.234375 48.484375 29.59375 48.484375 
Q 23.390625 48.484375 19.828125 43.84375 
Q 16.265625 39.203125 15.484375 30.171875 
z
" id="DejaVuSerif-101"/>
      <path d="M 5.609375 2.875 
L 5.609375 14.984375 
L 10.796875 14.984375 
Q 10.984375 9.1875 14.421875 6.296875 
Q 17.875 3.421875 24.609375 3.421875 
Q 30.671875 3.421875 33.84375 5.6875 
Q 37.015625 7.953125 37.015625 12.3125 
Q 37.015625 15.71875 34.6875 17.8125 
Q 32.375 19.921875 24.90625 22.3125 
L 18.40625 24.515625 
Q 11.71875 26.65625 8.71875 29.875 
Q 5.71875 33.109375 5.71875 38.09375 
Q 5.71875 45.21875 10.9375 49.265625 
Q 16.15625 53.328125 25.390625 53.328125 
Q 29.5 53.328125 34.03125 52.25 
Q 38.578125 51.171875 43.40625 49.125 
L 43.40625 37.796875 
L 38.234375 37.796875 
Q 38.03125 42.828125 34.703125 45.65625 
Q 31.390625 48.484375 25.6875 48.484375 
Q 20.015625 48.484375 17.109375 46.484375 
Q 14.203125 44.484375 14.203125 40.484375 
Q 14.203125 37.203125 16.40625 35.21875 
Q 18.609375 33.25 25.203125 31.203125 
L 32.328125 29 
Q 39.703125 26.703125 42.9375 23.265625 
Q 46.1875 19.828125 46.1875 14.40625 
Q 46.1875 7.03125 40.546875 2.796875 
Q 34.90625 -1.421875 25 -1.421875 
Q 19.96875 -1.421875 15.1875 -0.34375 
Q 10.40625 0.734375 5.609375 2.875 
z
" id="DejaVuSerif-115"/>
     </defs>
     <g transform="translate(558.152969 713.472562)scale(0.14 -0.14)">
      <use xlink:href="#DejaVuSerif-68"/>
      <use x="80.175781" xlink:href="#DejaVuSerif-97"/>
      <use x="139.794922" xlink:href="#DejaVuSerif-116"/>
      <use x="179.980469" xlink:href="#DejaVuSerif-101"/>
      <use x="239.160156" xlink:href="#DejaVuSerif-115"/>
     </g>
    </g>
   </g>
   <g id="matplotlib.axis_2">
    <g id="ytick_1">
     <g id="line2d_15">
      <path clip-path="url(#pb2dd3f5a70)" d="M 76.286875 678.285375 
L 1080.686875 678.285375 
" style="fill:none;stroke:#b0b0b0;stroke-linecap:square;stroke-width:0.8;"/>
     </g>
     <g id="line2d_16">
      <defs>
       <path d="M 0 0 
L -3.5 0 
" id="ma3485d7ce0" style="stroke:#000000;stroke-width:0.8;"/>
      </defs>
      <g>
       <use style="stroke:#000000;stroke-width:0.8;" x="76.286875" xlink:href="#ma3485d7ce0" y="678.285375"/>
      </g>
     </g>
     <g id="text_8">
      <!-- 0 -->
      <g transform="translate(60.379375 683.604281)scale(0.14 -0.14)">
       <use xlink:href="#DejaVuSerif-48"/>
      </g>
     </g>
    </g>
    <g id="ytick_2">
     <g id="line2d_17">
      <path clip-path="url(#pb2dd3f5a70)" d="M 76.286875 571.76709 
L 1080.686875 571.76709 
" style="fill:none;stroke:#b0b0b0;stroke-linecap:square;stroke-width:0.8;"/>
     </g>
     <g id="line2d_18">
      <g>
       <use style="stroke:#000000;stroke-width:0.8;" x="76.286875" xlink:href="#ma3485d7ce0" y="571.76709"/>
      </g>
     </g>
     <g id="text_9">
      <!-- 10000 -->
      <g transform="translate(24.749375 577.085996)scale(0.14 -0.14)">
       <use xlink:href="#DejaVuSerif-49"/>
       <use x="63.623047" xlink:href="#DejaVuSerif-48"/>
       <use x="127.246094" xlink:href="#DejaVuSerif-48"/>
       <use x="190.869141" xlink:href="#DejaVuSerif-48"/>
       <use x="254.492188" xlink:href="#DejaVuSerif-48"/>
      </g>
     </g>
    </g>
    <g id="ytick_3">
     <g id="line2d_19">
      <path clip-path="url(#pb2dd3f5a70)" d="M 76.286875 465.248804 
L 1080.686875 465.248804 
" style="fill:none;stroke:#b0b0b0;stroke-linecap:square;stroke-width:0.8;"/>
     </g>
     <g id="line2d_20">
      <g>
       <use style="stroke:#000000;stroke-width:0.8;" x="76.286875" xlink:href="#ma3485d7ce0" y="465.248804"/>
      </g>
     </g>
     <g id="text_10">
      <!-- 20000 -->
      <g transform="translate(24.749375 470.56771)scale(0.14 -0.14)">
       <use xlink:href="#DejaVuSerif-50"/>
       <use x="63.623047" xlink:href="#DejaVuSerif-48"/>
       <use x="127.246094" xlink:href="#DejaVuSerif-48"/>
       <use x="190.869141" xlink:href="#DejaVuSerif-48"/>
       <use x="254.492188" xlink:href="#DejaVuSerif-48"/>
      </g>
     </g>
    </g>
    <g id="ytick_4">
     <g id="line2d_21">
      <path clip-path="url(#pb2dd3f5a70)" d="M 76.286875 358.730519 
L 1080.686875 358.730519 
" style="fill:none;stroke:#b0b0b0;stroke-linecap:square;stroke-width:0.8;"/>
     </g>
     <g id="line2d_22">
      <g>
       <use style="stroke:#000000;stroke-width:0.8;" x="76.286875" xlink:href="#ma3485d7ce0" y="358.730519"/>
      </g>
     </g>
     <g id="text_11">
      <!-- 30000 -->
      <g transform="translate(24.749375 364.049425)scale(0.14 -0.14)">
       <use xlink:href="#DejaVuSerif-51"/>
       <use x="63.623047" xlink:href="#DejaVuSerif-48"/>
       <use x="127.246094" xlink:href="#DejaVuSerif-48"/>
       <use x="190.869141" xlink:href="#DejaVuSerif-48"/>
       <use x="254.492188" xlink:href="#DejaVuSerif-48"/>
      </g>
     </g>
    </g>
    <g id="ytick_5">
     <g id="line2d_23">
      <path clip-path="url(#pb2dd3f5a70)" d="M 76.286875 252.212233 
L 1080.686875 252.212233 
" style="fill:none;stroke:#b0b0b0;stroke-linecap:square;stroke-width:0.8;"/>
     </g>
     <g id="line2d_24">
      <g>
       <use style="stroke:#000000;stroke-width:0.8;" x="76.286875" xlink:href="#ma3485d7ce0" y="252.212233"/>
      </g>
     </g>
     <g id="text_12">
      <!-- 40000 -->
      <g transform="translate(24.749375 257.53114)scale(0.14 -0.14)">
       <use xlink:href="#DejaVuSerif-52"/>
       <use x="63.623047" xlink:href="#DejaVuSerif-48"/>
       <use x="127.246094" xlink:href="#DejaVuSerif-48"/>
       <use x="190.869141" xlink:href="#DejaVuSerif-48"/>
       <use x="254.492188" xlink:href="#DejaVuSerif-48"/>
      </g>
     </g>
    </g>
    <g id="ytick_6">
     <g id="line2d_25">
      <path clip-path="url(#pb2dd3f5a70)" d="M 76.286875 145.693948 
L 1080.686875 145.693948 
" style="fill:none;stroke:#b0b0b0;stroke-linecap:square;stroke-width:0.8;"/>
     </g>
     <g id="line2d_26">
      <g>
       <use style="stroke:#000000;stroke-width:0.8;" x="76.286875" xlink:href="#ma3485d7ce0" y="145.693948"/>
      </g>
     </g>
     <g id="text_13">
      <!-- 50000 -->
      <defs>
       <path d="M 50.296875 72.90625 
L 50.296875 64.890625 
L 16.890625 64.890625 
L 16.890625 44 
Q 19.4375 45.75 22.828125 46.625 
Q 26.21875 47.515625 30.421875 47.515625 
Q 42.234375 47.515625 49.0625 40.96875 
Q 55.90625 34.421875 55.90625 23.09375 
Q 55.90625 11.53125 49 5.046875 
Q 42.09375 -1.421875 29.59375 -1.421875 
Q 24.5625 -1.421875 19.28125 -0.1875 
Q 14.015625 1.03125 8.5 3.515625 
L 8.5 17.671875 
L 14.015625 17.671875 
Q 14.453125 10.75 18.421875 7.078125 
Q 22.40625 3.421875 29.59375 3.421875 
Q 37.3125 3.421875 41.453125 8.5 
Q 45.609375 13.578125 45.609375 23.09375 
Q 45.609375 32.5625 41.484375 37.609375 
Q 37.359375 42.671875 29.59375 42.671875 
Q 25.203125 42.671875 21.84375 41.109375 
Q 18.5 39.546875 15.921875 36.28125 
L 11.71875 36.28125 
L 11.71875 72.90625 
z
" id="DejaVuSerif-53"/>
      </defs>
      <g transform="translate(24.749375 151.012854)scale(0.14 -0.14)">
       <use xlink:href="#DejaVuSerif-53"/>
       <use x="63.623047" xlink:href="#DejaVuSerif-48"/>
       <use x="127.246094" xlink:href="#DejaVuSerif-48"/>
       <use x="190.869141" xlink:href="#DejaVuSerif-48"/>
       <use x="254.492188" xlink:href="#DejaVuSerif-48"/>
      </g>
     </g>
    </g>
    <g id="ytick_7">
     <g id="line2d_27">
      <path clip-path="url(#pb2dd3f5a70)" d="M 76.286875 39.175663 
L 1080.686875 39.175663 
" style="fill:none;stroke:#b0b0b0;stroke-linecap:square;stroke-width:0.8;"/>
     </g>
     <g id="line2d_28">
      <g>
       <use style="stroke:#000000;stroke-width:0.8;" x="76.286875" xlink:href="#ma3485d7ce0" y="39.175663"/>
      </g>
     </g>
     <g id="text_14">
      <!-- 60000 -->
      <g transform="translate(24.749375 44.494569)scale(0.14 -0.14)">
       <use xlink:href="#DejaVuSerif-54"/>
       <use x="63.623047" xlink:href="#DejaVuSerif-48"/>
       <use x="127.246094" xlink:href="#DejaVuSerif-48"/>
       <use x="190.869141" xlink:href="#DejaVuSerif-48"/>
       <use x="254.492188" xlink:href="#DejaVuSerif-48"/>
      </g>
     </g>
    </g>
    <g id="text_15">
     <!-- Cumulative Counts -->
     <defs>
      <path d="M 70.515625 19.28125 
Q 67.28125 9.078125 59.6875 3.828125 
Q 52.09375 -1.421875 40.484375 -1.421875 
Q 33.34375 -1.421875 27.234375 1.015625 
Q 21.140625 3.46875 16.40625 8.203125 
Q 10.9375 13.671875 8.265625 20.625 
Q 5.609375 27.59375 5.609375 36.375 
Q 5.609375 53.375 15.421875 63.796875 
Q 25.25 74.21875 41.3125 74.21875 
Q 47.265625 74.21875 54 72.65625 
Q 60.75 71.09375 68.5 67.921875 
L 68.5 51.125 
L 62.984375 51.125 
Q 61.1875 60.296875 55.734375 64.640625 
Q 50.296875 69 40.484375 69 
Q 28.8125 69 22.796875 60.71875 
Q 16.796875 52.4375 16.796875 36.375 
Q 16.796875 20.359375 22.796875 12.078125 
Q 28.8125 3.8125 40.484375 3.8125 
Q 48.640625 3.8125 53.90625 7.6875 
Q 59.1875 11.578125 61.53125 19.28125 
z
" id="DejaVuSerif-67"/>
      <path d="M 35.40625 51.90625 
L 52.203125 51.90625 
L 52.203125 5.171875 
L 60.6875 5.171875 
L 60.6875 0 
L 43.21875 0 
L 43.21875 9.1875 
Q 40.71875 4 36.765625 1.28125 
Q 32.8125 -1.421875 27.59375 -1.421875 
Q 18.953125 -1.421875 14.875 3.484375 
Q 10.796875 8.40625 10.796875 18.890625 
L 10.796875 46.6875 
L 2.6875 46.6875 
L 2.6875 51.90625 
L 19.828125 51.90625 
L 19.828125 21.6875 
Q 19.828125 12.203125 22.140625 8.6875 
Q 24.46875 5.171875 30.421875 5.171875 
Q 36.671875 5.171875 39.9375 9.765625 
Q 43.21875 14.359375 43.21875 23.09375 
L 43.21875 46.6875 
L 35.40625 46.6875 
z
" id="DejaVuSerif-117"/>
      <path d="M 51.8125 41.796875 
Q 54.390625 47.515625 58.421875 50.421875 
Q 62.453125 53.328125 67.828125 53.328125 
Q 75.984375 53.328125 79.984375 48.265625 
Q 83.984375 43.21875 83.984375 33.015625 
L 83.984375 5.171875 
L 92.09375 5.171875 
L 92.09375 0 
L 67.1875 0 
L 67.1875 5.171875 
L 75 5.171875 
L 75 31.984375 
Q 75 39.9375 72.65625 43.3125 
Q 70.3125 46.6875 64.890625 46.6875 
Q 58.890625 46.6875 55.734375 42.140625 
Q 52.59375 37.59375 52.59375 28.90625 
L 52.59375 5.171875 
L 60.40625 5.171875 
L 60.40625 0 
L 35.796875 0 
L 35.796875 5.171875 
L 43.609375 5.171875 
L 43.609375 32.328125 
Q 43.609375 40.09375 41.265625 43.390625 
Q 38.921875 46.6875 33.5 46.6875 
Q 27.484375 46.6875 24.328125 42.140625 
Q 21.1875 37.59375 21.1875 28.90625 
L 21.1875 5.171875 
L 29 5.171875 
L 29 0 
L 4.109375 0 
L 4.109375 5.171875 
L 12.203125 5.171875 
L 12.203125 46.78125 
L 3.609375 46.78125 
L 3.609375 51.90625 
L 21.1875 51.90625 
L 21.1875 42.671875 
Q 23.6875 47.859375 27.53125 50.59375 
Q 31.390625 53.328125 36.28125 53.328125 
Q 42.328125 53.328125 46.375 50.3125 
Q 50.4375 47.3125 51.8125 41.796875 
z
" id="DejaVuSerif-109"/>
      <path d="M 20.515625 5.171875 
L 29 5.171875 
L 29 0 
L 2.875 0 
L 2.875 5.171875 
L 11.53125 5.171875 
L 11.53125 70.796875 
L 2.875 70.796875 
L 2.875 75.984375 
L 20.515625 75.984375 
z
" id="DejaVuSerif-108"/>
      <path d="M 9.71875 68.015625 
Q 9.71875 70.265625 11.34375 71.921875 
Q 12.984375 73.578125 15.28125 73.578125 
Q 17.53125 73.578125 19.15625 71.921875 
Q 20.796875 70.265625 20.796875 68.015625 
Q 20.796875 65.71875 19.1875 64.109375 
Q 17.578125 62.5 15.28125 62.5 
Q 12.984375 62.5 11.34375 64.109375 
Q 9.71875 65.71875 9.71875 68.015625 
z
M 21.1875 5.171875 
L 29.6875 5.171875 
L 29.6875 0 
L 3.609375 0 
L 3.609375 5.171875 
L 12.203125 5.171875 
L 12.203125 46.6875 
L 3.609375 46.6875 
L 3.609375 51.90625 
L 21.1875 51.90625 
z
" id="DejaVuSerif-105"/>
      <path d="M 24.703125 0 
L 5.609375 46.6875 
L -0.296875 46.6875 
L -0.296875 51.90625 
L 23.578125 51.90625 
L 23.578125 46.6875 
L 15.28125 46.6875 
L 29.890625 10.984375 
L 44.484375 46.6875 
L 36.71875 46.6875 
L 36.71875 51.90625 
L 56.203125 51.90625 
L 56.203125 46.6875 
L 50.390625 46.6875 
L 31.296875 0 
z
" id="DejaVuSerif-118"/>
      <path id="DejaVuSerif-32"/>
      <path d="M 30.078125 3.421875 
Q 37.3125 3.421875 40.984375 9.125 
Q 44.671875 14.84375 44.671875 25.984375 
Q 44.671875 37.109375 40.984375 42.796875 
Q 37.3125 48.484375 30.078125 48.484375 
Q 22.859375 48.484375 19.171875 42.796875 
Q 15.484375 37.109375 15.484375 25.984375 
Q 15.484375 14.84375 19.1875 9.125 
Q 22.90625 3.421875 30.078125 3.421875 
z
M 30.078125 -1.421875 
Q 18.75 -1.421875 11.859375 6.078125 
Q 4.984375 13.578125 4.984375 25.984375 
Q 4.984375 38.375 11.84375 45.84375 
Q 18.703125 53.328125 30.078125 53.328125 
Q 41.453125 53.328125 48.3125 45.84375 
Q 55.171875 38.375 55.171875 25.984375 
Q 55.171875 13.578125 48.3125 6.078125 
Q 41.453125 -1.421875 30.078125 -1.421875 
z
" id="DejaVuSerif-111"/>
      <path d="M 4.109375 0 
L 4.109375 5.171875 
L 12.203125 5.171875 
L 12.203125 46.6875 
L 3.609375 46.6875 
L 3.609375 51.90625 
L 21.1875 51.90625 
L 21.1875 42.671875 
Q 23.6875 47.953125 27.65625 50.640625 
Q 31.640625 53.328125 36.921875 53.328125 
Q 45.515625 53.328125 49.5625 48.390625 
Q 53.609375 43.453125 53.609375 33.015625 
L 53.609375 5.171875 
L 61.625 5.171875 
L 61.625 0 
L 36.8125 0 
L 36.8125 5.171875 
L 44.578125 5.171875 
L 44.578125 30.171875 
Q 44.578125 39.703125 42.234375 43.234375 
Q 39.890625 46.78125 33.984375 46.78125 
Q 27.734375 46.78125 24.453125 42.203125 
Q 21.1875 37.640625 21.1875 28.90625 
L 21.1875 5.171875 
L 29 5.171875 
L 29 0 
z
" id="DejaVuSerif-110"/>
     </defs>
     <g transform="translate(17.837812 419.916)rotate(-90)scale(0.14 -0.14)">
      <use xlink:href="#DejaVuSerif-67"/>
      <use x="76.513672" xlink:href="#DejaVuSerif-117"/>
      <use x="140.917969" xlink:href="#DejaVuSerif-109"/>
      <use x="235.742188" xlink:href="#DejaVuSerif-117"/>
      <use x="300.146484" xlink:href="#DejaVuSerif-108"/>
      <use x="332.128906" xlink:href="#DejaVuSerif-97"/>
      <use x="391.748047" xlink:href="#DejaVuSerif-116"/>
      <use x="431.933594" xlink:href="#DejaVuSerif-105"/>
      <use x="463.916016" xlink:href="#DejaVuSerif-118"/>
      <use x="520.410156" xlink:href="#DejaVuSerif-101"/>
      <use x="579.589844" xlink:href="#DejaVuSerif-32"/>
      <use x="611.376953" xlink:href="#DejaVuSerif-67"/>
      <use x="687.890625" xlink:href="#DejaVuSerif-111"/>
      <use x="748.095703" xlink:href="#DejaVuSerif-117"/>
      <use x="812.5" xlink:href="#DejaVuSerif-110"/>
      <use x="876.904297" xlink:href="#DejaVuSerif-116"/>
      <use x="917.089844" xlink:href="#DejaVuSerif-115"/>
     </g>
    </g>
   </g>
   <g id="line2d_29">
    <path clip-path="url(#pb2dd3f5a70)" d="M 121.94142 678.274723 
L 137.630268 678.210812 
L 153.319115 678.157553 
L 159.594654 678.061687 
L 187.834579 677.507792 
L 190.972348 677.188237 
L 197.247887 675.398729 
L 200.385657 675.398729 
L 203.523426 673.769 
L 206.661196 673.769 
L 209.798965 673.257712 
L 212.936734 671.713197 
L 216.074504 671.26582 
L 219.212273 670.562799 
L 222.350043 670.562799 
L 225.487812 668.869159 
L 228.625582 668.869159 
L 231.763351 668.05962 
L 234.901121 667.953101 
L 238.03889 666.930526 
L 244.314429 665.780128 
L 247.452198 665.471225 
L 250.589968 665.471225 
L 253.727737 664.80016 
L 256.865507 664.533864 
L 260.003276 664.054532 
L 269.416584 662.893483 
L 272.554354 662.893483 
L 275.692123 662.41415 
L 278.829893 662.126551 
L 281.967662 661.657871 
L 285.105432 661.657871 
L 288.243201 661.508745 
L 291.380971 661.050716 
L 294.51874 661.050716 
L 297.656509 660.187918 
L 300.794279 659.921623 
L 303.932048 659.165343 
L 310.207587 658.547537 
L 313.345357 657.535613 
L 316.483126 657.535613 
L 322.758665 656.417171 
L 332.171973 655.437203 
L 335.309743 655.160255 
L 338.447512 655.160255 
L 341.585282 654.595708 
L 344.723051 654.510494 
L 350.99859 653.913991 
L 354.13636 653.626392 
L 357.274129 653.466614 
L 360.411898 653.466614 
L 363.549668 653.221622 
L 369.825207 652.97663 
L 379.238515 652.422735 
L 382.376285 652.422735 
L 385.514054 652.252306 
L 388.651823 652.231002 
L 398.065132 651.581241 
L 416.891748 651.037998 
L 426.305057 650.87822 
L 429.442826 650.622576 
L 432.580596 650.579969 
L 435.718365 650.345629 
L 441.993904 650.249762 
L 448.269443 650.249762 
L 451.407212 649.962163 
L 470.233829 649.429571 
L 473.371599 649.046106 
L 489.060446 648.566773 
L 492.198215 648.566773 
L 495.335985 648.225915 
L 511.024832 647.629412 
L 514.162601 647.629412 
L 517.300371 647.352465 
L 520.43814 647.224643 
L 523.57591 647.224643 
L 526.713679 646.968999 
L 532.989218 646.894436 
L 536.126987 646.894436 
L 539.264757 646.56423 
L 545.540296 646.244675 
L 551.815835 645.765342 
L 558.091374 645.765342 
L 561.229143 645.104929 
L 567.504682 644.742767 
L 573.780221 644.220827 
L 580.05576 644.220827 
L 583.193529 643.134341 
L 595.744607 641.866773 
L 602.020146 641.866773 
L 605.157915 641.003975 
L 608.295685 640.758983 
L 617.708993 639.502067 
L 627.122301 639.502067 
L 630.260071 637.9469 
L 639.673379 636.381082 
L 645.948918 636.381082 
L 649.086688 634.985692 
L 652.224457 634.495708 
L 661.637765 631.864706 
L 667.913304 631.864706 
L 671.051074 629.350875 
L 674.188843 628.466773 
L 677.326613 627.742449 
L 683.602151 625.931638 
L 689.87769 625.931638 
L 693.01546 623.066296 
L 699.290999 621.788076 
L 702.428768 621.063752 
L 705.566538 619.742925 
L 711.842076 619.742925 
L 714.979846 616.611288 
L 718.117615 615.993482 
L 721.255385 614.885692 
L 724.393154 613.937679 
L 727.530924 612.648808 
L 736.944232 612.648808 
L 740.082002 608.079173 
L 743.219771 607.01399 
L 749.49531 604.127345 
L 755.770849 604.127345 
L 758.908618 600.750715 
L 762.046388 599.717488 
L 765.184157 598.417965 
L 768.321927 596.660413 
L 771.459696 594.753736 
L 777.735235 594.753736 
L 780.873004 590.855166 
L 787.148543 588.863274 
L 790.286313 587.286804 
L 793.424082 586.242925 
L 799.699621 586.242925 
L 802.83739 583.398886 
L 805.97516 582.280444 
L 809.112929 580.948966 
L 812.250699 580.075516 
L 815.388468 578.360571 
L 821.664007 578.360571 
L 824.801777 574.547217 
L 827.939546 573.46073 
L 837.352854 569.796501 
L 846.766163 569.796501 
L 849.903932 563.948647 
L 853.041702 562.265659 
L 856.179471 560.753099 
L 859.317241 559.102065 
L 865.592779 559.102065 
L 868.730549 553.797455 
L 871.868318 552.018599 
L 875.006088 549.856278 
L 878.143857 546.937677 
L 881.281627 544.562319 
L 887.557166 544.562319 
L 890.694935 535.859776 
L 893.832704 533.548329 
L 896.970474 530.491254 
L 900.108243 527.998726 
L 903.246013 525.101429 
L 906.383782 521.351985 
L 912.659321 513.171381 
L 915.797091 509.986484 
L 918.93486 506.418121 
L 922.072629 501.891094 
L 928.348168 489.577581 
L 931.485938 483.8682 
L 934.623707 478.947056 
L 940.899246 467.656117 
L 947.174785 454.756753 
L 956.588093 433.889821 
L 959.725863 426.25246 
L 962.863632 418.146418 
L 969.139171 406.940695 
L 972.276941 399.345941 
L 975.41471 392.677896 
L 978.552479 386.35071 
L 981.690249 376.32734 
L 984.828018 368.46629 
L 991.103557 349.314302 
L 994.241327 341.325431 
L 997.379096 330.588388 
L 1000.516866 324.239898 
L 1003.654635 317.252298 
L 1006.792405 308.368673 
L 1013.067943 293.413506 
L 1016.205713 286.521773 
L 1019.343482 278.788546 
L 1022.481252 271.896812 
L 1025.619021 265.867878 
L 1028.756791 259.274396 
L 1035.03233 243.722726 
L 1035.03233 243.722726 
" style="fill:none;stroke:#f08080;stroke-linecap:square;stroke-width:1.5;"/>
   </g>
   <g id="line2d_30">
    <path clip-path="url(#pb2dd3f5a70)" d="M 121.94142 678.274723 
L 137.630268 678.210812 
L 153.319115 678.157553 
L 159.594654 678.061687 
L 187.834579 677.507792 
L 190.972348 677.188237 
L 197.247887 675.398729 
L 200.385657 675.398729 
L 203.523426 673.769 
L 206.661196 673.769 
L 209.798965 673.257712 
L 212.936734 671.713197 
L 216.074504 671.26582 
L 219.212273 670.562799 
L 222.350043 670.562799 
L 225.487812 668.869159 
L 228.625582 668.869159 
L 231.763351 668.05962 
L 234.901121 667.953101 
L 238.03889 666.930526 
L 244.314429 665.780128 
L 247.452198 665.471225 
L 250.589968 665.471225 
L 253.727737 664.80016 
L 256.865507 664.533864 
L 260.003276 664.054532 
L 269.416584 662.893483 
L 272.554354 662.893483 
L 275.692123 662.41415 
L 278.829893 662.126551 
L 281.967662 661.657871 
L 285.105432 661.657871 
L 288.243201 661.508745 
L 291.380971 661.050716 
L 294.51874 661.050716 
L 297.656509 660.187918 
L 300.794279 659.921623 
L 303.932048 659.165343 
L 310.207587 658.547537 
L 313.345357 657.535613 
L 316.483126 657.535613 
L 322.758665 656.417171 
L 332.171973 655.437203 
L 335.309743 655.160255 
L 338.447512 655.160255 
L 341.585282 654.595708 
L 344.723051 654.510494 
L 350.99859 653.913991 
L 354.13636 653.626392 
L 357.274129 653.466614 
L 360.411898 653.466614 
L 363.549668 653.221622 
L 369.825207 652.97663 
L 379.238515 652.422735 
L 382.376285 652.422735 
L 385.514054 652.252306 
L 388.651823 652.231002 
L 398.065132 651.581241 
L 416.891748 651.037998 
L 426.305057 650.87822 
L 429.442826 650.622576 
L 432.580596 650.579969 
L 435.718365 650.345629 
L 441.993904 650.249762 
L 448.269443 650.249762 
L 451.407212 649.962163 
L 470.233829 649.429571 
L 473.371599 649.046106 
L 489.060446 648.566773 
L 492.198215 648.566773 
L 495.335985 648.225915 
L 511.024832 647.629412 
L 514.162601 647.629412 
L 517.300371 647.352465 
L 520.43814 647.224643 
L 523.57591 647.224643 
L 526.713679 646.968999 
L 532.989218 646.894436 
L 536.126987 646.894436 
L 539.264757 646.56423 
L 545.540296 646.244675 
L 551.815835 645.765342 
L 558.091374 645.765342 
L 561.229143 645.104929 
L 567.504682 644.742767 
L 573.780221 644.220827 
L 580.05576 644.220827 
L 583.193529 643.134341 
L 595.744607 641.866773 
L 602.020146 641.866773 
L 605.157915 641.003975 
L 608.295685 640.758983 
L 617.708993 639.502067 
L 630.260071 636.101623 
L 642.811149 632.403628 
L 652.224457 629.419348 
L 661.637765 626.241402 
L 671.051074 622.857278 
L 680.464382 619.253668 
L 689.87769 615.416412 
L 699.290999 611.330448 
L 708.704307 606.979751 
L 718.117615 602.347282 
L 727.530924 597.414916 
L 736.944232 592.163381 
L 746.35754 586.572183 
L 755.770849 580.619537 
L 765.184157 574.282284 
L 771.459696 569.831684 
L 777.735235 565.191567 
L 784.010774 560.353947 
L 790.286313 555.310505 
L 796.561852 550.052582 
L 802.83739 544.571161 
L 809.112929 538.856857 
L 815.388468 532.8999 
L 821.664007 526.690122 
L 827.939546 520.216939 
L 834.215085 513.469339 
L 840.490624 506.435862 
L 846.766163 499.104584 
L 853.041702 491.463102 
L 859.317241 483.498513 
L 865.592779 475.197397 
L 871.868318 466.545798 
L 878.143857 457.529205 
L 884.419396 448.132529 
L 890.694935 438.340085 
L 896.970474 428.135573 
L 903.246013 417.502048 
L 909.521552 406.421908 
L 915.797091 394.876864 
L 922.072629 382.847919 
L 928.348168 370.315345 
L 934.623707 357.258656 
L 940.899246 343.656586 
L 947.174785 329.487064 
L 953.450324 314.727186 
L 959.725863 299.35319 
L 966.001402 283.34043 
L 972.276941 266.663349 
L 978.552479 249.295456 
L 984.828018 231.209291 
L 991.103557 212.376405 
L 997.379096 192.767331 
L 1003.654635 172.351556 
L 1009.930174 151.097496 
L 1016.205713 128.972468 
L 1022.481252 105.942664 
L 1028.756791 81.973127 
L 1035.03233 57.027725 
L 1035.03233 57.027725 
" style="fill:none;stroke:#8b0000;stroke-linecap:square;stroke-width:1.5;"/>
   </g>
   <g id="line2d_31">
    <path clip-path="url(#pb2dd3f5a70)" d="M 219.212273 676.304135 
L 222.350043 676.304135 
L 225.487812 674.067251 
L 228.625582 674.067251 
L 231.763351 673.289667 
L 234.901121 672.884898 
L 238.03889 671.830367 
L 241.176659 671.457553 
L 244.314429 671.457553 
L 247.452198 670.775836 
L 250.589968 670.786488 
L 253.727737 669.944993 
L 256.865507 669.944993 
L 260.003276 669.359143 
L 269.416584 668.64547 
L 272.554354 668.64547 
L 278.829893 668.251353 
L 281.967662 668.112879 
L 288.243201 668.112879 
L 291.380971 667.995709 
L 294.51874 667.995709 
L 297.656509 667.218125 
L 300.794279 667.196821 
L 303.932048 666.792052 
L 310.207587 666.419238 
L 313.345357 666.174246 
L 316.483126 666.174246 
L 319.620896 665.609699 
L 322.758665 665.172974 
L 325.896435 664.384739 
L 329.034204 664.203658 
L 332.171973 663.830844 
L 335.309743 663.628459 
L 338.447512 663.628459 
L 341.585282 663.191734 
L 344.723051 662.605883 
L 350.99859 662.17981 
L 354.13636 661.466138 
L 357.274129 660.613991 
L 360.411898 660.613991 
L 363.549668 659.974882 
L 366.687437 658.771225 
L 379.238515 657.706042 
L 382.376285 657.706042 
L 385.514054 657.34388 
L 388.651823 657.248014 
L 394.927362 656.768681 
L 401.202901 656.374564 
L 404.340671 656.374564 
L 407.47844 655.895231 
L 416.891748 655.351988 
L 423.167287 655.053737 
L 426.305057 655.053737 
L 432.580596 654.542449 
L 441.993904 654.084421 
L 448.269443 654.084421 
L 451.407212 653.690303 
L 467.09606 653.210971 
L 470.233829 653.210971 
L 473.371599 652.774246 
L 476.509368 652.550557 
L 492.198215 652.252306 
L 501.611524 651.485374 
L 504.749293 651.474723 
L 507.887062 651.176471 
L 514.162601 651.176471 
L 517.300371 650.835613 
L 520.43814 650.697139 
L 523.57591 650.697139 
L 529.851449 650.505406 
L 536.126987 650.505406 
L 542.402526 650.111289 
L 548.678065 649.876948 
L 551.815835 649.749126 
L 558.091374 649.749126 
L 561.229143 649.333705 
L 564.366912 649.205883 
L 567.504682 648.960891 
L 570.642451 648.577425 
L 573.780221 648.438951 
L 580.05576 648.438951 
L 583.193529 647.842449 
L 592.606838 647.416376 
L 595.744607 647.03291 
L 602.020146 647.03291 
L 605.157915 645.871861 
L 611.433454 645.16884 
L 614.571224 644.678856 
L 617.708993 644.540382 
L 627.122301 644.540382 
L 630.260071 643.42194 
L 633.39784 643.262163 
L 636.53561 642.974563 
L 639.673379 642.569794 
L 645.948918 642.569794 
L 649.086688 641.802862 
L 655.362226 641.334182 
L 661.637765 640.652465 
L 667.913304 640.652465 
L 671.051074 639.374245 
L 677.326613 638.35167 
L 680.464382 637.329094 
L 683.602151 636.860414 
L 689.87769 636.860414 
L 693.01546 634.953736 
L 696.153229 634.463752 
L 699.290999 633.558347 
L 705.566538 632.375994 
L 711.842076 632.375994 
L 714.979846 630.714309 
L 718.117615 630.298887 
L 721.255385 629.233705 
L 724.393154 628.818283 
L 727.530924 628.15787 
L 736.944232 628.15787 
L 740.082002 625.260573 
L 743.219771 623.961049 
L 749.49531 622.118283 
L 755.770849 622.118283 
L 758.908618 620.275517 
L 765.184157 618.145151 
L 771.459696 616.536725 
L 780.873004 616.589984 
L 784.010774 608.100477 
L 787.148543 606.183148 
L 790.286313 604.606677 
L 793.424082 603.339109 
L 799.699621 603.339109 
L 802.83739 600.037043 
L 805.97516 598.556438 
L 815.388468 595.062639 
L 821.664007 595.062639 
L 824.801777 591.845786 
L 827.939546 591.11081 
L 834.215085 588.831319 
L 837.352854 587.723529 
L 846.766163 587.723529 
L 849.903932 582.695866 
L 859.317241 578.29666 
L 865.592779 578.29666 
L 868.730549 574.398091 
L 878.143857 570.552781 
L 881.281627 569.136088 
L 887.557166 569.136088 
L 890.694935 563.948647 
L 893.832704 561.605245 
L 896.970474 558.516215 
L 900.108243 556.343242 
L 903.246013 553.978536 
L 909.521552 553.978536 
L 912.659321 548.258504 
L 918.93486 543.443877 
L 922.072629 541.878059 
L 925.210399 539.43879 
L 931.485938 539.43879 
L 934.623707 535.284577 
L 937.761477 532.312717 
L 940.899246 532.312717 
L 944.037016 528.211763 
L 947.174785 519.562478 
L 953.450324 519.562478 
L 956.588093 506.929409 
L 959.725863 502.860411 
L 962.863632 498.120347 
L 966.001402 495.010013 
L 969.139171 492.123368 
L 975.41471 492.123368 
L 978.552479 475.165657 
L 981.690249 469.456276 
L 984.828018 467.230044 
L 987.965788 465.270108 
L 991.103557 451.35882 
L 997.379096 451.35882 
L 1000.516866 432.110966 
L 1006.792405 418.125115 
L 1009.930174 412.756593 
L 1013.067943 404.980758 
L 1019.343482 404.980758 
L 1022.481252 387.62893 
L 1025.619021 381.131314 
L 1028.756791 375.262157 
L 1031.89456 369.936242 
L 1035.03233 363.012554 
L 1035.03233 363.012554 
" style="fill:none;stroke:#00ff7f;stroke-linecap:square;stroke-width:1.5;"/>
   </g>
   <g id="line2d_32">
    <path clip-path="url(#pb2dd3f5a70)" d="M 219.212273 676.304135 
L 222.350043 676.304135 
L 225.487812 674.067251 
L 228.625582 674.067251 
L 231.763351 673.289667 
L 234.901121 672.884898 
L 238.03889 671.830367 
L 241.176659 671.457553 
L 244.314429 671.457553 
L 247.452198 670.775836 
L 250.589968 670.786488 
L 253.727737 669.944993 
L 256.865507 669.944993 
L 260.003276 669.359143 
L 269.416584 668.64547 
L 272.554354 668.64547 
L 278.829893 668.251353 
L 281.967662 668.112879 
L 288.243201 668.112879 
L 291.380971 667.995709 
L 294.51874 667.995709 
L 297.656509 667.218125 
L 300.794279 667.196821 
L 303.932048 666.792052 
L 310.207587 666.419238 
L 313.345357 666.174246 
L 316.483126 666.174246 
L 319.620896 665.609699 
L 322.758665 665.172974 
L 325.896435 664.384739 
L 329.034204 664.203658 
L 332.171973 663.830844 
L 335.309743 663.628459 
L 338.447512 663.628459 
L 341.585282 663.191734 
L 344.723051 662.605883 
L 350.99859 662.17981 
L 354.13636 661.466138 
L 357.274129 660.613991 
L 360.411898 660.613991 
L 363.549668 659.974882 
L 366.687437 658.771225 
L 379.238515 657.706042 
L 382.376285 657.706042 
L 385.514054 657.34388 
L 388.651823 657.248014 
L 394.927362 656.768681 
L 401.202901 656.374564 
L 404.340671 656.374564 
L 407.47844 655.895231 
L 416.891748 655.351988 
L 423.167287 655.053737 
L 426.305057 655.053737 
L 432.580596 654.542449 
L 441.993904 654.084421 
L 448.269443 654.084421 
L 451.407212 653.690303 
L 467.09606 653.210971 
L 470.233829 653.210971 
L 473.371599 652.774246 
L 476.509368 652.550557 
L 492.198215 652.252306 
L 501.611524 651.485374 
L 504.749293 651.474723 
L 507.887062 651.176471 
L 514.162601 651.176471 
L 517.300371 650.835613 
L 520.43814 650.697139 
L 523.57591 650.697139 
L 529.851449 650.505406 
L 536.126987 650.505406 
L 542.402526 650.111289 
L 548.678065 649.876948 
L 551.815835 649.749126 
L 558.091374 649.749126 
L 561.229143 649.333705 
L 564.366912 649.205883 
L 567.504682 648.960891 
L 570.642451 648.577425 
L 573.780221 648.438951 
L 580.05576 648.438951 
L 583.193529 647.842449 
L 592.606838 647.416376 
L 595.744607 647.03291 
L 602.020146 647.03291 
L 605.157915 645.871861 
L 611.433454 645.16884 
L 614.571224 644.678856 
L 617.708993 644.540382 
L 633.39784 642.16909 
L 649.086688 639.535149 
L 661.637765 637.219486 
L 674.188843 634.700892 
L 686.739921 631.961629 
L 699.290999 628.982416 
L 711.842076 625.742297 
L 724.393154 622.218498 
L 733.806463 619.374675 
L 743.219771 616.346181 
L 752.633079 613.121071 
L 762.046388 609.686637 
L 771.459696 606.029352 
L 780.873004 602.134827 
L 790.286313 597.987751 
L 799.699621 593.571837 
L 809.112929 588.869759 
L 818.526238 583.863088 
L 827.939546 578.532222 
L 837.352854 572.856318 
L 846.766163 566.813212 
L 853.041702 562.568895 
L 859.317241 558.143588 
L 865.592779 553.529638 
L 871.868318 548.719077 
L 878.143857 543.703605 
L 884.419396 538.47458 
L 890.694935 533.023 
L 896.970474 527.339495 
L 903.246013 521.414307 
L 909.521552 515.237278 
L 915.797091 508.797834 
L 922.072629 502.084966 
L 928.348168 495.087218 
L 934.623707 487.792665 
L 940.899246 480.188898 
L 947.174785 472.263007 
L 953.450324 464.001557 
L 959.725863 455.390571 
L 966.001402 446.415512 
L 972.276941 437.061259 
L 978.552479 427.312086 
L 984.828018 417.151641 
L 991.103557 406.562923 
L 997.379096 395.528257 
L 1003.654635 384.029272 
L 1009.930174 372.046876 
L 1016.205713 359.561229 
L 1022.481252 346.551719 
L 1028.756791 332.996935 
L 1035.03233 318.87464 
L 1035.03233 318.87464 
" style="fill:none;stroke:#006400;stroke-linecap:square;stroke-width:1.5;"/>
   </g>
   <g id="line2d_33">
    <path clip-path="url(#pb2dd3f5a70)" d="M 620.846763 678.285375 
L 620.846763 25.965375 
" style="fill:none;stroke:#708090;stroke-dasharray:2,3.3;stroke-dashoffset:0;stroke-width:2;"/>
   </g>
   <g id="patch_3">
    <path d="M 76.286875 678.285375 
L 76.286875 25.965375 
" style="fill:none;stroke:#000000;stroke-linecap:square;stroke-linejoin:miter;stroke-width:0.8;"/>
   </g>
   <g id="patch_4">
    <path d="M 1080.686875 678.285375 
L 1080.686875 25.965375 
" style="fill:none;stroke:#000000;stroke-linecap:square;stroke-linejoin:miter;stroke-width:0.8;"/>
   </g>
   <g id="patch_5">
    <path d="M 76.286875 678.285375 
L 1080.686875 678.285375 
" style="fill:none;stroke:#000000;stroke-linecap:square;stroke-linejoin:miter;stroke-width:0.8;"/>
   </g>
   <g id="patch_6">
    <path d="M 76.286875 25.965375 
L 1080.686875 25.965375 
" style="fill:none;stroke:#000000;stroke-linecap:square;stroke-linejoin:miter;stroke-width:0.8;"/>
   </g>
   <g id="text_16">
    <!-- Worst Case - Estimated vs. Actual: Infected and Recovered -->
    <defs>
     <path d="M 76.21875 0 
L 68.21875 0 
L 51.515625 59.28125 
L 34.8125 0 
L 26.8125 0 
L 7.71875 67.671875 
L 0.484375 67.671875 
L 0.484375 72.90625 
L 27.09375 72.90625 
L 27.09375 67.671875 
L 18.015625 67.671875 
L 33.203125 13.8125 
L 49.8125 72.90625 
L 57.71875 72.90625 
L 74.609375 13.1875 
L 89.890625 67.671875 
L 81.5 67.671875 
L 81.5 72.90625 
L 102.484375 72.90625 
L 102.484375 67.671875 
L 95.3125 67.671875 
z
" id="DejaVuSerif-87"/>
     <path d="M 47.796875 52 
L 47.796875 39.015625 
L 42.625 39.015625 
Q 42.390625 42.875 40.484375 44.78125 
Q 38.578125 46.6875 34.90625 46.6875 
Q 28.265625 46.6875 24.71875 42.09375 
Q 21.1875 37.5 21.1875 28.90625 
L 21.1875 5.171875 
L 31.59375 5.171875 
L 31.59375 0 
L 4.109375 0 
L 4.109375 5.171875 
L 12.203125 5.171875 
L 12.203125 46.78125 
L 3.609375 46.78125 
L 3.609375 51.90625 
L 21.1875 51.90625 
L 21.1875 42.671875 
Q 23.828125 48.09375 27.96875 50.703125 
Q 32.125 53.328125 38.09375 53.328125 
Q 40.28125 53.328125 42.703125 52.984375 
Q 45.125 52.640625 47.796875 52 
z
" id="DejaVuSerif-114"/>
     <path d="M 5.515625 0 
L 5.515625 5.171875 
L 14.796875 5.171875 
L 14.796875 67.671875 
L 5.515625 67.671875 
L 5.515625 72.90625 
L 64.203125 72.90625 
L 64.203125 56.6875 
L 58.203125 56.6875 
L 58.203125 66.890625 
L 24.703125 66.890625 
L 24.703125 42.484375 
L 48.578125 42.484375 
L 48.578125 51.609375 
L 54.59375 51.609375 
L 54.59375 27.390625 
L 48.578125 27.390625 
L 48.578125 36.53125 
L 24.703125 36.53125 
L 24.703125 6 
L 58.984375 6 
L 58.984375 16.21875 
L 64.984375 16.21875 
L 64.984375 0 
z
" id="DejaVuSerif-69"/>
     <path d="M 52.484375 5.171875 
L 61.078125 5.171875 
L 61.078125 0 
L 43.5 0 
L 43.5 8.109375 
Q 40.875 3.21875 36.796875 0.890625 
Q 32.71875 -1.421875 26.703125 -1.421875 
Q 17.140625 -1.421875 11.0625 6.171875 
Q 4.984375 13.765625 4.984375 25.984375 
Q 4.984375 38.1875 11.03125 45.75 
Q 17.09375 53.328125 26.703125 53.328125 
Q 32.71875 53.328125 36.796875 51 
Q 40.875 48.6875 43.5 43.796875 
L 43.5 70.796875 
L 35.015625 70.796875 
L 35.015625 75.984375 
L 52.484375 75.984375 
z
M 43.5 23.390625 
L 43.5 28.515625 
Q 43.5 37.84375 39.90625 42.765625 
Q 36.328125 47.703125 29.5 47.703125 
Q 22.5625 47.703125 19.015625 42.234375 
Q 15.484375 36.765625 15.484375 25.984375 
Q 15.484375 15.234375 19.015625 9.71875 
Q 22.5625 4.203125 29.5 4.203125 
Q 36.328125 4.203125 39.90625 9.109375 
Q 43.5 14.015625 43.5 23.390625 
z
" id="DejaVuSerif-100"/>
     <path d="M 9.421875 5.078125 
Q 9.421875 7.8125 11.28125 9.71875 
Q 13.140625 11.625 15.921875 11.625 
Q 18.609375 11.625 20.5 9.71875 
Q 22.40625 7.8125 22.40625 5.078125 
Q 22.40625 2.390625 20.5 0.484375 
Q 18.609375 -1.421875 15.921875 -1.421875 
Q 13.140625 -1.421875 11.28125 0.453125 
Q 9.421875 2.34375 9.421875 5.078125 
z
" id="DejaVuSerif-46"/>
     <path d="M 20.015625 26.421875 
L 46.78125 26.421875 
L 33.40625 61.078125 
z
M -0.59375 0 
L -0.59375 5.171875 
L 5.8125 5.171875 
L 31.78125 72.90625 
L 39.984375 72.90625 
L 66.015625 5.171875 
L 73.1875 5.171875 
L 73.1875 0 
L 46.6875 0 
L 46.6875 5.171875 
L 54.78125 5.171875 
L 48.6875 21.1875 
L 18.015625 21.1875 
L 11.921875 5.171875 
L 19.921875 5.171875 
L 19.921875 0 
z
" id="DejaVuSerif-65"/>
     <path d="M 51.421875 15.578125 
Q 49.515625 7.28125 44.09375 2.921875 
Q 38.671875 -1.421875 30.078125 -1.421875 
Q 18.75 -1.421875 11.859375 6.078125 
Q 4.984375 13.578125 4.984375 25.984375 
Q 4.984375 38.421875 11.859375 45.875 
Q 18.75 53.328125 30.078125 53.328125 
Q 35.015625 53.328125 39.890625 52.171875 
Q 44.78125 51.03125 49.703125 48.6875 
L 49.703125 35.40625 
L 44.484375 35.40625 
Q 43.453125 42.234375 40.015625 45.359375 
Q 36.578125 48.484375 30.171875 48.484375 
Q 22.90625 48.484375 19.1875 42.84375 
Q 15.484375 37.203125 15.484375 25.984375 
Q 15.484375 14.75 19.171875 9.078125 
Q 22.859375 3.421875 30.171875 3.421875 
Q 35.984375 3.421875 39.453125 6.4375 
Q 42.921875 9.46875 44.1875 15.578125 
z
" id="DejaVuSerif-99"/>
     <path d="M 10.40625 5.078125 
Q 10.40625 7.8125 12.28125 9.71875 
Q 14.15625 11.625 16.890625 11.625 
Q 19.625 11.625 21.5 9.71875 
Q 23.390625 7.8125 23.390625 5.078125 
Q 23.390625 2.34375 21.53125 0.453125 
Q 19.671875 -1.421875 16.890625 -1.421875 
Q 14.109375 -1.421875 12.25 0.453125 
Q 10.40625 2.34375 10.40625 5.078125 
z
M 10.40625 36.921875 
Q 10.40625 39.65625 12.28125 41.53125 
Q 14.15625 43.40625 16.890625 43.40625 
Q 19.671875 43.40625 21.53125 41.546875 
Q 23.390625 39.703125 23.390625 36.921875 
Q 23.390625 34.125 21.53125 32.265625 
Q 19.671875 30.421875 16.890625 30.421875 
Q 14.15625 30.421875 12.28125 32.296875 
Q 10.40625 34.1875 10.40625 36.921875 
z
" id="DejaVuSerif-58"/>
     <path d="M 24.703125 5.171875 
L 33.984375 5.171875 
L 33.984375 0 
L 5.515625 0 
L 5.515625 5.171875 
L 14.796875 5.171875 
L 14.796875 67.671875 
L 5.515625 67.671875 
L 5.515625 72.90625 
L 33.984375 72.90625 
L 33.984375 67.671875 
L 24.703125 67.671875 
z
" id="DejaVuSerif-73"/>
     <path d="M 43.015625 63.71875 
L 38.28125 63.71875 
Q 38.234375 67.390625 36.203125 69.28125 
Q 34.1875 71.1875 30.328125 71.1875 
Q 25.296875 71.1875 23.234375 68.421875 
Q 21.1875 65.671875 21.1875 58.59375 
L 21.1875 51.90625 
L 35.6875 51.90625 
L 35.6875 46.6875 
L 21.1875 46.6875 
L 21.1875 5.171875 
L 32.71875 5.171875 
L 32.71875 0 
L 3.609375 0 
L 3.609375 5.171875 
L 12.203125 5.171875 
L 12.203125 46.6875 
L 3.609375 46.6875 
L 3.609375 51.90625 
L 12.203125 51.90625 
L 12.203125 58.40625 
Q 12.203125 67.09375 16.71875 71.53125 
Q 21.234375 75.984375 29.984375 75.984375 
Q 33.25 75.984375 36.515625 75.390625 
Q 39.796875 74.8125 43.015625 73.578125 
z
" id="DejaVuSerif-102"/>
     <path d="M 47.90625 36.1875 
Q 51.3125 35.25 53.78125 33.03125 
Q 56.25 30.8125 58.203125 26.8125 
L 68.796875 5.171875 
L 77.6875 5.171875 
L 77.6875 0 
L 60.5 0 
L 49.125 23.1875 
Q 45.84375 29.9375 43.109375 31.90625 
Q 40.375 33.890625 35.59375 33.890625 
L 24.703125 33.890625 
L 24.703125 5.171875 
L 35.015625 5.171875 
L 35.015625 0 
L 5.515625 0 
L 5.515625 5.171875 
L 14.796875 5.171875 
L 14.796875 67.671875 
L 5.515625 67.671875 
L 5.515625 72.90625 
L 42.484375 72.90625 
Q 53.125 72.90625 58.90625 67.828125 
Q 64.703125 62.75 64.703125 53.421875 
Q 64.703125 45.90625 60.46875 41.578125 
Q 56.25 37.25 47.90625 36.1875 
z
M 24.703125 39.109375 
L 39.109375 39.109375 
Q 46.484375 39.109375 50 42.59375 
Q 53.515625 46.09375 53.515625 53.421875 
Q 53.515625 60.75 50 64.203125 
Q 46.484375 67.671875 39.109375 67.671875 
L 24.703125 67.671875 
z
" id="DejaVuSerif-82"/>
    </defs>
    <g transform="translate(327.005313 19.965375)scale(0.168 -0.168)">
     <use xlink:href="#DejaVuSerif-87"/>
     <use x="102.689453" xlink:href="#DejaVuSerif-111"/>
     <use x="162.894531" xlink:href="#DejaVuSerif-114"/>
     <use x="210.697266" xlink:href="#DejaVuSerif-115"/>
     <use x="262.015625" xlink:href="#DejaVuSerif-116"/>
     <use x="302.201172" xlink:href="#DejaVuSerif-32"/>
     <use x="333.988281" xlink:href="#DejaVuSerif-67"/>
     <use x="410.501953" xlink:href="#DejaVuSerif-97"/>
     <use x="470.121094" xlink:href="#DejaVuSerif-115"/>
     <use x="521.439453" xlink:href="#DejaVuSerif-101"/>
     <use x="580.619141" xlink:href="#DejaVuSerif-32"/>
     <use x="612.40625" xlink:href="#DejaVuSerif-45"/>
     <use x="646.195312" xlink:href="#DejaVuSerif-32"/>
     <use x="677.982422" xlink:href="#DejaVuSerif-69"/>
     <use x="750.980469" xlink:href="#DejaVuSerif-115"/>
     <use x="802.298828" xlink:href="#DejaVuSerif-116"/>
     <use x="842.484375" xlink:href="#DejaVuSerif-105"/>
     <use x="874.466797" xlink:href="#DejaVuSerif-109"/>
     <use x="969.291016" xlink:href="#DejaVuSerif-97"/>
     <use x="1028.910156" xlink:href="#DejaVuSerif-116"/>
     <use x="1069.095703" xlink:href="#DejaVuSerif-101"/>
     <use x="1128.275391" xlink:href="#DejaVuSerif-100"/>
     <use x="1192.289062" xlink:href="#DejaVuSerif-32"/>
     <use x="1224.076172" xlink:href="#DejaVuSerif-118"/>
     <use x="1280.570312" xlink:href="#DejaVuSerif-115"/>
     <use x="1331.888672" xlink:href="#DejaVuSerif-46"/>
     <use x="1363.675781" xlink:href="#DejaVuSerif-32"/>
     <use x="1395.462891" xlink:href="#DejaVuSerif-65"/>
     <use x="1467.679688" xlink:href="#DejaVuSerif-99"/>
     <use x="1523.685547" xlink:href="#DejaVuSerif-116"/>
     <use x="1563.871094" xlink:href="#DejaVuSerif-117"/>
     <use x="1628.275391" xlink:href="#DejaVuSerif-97"/>
     <use x="1687.894531" xlink:href="#DejaVuSerif-108"/>
     <use x="1719.876953" xlink:href="#DejaVuSerif-58"/>
     <use x="1753.568359" xlink:href="#DejaVuSerif-32"/>
     <use x="1785.355469" xlink:href="#DejaVuSerif-73"/>
     <use x="1824.857422" xlink:href="#DejaVuSerif-110"/>
     <use x="1889.261719" xlink:href="#DejaVuSerif-102"/>
     <use x="1926.273438" xlink:href="#DejaVuSerif-101"/>
     <use x="1985.453125" xlink:href="#DejaVuSerif-99"/>
     <use x="2041.458984" xlink:href="#DejaVuSerif-116"/>
     <use x="2081.644531" xlink:href="#DejaVuSerif-101"/>
     <use x="2140.824219" xlink:href="#DejaVuSerif-100"/>
     <use x="2204.837891" xlink:href="#DejaVuSerif-32"/>
     <use x="2236.625" xlink:href="#DejaVuSerif-97"/>
     <use x="2296.244141" xlink:href="#DejaVuSerif-110"/>
     <use x="2360.648438" xlink:href="#DejaVuSerif-100"/>
     <use x="2424.662109" xlink:href="#DejaVuSerif-32"/>
     <use x="2456.449219" xlink:href="#DejaVuSerif-82"/>
     <use x="2531.742188" xlink:href="#DejaVuSerif-101"/>
     <use x="2590.921875" xlink:href="#DejaVuSerif-99"/>
     <use x="2646.927734" xlink:href="#DejaVuSerif-111"/>
     <use x="2707.132812" xlink:href="#DejaVuSerif-118"/>
     <use x="2763.626953" xlink:href="#DejaVuSerif-101"/>
     <use x="2822.806641" xlink:href="#DejaVuSerif-114"/>
     <use x="2870.609375" xlink:href="#DejaVuSerif-101"/>
     <use x="2929.789062" xlink:href="#DejaVuSerif-100"/>
    </g>
   </g>
   <g id="legend_1">
    <g id="patch_7">
     <path d="M 86.086875 119.362875 
L 282.574687 119.362875 
Q 285.374687 119.362875 285.374687 116.562875 
L 285.374687 35.765375 
Q 285.374687 32.965375 282.574687 32.965375 
L 86.086875 32.965375 
Q 83.286875 32.965375 83.286875 35.765375 
L 83.286875 116.562875 
Q 83.286875 119.362875 86.086875 119.362875 
z
" style="fill:#ffffff;opacity:0.8;stroke:#cccccc;stroke-linejoin:miter;"/>
    </g>
    <g id="line2d_34">
     <path d="M 88.886875 44.303187 
L 116.886875 44.303187 
" style="fill:none;stroke:#f08080;stroke-linecap:square;stroke-width:1.5;"/>
    </g>
    <g id="line2d_35"/>
    <g id="text_17">
     <!-- Infected -->
     <g transform="translate(128.086875 49.203187)scale(0.14 -0.14)">
      <use xlink:href="#DejaVuSerif-73"/>
      <use x="39.501953" xlink:href="#DejaVuSerif-110"/>
      <use x="103.90625" xlink:href="#DejaVuSerif-102"/>
      <use x="140.917969" xlink:href="#DejaVuSerif-101"/>
      <use x="200.097656" xlink:href="#DejaVuSerif-99"/>
      <use x="256.103516" xlink:href="#DejaVuSerif-116"/>
      <use x="296.289062" xlink:href="#DejaVuSerif-101"/>
      <use x="355.46875" xlink:href="#DejaVuSerif-100"/>
     </g>
    </g>
    <g id="line2d_36">
     <path d="M 88.886875 64.852562 
L 116.886875 64.852562 
" style="fill:none;stroke:#8b0000;stroke-linecap:square;stroke-width:1.5;"/>
    </g>
    <g id="line2d_37"/>
    <g id="text_18">
     <!-- Estimated Infected -->
     <g transform="translate(128.086875 69.752562)scale(0.14 -0.14)">
      <use xlink:href="#DejaVuSerif-69"/>
      <use x="72.998047" xlink:href="#DejaVuSerif-115"/>
      <use x="124.316406" xlink:href="#DejaVuSerif-116"/>
      <use x="164.501953" xlink:href="#DejaVuSerif-105"/>
      <use x="196.484375" xlink:href="#DejaVuSerif-109"/>
      <use x="291.308594" xlink:href="#DejaVuSerif-97"/>
      <use x="350.927734" xlink:href="#DejaVuSerif-116"/>
      <use x="391.113281" xlink:href="#DejaVuSerif-101"/>
      <use x="450.292969" xlink:href="#DejaVuSerif-100"/>
      <use x="514.306641" xlink:href="#DejaVuSerif-32"/>
      <use x="546.09375" xlink:href="#DejaVuSerif-73"/>
      <use x="585.595703" xlink:href="#DejaVuSerif-110"/>
      <use x="650" xlink:href="#DejaVuSerif-102"/>
      <use x="687.011719" xlink:href="#DejaVuSerif-101"/>
      <use x="746.191406" xlink:href="#DejaVuSerif-99"/>
      <use x="802.197266" xlink:href="#DejaVuSerif-116"/>
      <use x="842.382812" xlink:href="#DejaVuSerif-101"/>
      <use x="901.5625" xlink:href="#DejaVuSerif-100"/>
     </g>
    </g>
    <g id="line2d_38">
     <path d="M 88.886875 85.401937 
L 116.886875 85.401937 
" style="fill:none;stroke:#00ff7f;stroke-linecap:square;stroke-width:1.5;"/>
    </g>
    <g id="line2d_39"/>
    <g id="text_19">
     <!-- Recovered -->
     <g transform="translate(128.086875 90.301937)scale(0.14 -0.14)">
      <use xlink:href="#DejaVuSerif-82"/>
      <use x="75.292969" xlink:href="#DejaVuSerif-101"/>
      <use x="134.472656" xlink:href="#DejaVuSerif-99"/>
      <use x="190.478516" xlink:href="#DejaVuSerif-111"/>
      <use x="250.683594" xlink:href="#DejaVuSerif-118"/>
      <use x="307.177734" xlink:href="#DejaVuSerif-101"/>
      <use x="366.357422" xlink:href="#DejaVuSerif-114"/>
      <use x="414.160156" xlink:href="#DejaVuSerif-101"/>
      <use x="473.339844" xlink:href="#DejaVuSerif-100"/>
     </g>
    </g>
    <g id="line2d_40">
     <path d="M 88.886875 105.951312 
L 116.886875 105.951312 
" style="fill:none;stroke:#006400;stroke-linecap:square;stroke-width:1.5;"/>
    </g>
    <g id="line2d_41"/>
    <g id="text_20">
     <!-- Estimated Recovered -->
     <g transform="translate(128.086875 110.851312)scale(0.14 -0.14)">
      <use xlink:href="#DejaVuSerif-69"/>
      <use x="72.998047" xlink:href="#DejaVuSerif-115"/>
      <use x="124.316406" xlink:href="#DejaVuSerif-116"/>
      <use x="164.501953" xlink:href="#DejaVuSerif-105"/>
      <use x="196.484375" xlink:href="#DejaVuSerif-109"/>
      <use x="291.308594" xlink:href="#DejaVuSerif-97"/>
      <use x="350.927734" xlink:href="#DejaVuSerif-116"/>
      <use x="391.113281" xlink:href="#DejaVuSerif-101"/>
      <use x="450.292969" xlink:href="#DejaVuSerif-100"/>
      <use x="514.306641" xlink:href="#DejaVuSerif-32"/>
      <use x="546.09375" xlink:href="#DejaVuSerif-82"/>
      <use x="621.386719" xlink:href="#DejaVuSerif-101"/>
      <use x="680.566406" xlink:href="#DejaVuSerif-99"/>
      <use x="736.572266" xlink:href="#DejaVuSerif-111"/>
      <use x="796.777344" xlink:href="#DejaVuSerif-118"/>
      <use x="853.271484" xlink:href="#DejaVuSerif-101"/>
      <use x="912.451172" xlink:href="#DejaVuSerif-114"/>
      <use x="960.253906" xlink:href="#DejaVuSerif-101"/>
      <use x="1019.433594" xlink:href="#DejaVuSerif-100"/>
     </g>
    </g>
   </g>
  </g>
 </g>
 <defs>
  <clipPath id="pb2dd3f5a70">
   <rect height="652.32" width="1004.4" x="76.286875" y="25.965375"/>
  </clipPath>
 </defs>
</svg>
