<?xml version="1.0" encoding="utf-8" standalone="no"?>
<!DOCTYPE svg PUBLIC "-//W3C//DTD SVG 1.1//EN"
  "http://www.w3.org/Graphics/SVG/1.1/DTD/svg11.dtd">
<!-- Created with matplotlib (https://matplotlib.org/) -->
<svg height="723.584125pt" version="1.1" viewBox="0 0 1079.948438 723.584125" width="1079.948438pt" xmlns="http://www.w3.org/2000/svg" xmlns:xlink="http://www.w3.org/1999/xlink">
 <defs>
  <style type="text/css">
*{stroke-linecap:butt;stroke-linejoin:round;}
  </style>
 </defs>
 <g id="figure_1">
  <g id="patch_1">
   <path d="M -0 723.584125 
L 1079.948438 723.584125 
L 1079.948438 0 
L -0 0 
z
" style="fill:none;"/>
  </g>
  <g id="axes_1">
   <g id="patch_2">
    <path d="M 68.348438 678.285375 
L 1072.748438 678.285375 
L 1072.748438 25.965375 
L 68.348438 25.965375 
z
" style="fill:#ffffff;"/>
   </g>
   <g id="matplotlib.axis_1">
    <g id="xtick_1">
     <g id="line2d_1">
      <path clip-path="url(#p66cb8099a0)" d="M 114.002983 678.285375 
L 114.002983 25.965375 
" style="fill:none;stroke:#b0b0b0;stroke-linecap:square;stroke-width:0.8;"/>
     </g>
     <g id="line2d_2">
      <defs>
       <path d="M 0 0 
L 0 3.5 
" id="m31e01e1fea" style="stroke:#000000;stroke-width:0.8;"/>
      </defs>
      <g>
       <use style="stroke:#000000;stroke-width:0.8;" x="114.002983" xlink:href="#m31e01e1fea" y="678.285375"/>
      </g>
     </g>
     <g id="text_1">
      <!-- 2020-01-31 -->
      <defs>
       <path d="M 12.796875 55.515625 
L 7.328125 55.515625 
L 7.328125 68.5 
Q 12.546875 71.296875 17.84375 72.75 
Q 23.140625 74.21875 28.21875 74.21875 
Q 39.59375 74.21875 46.1875 68.703125 
Q 52.78125 63.1875 52.78125 53.71875 
Q 52.78125 43.015625 37.84375 28.125 
Q 36.671875 27 36.078125 26.421875 
L 17.671875 8.015625 
L 48.09375 8.015625 
L 48.09375 17 
L 53.8125 17 
L 53.8125 0 
L 6.78125 0 
L 6.78125 5.328125 
L 28.90625 27.390625 
Q 36.234375 34.71875 39.359375 40.84375 
Q 42.484375 46.96875 42.484375 53.71875 
Q 42.484375 61.078125 38.640625 65.234375 
Q 34.8125 69.390625 28.078125 69.390625 
Q 21.09375 69.390625 17.28125 65.921875 
Q 13.484375 62.453125 12.796875 55.515625 
z
" id="DejaVuSerif-50"/>
       <path d="M 31.78125 3.421875 
Q 39.265625 3.421875 42.96875 11.625 
Q 46.6875 19.828125 46.6875 36.375 
Q 46.6875 52.984375 42.96875 61.1875 
Q 39.265625 69.390625 31.78125 69.390625 
Q 24.3125 69.390625 20.59375 61.1875 
Q 16.890625 52.984375 16.890625 36.375 
Q 16.890625 19.828125 20.59375 11.625 
Q 24.3125 3.421875 31.78125 3.421875 
z
M 31.78125 -1.421875 
Q 19.921875 -1.421875 13.25 8.53125 
Q 6.59375 18.5 6.59375 36.375 
Q 6.59375 54.296875 13.25 64.25 
Q 19.921875 74.21875 31.78125 74.21875 
Q 43.703125 74.21875 50.34375 64.25 
Q 56.984375 54.296875 56.984375 36.375 
Q 56.984375 18.5 50.34375 8.53125 
Q 43.703125 -1.421875 31.78125 -1.421875 
z
" id="DejaVuSerif-48"/>
       <path d="M 4.390625 30.609375 
L 29.390625 30.609375 
L 29.390625 23 
L 4.390625 23 
z
" id="DejaVuSerif-45"/>
       <path d="M 14.203125 0 
L 14.203125 5.171875 
L 26.90625 5.171875 
L 26.90625 65.828125 
L 12.203125 56.296875 
L 12.203125 62.703125 
L 29.984375 74.21875 
L 36.71875 74.21875 
L 36.71875 5.171875 
L 49.421875 5.171875 
L 49.421875 0 
z
" id="DejaVuSerif-49"/>
       <path d="M 9.71875 69.828125 
Q 15.4375 71.96875 20.671875 73.09375 
Q 25.921875 74.21875 30.515625 74.21875 
Q 41.21875 74.21875 47.21875 69.59375 
Q 53.21875 64.984375 53.21875 56.78125 
Q 53.21875 50.203125 49.0625 45.78125 
Q 44.921875 41.359375 37.3125 39.796875 
Q 46.296875 38.53125 51.25 33.28125 
Q 56.203125 28.03125 56.203125 19.671875 
Q 56.203125 9.46875 49.34375 4.015625 
Q 42.484375 -1.421875 29.59375 -1.421875 
Q 23.875 -1.421875 18.421875 -0.1875 
Q 12.984375 1.03125 7.625 3.515625 
L 7.625 17.671875 
L 13.09375 17.671875 
Q 13.578125 10.640625 17.828125 7.03125 
Q 22.078125 3.421875 29.78125 3.421875 
Q 37.25 3.421875 41.578125 7.734375 
Q 45.90625 12.0625 45.90625 19.578125 
Q 45.90625 28.171875 41.453125 32.59375 
Q 37.015625 37.015625 28.421875 37.015625 
L 23.78125 37.015625 
L 23.78125 42 
L 26.21875 42 
Q 34.765625 42 39.03125 45.53125 
Q 43.3125 49.078125 43.3125 56.203125 
Q 43.3125 62.59375 39.796875 65.984375 
Q 36.28125 69.390625 29.6875 69.390625 
Q 23.09375 69.390625 19.453125 66.265625 
Q 15.828125 63.140625 15.1875 56.984375 
L 9.71875 56.984375 
z
" id="DejaVuSerif-51"/>
      </defs>
      <g transform="translate(73.64142 695.923187)scale(0.14 -0.14)">
       <use xlink:href="#DejaVuSerif-50"/>
       <use x="63.623047" xlink:href="#DejaVuSerif-48"/>
       <use x="127.246094" xlink:href="#DejaVuSerif-50"/>
       <use x="190.869141" xlink:href="#DejaVuSerif-48"/>
       <use x="254.492188" xlink:href="#DejaVuSerif-45"/>
       <use x="288.28125" xlink:href="#DejaVuSerif-48"/>
       <use x="351.904297" xlink:href="#DejaVuSerif-49"/>
       <use x="415.527344" xlink:href="#DejaVuSerif-45"/>
       <use x="449.316406" xlink:href="#DejaVuSerif-51"/>
       <use x="512.939453" xlink:href="#DejaVuSerif-49"/>
      </g>
     </g>
    </g>
    <g id="xtick_2">
     <g id="line2d_3">
      <path clip-path="url(#p66cb8099a0)" d="M 205.241346 678.285375 
L 205.241346 25.965375 
" style="fill:none;stroke:#b0b0b0;stroke-linecap:square;stroke-width:0.8;"/>
     </g>
     <g id="line2d_4">
      <g>
       <use style="stroke:#000000;stroke-width:0.8;" x="205.241346" xlink:href="#m31e01e1fea" y="678.285375"/>
      </g>
     </g>
     <g id="text_2">
      <!-- 2020-07-02 -->
      <defs>
       <path d="M 56.390625 67.921875 
L 27.875 0 
L 20.609375 0 
L 47.796875 64.890625 
L 14.109375 64.890625 
L 14.109375 55.90625 
L 8.40625 55.90625 
L 8.40625 72.90625 
L 56.390625 72.90625 
z
" id="DejaVuSerif-55"/>
      </defs>
      <g transform="translate(164.879784 695.923187)scale(0.14 -0.14)">
       <use xlink:href="#DejaVuSerif-50"/>
       <use x="63.623047" xlink:href="#DejaVuSerif-48"/>
       <use x="127.246094" xlink:href="#DejaVuSerif-50"/>
       <use x="190.869141" xlink:href="#DejaVuSerif-48"/>
       <use x="254.492188" xlink:href="#DejaVuSerif-45"/>
       <use x="288.28125" xlink:href="#DejaVuSerif-48"/>
       <use x="351.904297" xlink:href="#DejaVuSerif-55"/>
       <use x="415.527344" xlink:href="#DejaVuSerif-45"/>
       <use x="449.316406" xlink:href="#DejaVuSerif-48"/>
       <use x="512.939453" xlink:href="#DejaVuSerif-50"/>
      </g>
     </g>
    </g>
    <g id="xtick_3">
     <g id="line2d_5">
      <path clip-path="url(#p66cb8099a0)" d="M 296.47971 678.285375 
L 296.47971 25.965375 
" style="fill:none;stroke:#b0b0b0;stroke-linecap:square;stroke-width:0.8;"/>
     </g>
     <g id="line2d_6">
      <g>
       <use style="stroke:#000000;stroke-width:0.8;" x="296.47971" xlink:href="#m31e01e1fea" y="678.285375"/>
      </g>
     </g>
     <g id="text_3">
      <!-- 2020-11-08 -->
      <defs>
       <path d="M 46.578125 19.921875 
Q 46.578125 27.734375 42.6875 32.046875 
Q 38.8125 36.375 31.78125 36.375 
Q 24.75 36.375 20.875 32.046875 
Q 17 27.734375 17 19.921875 
Q 17 12.0625 20.875 7.734375 
Q 24.75 3.421875 31.78125 3.421875 
Q 38.8125 3.421875 42.6875 7.734375 
Q 46.578125 12.0625 46.578125 19.921875 
z
M 44.578125 55.328125 
Q 44.578125 61.96875 41.203125 65.671875 
Q 37.84375 69.390625 31.78125 69.390625 
Q 25.78125 69.390625 22.390625 65.671875 
Q 19 61.96875 19 55.328125 
Q 19 48.640625 22.390625 44.921875 
Q 25.78125 41.21875 31.78125 41.21875 
Q 37.84375 41.21875 41.203125 44.921875 
Q 44.578125 48.640625 44.578125 55.328125 
z
M 39.3125 38.8125 
Q 47.609375 37.703125 52.25 32.6875 
Q 56.890625 27.6875 56.890625 19.921875 
Q 56.890625 9.671875 50.390625 4.125 
Q 43.890625 -1.421875 31.78125 -1.421875 
Q 19.734375 -1.421875 13.203125 4.125 
Q 6.6875 9.671875 6.6875 19.921875 
Q 6.6875 27.6875 11.328125 32.6875 
Q 15.96875 37.703125 24.3125 38.8125 
Q 16.9375 40.140625 13 44.40625 
Q 9.078125 48.6875 9.078125 55.328125 
Q 9.078125 64.109375 15.125 69.15625 
Q 21.1875 74.21875 31.78125 74.21875 
Q 42.390625 74.21875 48.4375 69.15625 
Q 54.5 64.109375 54.5 55.328125 
Q 54.5 48.6875 50.5625 44.40625 
Q 46.625 40.140625 39.3125 38.8125 
z
" id="DejaVuSerif-56"/>
      </defs>
      <g transform="translate(256.118147 695.923187)scale(0.14 -0.14)">
       <use xlink:href="#DejaVuSerif-50"/>
       <use x="63.623047" xlink:href="#DejaVuSerif-48"/>
       <use x="127.246094" xlink:href="#DejaVuSerif-50"/>
       <use x="190.869141" xlink:href="#DejaVuSerif-48"/>
       <use x="254.492188" xlink:href="#DejaVuSerif-45"/>
       <use x="288.28125" xlink:href="#DejaVuSerif-49"/>
       <use x="351.904297" xlink:href="#DejaVuSerif-49"/>
       <use x="415.527344" xlink:href="#DejaVuSerif-45"/>
       <use x="449.316406" xlink:href="#DejaVuSerif-48"/>
       <use x="512.939453" xlink:href="#DejaVuSerif-56"/>
      </g>
     </g>
    </g>
    <g id="xtick_4">
     <g id="line2d_7">
      <path clip-path="url(#p66cb8099a0)" d="M 387.718073 678.285375 
L 387.718073 25.965375 
" style="fill:none;stroke:#b0b0b0;stroke-linecap:square;stroke-width:0.8;"/>
     </g>
     <g id="line2d_8">
      <g>
       <use style="stroke:#000000;stroke-width:0.8;" x="387.718073" xlink:href="#m31e01e1fea" y="678.285375"/>
      </g>
     </g>
     <g id="text_4">
      <!-- 2021-03-17 -->
      <g transform="translate(347.356511 695.923187)scale(0.14 -0.14)">
       <use xlink:href="#DejaVuSerif-50"/>
       <use x="63.623047" xlink:href="#DejaVuSerif-48"/>
       <use x="127.246094" xlink:href="#DejaVuSerif-50"/>
       <use x="190.869141" xlink:href="#DejaVuSerif-49"/>
       <use x="254.492188" xlink:href="#DejaVuSerif-45"/>
       <use x="288.28125" xlink:href="#DejaVuSerif-48"/>
       <use x="351.904297" xlink:href="#DejaVuSerif-51"/>
       <use x="415.527344" xlink:href="#DejaVuSerif-45"/>
       <use x="449.316406" xlink:href="#DejaVuSerif-49"/>
       <use x="512.939453" xlink:href="#DejaVuSerif-55"/>
      </g>
     </g>
    </g>
    <g id="xtick_5">
     <g id="line2d_9">
      <path clip-path="url(#p66cb8099a0)" d="M 478.956437 678.285375 
L 478.956437 25.965375 
" style="fill:none;stroke:#b0b0b0;stroke-linecap:square;stroke-width:0.8;"/>
     </g>
     <g id="line2d_10">
      <g>
       <use style="stroke:#000000;stroke-width:0.8;" x="478.956437" xlink:href="#m31e01e1fea" y="678.285375"/>
      </g>
     </g>
     <g id="text_5">
      <!-- 2021-07-24 -->
      <defs>
       <path d="M 34.90625 24.703125 
L 34.90625 63.484375 
L 10.015625 24.703125 
z
M 56.390625 0 
L 23.1875 0 
L 23.1875 5.171875 
L 34.90625 5.171875 
L 34.90625 19.484375 
L 3.078125 19.484375 
L 3.078125 24.8125 
L 35.015625 74.21875 
L 44.671875 74.21875 
L 44.671875 24.703125 
L 58.59375 24.703125 
L 58.59375 19.484375 
L 44.671875 19.484375 
L 44.671875 5.171875 
L 56.390625 5.171875 
z
" id="DejaVuSerif-52"/>
      </defs>
      <g transform="translate(438.594874 695.923187)scale(0.14 -0.14)">
       <use xlink:href="#DejaVuSerif-50"/>
       <use x="63.623047" xlink:href="#DejaVuSerif-48"/>
       <use x="127.246094" xlink:href="#DejaVuSerif-50"/>
       <use x="190.869141" xlink:href="#DejaVuSerif-49"/>
       <use x="254.492188" xlink:href="#DejaVuSerif-45"/>
       <use x="288.28125" xlink:href="#DejaVuSerif-48"/>
       <use x="351.904297" xlink:href="#DejaVuSerif-55"/>
       <use x="415.527344" xlink:href="#DejaVuSerif-45"/>
       <use x="449.316406" xlink:href="#DejaVuSerif-50"/>
       <use x="512.939453" xlink:href="#DejaVuSerif-52"/>
      </g>
     </g>
    </g>
    <g id="xtick_6">
     <g id="line2d_11">
      <path clip-path="url(#p66cb8099a0)" d="M 570.1948 678.285375 
L 570.1948 25.965375 
" style="fill:none;stroke:#b0b0b0;stroke-linecap:square;stroke-width:0.8;"/>
     </g>
     <g id="line2d_12">
      <g>
       <use style="stroke:#000000;stroke-width:0.8;" x="570.1948" xlink:href="#m31e01e1fea" y="678.285375"/>
      </g>
     </g>
     <g id="text_6">
      <!-- 2021-11-30 -->
      <g transform="translate(529.833238 695.923187)scale(0.14 -0.14)">
       <use xlink:href="#DejaVuSerif-50"/>
       <use x="63.623047" xlink:href="#DejaVuSerif-48"/>
       <use x="127.246094" xlink:href="#DejaVuSerif-50"/>
       <use x="190.869141" xlink:href="#DejaVuSerif-49"/>
       <use x="254.492188" xlink:href="#DejaVuSerif-45"/>
       <use x="288.28125" xlink:href="#DejaVuSerif-49"/>
       <use x="351.904297" xlink:href="#DejaVuSerif-49"/>
       <use x="415.527344" xlink:href="#DejaVuSerif-45"/>
       <use x="449.316406" xlink:href="#DejaVuSerif-51"/>
       <use x="512.939453" xlink:href="#DejaVuSerif-48"/>
      </g>
     </g>
    </g>
    <g id="xtick_7">
     <g id="line2d_13">
      <path clip-path="url(#p66cb8099a0)" d="M 661.433164 678.285375 
L 661.433164 25.965375 
" style="fill:none;stroke:#b0b0b0;stroke-linecap:square;stroke-width:0.8;"/>
     </g>
     <g id="line2d_14">
      <g>
       <use style="stroke:#000000;stroke-width:0.8;" x="661.433164" xlink:href="#m31e01e1fea" y="678.285375"/>
      </g>
     </g>
     <g id="text_7">
      <!-- 2022-04-08 -->
      <g transform="translate(621.071601 695.923187)scale(0.14 -0.14)">
       <use xlink:href="#DejaVuSerif-50"/>
       <use x="63.623047" xlink:href="#DejaVuSerif-48"/>
       <use x="127.246094" xlink:href="#DejaVuSerif-50"/>
       <use x="190.869141" xlink:href="#DejaVuSerif-50"/>
       <use x="254.492188" xlink:href="#DejaVuSerif-45"/>
       <use x="288.28125" xlink:href="#DejaVuSerif-48"/>
       <use x="351.904297" xlink:href="#DejaVuSerif-52"/>
       <use x="415.527344" xlink:href="#DejaVuSerif-45"/>
       <use x="449.316406" xlink:href="#DejaVuSerif-48"/>
       <use x="512.939453" xlink:href="#DejaVuSerif-56"/>
      </g>
     </g>
    </g>
    <g id="xtick_8">
     <g id="line2d_15">
      <path clip-path="url(#p66cb8099a0)" d="M 752.671527 678.285375 
L 752.671527 25.965375 
" style="fill:none;stroke:#b0b0b0;stroke-linecap:square;stroke-width:0.8;"/>
     </g>
     <g id="line2d_16">
      <g>
       <use style="stroke:#000000;stroke-width:0.8;" x="752.671527" xlink:href="#m31e01e1fea" y="678.285375"/>
      </g>
     </g>
     <g id="text_8">
      <!-- 2022-08-15 -->
      <defs>
       <path d="M 50.296875 72.90625 
L 50.296875 64.890625 
L 16.890625 64.890625 
L 16.890625 44 
Q 19.4375 45.75 22.828125 46.625 
Q 26.21875 47.515625 30.421875 47.515625 
Q 42.234375 47.515625 49.0625 40.96875 
Q 55.90625 34.421875 55.90625 23.09375 
Q 55.90625 11.53125 49 5.046875 
Q 42.09375 -1.421875 29.59375 -1.421875 
Q 24.5625 -1.421875 19.28125 -0.1875 
Q 14.015625 1.03125 8.5 3.515625 
L 8.5 17.671875 
L 14.015625 17.671875 
Q 14.453125 10.75 18.421875 7.078125 
Q 22.40625 3.421875 29.59375 3.421875 
Q 37.3125 3.421875 41.453125 8.5 
Q 45.609375 13.578125 45.609375 23.09375 
Q 45.609375 32.5625 41.484375 37.609375 
Q 37.359375 42.671875 29.59375 42.671875 
Q 25.203125 42.671875 21.84375 41.109375 
Q 18.5 39.546875 15.921875 36.28125 
L 11.71875 36.28125 
L 11.71875 72.90625 
z
" id="DejaVuSerif-53"/>
      </defs>
      <g transform="translate(712.309965 695.923187)scale(0.14 -0.14)">
       <use xlink:href="#DejaVuSerif-50"/>
       <use x="63.623047" xlink:href="#DejaVuSerif-48"/>
       <use x="127.246094" xlink:href="#DejaVuSerif-50"/>
       <use x="190.869141" xlink:href="#DejaVuSerif-50"/>
       <use x="254.492188" xlink:href="#DejaVuSerif-45"/>
       <use x="288.28125" xlink:href="#DejaVuSerif-48"/>
       <use x="351.904297" xlink:href="#DejaVuSerif-56"/>
       <use x="415.527344" xlink:href="#DejaVuSerif-45"/>
       <use x="449.316406" xlink:href="#DejaVuSerif-49"/>
       <use x="512.939453" xlink:href="#DejaVuSerif-53"/>
      </g>
     </g>
    </g>
    <g id="xtick_9">
     <g id="line2d_17">
      <path clip-path="url(#p66cb8099a0)" d="M 843.909891 678.285375 
L 843.909891 25.965375 
" style="fill:none;stroke:#b0b0b0;stroke-linecap:square;stroke-width:0.8;"/>
     </g>
     <g id="line2d_18">
      <g>
       <use style="stroke:#000000;stroke-width:0.8;" x="843.909891" xlink:href="#m31e01e1fea" y="678.285375"/>
      </g>
     </g>
     <g id="text_9">
      <!-- 2022-12-22 -->
      <g transform="translate(803.548328 695.923187)scale(0.14 -0.14)">
       <use xlink:href="#DejaVuSerif-50"/>
       <use x="63.623047" xlink:href="#DejaVuSerif-48"/>
       <use x="127.246094" xlink:href="#DejaVuSerif-50"/>
       <use x="190.869141" xlink:href="#DejaVuSerif-50"/>
       <use x="254.492188" xlink:href="#DejaVuSerif-45"/>
       <use x="288.28125" xlink:href="#DejaVuSerif-49"/>
       <use x="351.904297" xlink:href="#DejaVuSerif-50"/>
       <use x="415.527344" xlink:href="#DejaVuSerif-45"/>
       <use x="449.316406" xlink:href="#DejaVuSerif-50"/>
       <use x="512.939453" xlink:href="#DejaVuSerif-50"/>
      </g>
     </g>
    </g>
    <g id="xtick_10">
     <g id="line2d_19">
      <path clip-path="url(#p66cb8099a0)" d="M 935.148254 678.285375 
L 935.148254 25.965375 
" style="fill:none;stroke:#b0b0b0;stroke-linecap:square;stroke-width:0.8;"/>
     </g>
     <g id="line2d_20">
      <g>
       <use style="stroke:#000000;stroke-width:0.8;" x="935.148254" xlink:href="#m31e01e1fea" y="678.285375"/>
      </g>
     </g>
     <g id="text_10">
      <!-- 2023-04-30 -->
      <g transform="translate(894.786692 695.923187)scale(0.14 -0.14)">
       <use xlink:href="#DejaVuSerif-50"/>
       <use x="63.623047" xlink:href="#DejaVuSerif-48"/>
       <use x="127.246094" xlink:href="#DejaVuSerif-50"/>
       <use x="190.869141" xlink:href="#DejaVuSerif-51"/>
       <use x="254.492188" xlink:href="#DejaVuSerif-45"/>
       <use x="288.28125" xlink:href="#DejaVuSerif-48"/>
       <use x="351.904297" xlink:href="#DejaVuSerif-52"/>
       <use x="415.527344" xlink:href="#DejaVuSerif-45"/>
       <use x="449.316406" xlink:href="#DejaVuSerif-51"/>
       <use x="512.939453" xlink:href="#DejaVuSerif-48"/>
      </g>
     </g>
    </g>
    <g id="xtick_11">
     <g id="line2d_21">
      <path clip-path="url(#p66cb8099a0)" d="M 1026.386618 678.285375 
L 1026.386618 25.965375 
" style="fill:none;stroke:#b0b0b0;stroke-linecap:square;stroke-width:0.8;"/>
     </g>
     <g id="line2d_22">
      <g>
       <use style="stroke:#000000;stroke-width:0.8;" x="1026.386618" xlink:href="#m31e01e1fea" y="678.285375"/>
      </g>
     </g>
     <g id="text_11">
      <!-- 2023-09-06 -->
      <defs>
       <path d="M 46.78125 32.671875 
Q 43.5 29 39.25 27.1875 
Q 35.015625 25.390625 29.6875 25.390625 
Q 18.84375 25.390625 12.5625 31.9375 
Q 6.296875 38.484375 6.296875 49.8125 
Q 6.296875 60.890625 13.109375 67.546875 
Q 19.921875 74.21875 31.296875 74.21875 
Q 43.65625 74.21875 50.265625 65.015625 
Q 56.890625 55.8125 56.890625 38.71875 
Q 56.890625 19.578125 49.015625 9.078125 
Q 41.15625 -1.421875 26.90625 -1.421875 
Q 23.046875 -1.421875 18.796875 -0.6875 
Q 14.546875 0.046875 10.109375 1.515625 
L 10.109375 13.625 
L 15.578125 13.625 
Q 16.21875 8.6875 19.390625 6.046875 
Q 22.5625 3.421875 27.875 3.421875 
Q 37.359375 3.421875 41.984375 10.5625 
Q 46.625 17.71875 46.78125 32.671875 
z
M 30.90625 69.390625 
Q 23.96875 69.390625 20.28125 64.328125 
Q 16.609375 59.28125 16.609375 49.8125 
Q 16.609375 40.328125 20.28125 35.25 
Q 23.96875 30.171875 30.90625 30.171875 
Q 37.84375 30.171875 41.53125 35.078125 
Q 45.21875 39.984375 45.21875 49.21875 
Q 45.21875 58.9375 41.5 64.15625 
Q 37.796875 69.390625 30.90625 69.390625 
z
" id="DejaVuSerif-57"/>
       <path d="M 32.71875 3.421875 
Q 39.59375 3.421875 43.296875 8.46875 
Q 47.015625 13.53125 47.015625 23 
Q 47.015625 32.46875 43.296875 37.515625 
Q 39.59375 42.578125 32.71875 42.578125 
Q 25.734375 42.578125 22.0625 37.6875 
Q 18.40625 32.8125 18.40625 23.578125 
Q 18.40625 13.875 22.109375 8.640625 
Q 25.828125 3.421875 32.71875 3.421875 
z
M 16.796875 40.140625 
Q 20.125 43.796875 24.3125 45.59375 
Q 28.515625 47.40625 33.796875 47.40625 
Q 44.671875 47.40625 51 40.859375 
Q 57.328125 34.328125 57.328125 23 
Q 57.328125 11.921875 50.515625 5.25 
Q 43.703125 -1.421875 32.328125 -1.421875 
Q 19.96875 -1.421875 13.328125 7.78125 
Q 6.6875 17 6.6875 34.078125 
Q 6.6875 53.21875 14.546875 63.71875 
Q 22.40625 74.21875 36.71875 74.21875 
Q 40.578125 74.21875 44.828125 73.484375 
Q 49.078125 72.75 53.515625 71.296875 
L 53.515625 59.28125 
L 48 59.28125 
Q 47.40625 64.203125 44.234375 66.796875 
Q 41.0625 69.390625 35.6875 69.390625 
Q 26.21875 69.390625 21.578125 62.203125 
Q 16.9375 55.03125 16.796875 40.140625 
z
" id="DejaVuSerif-54"/>
      </defs>
      <g transform="translate(986.025055 695.923187)scale(0.14 -0.14)">
       <use xlink:href="#DejaVuSerif-50"/>
       <use x="63.623047" xlink:href="#DejaVuSerif-48"/>
       <use x="127.246094" xlink:href="#DejaVuSerif-50"/>
       <use x="190.869141" xlink:href="#DejaVuSerif-51"/>
       <use x="254.492188" xlink:href="#DejaVuSerif-45"/>
       <use x="288.28125" xlink:href="#DejaVuSerif-48"/>
       <use x="351.904297" xlink:href="#DejaVuSerif-57"/>
       <use x="415.527344" xlink:href="#DejaVuSerif-45"/>
       <use x="449.316406" xlink:href="#DejaVuSerif-48"/>
       <use x="512.939453" xlink:href="#DejaVuSerif-54"/>
      </g>
     </g>
    </g>
    <g id="text_12">
     <!-- Dates -->
     <defs>
      <path d="M 24.703125 5.171875 
L 33.796875 5.171875 
Q 48 5.171875 55.59375 13.28125 
Q 63.1875 21.390625 63.1875 36.53125 
Q 63.1875 51.65625 55.609375 59.65625 
Q 48.046875 67.671875 33.796875 67.671875 
L 24.703125 67.671875 
z
M 5.515625 0 
L 5.515625 5.171875 
L 14.796875 5.171875 
L 14.796875 67.671875 
L 5.515625 67.671875 
L 5.515625 72.90625 
L 34.515625 72.90625 
Q 53.375 72.90625 63.890625 63.28125 
Q 74.421875 53.65625 74.421875 36.53125 
Q 74.421875 19.34375 63.875 9.671875 
Q 53.328125 0 34.515625 0 
z
" id="DejaVuSerif-68"/>
      <path d="M 39.796875 16.3125 
L 39.796875 27.296875 
L 28.21875 27.296875 
Q 21.53125 27.296875 18.25 24.40625 
Q 14.984375 21.53125 14.984375 15.578125 
Q 14.984375 10.15625 18.296875 6.984375 
Q 21.625 3.8125 27.296875 3.8125 
Q 32.90625 3.8125 36.34375 7.28125 
Q 39.796875 10.75 39.796875 16.3125 
z
M 48.78125 32.421875 
L 48.78125 5.171875 
L 56.78125 5.171875 
L 56.78125 0 
L 39.796875 0 
L 39.796875 5.609375 
Q 36.8125 2 32.90625 0.28125 
Q 29 -1.421875 23.78125 -1.421875 
Q 15.140625 -1.421875 10.0625 3.171875 
Q 4.984375 7.765625 4.984375 15.578125 
Q 4.984375 23.640625 10.796875 28.078125 
Q 16.609375 32.515625 27.203125 32.515625 
L 39.796875 32.515625 
L 39.796875 36.078125 
Q 39.796875 42 36.203125 45.234375 
Q 32.625 48.484375 26.125 48.484375 
Q 20.75 48.484375 17.578125 46.046875 
Q 14.40625 43.609375 13.625 38.8125 
L 8.984375 38.8125 
L 8.984375 49.3125 
Q 13.671875 51.3125 18.09375 52.3125 
Q 22.515625 53.328125 26.703125 53.328125 
Q 37.5 53.328125 43.140625 47.96875 
Q 48.78125 42.625 48.78125 32.421875 
z
" id="DejaVuSerif-97"/>
      <path d="M 10.796875 46.6875 
L 2.875 46.6875 
L 2.875 51.90625 
L 10.796875 51.90625 
L 10.796875 68.015625 
L 19.828125 68.015625 
L 19.828125 51.90625 
L 36.71875 51.90625 
L 36.71875 46.6875 
L 19.828125 46.6875 
L 19.828125 13.71875 
Q 19.828125 7.125 21.09375 5.265625 
Q 22.359375 3.421875 25.78125 3.421875 
Q 29.296875 3.421875 30.90625 5.484375 
Q 32.515625 7.5625 32.625 12.203125 
L 39.40625 12.203125 
Q 39.015625 5.125 35.546875 1.84375 
Q 32.078125 -1.421875 25 -1.421875 
Q 17.234375 -1.421875 14.015625 2.015625 
Q 10.796875 5.46875 10.796875 13.71875 
z
" id="DejaVuSerif-116"/>
      <path d="M 54.203125 25 
L 15.484375 25 
L 15.484375 24.609375 
Q 15.484375 14.109375 19.4375 8.765625 
Q 23.390625 3.421875 31.109375 3.421875 
Q 37.015625 3.421875 40.796875 6.515625 
Q 44.578125 9.625 46.09375 15.71875 
L 53.328125 15.71875 
Q 51.171875 7.171875 45.375 2.875 
Q 39.59375 -1.421875 30.171875 -1.421875 
Q 18.796875 -1.421875 11.890625 6.078125 
Q 4.984375 13.578125 4.984375 25.984375 
Q 4.984375 38.28125 11.765625 45.796875 
Q 18.5625 53.328125 29.59375 53.328125 
Q 41.359375 53.328125 47.65625 46.0625 
Q 53.953125 38.8125 54.203125 25 
z
M 43.609375 30.171875 
Q 43.3125 39.265625 39.765625 43.875 
Q 36.234375 48.484375 29.59375 48.484375 
Q 23.390625 48.484375 19.828125 43.84375 
Q 16.265625 39.203125 15.484375 30.171875 
z
" id="DejaVuSerif-101"/>
      <path d="M 5.609375 2.875 
L 5.609375 14.984375 
L 10.796875 14.984375 
Q 10.984375 9.1875 14.421875 6.296875 
Q 17.875 3.421875 24.609375 3.421875 
Q 30.671875 3.421875 33.84375 5.6875 
Q 37.015625 7.953125 37.015625 12.3125 
Q 37.015625 15.71875 34.6875 17.8125 
Q 32.375 19.921875 24.90625 22.3125 
L 18.40625 24.515625 
Q 11.71875 26.65625 8.71875 29.875 
Q 5.71875 33.109375 5.71875 38.09375 
Q 5.71875 45.21875 10.9375 49.265625 
Q 16.15625 53.328125 25.390625 53.328125 
Q 29.5 53.328125 34.03125 52.25 
Q 38.578125 51.171875 43.40625 49.125 
L 43.40625 37.796875 
L 38.234375 37.796875 
Q 38.03125 42.828125 34.703125 45.65625 
Q 31.390625 48.484375 25.6875 48.484375 
Q 20.015625 48.484375 17.109375 46.484375 
Q 14.203125 44.484375 14.203125 40.484375 
Q 14.203125 37.203125 16.40625 35.21875 
Q 18.609375 33.25 25.203125 31.203125 
L 32.328125 29 
Q 39.703125 26.703125 42.9375 23.265625 
Q 46.1875 19.828125 46.1875 14.40625 
Q 46.1875 7.03125 40.546875 2.796875 
Q 34.90625 -1.421875 25 -1.421875 
Q 19.96875 -1.421875 15.1875 -0.34375 
Q 10.40625 0.734375 5.609375 2.875 
z
" id="DejaVuSerif-115"/>
     </defs>
     <g transform="translate(550.214531 713.472562)scale(0.14 -0.14)">
      <use xlink:href="#DejaVuSerif-68"/>
      <use x="80.175781" xlink:href="#DejaVuSerif-97"/>
      <use x="139.794922" xlink:href="#DejaVuSerif-116"/>
      <use x="179.980469" xlink:href="#DejaVuSerif-101"/>
      <use x="239.160156" xlink:href="#DejaVuSerif-115"/>
     </g>
    </g>
   </g>
   <g id="matplotlib.axis_2">
    <g id="ytick_1">
     <g id="line2d_23">
      <path clip-path="url(#p66cb8099a0)" d="M 68.348438 648.634466 
L 1072.748438 648.634466 
" style="fill:none;stroke:#b0b0b0;stroke-linecap:square;stroke-width:0.8;"/>
     </g>
     <g id="line2d_24">
      <defs>
       <path d="M 0 0 
L -3.5 0 
" id="mcc374eeda0" style="stroke:#000000;stroke-width:0.8;"/>
      </defs>
      <g>
       <use style="stroke:#000000;stroke-width:0.8;" x="68.348438" xlink:href="#mcc374eeda0" y="648.634466"/>
      </g>
     </g>
     <g id="text_13">
      <!-- 0.0M -->
      <defs>
       <path d="M 9.421875 5.078125 
Q 9.421875 7.8125 11.28125 9.71875 
Q 13.140625 11.625 15.921875 11.625 
Q 18.609375 11.625 20.5 9.71875 
Q 22.40625 7.8125 22.40625 5.078125 
Q 22.40625 2.390625 20.5 0.484375 
Q 18.609375 -1.421875 15.921875 -1.421875 
Q 13.140625 -1.421875 11.28125 0.453125 
Q 9.421875 2.34375 9.421875 5.078125 
z
" id="DejaVuSerif-46"/>
       <path d="M 5.515625 0 
L 5.515625 5.171875 
L 14.796875 5.171875 
L 14.796875 67.671875 
L 4.984375 67.671875 
L 4.984375 72.90625 
L 26.21875 72.90625 
L 51.8125 21 
L 77.390625 72.90625 
L 97.3125 72.90625 
L 97.3125 67.671875 
L 87.59375 67.671875 
L 87.59375 5.171875 
L 96.921875 5.171875 
L 96.921875 0 
L 68.40625 0 
L 68.40625 5.171875 
L 77.6875 5.171875 
L 77.6875 61.53125 
L 52.6875 10.6875 
L 45.796875 10.6875 
L 20.796875 61.53125 
L 20.796875 5.171875 
L 30.078125 5.171875 
L 30.078125 0 
z
" id="DejaVuSerif-77"/>
      </defs>
      <g transform="translate(24.749375 653.953372)scale(0.14 -0.14)">
       <use xlink:href="#DejaVuSerif-48"/>
       <use x="63.623047" xlink:href="#DejaVuSerif-46"/>
       <use x="95.410156" xlink:href="#DejaVuSerif-48"/>
       <use x="159.033203" xlink:href="#DejaVuSerif-77"/>
      </g>
     </g>
    </g>
    <g id="ytick_2">
     <g id="line2d_25">
      <path clip-path="url(#p66cb8099a0)" d="M 68.348438 590.609113 
L 1072.748438 590.609113 
" style="fill:none;stroke:#b0b0b0;stroke-linecap:square;stroke-width:0.8;"/>
     </g>
     <g id="line2d_26">
      <g>
       <use style="stroke:#000000;stroke-width:0.8;" x="68.348438" xlink:href="#mcc374eeda0" y="590.609113"/>
      </g>
     </g>
     <g id="text_14">
      <!-- 0.5M -->
      <g transform="translate(24.749375 595.928019)scale(0.14 -0.14)">
       <use xlink:href="#DejaVuSerif-48"/>
       <use x="63.623047" xlink:href="#DejaVuSerif-46"/>
       <use x="95.410156" xlink:href="#DejaVuSerif-53"/>
       <use x="159.033203" xlink:href="#DejaVuSerif-77"/>
      </g>
     </g>
    </g>
    <g id="ytick_3">
     <g id="line2d_27">
      <path clip-path="url(#p66cb8099a0)" d="M 68.348438 532.583759 
L 1072.748438 532.583759 
" style="fill:none;stroke:#b0b0b0;stroke-linecap:square;stroke-width:0.8;"/>
     </g>
     <g id="line2d_28">
      <g>
       <use style="stroke:#000000;stroke-width:0.8;" x="68.348438" xlink:href="#mcc374eeda0" y="532.583759"/>
      </g>
     </g>
     <g id="text_15">
      <!-- 1.0M -->
      <g transform="translate(24.749375 537.902666)scale(0.14 -0.14)">
       <use xlink:href="#DejaVuSerif-49"/>
       <use x="63.623047" xlink:href="#DejaVuSerif-46"/>
       <use x="95.410156" xlink:href="#DejaVuSerif-48"/>
       <use x="159.033203" xlink:href="#DejaVuSerif-77"/>
      </g>
     </g>
    </g>
    <g id="ytick_4">
     <g id="line2d_29">
      <path clip-path="url(#p66cb8099a0)" d="M 68.348438 474.558406 
L 1072.748438 474.558406 
" style="fill:none;stroke:#b0b0b0;stroke-linecap:square;stroke-width:0.8;"/>
     </g>
     <g id="line2d_30">
      <g>
       <use style="stroke:#000000;stroke-width:0.8;" x="68.348438" xlink:href="#mcc374eeda0" y="474.558406"/>
      </g>
     </g>
     <g id="text_16">
      <!-- 1.5M -->
      <g transform="translate(24.749375 479.877312)scale(0.14 -0.14)">
       <use xlink:href="#DejaVuSerif-49"/>
       <use x="63.623047" xlink:href="#DejaVuSerif-46"/>
       <use x="95.410156" xlink:href="#DejaVuSerif-53"/>
       <use x="159.033203" xlink:href="#DejaVuSerif-77"/>
      </g>
     </g>
    </g>
    <g id="ytick_5">
     <g id="line2d_31">
      <path clip-path="url(#p66cb8099a0)" d="M 68.348438 416.533053 
L 1072.748438 416.533053 
" style="fill:none;stroke:#b0b0b0;stroke-linecap:square;stroke-width:0.8;"/>
     </g>
     <g id="line2d_32">
      <g>
       <use style="stroke:#000000;stroke-width:0.8;" x="68.348438" xlink:href="#mcc374eeda0" y="416.533053"/>
      </g>
     </g>
     <g id="text_17">
      <!-- 2.0M -->
      <g transform="translate(24.749375 421.851959)scale(0.14 -0.14)">
       <use xlink:href="#DejaVuSerif-50"/>
       <use x="63.623047" xlink:href="#DejaVuSerif-46"/>
       <use x="95.410156" xlink:href="#DejaVuSerif-48"/>
       <use x="159.033203" xlink:href="#DejaVuSerif-77"/>
      </g>
     </g>
    </g>
    <g id="ytick_6">
     <g id="line2d_33">
      <path clip-path="url(#p66cb8099a0)" d="M 68.348438 358.5077 
L 1072.748438 358.5077 
" style="fill:none;stroke:#b0b0b0;stroke-linecap:square;stroke-width:0.8;"/>
     </g>
     <g id="line2d_34">
      <g>
       <use style="stroke:#000000;stroke-width:0.8;" x="68.348438" xlink:href="#mcc374eeda0" y="358.5077"/>
      </g>
     </g>
     <g id="text_18">
      <!-- 2.5M -->
      <g transform="translate(24.749375 363.826606)scale(0.14 -0.14)">
       <use xlink:href="#DejaVuSerif-50"/>
       <use x="63.623047" xlink:href="#DejaVuSerif-46"/>
       <use x="95.410156" xlink:href="#DejaVuSerif-53"/>
       <use x="159.033203" xlink:href="#DejaVuSerif-77"/>
      </g>
     </g>
    </g>
    <g id="ytick_7">
     <g id="line2d_35">
      <path clip-path="url(#p66cb8099a0)" d="M 68.348438 300.482346 
L 1072.748438 300.482346 
" style="fill:none;stroke:#b0b0b0;stroke-linecap:square;stroke-width:0.8;"/>
     </g>
     <g id="line2d_36">
      <g>
       <use style="stroke:#000000;stroke-width:0.8;" x="68.348438" xlink:href="#mcc374eeda0" y="300.482346"/>
      </g>
     </g>
     <g id="text_19">
      <!-- 3.0M -->
      <g transform="translate(24.749375 305.801253)scale(0.14 -0.14)">
       <use xlink:href="#DejaVuSerif-51"/>
       <use x="63.623047" xlink:href="#DejaVuSerif-46"/>
       <use x="95.410156" xlink:href="#DejaVuSerif-48"/>
       <use x="159.033203" xlink:href="#DejaVuSerif-77"/>
      </g>
     </g>
    </g>
    <g id="ytick_8">
     <g id="line2d_37">
      <path clip-path="url(#p66cb8099a0)" d="M 68.348438 242.456993 
L 1072.748438 242.456993 
" style="fill:none;stroke:#b0b0b0;stroke-linecap:square;stroke-width:0.8;"/>
     </g>
     <g id="line2d_38">
      <g>
       <use style="stroke:#000000;stroke-width:0.8;" x="68.348438" xlink:href="#mcc374eeda0" y="242.456993"/>
      </g>
     </g>
     <g id="text_20">
      <!-- 3.5M -->
      <g transform="translate(24.749375 247.775899)scale(0.14 -0.14)">
       <use xlink:href="#DejaVuSerif-51"/>
       <use x="63.623047" xlink:href="#DejaVuSerif-46"/>
       <use x="95.410156" xlink:href="#DejaVuSerif-53"/>
       <use x="159.033203" xlink:href="#DejaVuSerif-77"/>
      </g>
     </g>
    </g>
    <g id="ytick_9">
     <g id="line2d_39">
      <path clip-path="url(#p66cb8099a0)" d="M 68.348438 184.43164 
L 1072.748438 184.43164 
" style="fill:none;stroke:#b0b0b0;stroke-linecap:square;stroke-width:0.8;"/>
     </g>
     <g id="line2d_40">
      <g>
       <use style="stroke:#000000;stroke-width:0.8;" x="68.348438" xlink:href="#mcc374eeda0" y="184.43164"/>
      </g>
     </g>
     <g id="text_21">
      <!-- 4.0M -->
      <g transform="translate(24.749375 189.750546)scale(0.14 -0.14)">
       <use xlink:href="#DejaVuSerif-52"/>
       <use x="63.623047" xlink:href="#DejaVuSerif-46"/>
       <use x="95.410156" xlink:href="#DejaVuSerif-48"/>
       <use x="159.033203" xlink:href="#DejaVuSerif-77"/>
      </g>
     </g>
    </g>
    <g id="ytick_10">
     <g id="line2d_41">
      <path clip-path="url(#p66cb8099a0)" d="M 68.348438 126.406287 
L 1072.748438 126.406287 
" style="fill:none;stroke:#b0b0b0;stroke-linecap:square;stroke-width:0.8;"/>
     </g>
     <g id="line2d_42">
      <g>
       <use style="stroke:#000000;stroke-width:0.8;" x="68.348438" xlink:href="#mcc374eeda0" y="126.406287"/>
      </g>
     </g>
     <g id="text_22">
      <!-- 4.5M -->
      <g transform="translate(24.749375 131.725193)scale(0.14 -0.14)">
       <use xlink:href="#DejaVuSerif-52"/>
       <use x="63.623047" xlink:href="#DejaVuSerif-46"/>
       <use x="95.410156" xlink:href="#DejaVuSerif-53"/>
       <use x="159.033203" xlink:href="#DejaVuSerif-77"/>
      </g>
     </g>
    </g>
    <g id="ytick_11">
     <g id="line2d_43">
      <path clip-path="url(#p66cb8099a0)" d="M 68.348438 68.380933 
L 1072.748438 68.380933 
" style="fill:none;stroke:#b0b0b0;stroke-linecap:square;stroke-width:0.8;"/>
     </g>
     <g id="line2d_44">
      <g>
       <use style="stroke:#000000;stroke-width:0.8;" x="68.348438" xlink:href="#mcc374eeda0" y="68.380933"/>
      </g>
     </g>
     <g id="text_23">
      <!-- 5.0M -->
      <g transform="translate(24.749375 73.69984)scale(0.14 -0.14)">
       <use xlink:href="#DejaVuSerif-53"/>
       <use x="63.623047" xlink:href="#DejaVuSerif-46"/>
       <use x="95.410156" xlink:href="#DejaVuSerif-48"/>
       <use x="159.033203" xlink:href="#DejaVuSerif-77"/>
      </g>
     </g>
    </g>
    <g id="text_24">
     <!-- Cumulative Counts (Millions) -->
     <defs>
      <path d="M 70.515625 19.28125 
Q 67.28125 9.078125 59.6875 3.828125 
Q 52.09375 -1.421875 40.484375 -1.421875 
Q 33.34375 -1.421875 27.234375 1.015625 
Q 21.140625 3.46875 16.40625 8.203125 
Q 10.9375 13.671875 8.265625 20.625 
Q 5.609375 27.59375 5.609375 36.375 
Q 5.609375 53.375 15.421875 63.796875 
Q 25.25 74.21875 41.3125 74.21875 
Q 47.265625 74.21875 54 72.65625 
Q 60.75 71.09375 68.5 67.921875 
L 68.5 51.125 
L 62.984375 51.125 
Q 61.1875 60.296875 55.734375 64.640625 
Q 50.296875 69 40.484375 69 
Q 28.8125 69 22.796875 60.71875 
Q 16.796875 52.4375 16.796875 36.375 
Q 16.796875 20.359375 22.796875 12.078125 
Q 28.8125 3.8125 40.484375 3.8125 
Q 48.640625 3.8125 53.90625 7.6875 
Q 59.1875 11.578125 61.53125 19.28125 
z
" id="DejaVuSerif-67"/>
      <path d="M 35.40625 51.90625 
L 52.203125 51.90625 
L 52.203125 5.171875 
L 60.6875 5.171875 
L 60.6875 0 
L 43.21875 0 
L 43.21875 9.1875 
Q 40.71875 4 36.765625 1.28125 
Q 32.8125 -1.421875 27.59375 -1.421875 
Q 18.953125 -1.421875 14.875 3.484375 
Q 10.796875 8.40625 10.796875 18.890625 
L 10.796875 46.6875 
L 2.6875 46.6875 
L 2.6875 51.90625 
L 19.828125 51.90625 
L 19.828125 21.6875 
Q 19.828125 12.203125 22.140625 8.6875 
Q 24.46875 5.171875 30.421875 5.171875 
Q 36.671875 5.171875 39.9375 9.765625 
Q 43.21875 14.359375 43.21875 23.09375 
L 43.21875 46.6875 
L 35.40625 46.6875 
z
" id="DejaVuSerif-117"/>
      <path d="M 51.8125 41.796875 
Q 54.390625 47.515625 58.421875 50.421875 
Q 62.453125 53.328125 67.828125 53.328125 
Q 75.984375 53.328125 79.984375 48.265625 
Q 83.984375 43.21875 83.984375 33.015625 
L 83.984375 5.171875 
L 92.09375 5.171875 
L 92.09375 0 
L 67.1875 0 
L 67.1875 5.171875 
L 75 5.171875 
L 75 31.984375 
Q 75 39.9375 72.65625 43.3125 
Q 70.3125 46.6875 64.890625 46.6875 
Q 58.890625 46.6875 55.734375 42.140625 
Q 52.59375 37.59375 52.59375 28.90625 
L 52.59375 5.171875 
L 60.40625 5.171875 
L 60.40625 0 
L 35.796875 0 
L 35.796875 5.171875 
L 43.609375 5.171875 
L 43.609375 32.328125 
Q 43.609375 40.09375 41.265625 43.390625 
Q 38.921875 46.6875 33.5 46.6875 
Q 27.484375 46.6875 24.328125 42.140625 
Q 21.1875 37.59375 21.1875 28.90625 
L 21.1875 5.171875 
L 29 5.171875 
L 29 0 
L 4.109375 0 
L 4.109375 5.171875 
L 12.203125 5.171875 
L 12.203125 46.78125 
L 3.609375 46.78125 
L 3.609375 51.90625 
L 21.1875 51.90625 
L 21.1875 42.671875 
Q 23.6875 47.859375 27.53125 50.59375 
Q 31.390625 53.328125 36.28125 53.328125 
Q 42.328125 53.328125 46.375 50.3125 
Q 50.4375 47.3125 51.8125 41.796875 
z
" id="DejaVuSerif-109"/>
      <path d="M 20.515625 5.171875 
L 29 5.171875 
L 29 0 
L 2.875 0 
L 2.875 5.171875 
L 11.53125 5.171875 
L 11.53125 70.796875 
L 2.875 70.796875 
L 2.875 75.984375 
L 20.515625 75.984375 
z
" id="DejaVuSerif-108"/>
      <path d="M 9.71875 68.015625 
Q 9.71875 70.265625 11.34375 71.921875 
Q 12.984375 73.578125 15.28125 73.578125 
Q 17.53125 73.578125 19.15625 71.921875 
Q 20.796875 70.265625 20.796875 68.015625 
Q 20.796875 65.71875 19.1875 64.109375 
Q 17.578125 62.5 15.28125 62.5 
Q 12.984375 62.5 11.34375 64.109375 
Q 9.71875 65.71875 9.71875 68.015625 
z
M 21.1875 5.171875 
L 29.6875 5.171875 
L 29.6875 0 
L 3.609375 0 
L 3.609375 5.171875 
L 12.203125 5.171875 
L 12.203125 46.6875 
L 3.609375 46.6875 
L 3.609375 51.90625 
L 21.1875 51.90625 
z
" id="DejaVuSerif-105"/>
      <path d="M 24.703125 0 
L 5.609375 46.6875 
L -0.296875 46.6875 
L -0.296875 51.90625 
L 23.578125 51.90625 
L 23.578125 46.6875 
L 15.28125 46.6875 
L 29.890625 10.984375 
L 44.484375 46.6875 
L 36.71875 46.6875 
L 36.71875 51.90625 
L 56.203125 51.90625 
L 56.203125 46.6875 
L 50.390625 46.6875 
L 31.296875 0 
z
" id="DejaVuSerif-118"/>
      <path id="DejaVuSerif-32"/>
      <path d="M 30.078125 3.421875 
Q 37.3125 3.421875 40.984375 9.125 
Q 44.671875 14.84375 44.671875 25.984375 
Q 44.671875 37.109375 40.984375 42.796875 
Q 37.3125 48.484375 30.078125 48.484375 
Q 22.859375 48.484375 19.171875 42.796875 
Q 15.484375 37.109375 15.484375 25.984375 
Q 15.484375 14.84375 19.1875 9.125 
Q 22.90625 3.421875 30.078125 3.421875 
z
M 30.078125 -1.421875 
Q 18.75 -1.421875 11.859375 6.078125 
Q 4.984375 13.578125 4.984375 25.984375 
Q 4.984375 38.375 11.84375 45.84375 
Q 18.703125 53.328125 30.078125 53.328125 
Q 41.453125 53.328125 48.3125 45.84375 
Q 55.171875 38.375 55.171875 25.984375 
Q 55.171875 13.578125 48.3125 6.078125 
Q 41.453125 -1.421875 30.078125 -1.421875 
z
" id="DejaVuSerif-111"/>
      <path d="M 4.109375 0 
L 4.109375 5.171875 
L 12.203125 5.171875 
L 12.203125 46.6875 
L 3.609375 46.6875 
L 3.609375 51.90625 
L 21.1875 51.90625 
L 21.1875 42.671875 
Q 23.6875 47.953125 27.65625 50.640625 
Q 31.640625 53.328125 36.921875 53.328125 
Q 45.515625 53.328125 49.5625 48.390625 
Q 53.609375 43.453125 53.609375 33.015625 
L 53.609375 5.171875 
L 61.625 5.171875 
L 61.625 0 
L 36.8125 0 
L 36.8125 5.171875 
L 44.578125 5.171875 
L 44.578125 30.171875 
Q 44.578125 39.703125 42.234375 43.234375 
Q 39.890625 46.78125 33.984375 46.78125 
Q 27.734375 46.78125 24.453125 42.203125 
Q 21.1875 37.640625 21.1875 28.90625 
L 21.1875 5.171875 
L 29 5.171875 
L 29 0 
z
" id="DejaVuSerif-110"/>
      <path d="M 31.890625 -15.578125 
Q 20.015625 -10.25 13.953125 1.296875 
Q 7.90625 12.84375 7.90625 30.171875 
Q 7.90625 47.5625 13.953125 59.109375 
Q 20.015625 70.65625 31.890625 75.984375 
L 31.890625 71.1875 
Q 24.359375 66.015625 21.09375 56.609375 
Q 17.828125 47.21875 17.828125 30.171875 
Q 17.828125 13.1875 21.09375 3.78125 
Q 24.359375 -5.609375 31.890625 -10.796875 
z
" id="DejaVuSerif-40"/>
      <path d="M 7.078125 -15.578125 
L 7.078125 -10.796875 
Q 14.59375 -5.609375 17.890625 3.78125 
Q 21.1875 13.1875 21.1875 30.171875 
Q 21.1875 47.21875 17.890625 56.609375 
Q 14.59375 66.015625 7.078125 71.1875 
L 7.078125 75.984375 
Q 19 70.65625 25.046875 59.109375 
Q 31.109375 47.5625 31.109375 30.171875 
Q 31.109375 12.84375 25.046875 1.296875 
Q 19 -10.25 7.078125 -15.578125 
z
" id="DejaVuSerif-41"/>
     </defs>
     <g transform="translate(17.837813 456.040375)rotate(-90)scale(0.14 -0.14)">
      <use xlink:href="#DejaVuSerif-67"/>
      <use x="76.513672" xlink:href="#DejaVuSerif-117"/>
      <use x="140.917969" xlink:href="#DejaVuSerif-109"/>
      <use x="235.742188" xlink:href="#DejaVuSerif-117"/>
      <use x="300.146484" xlink:href="#DejaVuSerif-108"/>
      <use x="332.128906" xlink:href="#DejaVuSerif-97"/>
      <use x="391.748047" xlink:href="#DejaVuSerif-116"/>
      <use x="431.933594" xlink:href="#DejaVuSerif-105"/>
      <use x="463.916016" xlink:href="#DejaVuSerif-118"/>
      <use x="520.410156" xlink:href="#DejaVuSerif-101"/>
      <use x="579.589844" xlink:href="#DejaVuSerif-32"/>
      <use x="611.376953" xlink:href="#DejaVuSerif-67"/>
      <use x="687.890625" xlink:href="#DejaVuSerif-111"/>
      <use x="748.095703" xlink:href="#DejaVuSerif-117"/>
      <use x="812.5" xlink:href="#DejaVuSerif-110"/>
      <use x="876.904297" xlink:href="#DejaVuSerif-116"/>
      <use x="917.089844" xlink:href="#DejaVuSerif-115"/>
      <use x="968.408203" xlink:href="#DejaVuSerif-32"/>
      <use x="1000.195312" xlink:href="#DejaVuSerif-40"/>
      <use x="1039.208984" xlink:href="#DejaVuSerif-77"/>
      <use x="1141.601562" xlink:href="#DejaVuSerif-105"/>
      <use x="1173.583984" xlink:href="#DejaVuSerif-108"/>
      <use x="1205.566406" xlink:href="#DejaVuSerif-108"/>
      <use x="1237.548828" xlink:href="#DejaVuSerif-105"/>
      <use x="1269.53125" xlink:href="#DejaVuSerif-111"/>
      <use x="1329.736328" xlink:href="#DejaVuSerif-110"/>
      <use x="1394.140625" xlink:href="#DejaVuSerif-115"/>
      <use x="1445.458984" xlink:href="#DejaVuSerif-41"/>
     </g>
    </g>
   </g>
   <g id="line2d_45">
    <path clip-path="url(#p66cb8099a0)" d="M 135.928481 55.616284 
L 141.586674 55.723631 
L 161.39035 55.928344 
L 209.484991 56.188298 
L 228.581393 56.373852 
L 248.385069 56.863409 
L 263.9451 57.460574 
L 276.676034 58.155304 
L 287.99242 58.988129 
L 297.894258 59.935919 
L 306.381548 60.955074 
L 314.161563 62.095954 
L 321.234305 63.339431 
L 328.307046 64.816141 
L 334.672513 66.378736 
L 340.330706 67.982355 
L 345.988899 69.816411 
L 350.939818 71.634071 
L 355.890737 73.673757 
L 360.841656 75.959727 
L 365.792575 78.518133 
L 370.03622 80.94906 
L 374.279865 83.61932 
L 378.52351 86.548387 
L 382.767154 89.756443 
L 387.010799 93.264203 
L 391.254444 97.092691 
L 395.498089 101.262958 
L 399.741734 105.795753 
L 403.985379 110.711115 
L 408.229023 116.027924 
L 412.472668 121.763379 
L 416.716313 127.932439 
L 420.959958 134.54722 
L 425.203603 141.616371 
L 429.447247 149.144456 
L 433.690892 157.13136 
L 437.934537 165.571756 
L 442.178182 174.454662 
L 447.129101 185.354384 
L 452.08002 196.795628 
L 457.738213 210.471447 
L 464.10368 226.513499 
L 471.176421 244.974692 
L 481.078259 271.507946 
L 497.345564 315.168358 
L 505.12558 335.370878 
L 511.491047 351.314896 
L 517.14924 364.947069 
L 522.807433 378.007649 
L 527.758352 388.931979 
L 532.709271 399.36527 
L 537.66019 409.296057 
L 542.611109 418.720166 
L 547.562028 427.639714 
L 552.512947 436.062098 
L 557.463866 443.999009 
L 562.414785 451.465512 
L 567.365704 458.479211 
L 572.316623 465.059517 
L 577.267542 471.227014 
L 582.218461 477.002935 
L 587.16938 482.408723 
L 592.120299 487.465687 
L 597.071218 492.194731 
L 602.022137 496.616149 
L 606.973055 500.749478 
L 611.923974 504.61339 
L 616.874893 508.225637 
L 622.533086 512.067249 
L 628.19128 515.625561 
L 633.849473 518.922444 
L 639.507666 521.978175 
L 645.873133 525.150909 
L 652.2386 528.066637 
L 658.604067 530.747703 
L 665.676809 533.476117 
L 672.74955 535.965131 
L 680.529566 538.453552 
L 688.309581 540.706719 
L 696.796871 542.924564 
L 705.28416 544.918572 
L 714.478724 546.854279 
L 724.380562 548.707989 
L 734.989674 550.460913 
L 746.30606 552.099075 
L 758.329721 553.613023 
L 771.060655 554.997419 
L 785.206138 556.311198 
L 800.766169 557.52688 
L 817.740748 558.625823 
L 836.83715 559.631088 
L 858.055374 560.518584 
L 882.102694 561.296431 
L 909.686386 561.962372 
L 942.220996 562.520989 
L 981.828347 562.971666 
L 1027.093892 563.285933 
L 1027.093892 563.285933 
" style="fill:none;stroke:#ffa500;stroke-linecap:square;stroke-width:1.5;"/>
   </g>
   <g id="line2d_46">
    <path clip-path="url(#p66cb8099a0)" d="M 114.002983 648.63435 
L 140.172126 648.510756 
L 168.463091 648.361399 
L 227.874119 648.188701 
L 252.628714 647.802837 
L 271.725115 647.290673 
L 286.577872 646.684984 
L 299.308806 645.955872 
L 310.625193 645.086222 
L 320.527031 644.102386 
L 329.01432 643.051434 
L 336.794336 641.883492 
L 344.574351 640.482722 
L 351.647093 638.972718 
L 358.01256 637.39176 
L 364.378027 635.572337 
L 370.03622 633.731559 
L 375.694413 631.658561 
L 381.352606 629.332183 
L 386.303525 627.072485 
L 391.254444 624.589934 
L 396.205363 621.872846 
L 401.156282 618.911509 
L 406.107201 615.698923 
L 411.05812 612.231599 
L 416.009039 608.510428 
L 421.667232 603.954979 
L 427.325425 599.095186 
L 433.690892 593.302944 
L 440.763634 586.539021 
L 450.665472 576.712616 
L 463.396406 564.097958 
L 469.761873 558.099444 
L 475.420066 553.090125 
L 480.370985 549.031779 
L 484.61463 545.839328 
L 488.858275 542.943849 
L 492.394646 540.776866 
L 495.931016 538.846771 
L 499.467387 537.163209 
L 503.003758 535.733031 
L 506.540128 534.560283 
L 510.076499 533.646266 
L 513.61287 532.98966 
L 517.14924 532.586695 
L 520.685611 532.431362 
L 524.221982 532.515663 
L 527.758352 532.829874 
L 531.294723 533.362825 
L 534.831094 534.102173 
L 539.074738 535.243144 
L 543.318383 536.638179 
L 547.562028 538.26249 
L 552.512947 540.413958 
L 557.463866 542.804258 
L 563.122059 545.779837 
L 569.487526 549.374353 
L 577.267542 554.024649 
L 588.583928 561.077851 
L 611.923974 575.683498 
L 622.533086 582.012007 
L 631.72765 587.23894 
L 640.21494 591.821035 
L 648.702229 596.154439 
L 657.189519 600.231959 
L 665.676809 604.052425 
L 674.164098 607.619216 
L 682.651388 610.939047 
L 691.138678 614.021002 
L 699.625967 616.875775 
L 708.820531 619.725661 
L 718.015095 622.338243 
L 727.209659 624.729346 
L 737.111496 627.074671 
L 747.720608 629.344294 
L 758.329721 631.384193 
L 769.646107 633.330639 
L 781.669767 635.16529 
L 794.400701 636.874244 
L 807.83891 638.447999 
L 821.984393 639.881245 
L 837.544424 641.229057 
L 854.519003 642.46633 
L 872.90813 643.5765 
L 893.41908 644.582258 
L 916.051853 645.462765 
L 941.513722 646.227632 
L 971.219235 646.890722 
L 1006.582942 647.446723 
L 1027.093892 647.68396 
L 1027.093892 647.68396 
" style="fill:none;stroke:#ff0000;stroke-linecap:square;stroke-width:1.5;"/>
   </g>
   <g id="line2d_47">
    <path clip-path="url(#p66cb8099a0)" d="M 135.928481 648.61288 
L 157.853979 648.502516 
L 185.437671 648.371611 
L 233.532312 648.207168 
L 261.823277 647.858805 
L 282.334227 647.397065 
L 298.601532 646.819098 
L 312.039741 646.129349 
L 323.356127 645.341177 
L 333.257965 644.446509 
L 342.452529 643.398002 
L 350.939818 642.199649 
L 358.719834 640.865261 
L 365.792575 639.419309 
L 372.158042 637.896853 
L 378.52351 636.133604 
L 384.181703 634.337137 
L 389.839896 632.29844 
L 394.790815 630.294388 
L 399.741734 628.064577 
L 404.692653 625.588879 
L 409.643572 622.846635 
L 414.594491 619.816948 
L 418.838135 616.97554 
L 423.08178 613.894924 
L 427.325425 610.562882 
L 431.56907 606.967991 
L 435.812715 603.099907 
L 440.056359 598.94965 
L 444.300004 594.509895 
L 448.543649 589.775266 
L 452.787294 584.7426 
L 457.738213 578.493674 
L 462.689132 571.841696 
L 467.640051 564.795342 
L 472.59097 557.368632 
L 478.249163 548.440247 
L 483.907356 539.077391 
L 490.272823 528.080779 
L 497.345564 515.373666 
L 505.12558 500.931656 
L 515.734692 480.733603 
L 540.489287 433.413042 
L 549.68385 416.434619 
L 557.463866 402.528141 
L 564.536607 390.319372 
L 571.609349 378.567705 
L 577.974816 368.407759 
L 584.340283 358.658465 
L 590.70575 349.329076 
L 597.071218 340.423641 
L 602.729411 332.863401 
L 608.387604 325.635168 
L 614.045797 318.734286 
L 619.70399 312.154508 
L 625.362183 305.888303 
L 631.020376 299.927122 
L 636.678569 294.261635 
L 642.336762 288.881931 
L 647.994955 283.777697 
L 654.360423 278.35154 
L 660.72589 273.245411 
L 667.091357 268.444053 
L 673.456824 263.932343 
L 679.822291 259.695405 
L 686.187759 255.718707 
L 692.553226 251.988136 
L 699.625967 248.115143 
L 706.698709 244.511193 
L 713.77145 241.159119 
L 720.844191 238.04259 
L 728.624207 234.868005 
L 736.404222 231.940272 
L 744.184238 229.241159 
L 752.671527 226.537401 
L 761.158817 224.064831 
L 770.353381 221.625003 
L 779.547945 219.411774 
L 789.449782 217.25825 
L 800.058895 215.189725 
L 810.668007 213.342923 
L 821.984393 211.591117 
L 834.008053 209.948811 
L 847.446262 208.347843 
L 861.591744 206.895119 
L 876.444501 205.590499 
L 892.711806 204.382456 
L 910.39366 203.289358 
L 930.197335 202.289576 
L 952.122834 201.406325 
L 976.877428 200.631658 
L 1005.875668 199.953061 
L 1027.093892 199.575761 
L 1027.093892 199.575761 
" style="fill:none;stroke:#008000;stroke-linecap:square;stroke-width:1.5;"/>
   </g>
   <g id="line2d_48">
    <path clip-path="url(#p66cb8099a0)" d="M 114.002983 648.634466 
L 330.428868 648.525141 
L 369.328946 648.312855 
L 391.254444 647.985796 
L 406.814475 647.539531 
L 418.838135 646.984851 
L 429.447247 646.272254 
L 438.641811 645.430329 
L 447.129101 644.424746 
L 454.909116 643.278704 
L 462.689132 641.894518 
L 469.761873 640.416946 
L 476.834615 638.727232 
L 484.61463 636.631003 
L 492.394646 634.307032 
L 501.589209 631.315005 
L 512.905595 627.376344 
L 545.440206 615.892629 
L 555.342044 612.713951 
L 564.536607 609.990544 
L 573.731171 607.50927 
L 582.218461 605.440532 
L 591.413025 603.436786 
L 600.607588 601.669464 
L 609.802152 600.122676 
L 619.70399 598.681792 
L 630.313102 597.368729 
L 641.629488 596.197122 
L 653.653148 595.172516 
L 667.091357 594.249821 
L 682.651388 593.416629 
L 700.333241 592.705685 
L 720.844191 592.111617 
L 745.598786 591.622963 
L 777.426122 591.22864 
L 820.569844 590.931764 
L 885.639065 590.726769 
L 1004.46112 590.608696 
L 1027.093892 590.599934 
L 1027.093892 590.599934 
" style="fill:none;stroke:#000000;stroke-linecap:square;stroke-width:1.5;"/>
   </g>
   <g id="line2d_49">
    <path clip-path="url(#p66cb8099a0)" d="M 114.002983 648.634466 
L 338.208884 648.524311 
L 388.425348 648.299318 
L 420.959958 647.939931 
L 447.129101 647.428589 
L 470.469147 646.753988 
L 495.223742 645.814399 
L 531.294723 644.190788 
L 575.145719 642.26895 
L 604.851233 641.20319 
L 633.849473 640.385906 
L 665.676809 639.717679 
L 701.74779 639.190223 
L 745.598786 638.782044 
L 802.180717 638.489578 
L 885.639065 638.301439 
L 1027.093892 638.215411 
L 1027.093892 638.215411 
" style="fill:none;stroke:#808080;stroke-linecap:square;stroke-width:1.5;"/>
   </g>
   <g id="line2d_50">
    <path clip-path="url(#p66cb8099a0)" d="M 226.459571 678.285375 
L 226.459571 25.965375 
" style="fill:none;stroke:#708090;stroke-dasharray:2,3.3;stroke-dashoffset:0;stroke-width:2;"/>
   </g>
   <g id="line2d_51">
    <path clip-path="url(#p66cb8099a0)" d="M 68.348438 590.599934 
L 1072.748438 590.599934 
" style="fill:none;stroke:#000000;stroke-dasharray:7.4,3.2;stroke-dashoffset:0;stroke-width:2;"/>
   </g>
   <g id="patch_3">
    <path d="M 68.348438 678.285375 
L 68.348438 25.965375 
" style="fill:none;stroke:#000000;stroke-linecap:square;stroke-linejoin:miter;stroke-width:0.8;"/>
   </g>
   <g id="patch_4">
    <path d="M 1072.748438 678.285375 
L 1072.748438 25.965375 
" style="fill:none;stroke:#000000;stroke-linecap:square;stroke-linejoin:miter;stroke-width:0.8;"/>
   </g>
   <g id="patch_5">
    <path d="M 68.348438 678.285375 
L 1072.748438 678.285375 
" style="fill:none;stroke:#000000;stroke-linecap:square;stroke-linejoin:miter;stroke-width:0.8;"/>
   </g>
   <g id="patch_6">
    <path d="M 68.348438 25.965375 
L 1072.748438 25.965375 
" style="fill:none;stroke:#000000;stroke-linecap:square;stroke-linejoin:miter;stroke-width:0.8;"/>
   </g>
   <g id="text_25">
    <!-- Long-Term Advanced SIR Model Predictions -->
    <defs>
     <path d="M 5.515625 0 
L 5.515625 5.171875 
L 14.796875 5.171875 
L 14.796875 67.671875 
L 5.515625 67.671875 
L 5.515625 72.90625 
L 33.984375 72.90625 
L 33.984375 67.671875 
L 24.703125 67.671875 
L 24.703125 6 
L 58.015625 6 
L 58.015625 18.21875 
L 64.015625 18.21875 
L 64.015625 0 
z
" id="DejaVuSerif-76"/>
     <path d="M 52.484375 46.6875 
L 52.484375 1.125 
Q 52.484375 -10.0625 46.328125 -16.140625 
Q 40.1875 -22.21875 28.8125 -22.21875 
Q 23.6875 -22.21875 19 -21.28125 
Q 14.3125 -20.359375 10.015625 -18.5 
L 10.015625 -7.625 
L 14.703125 -7.625 
Q 15.578125 -12.703125 18.84375 -15.046875 
Q 22.125 -17.390625 28.21875 -17.390625 
Q 36.140625 -17.390625 39.8125 -12.921875 
Q 43.5 -8.453125 43.5 1.125 
L 43.5 8.109375 
Q 40.875 3.21875 36.796875 0.890625 
Q 32.71875 -1.421875 26.703125 -1.421875 
Q 17.140625 -1.421875 11.0625 6.171875 
Q 4.984375 13.765625 4.984375 25.984375 
Q 4.984375 38.1875 11.03125 45.75 
Q 17.09375 53.328125 26.703125 53.328125 
Q 32.71875 53.328125 36.796875 51 
Q 40.875 48.6875 43.5 43.796875 
L 43.5 51.90625 
L 61.078125 51.90625 
L 61.078125 46.6875 
z
M 43.5 28.515625 
Q 43.5 37.84375 39.90625 42.765625 
Q 36.328125 47.703125 29.5 47.703125 
Q 22.5625 47.703125 19.015625 42.234375 
Q 15.484375 36.765625 15.484375 25.984375 
Q 15.484375 15.234375 19.015625 9.71875 
Q 22.5625 4.203125 29.5 4.203125 
Q 36.328125 4.203125 39.90625 9.109375 
Q 43.5 14.015625 43.5 23.390625 
z
" id="DejaVuSerif-103"/>
     <path d="M 19.09375 0 
L 19.09375 5.171875 
L 28.421875 5.171875 
L 28.421875 67.09375 
L 6.984375 67.09375 
L 6.984375 55.71875 
L 0.984375 55.71875 
L 0.984375 72.90625 
L 65.71875 72.90625 
L 65.71875 55.71875 
L 59.71875 55.71875 
L 59.71875 67.09375 
L 38.28125 67.09375 
L 38.28125 5.171875 
L 47.609375 5.171875 
L 47.609375 0 
z
" id="DejaVuSerif-84"/>
     <path d="M 47.796875 52 
L 47.796875 39.015625 
L 42.625 39.015625 
Q 42.390625 42.875 40.484375 44.78125 
Q 38.578125 46.6875 34.90625 46.6875 
Q 28.265625 46.6875 24.71875 42.09375 
Q 21.1875 37.5 21.1875 28.90625 
L 21.1875 5.171875 
L 31.59375 5.171875 
L 31.59375 0 
L 4.109375 0 
L 4.109375 5.171875 
L 12.203125 5.171875 
L 12.203125 46.78125 
L 3.609375 46.78125 
L 3.609375 51.90625 
L 21.1875 51.90625 
L 21.1875 42.671875 
Q 23.828125 48.09375 27.96875 50.703125 
Q 32.125 53.328125 38.09375 53.328125 
Q 40.28125 53.328125 42.703125 52.984375 
Q 45.125 52.640625 47.796875 52 
z
" id="DejaVuSerif-114"/>
     <path d="M 20.015625 26.421875 
L 46.78125 26.421875 
L 33.40625 61.078125 
z
M -0.59375 0 
L -0.59375 5.171875 
L 5.8125 5.171875 
L 31.78125 72.90625 
L 39.984375 72.90625 
L 66.015625 5.171875 
L 73.1875 5.171875 
L 73.1875 0 
L 46.6875 0 
L 46.6875 5.171875 
L 54.78125 5.171875 
L 48.6875 21.1875 
L 18.015625 21.1875 
L 11.921875 5.171875 
L 19.921875 5.171875 
L 19.921875 0 
z
" id="DejaVuSerif-65"/>
     <path d="M 52.484375 5.171875 
L 61.078125 5.171875 
L 61.078125 0 
L 43.5 0 
L 43.5 8.109375 
Q 40.875 3.21875 36.796875 0.890625 
Q 32.71875 -1.421875 26.703125 -1.421875 
Q 17.140625 -1.421875 11.0625 6.171875 
Q 4.984375 13.765625 4.984375 25.984375 
Q 4.984375 38.1875 11.03125 45.75 
Q 17.09375 53.328125 26.703125 53.328125 
Q 32.71875 53.328125 36.796875 51 
Q 40.875 48.6875 43.5 43.796875 
L 43.5 70.796875 
L 35.015625 70.796875 
L 35.015625 75.984375 
L 52.484375 75.984375 
z
M 43.5 23.390625 
L 43.5 28.515625 
Q 43.5 37.84375 39.90625 42.765625 
Q 36.328125 47.703125 29.5 47.703125 
Q 22.5625 47.703125 19.015625 42.234375 
Q 15.484375 36.765625 15.484375 25.984375 
Q 15.484375 15.234375 19.015625 9.71875 
Q 22.5625 4.203125 29.5 4.203125 
Q 36.328125 4.203125 39.90625 9.109375 
Q 43.5 14.015625 43.5 23.390625 
z
" id="DejaVuSerif-100"/>
     <path d="M 51.421875 15.578125 
Q 49.515625 7.28125 44.09375 2.921875 
Q 38.671875 -1.421875 30.078125 -1.421875 
Q 18.75 -1.421875 11.859375 6.078125 
Q 4.984375 13.578125 4.984375 25.984375 
Q 4.984375 38.421875 11.859375 45.875 
Q 18.75 53.328125 30.078125 53.328125 
Q 35.015625 53.328125 39.890625 52.171875 
Q 44.78125 51.03125 49.703125 48.6875 
L 49.703125 35.40625 
L 44.484375 35.40625 
Q 43.453125 42.234375 40.015625 45.359375 
Q 36.578125 48.484375 30.171875 48.484375 
Q 22.90625 48.484375 19.1875 42.84375 
Q 15.484375 37.203125 15.484375 25.984375 
Q 15.484375 14.75 19.171875 9.078125 
Q 22.859375 3.421875 30.171875 3.421875 
Q 35.984375 3.421875 39.453125 6.4375 
Q 42.921875 9.46875 44.1875 15.578125 
z
" id="DejaVuSerif-99"/>
     <path d="M 9.28125 3.515625 
L 9.28125 20.125 
L 14.890625 20.0625 
Q 15.140625 11.765625 19.703125 7.78125 
Q 24.265625 3.8125 33.59375 3.8125 
Q 42.28125 3.8125 46.84375 7.25 
Q 51.421875 10.6875 51.421875 17.28125 
Q 51.421875 22.5625 48.65625 25.390625 
Q 45.90625 28.21875 37.015625 30.90625 
L 27.390625 33.796875 
Q 16.9375 36.96875 12.671875 41.703125 
Q 8.40625 46.4375 8.40625 54.6875 
Q 8.40625 63.96875 14.984375 69.09375 
Q 21.578125 74.21875 33.5 74.21875 
Q 38.578125 74.21875 44.625 73.109375 
Q 50.6875 72.015625 57.515625 69.921875 
L 57.515625 54.390625 
L 52 54.390625 
Q 51.171875 62.109375 46.84375 65.546875 
Q 42.53125 69 33.6875 69 
Q 25.984375 69 21.953125 65.84375 
Q 17.921875 62.703125 17.921875 56.6875 
Q 17.921875 51.46875 20.9375 48.484375 
Q 23.96875 45.515625 33.796875 42.578125 
L 42.828125 39.890625 
Q 52.734375 36.921875 56.953125 32.296875 
Q 61.1875 27.6875 61.1875 19.921875 
Q 61.1875 9.328125 54.390625 3.953125 
Q 47.609375 -1.421875 34.1875 -1.421875 
Q 28.171875 -1.421875 21.9375 -0.1875 
Q 15.71875 1.03125 9.28125 3.515625 
z
" id="DejaVuSerif-83"/>
     <path d="M 24.703125 5.171875 
L 33.984375 5.171875 
L 33.984375 0 
L 5.515625 0 
L 5.515625 5.171875 
L 14.796875 5.171875 
L 14.796875 67.671875 
L 5.515625 67.671875 
L 5.515625 72.90625 
L 33.984375 72.90625 
L 33.984375 67.671875 
L 24.703125 67.671875 
z
" id="DejaVuSerif-73"/>
     <path d="M 47.90625 36.1875 
Q 51.3125 35.25 53.78125 33.03125 
Q 56.25 30.8125 58.203125 26.8125 
L 68.796875 5.171875 
L 77.6875 5.171875 
L 77.6875 0 
L 60.5 0 
L 49.125 23.1875 
Q 45.84375 29.9375 43.109375 31.90625 
Q 40.375 33.890625 35.59375 33.890625 
L 24.703125 33.890625 
L 24.703125 5.171875 
L 35.015625 5.171875 
L 35.015625 0 
L 5.515625 0 
L 5.515625 5.171875 
L 14.796875 5.171875 
L 14.796875 67.671875 
L 5.515625 67.671875 
L 5.515625 72.90625 
L 42.484375 72.90625 
Q 53.125 72.90625 58.90625 67.828125 
Q 64.703125 62.75 64.703125 53.421875 
Q 64.703125 45.90625 60.46875 41.578125 
Q 56.25 37.25 47.90625 36.1875 
z
M 24.703125 39.109375 
L 39.109375 39.109375 
Q 46.484375 39.109375 50 42.59375 
Q 53.515625 46.09375 53.515625 53.421875 
Q 53.515625 60.75 50 64.203125 
Q 46.484375 67.671875 39.109375 67.671875 
L 24.703125 67.671875 
z
" id="DejaVuSerif-82"/>
     <path d="M 24.703125 37.109375 
L 37.59375 37.109375 
Q 44.875 37.109375 48.671875 41.03125 
Q 52.484375 44.96875 52.484375 52.390625 
Q 52.484375 59.859375 48.671875 63.765625 
Q 44.875 67.671875 37.59375 67.671875 
L 24.703125 67.671875 
z
M 5.515625 0 
L 5.515625 5.171875 
L 14.796875 5.171875 
L 14.796875 67.671875 
L 5.515625 67.671875 
L 5.515625 72.90625 
L 39.984375 72.90625 
Q 50.921875 72.90625 57.3125 67.359375 
Q 63.71875 61.8125 63.71875 52.390625 
Q 63.71875 43.015625 57.3125 37.453125 
Q 50.921875 31.890625 39.984375 31.890625 
L 24.703125 31.890625 
L 24.703125 5.171875 
L 35.984375 5.171875 
L 35.984375 0 
z
" id="DejaVuSerif-80"/>
    </defs>
    <g transform="translate(381.068063 19.965375)scale(0.168 -0.168)">
     <use xlink:href="#DejaVuSerif-76"/>
     <use x="66.40625" xlink:href="#DejaVuSerif-111"/>
     <use x="126.611328" xlink:href="#DejaVuSerif-110"/>
     <use x="191.015625" xlink:href="#DejaVuSerif-103"/>
     <use x="255.029297" xlink:href="#DejaVuSerif-45"/>
     <use x="288.771484" xlink:href="#DejaVuSerif-84"/>
     <use x="355.361328" xlink:href="#DejaVuSerif-101"/>
     <use x="414.541016" xlink:href="#DejaVuSerif-114"/>
     <use x="462.34375" xlink:href="#DejaVuSerif-109"/>
     <use x="557.167969" xlink:href="#DejaVuSerif-32"/>
     <use x="588.955078" xlink:href="#DejaVuSerif-65"/>
     <use x="661.171875" xlink:href="#DejaVuSerif-100"/>
     <use x="725.185547" xlink:href="#DejaVuSerif-118"/>
     <use x="781.679688" xlink:href="#DejaVuSerif-97"/>
     <use x="841.298828" xlink:href="#DejaVuSerif-110"/>
     <use x="905.703125" xlink:href="#DejaVuSerif-99"/>
     <use x="961.708984" xlink:href="#DejaVuSerif-101"/>
     <use x="1020.888672" xlink:href="#DejaVuSerif-100"/>
     <use x="1084.902344" xlink:href="#DejaVuSerif-32"/>
     <use x="1116.689453" xlink:href="#DejaVuSerif-83"/>
     <use x="1185.195312" xlink:href="#DejaVuSerif-73"/>
     <use x="1224.697266" xlink:href="#DejaVuSerif-82"/>
     <use x="1299.990234" xlink:href="#DejaVuSerif-32"/>
     <use x="1331.777344" xlink:href="#DejaVuSerif-77"/>
     <use x="1434.169922" xlink:href="#DejaVuSerif-111"/>
     <use x="1494.375" xlink:href="#DejaVuSerif-100"/>
     <use x="1558.388672" xlink:href="#DejaVuSerif-101"/>
     <use x="1617.568359" xlink:href="#DejaVuSerif-108"/>
     <use x="1649.550781" xlink:href="#DejaVuSerif-32"/>
     <use x="1681.337891" xlink:href="#DejaVuSerif-80"/>
     <use x="1748.623047" xlink:href="#DejaVuSerif-114"/>
     <use x="1796.425781" xlink:href="#DejaVuSerif-101"/>
     <use x="1855.605469" xlink:href="#DejaVuSerif-100"/>
     <use x="1919.619141" xlink:href="#DejaVuSerif-105"/>
     <use x="1951.601562" xlink:href="#DejaVuSerif-99"/>
     <use x="2007.607422" xlink:href="#DejaVuSerif-116"/>
     <use x="2047.792969" xlink:href="#DejaVuSerif-105"/>
     <use x="2079.775391" xlink:href="#DejaVuSerif-111"/>
     <use x="2139.980469" xlink:href="#DejaVuSerif-110"/>
     <use x="2204.384766" xlink:href="#DejaVuSerif-115"/>
    </g>
   </g>
   <g id="legend_1">
    <g id="patch_7">
     <path d="M 786.389375 181.210062 
L 1062.948438 181.210062 
Q 1065.748438 181.210062 1065.748438 178.410062 
L 1065.748438 35.765375 
Q 1065.748438 32.965375 1062.948438 32.965375 
L 786.389375 32.965375 
Q 783.589375 32.965375 783.589375 35.765375 
L 783.589375 178.410062 
Q 783.589375 181.210062 786.389375 181.210062 
z
" style="fill:#ffffff;opacity:0.8;stroke:#cccccc;stroke-linejoin:miter;"/>
    </g>
    <g id="line2d_52">
     <path d="M 789.189375 44.303187 
L 817.189375 44.303187 
" style="fill:none;stroke:#ffa500;stroke-linecap:square;stroke-width:1.5;"/>
    </g>
    <g id="line2d_53"/>
    <g id="text_26">
     <!-- Susceptible Estimate -->
     <defs>
      <path d="M 20.515625 28.515625 
L 20.515625 23.390625 
Q 20.515625 14.015625 24.09375 9.109375 
Q 27.6875 4.203125 34.515625 4.203125 
Q 41.40625 4.203125 44.9375 9.71875 
Q 48.484375 15.234375 48.484375 25.984375 
Q 48.484375 36.765625 44.9375 42.234375 
Q 41.40625 47.703125 34.515625 47.703125 
Q 27.6875 47.703125 24.09375 42.765625 
Q 20.515625 37.84375 20.515625 28.515625 
z
M 11.53125 46.6875 
L 2.875 46.6875 
L 2.875 51.90625 
L 20.515625 51.90625 
L 20.515625 43.796875 
Q 23.140625 48.6875 27.21875 51 
Q 31.296875 53.328125 37.3125 53.328125 
Q 46.875 53.328125 52.921875 45.75 
Q 58.984375 38.1875 58.984375 25.984375 
Q 58.984375 13.765625 52.921875 6.171875 
Q 46.875 -1.421875 37.3125 -1.421875 
Q 31.296875 -1.421875 27.21875 0.890625 
Q 23.140625 3.21875 20.515625 8.109375 
L 20.515625 -15.578125 
L 29 -15.578125 
L 29 -20.796875 
L 2.875 -20.796875 
L 2.875 -15.578125 
L 11.53125 -15.578125 
z
" id="DejaVuSerif-112"/>
      <path d="M 11.53125 5.171875 
L 11.53125 70.796875 
L 2.875 70.796875 
L 2.875 75.984375 
L 20.515625 75.984375 
L 20.515625 43.796875 
Q 23.140625 48.6875 27.21875 51 
Q 31.296875 53.328125 37.3125 53.328125 
Q 46.875 53.328125 52.921875 45.75 
Q 58.984375 38.1875 58.984375 25.984375 
Q 58.984375 13.765625 52.921875 6.171875 
Q 46.875 -1.421875 37.3125 -1.421875 
Q 31.296875 -1.421875 27.21875 0.890625 
Q 23.140625 3.21875 20.515625 8.109375 
L 20.515625 0 
L 2.875 0 
L 2.875 5.171875 
z
M 20.515625 23.390625 
Q 20.515625 14.015625 24.09375 9.109375 
Q 27.6875 4.203125 34.515625 4.203125 
Q 41.40625 4.203125 44.9375 9.71875 
Q 48.484375 15.234375 48.484375 25.984375 
Q 48.484375 36.765625 44.9375 42.234375 
Q 41.40625 47.703125 34.515625 47.703125 
Q 27.6875 47.703125 24.09375 42.765625 
Q 20.515625 37.84375 20.515625 28.515625 
z
" id="DejaVuSerif-98"/>
      <path d="M 5.515625 0 
L 5.515625 5.171875 
L 14.796875 5.171875 
L 14.796875 67.671875 
L 5.515625 67.671875 
L 5.515625 72.90625 
L 64.203125 72.90625 
L 64.203125 56.6875 
L 58.203125 56.6875 
L 58.203125 66.890625 
L 24.703125 66.890625 
L 24.703125 42.484375 
L 48.578125 42.484375 
L 48.578125 51.609375 
L 54.59375 51.609375 
L 54.59375 27.390625 
L 48.578125 27.390625 
L 48.578125 36.53125 
L 24.703125 36.53125 
L 24.703125 6 
L 58.984375 6 
L 58.984375 16.21875 
L 64.984375 16.21875 
L 64.984375 0 
z
" id="DejaVuSerif-69"/>
     </defs>
     <g transform="translate(828.389375 49.203187)scale(0.14 -0.14)">
      <use xlink:href="#DejaVuSerif-83"/>
      <use x="68.505859" xlink:href="#DejaVuSerif-117"/>
      <use x="132.910156" xlink:href="#DejaVuSerif-115"/>
      <use x="184.228516" xlink:href="#DejaVuSerif-99"/>
      <use x="240.234375" xlink:href="#DejaVuSerif-101"/>
      <use x="299.414062" xlink:href="#DejaVuSerif-112"/>
      <use x="363.427734" xlink:href="#DejaVuSerif-116"/>
      <use x="403.613281" xlink:href="#DejaVuSerif-105"/>
      <use x="435.595703" xlink:href="#DejaVuSerif-98"/>
      <use x="499.609375" xlink:href="#DejaVuSerif-108"/>
      <use x="531.591797" xlink:href="#DejaVuSerif-101"/>
      <use x="590.771484" xlink:href="#DejaVuSerif-32"/>
      <use x="622.558594" xlink:href="#DejaVuSerif-69"/>
      <use x="695.556641" xlink:href="#DejaVuSerif-115"/>
      <use x="746.875" xlink:href="#DejaVuSerif-116"/>
      <use x="787.060547" xlink:href="#DejaVuSerif-105"/>
      <use x="819.042969" xlink:href="#DejaVuSerif-109"/>
      <use x="913.867188" xlink:href="#DejaVuSerif-97"/>
      <use x="973.486328" xlink:href="#DejaVuSerif-116"/>
      <use x="1013.671875" xlink:href="#DejaVuSerif-101"/>
     </g>
    </g>
    <g id="line2d_54">
     <path d="M 789.189375 64.852562 
L 817.189375 64.852562 
" style="fill:none;stroke:#ff0000;stroke-linecap:square;stroke-width:1.5;"/>
    </g>
    <g id="line2d_55"/>
    <g id="text_27">
     <!-- Infected Estimate -->
     <defs>
      <path d="M 43.015625 63.71875 
L 38.28125 63.71875 
Q 38.234375 67.390625 36.203125 69.28125 
Q 34.1875 71.1875 30.328125 71.1875 
Q 25.296875 71.1875 23.234375 68.421875 
Q 21.1875 65.671875 21.1875 58.59375 
L 21.1875 51.90625 
L 35.6875 51.90625 
L 35.6875 46.6875 
L 21.1875 46.6875 
L 21.1875 5.171875 
L 32.71875 5.171875 
L 32.71875 0 
L 3.609375 0 
L 3.609375 5.171875 
L 12.203125 5.171875 
L 12.203125 46.6875 
L 3.609375 46.6875 
L 3.609375 51.90625 
L 12.203125 51.90625 
L 12.203125 58.40625 
Q 12.203125 67.09375 16.71875 71.53125 
Q 21.234375 75.984375 29.984375 75.984375 
Q 33.25 75.984375 36.515625 75.390625 
Q 39.796875 74.8125 43.015625 73.578125 
z
" id="DejaVuSerif-102"/>
     </defs>
     <g transform="translate(828.389375 69.752562)scale(0.14 -0.14)">
      <use xlink:href="#DejaVuSerif-73"/>
      <use x="39.501953" xlink:href="#DejaVuSerif-110"/>
      <use x="103.90625" xlink:href="#DejaVuSerif-102"/>
      <use x="140.917969" xlink:href="#DejaVuSerif-101"/>
      <use x="200.097656" xlink:href="#DejaVuSerif-99"/>
      <use x="256.103516" xlink:href="#DejaVuSerif-116"/>
      <use x="296.289062" xlink:href="#DejaVuSerif-101"/>
      <use x="355.46875" xlink:href="#DejaVuSerif-100"/>
      <use x="419.482422" xlink:href="#DejaVuSerif-32"/>
      <use x="451.269531" xlink:href="#DejaVuSerif-69"/>
      <use x="524.267578" xlink:href="#DejaVuSerif-115"/>
      <use x="575.585938" xlink:href="#DejaVuSerif-116"/>
      <use x="615.771484" xlink:href="#DejaVuSerif-105"/>
      <use x="647.753906" xlink:href="#DejaVuSerif-109"/>
      <use x="742.578125" xlink:href="#DejaVuSerif-97"/>
      <use x="802.197266" xlink:href="#DejaVuSerif-116"/>
      <use x="842.382812" xlink:href="#DejaVuSerif-101"/>
     </g>
    </g>
    <g id="line2d_56">
     <path d="M 789.189375 85.401937 
L 817.189375 85.401937 
" style="fill:none;stroke:#008000;stroke-linecap:square;stroke-width:1.5;"/>
    </g>
    <g id="line2d_57"/>
    <g id="text_28">
     <!-- Recovered Estimate -->
     <g transform="translate(828.389375 90.301937)scale(0.14 -0.14)">
      <use xlink:href="#DejaVuSerif-82"/>
      <use x="75.292969" xlink:href="#DejaVuSerif-101"/>
      <use x="134.472656" xlink:href="#DejaVuSerif-99"/>
      <use x="190.478516" xlink:href="#DejaVuSerif-111"/>
      <use x="250.683594" xlink:href="#DejaVuSerif-118"/>
      <use x="307.177734" xlink:href="#DejaVuSerif-101"/>
      <use x="366.357422" xlink:href="#DejaVuSerif-114"/>
      <use x="414.160156" xlink:href="#DejaVuSerif-101"/>
      <use x="473.339844" xlink:href="#DejaVuSerif-100"/>
      <use x="537.353516" xlink:href="#DejaVuSerif-32"/>
      <use x="569.140625" xlink:href="#DejaVuSerif-69"/>
      <use x="642.138672" xlink:href="#DejaVuSerif-115"/>
      <use x="693.457031" xlink:href="#DejaVuSerif-116"/>
      <use x="733.642578" xlink:href="#DejaVuSerif-105"/>
      <use x="765.625" xlink:href="#DejaVuSerif-109"/>
      <use x="860.449219" xlink:href="#DejaVuSerif-97"/>
      <use x="920.068359" xlink:href="#DejaVuSerif-116"/>
      <use x="960.253906" xlink:href="#DejaVuSerif-101"/>
     </g>
    </g>
    <g id="line2d_58">
     <path d="M 789.189375 105.951312 
L 817.189375 105.951312 
" style="fill:none;stroke:#000000;stroke-linecap:square;stroke-width:1.5;"/>
    </g>
    <g id="line2d_59"/>
    <g id="text_29">
     <!-- Dead Estimate -->
     <g transform="translate(828.389375 110.851312)scale(0.14 -0.14)">
      <use xlink:href="#DejaVuSerif-68"/>
      <use x="80.175781" xlink:href="#DejaVuSerif-101"/>
      <use x="139.355469" xlink:href="#DejaVuSerif-97"/>
      <use x="198.974609" xlink:href="#DejaVuSerif-100"/>
      <use x="262.988281" xlink:href="#DejaVuSerif-32"/>
      <use x="294.775391" xlink:href="#DejaVuSerif-69"/>
      <use x="367.773438" xlink:href="#DejaVuSerif-115"/>
      <use x="419.091797" xlink:href="#DejaVuSerif-116"/>
      <use x="459.277344" xlink:href="#DejaVuSerif-105"/>
      <use x="491.259766" xlink:href="#DejaVuSerif-109"/>
      <use x="586.083984" xlink:href="#DejaVuSerif-97"/>
      <use x="645.703125" xlink:href="#DejaVuSerif-116"/>
      <use x="685.888672" xlink:href="#DejaVuSerif-101"/>
     </g>
    </g>
    <g id="line2d_60">
     <path d="M 789.189375 126.500687 
L 817.189375 126.500687 
" style="fill:none;stroke:#808080;stroke-linecap:square;stroke-width:1.5;"/>
    </g>
    <g id="line2d_61"/>
    <g id="text_30">
     <!-- Dead Estimate (Without h Term) -->
     <defs>
      <path d="M 76.21875 0 
L 68.21875 0 
L 51.515625 59.28125 
L 34.8125 0 
L 26.8125 0 
L 7.71875 67.671875 
L 0.484375 67.671875 
L 0.484375 72.90625 
L 27.09375 72.90625 
L 27.09375 67.671875 
L 18.015625 67.671875 
L 33.203125 13.8125 
L 49.8125 72.90625 
L 57.71875 72.90625 
L 74.609375 13.1875 
L 89.890625 67.671875 
L 81.5 67.671875 
L 81.5 72.90625 
L 102.484375 72.90625 
L 102.484375 67.671875 
L 95.3125 67.671875 
z
" id="DejaVuSerif-87"/>
      <path d="M 4.109375 0 
L 4.109375 5.171875 
L 12.203125 5.171875 
L 12.203125 70.796875 
L 3.609375 70.796875 
L 3.609375 75.984375 
L 21.1875 75.984375 
L 21.1875 42.671875 
Q 23.6875 47.953125 27.65625 50.640625 
Q 31.640625 53.328125 36.921875 53.328125 
Q 45.515625 53.328125 49.5625 48.390625 
Q 53.609375 43.453125 53.609375 33.015625 
L 53.609375 5.171875 
L 61.625 5.171875 
L 61.625 0 
L 36.8125 0 
L 36.8125 5.171875 
L 44.578125 5.171875 
L 44.578125 30.171875 
Q 44.578125 39.703125 42.25 43.1875 
Q 39.9375 46.6875 33.984375 46.6875 
Q 27.734375 46.6875 24.453125 42.140625 
Q 21.1875 37.59375 21.1875 28.90625 
L 21.1875 5.171875 
L 29 5.171875 
L 29 0 
z
" id="DejaVuSerif-104"/>
     </defs>
     <g transform="translate(828.389375 131.400687)scale(0.14 -0.14)">
      <use xlink:href="#DejaVuSerif-68"/>
      <use x="80.175781" xlink:href="#DejaVuSerif-101"/>
      <use x="139.355469" xlink:href="#DejaVuSerif-97"/>
      <use x="198.974609" xlink:href="#DejaVuSerif-100"/>
      <use x="262.988281" xlink:href="#DejaVuSerif-32"/>
      <use x="294.775391" xlink:href="#DejaVuSerif-69"/>
      <use x="367.773438" xlink:href="#DejaVuSerif-115"/>
      <use x="419.091797" xlink:href="#DejaVuSerif-116"/>
      <use x="459.277344" xlink:href="#DejaVuSerif-105"/>
      <use x="491.259766" xlink:href="#DejaVuSerif-109"/>
      <use x="586.083984" xlink:href="#DejaVuSerif-97"/>
      <use x="645.703125" xlink:href="#DejaVuSerif-116"/>
      <use x="685.888672" xlink:href="#DejaVuSerif-101"/>
      <use x="745.068359" xlink:href="#DejaVuSerif-32"/>
      <use x="776.855469" xlink:href="#DejaVuSerif-40"/>
      <use x="815.869141" xlink:href="#DejaVuSerif-87"/>
      <use x="918.636719" xlink:href="#DejaVuSerif-105"/>
      <use x="950.619141" xlink:href="#DejaVuSerif-116"/>
      <use x="990.804688" xlink:href="#DejaVuSerif-104"/>
      <use x="1055.208984" xlink:href="#DejaVuSerif-111"/>
      <use x="1115.414062" xlink:href="#DejaVuSerif-117"/>
      <use x="1179.818359" xlink:href="#DejaVuSerif-116"/>
      <use x="1220.003906" xlink:href="#DejaVuSerif-32"/>
      <use x="1251.791016" xlink:href="#DejaVuSerif-104"/>
      <use x="1316.195312" xlink:href="#DejaVuSerif-32"/>
      <use x="1347.982422" xlink:href="#DejaVuSerif-84"/>
      <use x="1414.572266" xlink:href="#DejaVuSerif-101"/>
      <use x="1473.751953" xlink:href="#DejaVuSerif-114"/>
      <use x="1521.554688" xlink:href="#DejaVuSerif-109"/>
      <use x="1616.378906" xlink:href="#DejaVuSerif-41"/>
     </g>
    </g>
    <g id="line2d_62">
     <path d="M 789.189375 147.050062 
L 817.189375 147.050062 
" style="fill:none;stroke:#708090;stroke-dasharray:2,3.3;stroke-dashoffset:0;stroke-width:2;"/>
    </g>
    <g id="line2d_63"/>
    <g id="text_31">
     <!-- Projection Start Date -->
     <defs>
      <path d="M 10.015625 68.015625 
Q 10.015625 70.265625 11.640625 71.921875 
Q 13.28125 73.578125 15.578125 73.578125 
Q 17.828125 73.578125 19.453125 71.921875 
Q 21.09375 70.265625 21.09375 68.015625 
Q 21.09375 65.71875 19.5 64.109375 
Q 17.921875 62.5 15.578125 62.5 
Q 13.28125 62.5 11.640625 64.109375 
Q 10.015625 65.71875 10.015625 68.015625 
z
M 12.203125 46.6875 
L 3.71875 46.6875 
L 3.71875 51.90625 
L 21.1875 51.90625 
L 21.1875 -5.078125 
Q 21.1875 -13.09375 16.421875 -17.65625 
Q 11.671875 -22.21875 3.328125 -22.21875 
Q -0.203125 -22.21875 -3.390625 -21.40625 
Q -6.59375 -20.609375 -9.625 -19 
L -9.625 -8.296875 
L -4.984375 -8.296875 
Q -4.640625 -12.984375 -2.5625 -15.1875 
Q -0.484375 -17.390625 3.515625 -17.390625 
Q 7.953125 -17.390625 10.078125 -14.375 
Q 12.203125 -11.375 12.203125 -5.078125 
z
" id="DejaVuSerif-106"/>
     </defs>
     <g transform="translate(828.389375 151.950062)scale(0.14 -0.14)">
      <use xlink:href="#DejaVuSerif-80"/>
      <use x="67.285156" xlink:href="#DejaVuSerif-114"/>
      <use x="115.087891" xlink:href="#DejaVuSerif-111"/>
      <use x="175.292969" xlink:href="#DejaVuSerif-106"/>
      <use x="206.298828" xlink:href="#DejaVuSerif-101"/>
      <use x="265.478516" xlink:href="#DejaVuSerif-99"/>
      <use x="321.484375" xlink:href="#DejaVuSerif-116"/>
      <use x="361.669922" xlink:href="#DejaVuSerif-105"/>
      <use x="393.652344" xlink:href="#DejaVuSerif-111"/>
      <use x="453.857422" xlink:href="#DejaVuSerif-110"/>
      <use x="518.261719" xlink:href="#DejaVuSerif-32"/>
      <use x="550.048828" xlink:href="#DejaVuSerif-83"/>
      <use x="618.554688" xlink:href="#DejaVuSerif-116"/>
      <use x="658.740234" xlink:href="#DejaVuSerif-97"/>
      <use x="718.359375" xlink:href="#DejaVuSerif-114"/>
      <use x="766.162109" xlink:href="#DejaVuSerif-116"/>
      <use x="806.347656" xlink:href="#DejaVuSerif-32"/>
      <use x="838.134766" xlink:href="#DejaVuSerif-68"/>
      <use x="918.310547" xlink:href="#DejaVuSerif-97"/>
      <use x="977.929688" xlink:href="#DejaVuSerif-116"/>
      <use x="1018.115234" xlink:href="#DejaVuSerif-101"/>
     </g>
    </g>
    <g id="line2d_64">
     <path d="M 789.189375 167.7985 
L 817.189375 167.7985 
" style="fill:none;stroke:#000000;stroke-dasharray:7.4,3.2;stroke-dashoffset:0;stroke-width:2;"/>
    </g>
    <g id="line2d_65"/>
    <g id="text_32">
     <!-- Total Dead = 500079.0 -->
     <defs>
      <path d="M 10.59375 45.21875 
L 73.1875 45.21875 
L 73.1875 37.40625 
L 10.59375 37.40625 
z
M 10.59375 25.296875 
L 73.1875 25.296875 
L 73.1875 17.484375 
L 10.59375 17.484375 
z
" id="DejaVuSerif-61"/>
     </defs>
     <g transform="translate(828.389375 172.6985)scale(0.14 -0.14)">
      <use xlink:href="#DejaVuSerif-84"/>
      <use x="66.589844" xlink:href="#DejaVuSerif-111"/>
      <use x="126.794922" xlink:href="#DejaVuSerif-116"/>
      <use x="166.980469" xlink:href="#DejaVuSerif-97"/>
      <use x="226.599609" xlink:href="#DejaVuSerif-108"/>
      <use x="258.582031" xlink:href="#DejaVuSerif-32"/>
      <use x="290.369141" xlink:href="#DejaVuSerif-68"/>
      <use x="370.544922" xlink:href="#DejaVuSerif-101"/>
      <use x="429.724609" xlink:href="#DejaVuSerif-97"/>
      <use x="489.34375" xlink:href="#DejaVuSerif-100"/>
      <use x="553.357422" xlink:href="#DejaVuSerif-32"/>
      <use x="585.144531" xlink:href="#DejaVuSerif-61"/>
      <use x="668.933594" xlink:href="#DejaVuSerif-32"/>
      <use x="700.720703" xlink:href="#DejaVuSerif-53"/>
      <use x="764.34375" xlink:href="#DejaVuSerif-48"/>
      <use x="827.966797" xlink:href="#DejaVuSerif-48"/>
      <use x="891.589844" xlink:href="#DejaVuSerif-48"/>
      <use x="955.212891" xlink:href="#DejaVuSerif-55"/>
      <use x="1018.835938" xlink:href="#DejaVuSerif-57"/>
      <use x="1082.458984" xlink:href="#DejaVuSerif-46"/>
      <use x="1114.246094" xlink:href="#DejaVuSerif-48"/>
     </g>
    </g>
   </g>
  </g>
 </g>
 <defs>
  <clipPath id="p66cb8099a0">
   <rect height="652.32" width="1004.4" x="68.348438" y="25.965375"/>
  </clipPath>
 </defs>
</svg>
