<?xml version="1.0" encoding="utf-8" standalone="no"?>
<!DOCTYPE svg PUBLIC "-//W3C//DTD SVG 1.1//EN"
  "http://www.w3.org/Graphics/SVG/1.1/DTD/svg11.dtd">
<!-- Created with matplotlib (https://matplotlib.org/) -->
<svg height="723.584125pt" version="1.1" viewBox="0 0 1087.886875 723.584125" width="1087.886875pt" xmlns="http://www.w3.org/2000/svg" xmlns:xlink="http://www.w3.org/1999/xlink">
 <defs>
  <style type="text/css">
*{stroke-linecap:butt;stroke-linejoin:round;}
  </style>
 </defs>
 <g id="figure_1">
  <g id="patch_1">
   <path d="M 0 723.584125 
L 1087.886875 723.584125 
L 1087.886875 0 
L 0 0 
z
" style="fill:none;"/>
  </g>
  <g id="axes_1">
   <g id="patch_2">
    <path d="M 76.286875 678.285375 
L 1080.686875 678.285375 
L 1080.686875 25.965375 
L 76.286875 25.965375 
z
" style="fill:#ffffff;"/>
   </g>
   <g id="matplotlib.axis_1">
    <g id="xtick_1">
     <g id="line2d_1">
      <path clip-path="url(#pcf6082ce61)" d="M 121.94142 678.285375 
L 121.94142 25.965375 
" style="fill:none;stroke:#b0b0b0;stroke-linecap:square;stroke-width:0.8;"/>
     </g>
     <g id="line2d_2">
      <defs>
       <path d="M 0 0 
L 0 3.5 
" id="ma24d4a605d" style="stroke:#000000;stroke-width:0.8;"/>
      </defs>
      <g>
       <use style="stroke:#000000;stroke-width:0.8;" x="121.94142" xlink:href="#ma24d4a605d" y="678.285375"/>
      </g>
     </g>
     <g id="text_1">
      <!-- 2020-01-31 -->
      <defs>
       <path d="M 12.796875 55.515625 
L 7.328125 55.515625 
L 7.328125 68.5 
Q 12.546875 71.296875 17.84375 72.75 
Q 23.140625 74.21875 28.21875 74.21875 
Q 39.59375 74.21875 46.1875 68.703125 
Q 52.78125 63.1875 52.78125 53.71875 
Q 52.78125 43.015625 37.84375 28.125 
Q 36.671875 27 36.078125 26.421875 
L 17.671875 8.015625 
L 48.09375 8.015625 
L 48.09375 17 
L 53.8125 17 
L 53.8125 0 
L 6.78125 0 
L 6.78125 5.328125 
L 28.90625 27.390625 
Q 36.234375 34.71875 39.359375 40.84375 
Q 42.484375 46.96875 42.484375 53.71875 
Q 42.484375 61.078125 38.640625 65.234375 
Q 34.8125 69.390625 28.078125 69.390625 
Q 21.09375 69.390625 17.28125 65.921875 
Q 13.484375 62.453125 12.796875 55.515625 
z
" id="DejaVuSerif-50"/>
       <path d="M 31.78125 3.421875 
Q 39.265625 3.421875 42.96875 11.625 
Q 46.6875 19.828125 46.6875 36.375 
Q 46.6875 52.984375 42.96875 61.1875 
Q 39.265625 69.390625 31.78125 69.390625 
Q 24.3125 69.390625 20.59375 61.1875 
Q 16.890625 52.984375 16.890625 36.375 
Q 16.890625 19.828125 20.59375 11.625 
Q 24.3125 3.421875 31.78125 3.421875 
z
M 31.78125 -1.421875 
Q 19.921875 -1.421875 13.25 8.53125 
Q 6.59375 18.5 6.59375 36.375 
Q 6.59375 54.296875 13.25 64.25 
Q 19.921875 74.21875 31.78125 74.21875 
Q 43.703125 74.21875 50.34375 64.25 
Q 56.984375 54.296875 56.984375 36.375 
Q 56.984375 18.5 50.34375 8.53125 
Q 43.703125 -1.421875 31.78125 -1.421875 
z
" id="DejaVuSerif-48"/>
       <path d="M 4.390625 30.609375 
L 29.390625 30.609375 
L 29.390625 23 
L 4.390625 23 
z
" id="DejaVuSerif-45"/>
       <path d="M 14.203125 0 
L 14.203125 5.171875 
L 26.90625 5.171875 
L 26.90625 65.828125 
L 12.203125 56.296875 
L 12.203125 62.703125 
L 29.984375 74.21875 
L 36.71875 74.21875 
L 36.71875 5.171875 
L 49.421875 5.171875 
L 49.421875 0 
z
" id="DejaVuSerif-49"/>
       <path d="M 9.71875 69.828125 
Q 15.4375 71.96875 20.671875 73.09375 
Q 25.921875 74.21875 30.515625 74.21875 
Q 41.21875 74.21875 47.21875 69.59375 
Q 53.21875 64.984375 53.21875 56.78125 
Q 53.21875 50.203125 49.0625 45.78125 
Q 44.921875 41.359375 37.3125 39.796875 
Q 46.296875 38.53125 51.25 33.28125 
Q 56.203125 28.03125 56.203125 19.671875 
Q 56.203125 9.46875 49.34375 4.015625 
Q 42.484375 -1.421875 29.59375 -1.421875 
Q 23.875 -1.421875 18.421875 -0.1875 
Q 12.984375 1.03125 7.625 3.515625 
L 7.625 17.671875 
L 13.09375 17.671875 
Q 13.578125 10.640625 17.828125 7.03125 
Q 22.078125 3.421875 29.78125 3.421875 
Q 37.25 3.421875 41.578125 7.734375 
Q 45.90625 12.0625 45.90625 19.578125 
Q 45.90625 28.171875 41.453125 32.59375 
Q 37.015625 37.015625 28.421875 37.015625 
L 23.78125 37.015625 
L 23.78125 42 
L 26.21875 42 
Q 34.765625 42 39.03125 45.53125 
Q 43.3125 49.078125 43.3125 56.203125 
Q 43.3125 62.59375 39.796875 65.984375 
Q 36.28125 69.390625 29.6875 69.390625 
Q 23.09375 69.390625 19.453125 66.265625 
Q 15.828125 63.140625 15.1875 56.984375 
L 9.71875 56.984375 
z
" id="DejaVuSerif-51"/>
      </defs>
      <g transform="translate(81.579858 695.923187)scale(0.14 -0.14)">
       <use xlink:href="#DejaVuSerif-50"/>
       <use x="63.623047" xlink:href="#DejaVuSerif-48"/>
       <use x="127.246094" xlink:href="#DejaVuSerif-50"/>
       <use x="190.869141" xlink:href="#DejaVuSerif-48"/>
       <use x="254.492188" xlink:href="#DejaVuSerif-45"/>
       <use x="288.28125" xlink:href="#DejaVuSerif-48"/>
       <use x="351.904297" xlink:href="#DejaVuSerif-49"/>
       <use x="415.527344" xlink:href="#DejaVuSerif-45"/>
       <use x="449.316406" xlink:href="#DejaVuSerif-51"/>
       <use x="512.939453" xlink:href="#DejaVuSerif-49"/>
      </g>
     </g>
    </g>
    <g id="xtick_2">
     <g id="line2d_3">
      <path clip-path="url(#pcf6082ce61)" d="M 278.829893 678.285375 
L 278.829893 25.965375 
" style="fill:none;stroke:#b0b0b0;stroke-linecap:square;stroke-width:0.8;"/>
     </g>
     <g id="line2d_4">
      <g>
       <use style="stroke:#000000;stroke-width:0.8;" x="278.829893" xlink:href="#ma24d4a605d" y="678.285375"/>
      </g>
     </g>
     <g id="text_2">
      <!-- 2020-04-14 -->
      <defs>
       <path d="M 34.90625 24.703125 
L 34.90625 63.484375 
L 10.015625 24.703125 
z
M 56.390625 0 
L 23.1875 0 
L 23.1875 5.171875 
L 34.90625 5.171875 
L 34.90625 19.484375 
L 3.078125 19.484375 
L 3.078125 24.8125 
L 35.015625 74.21875 
L 44.671875 74.21875 
L 44.671875 24.703125 
L 58.59375 24.703125 
L 58.59375 19.484375 
L 44.671875 19.484375 
L 44.671875 5.171875 
L 56.390625 5.171875 
z
" id="DejaVuSerif-52"/>
      </defs>
      <g transform="translate(238.46833 695.923187)scale(0.14 -0.14)">
       <use xlink:href="#DejaVuSerif-50"/>
       <use x="63.623047" xlink:href="#DejaVuSerif-48"/>
       <use x="127.246094" xlink:href="#DejaVuSerif-50"/>
       <use x="190.869141" xlink:href="#DejaVuSerif-48"/>
       <use x="254.492188" xlink:href="#DejaVuSerif-45"/>
       <use x="288.28125" xlink:href="#DejaVuSerif-48"/>
       <use x="351.904297" xlink:href="#DejaVuSerif-52"/>
       <use x="415.527344" xlink:href="#DejaVuSerif-45"/>
       <use x="449.316406" xlink:href="#DejaVuSerif-49"/>
       <use x="512.939453" xlink:href="#DejaVuSerif-52"/>
      </g>
     </g>
    </g>
    <g id="xtick_3">
     <g id="line2d_5">
      <path clip-path="url(#pcf6082ce61)" d="M 435.718365 678.285375 
L 435.718365 25.965375 
" style="fill:none;stroke:#b0b0b0;stroke-linecap:square;stroke-width:0.8;"/>
     </g>
     <g id="line2d_6">
      <g>
       <use style="stroke:#000000;stroke-width:0.8;" x="435.718365" xlink:href="#ma24d4a605d" y="678.285375"/>
      </g>
     </g>
     <g id="text_3">
      <!-- 2020-06-03 -->
      <defs>
       <path d="M 32.71875 3.421875 
Q 39.59375 3.421875 43.296875 8.46875 
Q 47.015625 13.53125 47.015625 23 
Q 47.015625 32.46875 43.296875 37.515625 
Q 39.59375 42.578125 32.71875 42.578125 
Q 25.734375 42.578125 22.0625 37.6875 
Q 18.40625 32.8125 18.40625 23.578125 
Q 18.40625 13.875 22.109375 8.640625 
Q 25.828125 3.421875 32.71875 3.421875 
z
M 16.796875 40.140625 
Q 20.125 43.796875 24.3125 45.59375 
Q 28.515625 47.40625 33.796875 47.40625 
Q 44.671875 47.40625 51 40.859375 
Q 57.328125 34.328125 57.328125 23 
Q 57.328125 11.921875 50.515625 5.25 
Q 43.703125 -1.421875 32.328125 -1.421875 
Q 19.96875 -1.421875 13.328125 7.78125 
Q 6.6875 17 6.6875 34.078125 
Q 6.6875 53.21875 14.546875 63.71875 
Q 22.40625 74.21875 36.71875 74.21875 
Q 40.578125 74.21875 44.828125 73.484375 
Q 49.078125 72.75 53.515625 71.296875 
L 53.515625 59.28125 
L 48 59.28125 
Q 47.40625 64.203125 44.234375 66.796875 
Q 41.0625 69.390625 35.6875 69.390625 
Q 26.21875 69.390625 21.578125 62.203125 
Q 16.9375 55.03125 16.796875 40.140625 
z
" id="DejaVuSerif-54"/>
      </defs>
      <g transform="translate(395.356803 695.923187)scale(0.14 -0.14)">
       <use xlink:href="#DejaVuSerif-50"/>
       <use x="63.623047" xlink:href="#DejaVuSerif-48"/>
       <use x="127.246094" xlink:href="#DejaVuSerif-50"/>
       <use x="190.869141" xlink:href="#DejaVuSerif-48"/>
       <use x="254.492188" xlink:href="#DejaVuSerif-45"/>
       <use x="288.28125" xlink:href="#DejaVuSerif-48"/>
       <use x="351.904297" xlink:href="#DejaVuSerif-54"/>
       <use x="415.527344" xlink:href="#DejaVuSerif-45"/>
       <use x="449.316406" xlink:href="#DejaVuSerif-48"/>
       <use x="512.939453" xlink:href="#DejaVuSerif-51"/>
      </g>
     </g>
    </g>
    <g id="xtick_4">
     <g id="line2d_7">
      <path clip-path="url(#pcf6082ce61)" d="M 592.606838 678.285375 
L 592.606838 25.965375 
" style="fill:none;stroke:#b0b0b0;stroke-linecap:square;stroke-width:0.8;"/>
     </g>
     <g id="line2d_8">
      <g>
       <use style="stroke:#000000;stroke-width:0.8;" x="592.606838" xlink:href="#ma24d4a605d" y="678.285375"/>
      </g>
     </g>
     <g id="text_4">
      <!-- 2020-07-23 -->
      <defs>
       <path d="M 56.390625 67.921875 
L 27.875 0 
L 20.609375 0 
L 47.796875 64.890625 
L 14.109375 64.890625 
L 14.109375 55.90625 
L 8.40625 55.90625 
L 8.40625 72.90625 
L 56.390625 72.90625 
z
" id="DejaVuSerif-55"/>
      </defs>
      <g transform="translate(552.245275 695.923187)scale(0.14 -0.14)">
       <use xlink:href="#DejaVuSerif-50"/>
       <use x="63.623047" xlink:href="#DejaVuSerif-48"/>
       <use x="127.246094" xlink:href="#DejaVuSerif-50"/>
       <use x="190.869141" xlink:href="#DejaVuSerif-48"/>
       <use x="254.492188" xlink:href="#DejaVuSerif-45"/>
       <use x="288.28125" xlink:href="#DejaVuSerif-48"/>
       <use x="351.904297" xlink:href="#DejaVuSerif-55"/>
       <use x="415.527344" xlink:href="#DejaVuSerif-45"/>
       <use x="449.316406" xlink:href="#DejaVuSerif-50"/>
       <use x="512.939453" xlink:href="#DejaVuSerif-51"/>
      </g>
     </g>
    </g>
    <g id="xtick_5">
     <g id="line2d_9">
      <path clip-path="url(#pcf6082ce61)" d="M 749.49531 678.285375 
L 749.49531 25.965375 
" style="fill:none;stroke:#b0b0b0;stroke-linecap:square;stroke-width:0.8;"/>
     </g>
     <g id="line2d_10">
      <g>
       <use style="stroke:#000000;stroke-width:0.8;" x="749.49531" xlink:href="#ma24d4a605d" y="678.285375"/>
      </g>
     </g>
     <g id="text_5">
      <!-- 2020-09-11 -->
      <defs>
       <path d="M 46.78125 32.671875 
Q 43.5 29 39.25 27.1875 
Q 35.015625 25.390625 29.6875 25.390625 
Q 18.84375 25.390625 12.5625 31.9375 
Q 6.296875 38.484375 6.296875 49.8125 
Q 6.296875 60.890625 13.109375 67.546875 
Q 19.921875 74.21875 31.296875 74.21875 
Q 43.65625 74.21875 50.265625 65.015625 
Q 56.890625 55.8125 56.890625 38.71875 
Q 56.890625 19.578125 49.015625 9.078125 
Q 41.15625 -1.421875 26.90625 -1.421875 
Q 23.046875 -1.421875 18.796875 -0.6875 
Q 14.546875 0.046875 10.109375 1.515625 
L 10.109375 13.625 
L 15.578125 13.625 
Q 16.21875 8.6875 19.390625 6.046875 
Q 22.5625 3.421875 27.875 3.421875 
Q 37.359375 3.421875 41.984375 10.5625 
Q 46.625 17.71875 46.78125 32.671875 
z
M 30.90625 69.390625 
Q 23.96875 69.390625 20.28125 64.328125 
Q 16.609375 59.28125 16.609375 49.8125 
Q 16.609375 40.328125 20.28125 35.25 
Q 23.96875 30.171875 30.90625 30.171875 
Q 37.84375 30.171875 41.53125 35.078125 
Q 45.21875 39.984375 45.21875 49.21875 
Q 45.21875 58.9375 41.5 64.15625 
Q 37.796875 69.390625 30.90625 69.390625 
z
" id="DejaVuSerif-57"/>
      </defs>
      <g transform="translate(709.133747 695.923187)scale(0.14 -0.14)">
       <use xlink:href="#DejaVuSerif-50"/>
       <use x="63.623047" xlink:href="#DejaVuSerif-48"/>
       <use x="127.246094" xlink:href="#DejaVuSerif-50"/>
       <use x="190.869141" xlink:href="#DejaVuSerif-48"/>
       <use x="254.492188" xlink:href="#DejaVuSerif-45"/>
       <use x="288.28125" xlink:href="#DejaVuSerif-48"/>
       <use x="351.904297" xlink:href="#DejaVuSerif-57"/>
       <use x="415.527344" xlink:href="#DejaVuSerif-45"/>
       <use x="449.316406" xlink:href="#DejaVuSerif-49"/>
       <use x="512.939453" xlink:href="#DejaVuSerif-49"/>
      </g>
     </g>
    </g>
    <g id="xtick_6">
     <g id="line2d_11">
      <path clip-path="url(#pcf6082ce61)" d="M 906.383782 678.285375 
L 906.383782 25.965375 
" style="fill:none;stroke:#b0b0b0;stroke-linecap:square;stroke-width:0.8;"/>
     </g>
     <g id="line2d_12">
      <g>
       <use style="stroke:#000000;stroke-width:0.8;" x="906.383782" xlink:href="#ma24d4a605d" y="678.285375"/>
      </g>
     </g>
     <g id="text_6">
      <!-- 2020-10-31 -->
      <g transform="translate(866.02222 695.923187)scale(0.14 -0.14)">
       <use xlink:href="#DejaVuSerif-50"/>
       <use x="63.623047" xlink:href="#DejaVuSerif-48"/>
       <use x="127.246094" xlink:href="#DejaVuSerif-50"/>
       <use x="190.869141" xlink:href="#DejaVuSerif-48"/>
       <use x="254.492188" xlink:href="#DejaVuSerif-45"/>
       <use x="288.28125" xlink:href="#DejaVuSerif-49"/>
       <use x="351.904297" xlink:href="#DejaVuSerif-48"/>
       <use x="415.527344" xlink:href="#DejaVuSerif-45"/>
       <use x="449.316406" xlink:href="#DejaVuSerif-51"/>
       <use x="512.939453" xlink:href="#DejaVuSerif-49"/>
      </g>
     </g>
    </g>
    <g id="xtick_7">
     <g id="line2d_13">
      <path clip-path="url(#pcf6082ce61)" d="M 1063.272255 678.285375 
L 1063.272255 25.965375 
" style="fill:none;stroke:#b0b0b0;stroke-linecap:square;stroke-width:0.8;"/>
     </g>
     <g id="line2d_14">
      <g>
       <use style="stroke:#000000;stroke-width:0.8;" x="1063.272255" xlink:href="#ma24d4a605d" y="678.285375"/>
      </g>
     </g>
    </g>
    <g id="text_7">
     <!-- Dates -->
     <defs>
      <path d="M 24.703125 5.171875 
L 33.796875 5.171875 
Q 48 5.171875 55.59375 13.28125 
Q 63.1875 21.390625 63.1875 36.53125 
Q 63.1875 51.65625 55.609375 59.65625 
Q 48.046875 67.671875 33.796875 67.671875 
L 24.703125 67.671875 
z
M 5.515625 0 
L 5.515625 5.171875 
L 14.796875 5.171875 
L 14.796875 67.671875 
L 5.515625 67.671875 
L 5.515625 72.90625 
L 34.515625 72.90625 
Q 53.375 72.90625 63.890625 63.28125 
Q 74.421875 53.65625 74.421875 36.53125 
Q 74.421875 19.34375 63.875 9.671875 
Q 53.328125 0 34.515625 0 
z
" id="DejaVuSerif-68"/>
      <path d="M 39.796875 16.3125 
L 39.796875 27.296875 
L 28.21875 27.296875 
Q 21.53125 27.296875 18.25 24.40625 
Q 14.984375 21.53125 14.984375 15.578125 
Q 14.984375 10.15625 18.296875 6.984375 
Q 21.625 3.8125 27.296875 3.8125 
Q 32.90625 3.8125 36.34375 7.28125 
Q 39.796875 10.75 39.796875 16.3125 
z
M 48.78125 32.421875 
L 48.78125 5.171875 
L 56.78125 5.171875 
L 56.78125 0 
L 39.796875 0 
L 39.796875 5.609375 
Q 36.8125 2 32.90625 0.28125 
Q 29 -1.421875 23.78125 -1.421875 
Q 15.140625 -1.421875 10.0625 3.171875 
Q 4.984375 7.765625 4.984375 15.578125 
Q 4.984375 23.640625 10.796875 28.078125 
Q 16.609375 32.515625 27.203125 32.515625 
L 39.796875 32.515625 
L 39.796875 36.078125 
Q 39.796875 42 36.203125 45.234375 
Q 32.625 48.484375 26.125 48.484375 
Q 20.75 48.484375 17.578125 46.046875 
Q 14.40625 43.609375 13.625 38.8125 
L 8.984375 38.8125 
L 8.984375 49.3125 
Q 13.671875 51.3125 18.09375 52.3125 
Q 22.515625 53.328125 26.703125 53.328125 
Q 37.5 53.328125 43.140625 47.96875 
Q 48.78125 42.625 48.78125 32.421875 
z
" id="DejaVuSerif-97"/>
      <path d="M 10.796875 46.6875 
L 2.875 46.6875 
L 2.875 51.90625 
L 10.796875 51.90625 
L 10.796875 68.015625 
L 19.828125 68.015625 
L 19.828125 51.90625 
L 36.71875 51.90625 
L 36.71875 46.6875 
L 19.828125 46.6875 
L 19.828125 13.71875 
Q 19.828125 7.125 21.09375 5.265625 
Q 22.359375 3.421875 25.78125 3.421875 
Q 29.296875 3.421875 30.90625 5.484375 
Q 32.515625 7.5625 32.625 12.203125 
L 39.40625 12.203125 
Q 39.015625 5.125 35.546875 1.84375 
Q 32.078125 -1.421875 25 -1.421875 
Q 17.234375 -1.421875 14.015625 2.015625 
Q 10.796875 5.46875 10.796875 13.71875 
z
" id="DejaVuSerif-116"/>
      <path d="M 54.203125 25 
L 15.484375 25 
L 15.484375 24.609375 
Q 15.484375 14.109375 19.4375 8.765625 
Q 23.390625 3.421875 31.109375 3.421875 
Q 37.015625 3.421875 40.796875 6.515625 
Q 44.578125 9.625 46.09375 15.71875 
L 53.328125 15.71875 
Q 51.171875 7.171875 45.375 2.875 
Q 39.59375 -1.421875 30.171875 -1.421875 
Q 18.796875 -1.421875 11.890625 6.078125 
Q 4.984375 13.578125 4.984375 25.984375 
Q 4.984375 38.28125 11.765625 45.796875 
Q 18.5625 53.328125 29.59375 53.328125 
Q 41.359375 53.328125 47.65625 46.0625 
Q 53.953125 38.8125 54.203125 25 
z
M 43.609375 30.171875 
Q 43.3125 39.265625 39.765625 43.875 
Q 36.234375 48.484375 29.59375 48.484375 
Q 23.390625 48.484375 19.828125 43.84375 
Q 16.265625 39.203125 15.484375 30.171875 
z
" id="DejaVuSerif-101"/>
      <path d="M 5.609375 2.875 
L 5.609375 14.984375 
L 10.796875 14.984375 
Q 10.984375 9.1875 14.421875 6.296875 
Q 17.875 3.421875 24.609375 3.421875 
Q 30.671875 3.421875 33.84375 5.6875 
Q 37.015625 7.953125 37.015625 12.3125 
Q 37.015625 15.71875 34.6875 17.8125 
Q 32.375 19.921875 24.90625 22.3125 
L 18.40625 24.515625 
Q 11.71875 26.65625 8.71875 29.875 
Q 5.71875 33.109375 5.71875 38.09375 
Q 5.71875 45.21875 10.9375 49.265625 
Q 16.15625 53.328125 25.390625 53.328125 
Q 29.5 53.328125 34.03125 52.25 
Q 38.578125 51.171875 43.40625 49.125 
L 43.40625 37.796875 
L 38.234375 37.796875 
Q 38.03125 42.828125 34.703125 45.65625 
Q 31.390625 48.484375 25.6875 48.484375 
Q 20.015625 48.484375 17.109375 46.484375 
Q 14.203125 44.484375 14.203125 40.484375 
Q 14.203125 37.203125 16.40625 35.21875 
Q 18.609375 33.25 25.203125 31.203125 
L 32.328125 29 
Q 39.703125 26.703125 42.9375 23.265625 
Q 46.1875 19.828125 46.1875 14.40625 
Q 46.1875 7.03125 40.546875 2.796875 
Q 34.90625 -1.421875 25 -1.421875 
Q 19.96875 -1.421875 15.1875 -0.34375 
Q 10.40625 0.734375 5.609375 2.875 
z
" id="DejaVuSerif-115"/>
     </defs>
     <g transform="translate(558.152969 713.472562)scale(0.14 -0.14)">
      <use xlink:href="#DejaVuSerif-68"/>
      <use x="80.175781" xlink:href="#DejaVuSerif-97"/>
      <use x="139.794922" xlink:href="#DejaVuSerif-116"/>
      <use x="179.980469" xlink:href="#DejaVuSerif-101"/>
      <use x="239.160156" xlink:href="#DejaVuSerif-115"/>
     </g>
    </g>
   </g>
   <g id="matplotlib.axis_2">
    <g id="ytick_1">
     <g id="line2d_15">
      <path clip-path="url(#pcf6082ce61)" d="M 76.286875 678.285375 
L 1080.686875 678.285375 
" style="fill:none;stroke:#b0b0b0;stroke-linecap:square;stroke-width:0.8;"/>
     </g>
     <g id="line2d_16">
      <defs>
       <path d="M 0 0 
L -3.5 0 
" id="m26eaa7ee00" style="stroke:#000000;stroke-width:0.8;"/>
      </defs>
      <g>
       <use style="stroke:#000000;stroke-width:0.8;" x="76.286875" xlink:href="#m26eaa7ee00" y="678.285375"/>
      </g>
     </g>
     <g id="text_8">
      <!-- 0 -->
      <g transform="translate(60.379375 683.604281)scale(0.14 -0.14)">
       <use xlink:href="#DejaVuSerif-48"/>
      </g>
     </g>
    </g>
    <g id="ytick_2">
     <g id="line2d_17">
      <path clip-path="url(#pcf6082ce61)" d="M 76.286875 602.145234 
L 1080.686875 602.145234 
" style="fill:none;stroke:#b0b0b0;stroke-linecap:square;stroke-width:0.8;"/>
     </g>
     <g id="line2d_18">
      <g>
       <use style="stroke:#000000;stroke-width:0.8;" x="76.286875" xlink:href="#m26eaa7ee00" y="602.145234"/>
      </g>
     </g>
     <g id="text_9">
      <!-- 5000 -->
      <defs>
       <path d="M 50.296875 72.90625 
L 50.296875 64.890625 
L 16.890625 64.890625 
L 16.890625 44 
Q 19.4375 45.75 22.828125 46.625 
Q 26.21875 47.515625 30.421875 47.515625 
Q 42.234375 47.515625 49.0625 40.96875 
Q 55.90625 34.421875 55.90625 23.09375 
Q 55.90625 11.53125 49 5.046875 
Q 42.09375 -1.421875 29.59375 -1.421875 
Q 24.5625 -1.421875 19.28125 -0.1875 
Q 14.015625 1.03125 8.5 3.515625 
L 8.5 17.671875 
L 14.015625 17.671875 
Q 14.453125 10.75 18.421875 7.078125 
Q 22.40625 3.421875 29.59375 3.421875 
Q 37.3125 3.421875 41.453125 8.5 
Q 45.609375 13.578125 45.609375 23.09375 
Q 45.609375 32.5625 41.484375 37.609375 
Q 37.359375 42.671875 29.59375 42.671875 
Q 25.203125 42.671875 21.84375 41.109375 
Q 18.5 39.546875 15.921875 36.28125 
L 11.71875 36.28125 
L 11.71875 72.90625 
z
" id="DejaVuSerif-53"/>
      </defs>
      <g transform="translate(33.656875 607.46414)scale(0.14 -0.14)">
       <use xlink:href="#DejaVuSerif-53"/>
       <use x="63.623047" xlink:href="#DejaVuSerif-48"/>
       <use x="127.246094" xlink:href="#DejaVuSerif-48"/>
       <use x="190.869141" xlink:href="#DejaVuSerif-48"/>
      </g>
     </g>
    </g>
    <g id="ytick_3">
     <g id="line2d_19">
      <path clip-path="url(#pcf6082ce61)" d="M 76.286875 526.005093 
L 1080.686875 526.005093 
" style="fill:none;stroke:#b0b0b0;stroke-linecap:square;stroke-width:0.8;"/>
     </g>
     <g id="line2d_20">
      <g>
       <use style="stroke:#000000;stroke-width:0.8;" x="76.286875" xlink:href="#m26eaa7ee00" y="526.005093"/>
      </g>
     </g>
     <g id="text_10">
      <!-- 10000 -->
      <g transform="translate(24.749375 531.323999)scale(0.14 -0.14)">
       <use xlink:href="#DejaVuSerif-49"/>
       <use x="63.623047" xlink:href="#DejaVuSerif-48"/>
       <use x="127.246094" xlink:href="#DejaVuSerif-48"/>
       <use x="190.869141" xlink:href="#DejaVuSerif-48"/>
       <use x="254.492188" xlink:href="#DejaVuSerif-48"/>
      </g>
     </g>
    </g>
    <g id="ytick_4">
     <g id="line2d_21">
      <path clip-path="url(#pcf6082ce61)" d="M 76.286875 449.864951 
L 1080.686875 449.864951 
" style="fill:none;stroke:#b0b0b0;stroke-linecap:square;stroke-width:0.8;"/>
     </g>
     <g id="line2d_22">
      <g>
       <use style="stroke:#000000;stroke-width:0.8;" x="76.286875" xlink:href="#m26eaa7ee00" y="449.864951"/>
      </g>
     </g>
     <g id="text_11">
      <!-- 15000 -->
      <g transform="translate(24.749375 455.183858)scale(0.14 -0.14)">
       <use xlink:href="#DejaVuSerif-49"/>
       <use x="63.623047" xlink:href="#DejaVuSerif-53"/>
       <use x="127.246094" xlink:href="#DejaVuSerif-48"/>
       <use x="190.869141" xlink:href="#DejaVuSerif-48"/>
       <use x="254.492188" xlink:href="#DejaVuSerif-48"/>
      </g>
     </g>
    </g>
    <g id="ytick_5">
     <g id="line2d_23">
      <path clip-path="url(#pcf6082ce61)" d="M 76.286875 373.72481 
L 1080.686875 373.72481 
" style="fill:none;stroke:#b0b0b0;stroke-linecap:square;stroke-width:0.8;"/>
     </g>
     <g id="line2d_24">
      <g>
       <use style="stroke:#000000;stroke-width:0.8;" x="76.286875" xlink:href="#m26eaa7ee00" y="373.72481"/>
      </g>
     </g>
     <g id="text_12">
      <!-- 20000 -->
      <g transform="translate(24.749375 379.043717)scale(0.14 -0.14)">
       <use xlink:href="#DejaVuSerif-50"/>
       <use x="63.623047" xlink:href="#DejaVuSerif-48"/>
       <use x="127.246094" xlink:href="#DejaVuSerif-48"/>
       <use x="190.869141" xlink:href="#DejaVuSerif-48"/>
       <use x="254.492188" xlink:href="#DejaVuSerif-48"/>
      </g>
     </g>
    </g>
    <g id="ytick_6">
     <g id="line2d_25">
      <path clip-path="url(#pcf6082ce61)" d="M 76.286875 297.584669 
L 1080.686875 297.584669 
" style="fill:none;stroke:#b0b0b0;stroke-linecap:square;stroke-width:0.8;"/>
     </g>
     <g id="line2d_26">
      <g>
       <use style="stroke:#000000;stroke-width:0.8;" x="76.286875" xlink:href="#m26eaa7ee00" y="297.584669"/>
      </g>
     </g>
     <g id="text_13">
      <!-- 25000 -->
      <g transform="translate(24.749375 302.903575)scale(0.14 -0.14)">
       <use xlink:href="#DejaVuSerif-50"/>
       <use x="63.623047" xlink:href="#DejaVuSerif-53"/>
       <use x="127.246094" xlink:href="#DejaVuSerif-48"/>
       <use x="190.869141" xlink:href="#DejaVuSerif-48"/>
       <use x="254.492188" xlink:href="#DejaVuSerif-48"/>
      </g>
     </g>
    </g>
    <g id="ytick_7">
     <g id="line2d_27">
      <path clip-path="url(#pcf6082ce61)" d="M 76.286875 221.444528 
L 1080.686875 221.444528 
" style="fill:none;stroke:#b0b0b0;stroke-linecap:square;stroke-width:0.8;"/>
     </g>
     <g id="line2d_28">
      <g>
       <use style="stroke:#000000;stroke-width:0.8;" x="76.286875" xlink:href="#m26eaa7ee00" y="221.444528"/>
      </g>
     </g>
     <g id="text_14">
      <!-- 30000 -->
      <g transform="translate(24.749375 226.763434)scale(0.14 -0.14)">
       <use xlink:href="#DejaVuSerif-51"/>
       <use x="63.623047" xlink:href="#DejaVuSerif-48"/>
       <use x="127.246094" xlink:href="#DejaVuSerif-48"/>
       <use x="190.869141" xlink:href="#DejaVuSerif-48"/>
       <use x="254.492188" xlink:href="#DejaVuSerif-48"/>
      </g>
     </g>
    </g>
    <g id="ytick_8">
     <g id="line2d_29">
      <path clip-path="url(#pcf6082ce61)" d="M 76.286875 145.304387 
L 1080.686875 145.304387 
" style="fill:none;stroke:#b0b0b0;stroke-linecap:square;stroke-width:0.8;"/>
     </g>
     <g id="line2d_30">
      <g>
       <use style="stroke:#000000;stroke-width:0.8;" x="76.286875" xlink:href="#m26eaa7ee00" y="145.304387"/>
      </g>
     </g>
     <g id="text_15">
      <!-- 35000 -->
      <g transform="translate(24.749375 150.623293)scale(0.14 -0.14)">
       <use xlink:href="#DejaVuSerif-51"/>
       <use x="63.623047" xlink:href="#DejaVuSerif-53"/>
       <use x="127.246094" xlink:href="#DejaVuSerif-48"/>
       <use x="190.869141" xlink:href="#DejaVuSerif-48"/>
       <use x="254.492188" xlink:href="#DejaVuSerif-48"/>
      </g>
     </g>
    </g>
    <g id="ytick_9">
     <g id="line2d_31">
      <path clip-path="url(#pcf6082ce61)" d="M 76.286875 69.164246 
L 1080.686875 69.164246 
" style="fill:none;stroke:#b0b0b0;stroke-linecap:square;stroke-width:0.8;"/>
     </g>
     <g id="line2d_32">
      <g>
       <use style="stroke:#000000;stroke-width:0.8;" x="76.286875" xlink:href="#m26eaa7ee00" y="69.164246"/>
      </g>
     </g>
     <g id="text_16">
      <!-- 40000 -->
      <g transform="translate(24.749375 74.483152)scale(0.14 -0.14)">
       <use xlink:href="#DejaVuSerif-52"/>
       <use x="63.623047" xlink:href="#DejaVuSerif-48"/>
       <use x="127.246094" xlink:href="#DejaVuSerif-48"/>
       <use x="190.869141" xlink:href="#DejaVuSerif-48"/>
       <use x="254.492188" xlink:href="#DejaVuSerif-48"/>
      </g>
     </g>
    </g>
    <g id="text_17">
     <!-- Cumulative Counts -->
     <defs>
      <path d="M 70.515625 19.28125 
Q 67.28125 9.078125 59.6875 3.828125 
Q 52.09375 -1.421875 40.484375 -1.421875 
Q 33.34375 -1.421875 27.234375 1.015625 
Q 21.140625 3.46875 16.40625 8.203125 
Q 10.9375 13.671875 8.265625 20.625 
Q 5.609375 27.59375 5.609375 36.375 
Q 5.609375 53.375 15.421875 63.796875 
Q 25.25 74.21875 41.3125 74.21875 
Q 47.265625 74.21875 54 72.65625 
Q 60.75 71.09375 68.5 67.921875 
L 68.5 51.125 
L 62.984375 51.125 
Q 61.1875 60.296875 55.734375 64.640625 
Q 50.296875 69 40.484375 69 
Q 28.8125 69 22.796875 60.71875 
Q 16.796875 52.4375 16.796875 36.375 
Q 16.796875 20.359375 22.796875 12.078125 
Q 28.8125 3.8125 40.484375 3.8125 
Q 48.640625 3.8125 53.90625 7.6875 
Q 59.1875 11.578125 61.53125 19.28125 
z
" id="DejaVuSerif-67"/>
      <path d="M 35.40625 51.90625 
L 52.203125 51.90625 
L 52.203125 5.171875 
L 60.6875 5.171875 
L 60.6875 0 
L 43.21875 0 
L 43.21875 9.1875 
Q 40.71875 4 36.765625 1.28125 
Q 32.8125 -1.421875 27.59375 -1.421875 
Q 18.953125 -1.421875 14.875 3.484375 
Q 10.796875 8.40625 10.796875 18.890625 
L 10.796875 46.6875 
L 2.6875 46.6875 
L 2.6875 51.90625 
L 19.828125 51.90625 
L 19.828125 21.6875 
Q 19.828125 12.203125 22.140625 8.6875 
Q 24.46875 5.171875 30.421875 5.171875 
Q 36.671875 5.171875 39.9375 9.765625 
Q 43.21875 14.359375 43.21875 23.09375 
L 43.21875 46.6875 
L 35.40625 46.6875 
z
" id="DejaVuSerif-117"/>
      <path d="M 51.8125 41.796875 
Q 54.390625 47.515625 58.421875 50.421875 
Q 62.453125 53.328125 67.828125 53.328125 
Q 75.984375 53.328125 79.984375 48.265625 
Q 83.984375 43.21875 83.984375 33.015625 
L 83.984375 5.171875 
L 92.09375 5.171875 
L 92.09375 0 
L 67.1875 0 
L 67.1875 5.171875 
L 75 5.171875 
L 75 31.984375 
Q 75 39.9375 72.65625 43.3125 
Q 70.3125 46.6875 64.890625 46.6875 
Q 58.890625 46.6875 55.734375 42.140625 
Q 52.59375 37.59375 52.59375 28.90625 
L 52.59375 5.171875 
L 60.40625 5.171875 
L 60.40625 0 
L 35.796875 0 
L 35.796875 5.171875 
L 43.609375 5.171875 
L 43.609375 32.328125 
Q 43.609375 40.09375 41.265625 43.390625 
Q 38.921875 46.6875 33.5 46.6875 
Q 27.484375 46.6875 24.328125 42.140625 
Q 21.1875 37.59375 21.1875 28.90625 
L 21.1875 5.171875 
L 29 5.171875 
L 29 0 
L 4.109375 0 
L 4.109375 5.171875 
L 12.203125 5.171875 
L 12.203125 46.78125 
L 3.609375 46.78125 
L 3.609375 51.90625 
L 21.1875 51.90625 
L 21.1875 42.671875 
Q 23.6875 47.859375 27.53125 50.59375 
Q 31.390625 53.328125 36.28125 53.328125 
Q 42.328125 53.328125 46.375 50.3125 
Q 50.4375 47.3125 51.8125 41.796875 
z
" id="DejaVuSerif-109"/>
      <path d="M 20.515625 5.171875 
L 29 5.171875 
L 29 0 
L 2.875 0 
L 2.875 5.171875 
L 11.53125 5.171875 
L 11.53125 70.796875 
L 2.875 70.796875 
L 2.875 75.984375 
L 20.515625 75.984375 
z
" id="DejaVuSerif-108"/>
      <path d="M 9.71875 68.015625 
Q 9.71875 70.265625 11.34375 71.921875 
Q 12.984375 73.578125 15.28125 73.578125 
Q 17.53125 73.578125 19.15625 71.921875 
Q 20.796875 70.265625 20.796875 68.015625 
Q 20.796875 65.71875 19.1875 64.109375 
Q 17.578125 62.5 15.28125 62.5 
Q 12.984375 62.5 11.34375 64.109375 
Q 9.71875 65.71875 9.71875 68.015625 
z
M 21.1875 5.171875 
L 29.6875 5.171875 
L 29.6875 0 
L 3.609375 0 
L 3.609375 5.171875 
L 12.203125 5.171875 
L 12.203125 46.6875 
L 3.609375 46.6875 
L 3.609375 51.90625 
L 21.1875 51.90625 
z
" id="DejaVuSerif-105"/>
      <path d="M 24.703125 0 
L 5.609375 46.6875 
L -0.296875 46.6875 
L -0.296875 51.90625 
L 23.578125 51.90625 
L 23.578125 46.6875 
L 15.28125 46.6875 
L 29.890625 10.984375 
L 44.484375 46.6875 
L 36.71875 46.6875 
L 36.71875 51.90625 
L 56.203125 51.90625 
L 56.203125 46.6875 
L 50.390625 46.6875 
L 31.296875 0 
z
" id="DejaVuSerif-118"/>
      <path id="DejaVuSerif-32"/>
      <path d="M 30.078125 3.421875 
Q 37.3125 3.421875 40.984375 9.125 
Q 44.671875 14.84375 44.671875 25.984375 
Q 44.671875 37.109375 40.984375 42.796875 
Q 37.3125 48.484375 30.078125 48.484375 
Q 22.859375 48.484375 19.171875 42.796875 
Q 15.484375 37.109375 15.484375 25.984375 
Q 15.484375 14.84375 19.1875 9.125 
Q 22.90625 3.421875 30.078125 3.421875 
z
M 30.078125 -1.421875 
Q 18.75 -1.421875 11.859375 6.078125 
Q 4.984375 13.578125 4.984375 25.984375 
Q 4.984375 38.375 11.84375 45.84375 
Q 18.703125 53.328125 30.078125 53.328125 
Q 41.453125 53.328125 48.3125 45.84375 
Q 55.171875 38.375 55.171875 25.984375 
Q 55.171875 13.578125 48.3125 6.078125 
Q 41.453125 -1.421875 30.078125 -1.421875 
z
" id="DejaVuSerif-111"/>
      <path d="M 4.109375 0 
L 4.109375 5.171875 
L 12.203125 5.171875 
L 12.203125 46.6875 
L 3.609375 46.6875 
L 3.609375 51.90625 
L 21.1875 51.90625 
L 21.1875 42.671875 
Q 23.6875 47.953125 27.65625 50.640625 
Q 31.640625 53.328125 36.921875 53.328125 
Q 45.515625 53.328125 49.5625 48.390625 
Q 53.609375 43.453125 53.609375 33.015625 
L 53.609375 5.171875 
L 61.625 5.171875 
L 61.625 0 
L 36.8125 0 
L 36.8125 5.171875 
L 44.578125 5.171875 
L 44.578125 30.171875 
Q 44.578125 39.703125 42.234375 43.234375 
Q 39.890625 46.78125 33.984375 46.78125 
Q 27.734375 46.78125 24.453125 42.203125 
Q 21.1875 37.640625 21.1875 28.90625 
L 21.1875 5.171875 
L 29 5.171875 
L 29 0 
z
" id="DejaVuSerif-110"/>
     </defs>
     <g transform="translate(17.837812 419.916)rotate(-90)scale(0.14 -0.14)">
      <use xlink:href="#DejaVuSerif-67"/>
      <use x="76.513672" xlink:href="#DejaVuSerif-117"/>
      <use x="140.917969" xlink:href="#DejaVuSerif-109"/>
      <use x="235.742188" xlink:href="#DejaVuSerif-117"/>
      <use x="300.146484" xlink:href="#DejaVuSerif-108"/>
      <use x="332.128906" xlink:href="#DejaVuSerif-97"/>
      <use x="391.748047" xlink:href="#DejaVuSerif-116"/>
      <use x="431.933594" xlink:href="#DejaVuSerif-105"/>
      <use x="463.916016" xlink:href="#DejaVuSerif-118"/>
      <use x="520.410156" xlink:href="#DejaVuSerif-101"/>
      <use x="579.589844" xlink:href="#DejaVuSerif-32"/>
      <use x="611.376953" xlink:href="#DejaVuSerif-67"/>
      <use x="687.890625" xlink:href="#DejaVuSerif-111"/>
      <use x="748.095703" xlink:href="#DejaVuSerif-117"/>
      <use x="812.5" xlink:href="#DejaVuSerif-110"/>
      <use x="876.904297" xlink:href="#DejaVuSerif-116"/>
      <use x="917.089844" xlink:href="#DejaVuSerif-115"/>
     </g>
    </g>
   </g>
   <g id="line2d_33">
    <path clip-path="url(#pcf6082ce61)" d="M 121.94142 678.270147 
L 134.492498 678.194007 
L 153.319115 678.102639 
L 156.456884 677.965586 
L 165.870193 677.874218 
L 178.421271 677.47829 
L 184.696809 677.173729 
L 187.834579 677.173729 
L 190.972348 676.716888 
L 197.247887 674.158579 
L 200.385657 674.158579 
L 203.523426 671.828691 
L 206.661196 671.828691 
L 209.798965 671.097746 
L 212.936734 668.889682 
L 216.074504 668.250104 
L 219.212273 667.245055 
L 222.350043 667.245055 
L 225.487812 664.823798 
L 228.625582 664.823798 
L 231.763351 663.666468 
L 234.901121 663.514188 
L 238.03889 662.052297 
L 244.314429 660.40767 
L 247.452198 659.966057 
L 250.589968 659.966057 
L 253.727737 659.006691 
L 256.865507 658.625991 
L 260.003276 657.940729 
L 269.416584 656.280874 
L 272.554354 656.280874 
L 275.692123 655.595613 
L 278.829893 655.184456 
L 281.967662 654.514423 
L 285.105432 654.514423 
L 288.243201 654.301231 
L 291.380971 653.646425 
L 294.51874 653.646425 
L 297.656509 652.412955 
L 300.794279 652.032254 
L 303.932048 650.951064 
L 310.207587 650.067839 
L 313.345357 648.621176 
L 316.483126 648.621176 
L 322.758665 647.022233 
L 325.896435 646.50448 
L 329.034204 646.123779 
L 335.309743 645.225326 
L 338.447512 645.225326 
L 341.585282 644.41824 
L 344.723051 644.296416 
L 347.860821 643.946171 
L 354.13636 643.03249 
L 357.274129 642.804069 
L 360.411898 642.804069 
L 363.549668 642.453825 
L 366.687437 642.347228 
L 379.238515 641.311722 
L 382.376285 641.311722 
L 385.514054 641.068074 
L 388.651823 641.037618 
L 391.789593 640.717829 
L 394.927362 640.535093 
L 398.065132 640.108708 
L 401.202901 639.956428 
L 404.340671 639.956428 
L 413.753979 639.453903 
L 423.167287 639.103658 
L 426.305057 639.103658 
L 429.442826 638.738186 
L 432.580596 638.677274 
L 435.718365 638.342257 
L 438.856135 638.205205 
L 448.269443 638.205205 
L 451.407212 637.794048 
L 460.820521 637.261067 
L 463.95829 637.032647 
L 470.233829 637.032647 
L 473.371599 636.484437 
L 476.509368 636.316929 
L 479.647137 636.027597 
L 485.922676 635.799176 
L 492.198215 635.799176 
L 495.335985 635.311879 
L 501.611524 634.900723 
L 504.749293 634.596162 
L 507.887062 634.45911 
L 514.162601 634.45911 
L 517.300371 634.063181 
L 520.43814 633.880445 
L 523.57591 633.880445 
L 526.713679 633.514972 
L 532.989218 633.408376 
L 536.126987 633.408376 
L 539.264757 632.936307 
L 545.540296 632.479466 
L 551.815835 631.794205 
L 558.091374 631.794205 
L 561.229143 630.850067 
L 564.366912 630.652103 
L 573.780221 629.586141 
L 580.05576 629.586141 
L 583.193529 628.032882 
L 589.469068 627.088744 
L 595.744607 626.220746 
L 602.020146 626.220746 
L 605.157915 624.987276 
L 608.295685 624.637032 
L 611.433454 624.043138 
L 614.571224 623.601526 
L 617.708993 622.840124 
L 627.122301 622.840124 
L 630.260071 620.616832 
L 639.673379 618.378312 
L 645.948918 618.378312 
L 649.086688 616.38344 
L 652.224457 615.682951 
L 658.499996 613.200782 
L 661.637765 611.921628 
L 667.913304 611.921628 
L 671.051074 608.327813 
L 674.188843 607.063887 
L 677.326613 606.028381 
L 680.464382 604.810139 
L 683.602151 603.439616 
L 689.87769 603.439616 
L 693.01546 599.343277 
L 699.290999 597.515913 
L 702.428768 596.480407 
L 705.566538 594.592132 
L 711.842076 594.592132 
L 714.979846 590.115092 
L 718.117615 589.231866 
L 721.255385 587.648151 
L 724.393154 586.292856 
L 727.530924 584.450265 
L 736.944232 584.450265 
L 740.082002 577.917441 
L 743.219771 576.394638 
L 749.49531 572.267842 
L 755.770849 572.267842 
L 758.908618 567.440557 
L 762.046388 565.963439 
L 765.184157 564.105619 
L 768.321927 561.592995 
L 771.459696 558.867178 
L 777.735235 558.867178 
L 780.873004 553.293719 
L 787.148543 550.446078 
L 790.286313 548.19233 
L 793.424082 546.699983 
L 799.699621 546.699983 
L 802.83739 542.634099 
L 805.97516 541.035156 
L 809.112929 539.131653 
L 812.250699 537.882955 
L 815.388468 535.431242 
L 821.664007 535.431242 
L 824.801777 529.979608 
L 827.939546 528.426349 
L 837.352854 523.187907 
L 846.766163 523.187907 
L 849.903932 514.82772 
L 853.041702 512.421691 
L 856.179471 510.259311 
L 859.317241 507.898967 
L 865.592779 507.898967 
L 868.730549 500.315409 
L 871.868318 497.772328 
L 875.006088 494.681039 
L 878.143857 490.508559 
L 881.281627 487.112709 
L 887.557166 487.112709 
L 890.694935 474.671409 
L 893.832704 471.366927 
L 896.970474 466.996483 
L 900.108243 463.433125 
L 903.246013 459.291101 
L 906.383782 453.930835 
L 912.659321 442.235709 
L 915.797091 437.682529 
L 918.93486 432.581139 
L 922.072629 426.109227 
L 928.348168 408.505627 
L 931.485938 400.343404 
L 934.623707 393.308055 
L 940.899246 377.166345 
L 944.037016 368.120896 
L 947.174785 358.725202 
L 956.588093 328.893495 
L 959.725863 317.974999 
L 962.863632 306.386469 
L 969.139171 290.366584 
L 972.276941 279.509 
L 975.41471 269.976254 
L 978.552479 260.930805 
L 981.690249 246.601231 
L 984.828018 235.362946 
L 991.103557 207.982951 
L 994.241327 196.56193 
L 997.379096 181.212077 
L 1000.516866 172.136172 
L 1003.654635 162.146586 
L 1006.792405 149.44641 
L 1013.067943 128.066259 
L 1016.205713 118.213724 
L 1019.343482 107.158176 
L 1022.481252 97.305642 
L 1025.619021 88.686578 
L 1028.756791 79.260428 
L 1035.03233 57.027507 
L 1035.03233 57.027507 
" style="fill:none;stroke:#f08080;stroke-linecap:square;stroke-width:1.5;"/>
   </g>
   <g id="line2d_34">
    <path clip-path="url(#pcf6082ce61)" d="M 121.94142 678.270147 
L 134.492498 678.194007 
L 153.319115 678.102639 
L 156.456884 677.965586 
L 165.870193 677.874218 
L 178.421271 677.47829 
L 184.696809 677.173729 
L 187.834579 677.173729 
L 190.972348 676.716888 
L 197.247887 674.158579 
L 200.385657 674.158579 
L 203.523426 671.828691 
L 206.661196 671.828691 
L 209.798965 671.097746 
L 212.936734 668.889682 
L 216.074504 668.250104 
L 219.212273 667.245055 
L 222.350043 667.245055 
L 225.487812 664.823798 
L 228.625582 664.823798 
L 231.763351 663.666468 
L 234.901121 663.514188 
L 238.03889 662.052297 
L 244.314429 660.40767 
L 247.452198 659.966057 
L 250.589968 659.966057 
L 253.727737 659.006691 
L 256.865507 658.625991 
L 260.003276 657.940729 
L 269.416584 656.280874 
L 272.554354 656.280874 
L 275.692123 655.595613 
L 278.829893 655.184456 
L 281.967662 654.514423 
L 285.105432 654.514423 
L 288.243201 654.301231 
L 291.380971 653.646425 
L 294.51874 653.646425 
L 297.656509 652.412955 
L 300.794279 652.032254 
L 303.932048 650.951064 
L 310.207587 650.067839 
L 313.345357 648.621176 
L 316.483126 648.621176 
L 322.758665 647.022233 
L 325.896435 646.50448 
L 329.034204 646.123779 
L 335.309743 645.225326 
L 338.447512 645.225326 
L 341.585282 644.41824 
L 344.723051 644.296416 
L 347.860821 643.946171 
L 354.13636 643.03249 
L 357.274129 642.804069 
L 360.411898 642.804069 
L 363.549668 642.453825 
L 366.687437 642.347228 
L 379.238515 641.311722 
L 382.376285 641.311722 
L 385.514054 641.068074 
L 388.651823 641.037618 
L 391.789593 640.717829 
L 394.927362 640.535093 
L 398.065132 640.108708 
L 401.202901 639.956428 
L 404.340671 639.956428 
L 413.753979 639.453903 
L 423.167287 639.103658 
L 426.305057 639.103658 
L 429.442826 638.738186 
L 432.580596 638.677274 
L 451.407212 635.491373 
L 470.233829 632.049645 
L 485.922676 628.971392 
L 501.611524 625.688591 
L 517.300371 622.187702 
L 532.989218 618.454299 
L 548.678065 614.473009 
L 564.366912 610.227452 
L 576.91799 606.629046 
L 589.469068 602.840906 
L 602.020146 598.853084 
L 614.571224 594.655119 
L 627.122301 590.236005 
L 639.673379 585.584171 
L 652.224457 580.687446 
L 664.775535 575.533034 
L 677.326613 570.107478 
L 689.87769 564.396633 
L 702.428768 558.385627 
L 714.979846 552.058826 
L 724.393154 547.096631 
L 733.806463 541.940337 
L 743.219771 536.582428 
L 752.633079 531.015106 
L 762.046388 525.230277 
L 771.459696 519.219541 
L 780.873004 512.974183 
L 790.286313 506.485159 
L 799.699621 499.743085 
L 809.112929 492.738229 
L 818.526238 485.46049 
L 827.939546 477.899395 
L 837.352854 470.044079 
L 846.766163 461.883275 
L 856.179471 453.405298 
L 865.592779 444.598032 
L 875.006088 435.448917 
L 884.419396 425.944929 
L 893.832704 416.07257 
L 903.246013 405.817848 
L 912.659321 395.166265 
L 922.072629 384.102795 
L 931.485938 372.611872 
L 940.899246 360.677369 
L 950.312554 348.282583 
L 959.725863 335.410215 
L 969.139171 322.042351 
L 978.552479 308.160446 
L 987.965788 293.745301 
L 997.379096 278.777046 
L 1006.792405 263.235121 
L 1016.205713 247.098251 
L 1025.619021 230.344431 
L 1035.03233 212.950904 
L 1035.03233 212.950904 
" style="fill:none;stroke:#8b0000;stroke-linecap:square;stroke-width:1.5;"/>
   </g>
   <g id="line2d_35">
    <path clip-path="url(#pcf6082ce61)" d="M 219.212273 675.452962 
L 222.350043 675.452962 
L 225.487812 672.255076 
L 228.625582 672.255076 
L 231.763351 671.14343 
L 234.901121 670.564765 
L 238.03889 669.05719 
L 241.176659 668.524209 
L 244.314429 668.524209 
L 247.452198 667.549615 
L 250.589968 667.564843 
L 253.727737 666.361829 
L 256.865507 666.361829 
L 260.003276 665.524287 
L 269.416584 664.504009 
L 272.554354 664.504009 
L 278.829893 663.940572 
L 281.967662 663.742608 
L 288.243201 663.742608 
L 291.380971 663.5751 
L 294.51874 663.5751 
L 297.656509 662.463454 
L 300.794279 662.432998 
L 303.932048 661.854333 
L 307.069818 661.656368 
L 313.345357 660.971107 
L 316.483126 660.971107 
L 319.620896 660.164021 
L 322.758665 659.539672 
L 325.896435 658.412798 
L 329.034204 658.153922 
L 332.171973 657.620941 
L 335.309743 657.331608 
L 338.447512 657.331608 
L 341.585282 656.707259 
L 344.723051 655.869717 
L 350.99859 655.260596 
L 354.13636 654.240318 
L 357.274129 653.022076 
L 360.411898 653.022076 
L 363.549668 652.108394 
L 366.687437 650.387627 
L 376.100746 649.230297 
L 379.238515 648.864824 
L 382.376285 648.864824 
L 385.514054 648.347071 
L 388.651823 648.210019 
L 394.927362 647.524758 
L 401.202901 646.961321 
L 404.340671 646.961321 
L 407.47844 646.27606 
L 413.753979 645.636482 
L 416.891748 645.49943 
L 423.167287 645.073045 
L 426.305057 645.073045 
L 432.580596 644.3421 
L 435.718365 644.128908 
L 438.856135 643.793891 
L 445.131674 643.687295 
L 448.269443 643.687295 
L 451.407212 643.123858 
L 467.09606 642.438597 
L 470.233829 642.438597 
L 473.371599 641.814247 
L 476.509368 641.494459 
L 482.784907 641.357407 
L 485.922676 641.068074 
L 492.198215 641.068074 
L 498.473754 640.352357 
L 501.611524 639.971656 
L 504.749293 639.956428 
L 507.887062 639.530043 
L 514.162601 639.530043 
L 517.300371 639.042746 
L 520.43814 638.844782 
L 523.57591 638.844782 
L 526.713679 638.646817 
L 532.989218 638.570677 
L 536.126987 638.570677 
L 542.402526 638.00724 
L 545.540296 637.77882 
L 554.953604 637.489487 
L 558.091374 637.489487 
L 561.229143 636.895594 
L 564.366912 636.712858 
L 567.504682 636.362613 
L 570.642451 635.814404 
L 573.780221 635.61644 
L 580.05576 635.61644 
L 583.193529 634.76367 
L 592.606838 634.154549 
L 595.744607 633.60634 
L 602.020146 633.60634 
L 605.157915 631.946485 
L 611.433454 630.941435 
L 614.571224 630.240946 
L 617.708993 630.042982 
L 627.122301 630.042982 
L 630.260071 628.444039 
L 633.39784 628.215618 
L 636.53561 627.804461 
L 639.673379 627.225796 
L 645.948918 627.225796 
L 649.086688 626.129378 
L 655.362226 625.459345 
L 661.637765 624.484751 
L 667.913304 624.484751 
L 671.051074 622.657388 
L 677.326613 621.195497 
L 680.464382 619.733606 
L 683.602151 619.063573 
L 689.87769 619.063573 
L 693.01546 616.337756 
L 696.153229 615.637267 
L 699.290999 614.342884 
L 705.566538 612.652573 
L 711.842076 612.652573 
L 714.979846 610.277001 
L 718.117615 609.683108 
L 721.255385 608.160305 
L 724.393154 607.566412 
L 727.530924 606.622274 
L 736.944232 606.622274 
L 740.082002 602.48025 
L 743.219771 600.622431 
L 749.49531 597.987982 
L 755.770849 597.987982 
L 758.908618 595.353533 
L 765.184157 592.307928 
L 771.459696 590.008495 
L 780.873004 590.084635 
L 784.010774 577.947897 
L 787.148543 575.206852 
L 790.286313 572.953104 
L 793.424082 571.140968 
L 799.699621 571.140968 
L 802.83739 566.42028 
L 805.97516 564.303584 
L 812.250699 561.105698 
L 815.388468 559.30879 
L 821.664007 559.30879 
L 824.801777 554.709926 
L 827.939546 553.659192 
L 831.077315 551.953653 
L 837.352854 548.816679 
L 846.766163 548.816679 
L 849.903932 541.62905 
L 859.317241 535.339874 
L 865.592779 535.339874 
L 868.730549 529.766416 
L 878.143857 524.269097 
L 881.281627 522.24377 
L 887.557166 522.24377 
L 890.694935 514.82772 
L 893.832704 511.477554 
L 896.970474 507.061425 
L 900.108243 503.954908 
L 903.246013 500.574285 
L 909.521552 500.574285 
L 912.659321 492.396834 
L 918.93486 485.513766 
L 922.072629 483.275245 
L 925.210399 479.788027 
L 931.485938 479.788027 
L 934.623707 473.849096 
L 937.761477 469.600476 
L 940.899246 469.600476 
L 944.037016 463.737685 
L 947.174785 451.372526 
L 953.450324 451.372526 
L 956.588093 433.312085 
L 959.725863 427.494978 
L 962.863632 420.718505 
L 966.001402 416.271921 
L 969.139171 412.145125 
L 975.41471 412.145125 
L 978.552479 387.902105 
L 981.690249 379.739881 
L 984.828018 376.557224 
L 987.965788 373.755266 
L 991.103557 353.867461 
L 997.379096 353.867461 
L 1000.516866 326.350414 
L 1006.792405 306.356013 
L 1009.930174 298.681087 
L 1013.067943 287.564626 
L 1019.343482 287.564626 
L 1022.481252 262.758168 
L 1025.619021 253.469071 
L 1028.756791 245.078428 
L 1031.89456 237.464414 
L 1035.03233 227.566195 
L 1035.03233 227.566195 
" style="fill:none;stroke:#00ff7f;stroke-linecap:square;stroke-width:1.5;"/>
   </g>
   <g id="line2d_36">
    <path clip-path="url(#pcf6082ce61)" d="M 219.212273 675.452962 
L 222.350043 675.452962 
L 225.487812 672.255076 
L 228.625582 672.255076 
L 231.763351 671.14343 
L 234.901121 670.564765 
L 238.03889 669.05719 
L 241.176659 668.524209 
L 244.314429 668.524209 
L 247.452198 667.549615 
L 250.589968 667.564843 
L 253.727737 666.361829 
L 256.865507 666.361829 
L 260.003276 665.524287 
L 269.416584 664.504009 
L 272.554354 664.504009 
L 278.829893 663.940572 
L 281.967662 663.742608 
L 288.243201 663.742608 
L 291.380971 663.5751 
L 294.51874 663.5751 
L 297.656509 662.463454 
L 300.794279 662.432998 
L 303.932048 661.854333 
L 307.069818 661.656368 
L 313.345357 660.971107 
L 316.483126 660.971107 
L 319.620896 660.164021 
L 322.758665 659.539672 
L 325.896435 658.412798 
L 329.034204 658.153922 
L 332.171973 657.620941 
L 335.309743 657.331608 
L 338.447512 657.331608 
L 341.585282 656.707259 
L 344.723051 655.869717 
L 350.99859 655.260596 
L 354.13636 654.240318 
L 357.274129 653.022076 
L 360.411898 653.022076 
L 363.549668 652.108394 
L 366.687437 650.387627 
L 376.100746 649.230297 
L 379.238515 648.864824 
L 382.376285 648.864824 
L 385.514054 648.347071 
L 388.651823 648.210019 
L 394.927362 647.524758 
L 401.202901 646.961321 
L 404.340671 646.961321 
L 407.47844 646.27606 
L 413.753979 645.636482 
L 416.891748 645.49943 
L 423.167287 645.073045 
L 426.305057 645.073045 
L 435.718365 643.985614 
L 457.682751 641.357253 
L 479.647137 638.480649 
L 498.473754 635.799726 
L 517.300371 632.903246 
L 536.126987 629.773915 
L 554.953604 626.393056 
L 570.642451 623.369033 
L 586.331299 620.143842 
L 602.020146 616.704139 
L 617.708993 613.035699 
L 633.39784 609.123358 
L 649.086688 604.950957 
L 664.775535 600.50127 
L 677.326613 596.72958 
L 689.87769 592.758751 
L 702.428768 588.578315 
L 714.979846 584.177256 
L 727.530924 579.543986 
L 740.082002 574.666313 
L 752.633079 569.531412 
L 765.184157 564.125794 
L 777.735235 558.435267 
L 790.286313 552.444908 
L 802.83739 546.139019 
L 812.250699 541.192637 
L 821.664007 536.052226 
L 831.077315 530.710229 
L 840.490624 525.1588 
L 849.903932 519.389794 
L 859.317241 513.394752 
L 868.730549 507.164894 
L 878.143857 500.691102 
L 887.557166 493.963914 
L 896.970474 486.973504 
L 906.383782 479.709677 
L 915.797091 472.161847 
L 925.210399 464.31903 
L 934.623707 456.169825 
L 944.037016 447.702401 
L 953.450324 438.904482 
L 962.863632 429.76333 
L 972.276941 420.265728 
L 981.690249 410.397964 
L 991.103557 400.145815 
L 1000.516866 389.494527 
L 1009.930174 378.428795 
L 1019.343482 366.93275 
L 1028.756791 354.989931 
L 1035.03233 346.771443 
L 1035.03233 346.771443 
" style="fill:none;stroke:#006400;stroke-linecap:square;stroke-width:1.5;"/>
   </g>
   <g id="line2d_37">
    <path clip-path="url(#pcf6082ce61)" d="M 435.718365 678.285375 
L 435.718365 25.965375 
" style="fill:none;stroke:#708090;stroke-dasharray:2,3.3;stroke-dashoffset:0;stroke-width:2;"/>
   </g>
   <g id="patch_3">
    <path d="M 76.286875 678.285375 
L 76.286875 25.965375 
" style="fill:none;stroke:#000000;stroke-linecap:square;stroke-linejoin:miter;stroke-width:0.8;"/>
   </g>
   <g id="patch_4">
    <path d="M 1080.686875 678.285375 
L 1080.686875 25.965375 
" style="fill:none;stroke:#000000;stroke-linecap:square;stroke-linejoin:miter;stroke-width:0.8;"/>
   </g>
   <g id="patch_5">
    <path d="M 76.286875 678.285375 
L 1080.686875 678.285375 
" style="fill:none;stroke:#000000;stroke-linecap:square;stroke-linejoin:miter;stroke-width:0.8;"/>
   </g>
   <g id="patch_6">
    <path d="M 76.286875 25.965375 
L 1080.686875 25.965375 
" style="fill:none;stroke:#000000;stroke-linecap:square;stroke-linejoin:miter;stroke-width:0.8;"/>
   </g>
   <g id="text_18">
    <!-- Estimated vs. Actual: Infected and Recovered - COVID19 in BC -->
    <defs>
     <path d="M 5.515625 0 
L 5.515625 5.171875 
L 14.796875 5.171875 
L 14.796875 67.671875 
L 5.515625 67.671875 
L 5.515625 72.90625 
L 64.203125 72.90625 
L 64.203125 56.6875 
L 58.203125 56.6875 
L 58.203125 66.890625 
L 24.703125 66.890625 
L 24.703125 42.484375 
L 48.578125 42.484375 
L 48.578125 51.609375 
L 54.59375 51.609375 
L 54.59375 27.390625 
L 48.578125 27.390625 
L 48.578125 36.53125 
L 24.703125 36.53125 
L 24.703125 6 
L 58.984375 6 
L 58.984375 16.21875 
L 64.984375 16.21875 
L 64.984375 0 
z
" id="DejaVuSerif-69"/>
     <path d="M 52.484375 5.171875 
L 61.078125 5.171875 
L 61.078125 0 
L 43.5 0 
L 43.5 8.109375 
Q 40.875 3.21875 36.796875 0.890625 
Q 32.71875 -1.421875 26.703125 -1.421875 
Q 17.140625 -1.421875 11.0625 6.171875 
Q 4.984375 13.765625 4.984375 25.984375 
Q 4.984375 38.1875 11.03125 45.75 
Q 17.09375 53.328125 26.703125 53.328125 
Q 32.71875 53.328125 36.796875 51 
Q 40.875 48.6875 43.5 43.796875 
L 43.5 70.796875 
L 35.015625 70.796875 
L 35.015625 75.984375 
L 52.484375 75.984375 
z
M 43.5 23.390625 
L 43.5 28.515625 
Q 43.5 37.84375 39.90625 42.765625 
Q 36.328125 47.703125 29.5 47.703125 
Q 22.5625 47.703125 19.015625 42.234375 
Q 15.484375 36.765625 15.484375 25.984375 
Q 15.484375 15.234375 19.015625 9.71875 
Q 22.5625 4.203125 29.5 4.203125 
Q 36.328125 4.203125 39.90625 9.109375 
Q 43.5 14.015625 43.5 23.390625 
z
" id="DejaVuSerif-100"/>
     <path d="M 9.421875 5.078125 
Q 9.421875 7.8125 11.28125 9.71875 
Q 13.140625 11.625 15.921875 11.625 
Q 18.609375 11.625 20.5 9.71875 
Q 22.40625 7.8125 22.40625 5.078125 
Q 22.40625 2.390625 20.5 0.484375 
Q 18.609375 -1.421875 15.921875 -1.421875 
Q 13.140625 -1.421875 11.28125 0.453125 
Q 9.421875 2.34375 9.421875 5.078125 
z
" id="DejaVuSerif-46"/>
     <path d="M 20.015625 26.421875 
L 46.78125 26.421875 
L 33.40625 61.078125 
z
M -0.59375 0 
L -0.59375 5.171875 
L 5.8125 5.171875 
L 31.78125 72.90625 
L 39.984375 72.90625 
L 66.015625 5.171875 
L 73.1875 5.171875 
L 73.1875 0 
L 46.6875 0 
L 46.6875 5.171875 
L 54.78125 5.171875 
L 48.6875 21.1875 
L 18.015625 21.1875 
L 11.921875 5.171875 
L 19.921875 5.171875 
L 19.921875 0 
z
" id="DejaVuSerif-65"/>
     <path d="M 51.421875 15.578125 
Q 49.515625 7.28125 44.09375 2.921875 
Q 38.671875 -1.421875 30.078125 -1.421875 
Q 18.75 -1.421875 11.859375 6.078125 
Q 4.984375 13.578125 4.984375 25.984375 
Q 4.984375 38.421875 11.859375 45.875 
Q 18.75 53.328125 30.078125 53.328125 
Q 35.015625 53.328125 39.890625 52.171875 
Q 44.78125 51.03125 49.703125 48.6875 
L 49.703125 35.40625 
L 44.484375 35.40625 
Q 43.453125 42.234375 40.015625 45.359375 
Q 36.578125 48.484375 30.171875 48.484375 
Q 22.90625 48.484375 19.1875 42.84375 
Q 15.484375 37.203125 15.484375 25.984375 
Q 15.484375 14.75 19.171875 9.078125 
Q 22.859375 3.421875 30.171875 3.421875 
Q 35.984375 3.421875 39.453125 6.4375 
Q 42.921875 9.46875 44.1875 15.578125 
z
" id="DejaVuSerif-99"/>
     <path d="M 10.40625 5.078125 
Q 10.40625 7.8125 12.28125 9.71875 
Q 14.15625 11.625 16.890625 11.625 
Q 19.625 11.625 21.5 9.71875 
Q 23.390625 7.8125 23.390625 5.078125 
Q 23.390625 2.34375 21.53125 0.453125 
Q 19.671875 -1.421875 16.890625 -1.421875 
Q 14.109375 -1.421875 12.25 0.453125 
Q 10.40625 2.34375 10.40625 5.078125 
z
M 10.40625 36.921875 
Q 10.40625 39.65625 12.28125 41.53125 
Q 14.15625 43.40625 16.890625 43.40625 
Q 19.671875 43.40625 21.53125 41.546875 
Q 23.390625 39.703125 23.390625 36.921875 
Q 23.390625 34.125 21.53125 32.265625 
Q 19.671875 30.421875 16.890625 30.421875 
Q 14.15625 30.421875 12.28125 32.296875 
Q 10.40625 34.1875 10.40625 36.921875 
z
" id="DejaVuSerif-58"/>
     <path d="M 24.703125 5.171875 
L 33.984375 5.171875 
L 33.984375 0 
L 5.515625 0 
L 5.515625 5.171875 
L 14.796875 5.171875 
L 14.796875 67.671875 
L 5.515625 67.671875 
L 5.515625 72.90625 
L 33.984375 72.90625 
L 33.984375 67.671875 
L 24.703125 67.671875 
z
" id="DejaVuSerif-73"/>
     <path d="M 43.015625 63.71875 
L 38.28125 63.71875 
Q 38.234375 67.390625 36.203125 69.28125 
Q 34.1875 71.1875 30.328125 71.1875 
Q 25.296875 71.1875 23.234375 68.421875 
Q 21.1875 65.671875 21.1875 58.59375 
L 21.1875 51.90625 
L 35.6875 51.90625 
L 35.6875 46.6875 
L 21.1875 46.6875 
L 21.1875 5.171875 
L 32.71875 5.171875 
L 32.71875 0 
L 3.609375 0 
L 3.609375 5.171875 
L 12.203125 5.171875 
L 12.203125 46.6875 
L 3.609375 46.6875 
L 3.609375 51.90625 
L 12.203125 51.90625 
L 12.203125 58.40625 
Q 12.203125 67.09375 16.71875 71.53125 
Q 21.234375 75.984375 29.984375 75.984375 
Q 33.25 75.984375 36.515625 75.390625 
Q 39.796875 74.8125 43.015625 73.578125 
z
" id="DejaVuSerif-102"/>
     <path d="M 47.90625 36.1875 
Q 51.3125 35.25 53.78125 33.03125 
Q 56.25 30.8125 58.203125 26.8125 
L 68.796875 5.171875 
L 77.6875 5.171875 
L 77.6875 0 
L 60.5 0 
L 49.125 23.1875 
Q 45.84375 29.9375 43.109375 31.90625 
Q 40.375 33.890625 35.59375 33.890625 
L 24.703125 33.890625 
L 24.703125 5.171875 
L 35.015625 5.171875 
L 35.015625 0 
L 5.515625 0 
L 5.515625 5.171875 
L 14.796875 5.171875 
L 14.796875 67.671875 
L 5.515625 67.671875 
L 5.515625 72.90625 
L 42.484375 72.90625 
Q 53.125 72.90625 58.90625 67.828125 
Q 64.703125 62.75 64.703125 53.421875 
Q 64.703125 45.90625 60.46875 41.578125 
Q 56.25 37.25 47.90625 36.1875 
z
M 24.703125 39.109375 
L 39.109375 39.109375 
Q 46.484375 39.109375 50 42.59375 
Q 53.515625 46.09375 53.515625 53.421875 
Q 53.515625 60.75 50 64.203125 
Q 46.484375 67.671875 39.109375 67.671875 
L 24.703125 67.671875 
z
" id="DejaVuSerif-82"/>
     <path d="M 47.796875 52 
L 47.796875 39.015625 
L 42.625 39.015625 
Q 42.390625 42.875 40.484375 44.78125 
Q 38.578125 46.6875 34.90625 46.6875 
Q 28.265625 46.6875 24.71875 42.09375 
Q 21.1875 37.5 21.1875 28.90625 
L 21.1875 5.171875 
L 31.59375 5.171875 
L 31.59375 0 
L 4.109375 0 
L 4.109375 5.171875 
L 12.203125 5.171875 
L 12.203125 46.78125 
L 3.609375 46.78125 
L 3.609375 51.90625 
L 21.1875 51.90625 
L 21.1875 42.671875 
Q 23.828125 48.09375 27.96875 50.703125 
Q 32.125 53.328125 38.09375 53.328125 
Q 40.28125 53.328125 42.703125 52.984375 
Q 45.125 52.640625 47.796875 52 
z
" id="DejaVuSerif-114"/>
     <path d="M 41.015625 3.8125 
Q 52.984375 3.8125 59.078125 12.03125 
Q 65.1875 20.265625 65.1875 36.375 
Q 65.1875 52.546875 59.078125 60.765625 
Q 52.984375 69 41.015625 69 
Q 29 69 22.890625 60.765625 
Q 16.796875 52.546875 16.796875 36.375 
Q 16.796875 20.265625 22.890625 12.03125 
Q 29 3.8125 41.015625 3.8125 
z
M 41.015625 -1.421875 
Q 33.59375 -1.421875 27.359375 1.015625 
Q 21.140625 3.46875 16.40625 8.203125 
Q 10.9375 13.671875 8.265625 20.609375 
Q 5.609375 27.546875 5.609375 36.375 
Q 5.609375 45.21875 8.265625 52.171875 
Q 10.9375 59.125 16.40625 64.59375 
Q 21.1875 69.390625 27.34375 71.796875 
Q 33.5 74.21875 41.015625 74.21875 
Q 56.890625 74.21875 66.65625 63.8125 
Q 76.421875 53.421875 76.421875 36.375 
Q 76.421875 27.640625 73.734375 20.625 
Q 71.046875 13.625 65.578125 8.203125 
Q 60.796875 3.421875 54.640625 1 
Q 48.484375 -1.421875 41.015625 -1.421875 
z
" id="DejaVuSerif-79"/>
     <path d="M 17.484375 67.671875 
L 39.015625 11.71875 
L 60.5 67.671875 
L 52.296875 67.671875 
L 52.296875 72.90625 
L 73.6875 72.90625 
L 73.6875 67.671875 
L 66.609375 67.671875 
L 40.578125 0 
L 32.171875 0 
L 6.296875 67.671875 
L -0.984375 67.671875 
L -0.984375 72.90625 
L 25.59375 72.90625 
L 25.59375 67.671875 
z
" id="DejaVuSerif-86"/>
     <path d="M 24.703125 5.171875 
L 39.3125 5.171875 
Q 48.09375 5.171875 52.140625 8.984375 
Q 56.203125 12.796875 56.203125 21.09375 
Q 56.203125 29.34375 52.171875 33.125 
Q 48.140625 36.921875 39.3125 36.921875 
L 24.703125 36.921875 
z
M 24.703125 42.09375 
L 37.109375 42.09375 
Q 45.125 42.09375 48.796875 45.171875 
Q 52.484375 48.25 52.484375 54.890625 
Q 52.484375 61.578125 48.796875 64.625 
Q 45.125 67.671875 37.109375 67.671875 
L 24.703125 67.671875 
z
M 5.515625 0 
L 5.515625 5.171875 
L 14.796875 5.171875 
L 14.796875 67.671875 
L 5.515625 67.671875 
L 5.515625 72.90625 
L 41.5 72.90625 
Q 52.546875 72.90625 58.125 68.390625 
Q 63.71875 63.875 63.71875 54.890625 
Q 63.71875 48.390625 59.828125 44.53125 
Q 55.953125 40.671875 48.484375 39.796875 
Q 57.765625 38.625 62.578125 33.859375 
Q 67.390625 29.109375 67.390625 21.09375 
Q 67.390625 10.25 60.546875 5.125 
Q 53.71875 0 39.203125 0 
z
" id="DejaVuSerif-66"/>
    </defs>
    <g transform="translate(309.618625 19.965375)scale(0.168 -0.168)">
     <use xlink:href="#DejaVuSerif-69"/>
     <use x="72.998047" xlink:href="#DejaVuSerif-115"/>
     <use x="124.316406" xlink:href="#DejaVuSerif-116"/>
     <use x="164.501953" xlink:href="#DejaVuSerif-105"/>
     <use x="196.484375" xlink:href="#DejaVuSerif-109"/>
     <use x="291.308594" xlink:href="#DejaVuSerif-97"/>
     <use x="350.927734" xlink:href="#DejaVuSerif-116"/>
     <use x="391.113281" xlink:href="#DejaVuSerif-101"/>
     <use x="450.292969" xlink:href="#DejaVuSerif-100"/>
     <use x="514.306641" xlink:href="#DejaVuSerif-32"/>
     <use x="546.09375" xlink:href="#DejaVuSerif-118"/>
     <use x="602.587891" xlink:href="#DejaVuSerif-115"/>
     <use x="653.90625" xlink:href="#DejaVuSerif-46"/>
     <use x="685.693359" xlink:href="#DejaVuSerif-32"/>
     <use x="717.480469" xlink:href="#DejaVuSerif-65"/>
     <use x="789.697266" xlink:href="#DejaVuSerif-99"/>
     <use x="845.703125" xlink:href="#DejaVuSerif-116"/>
     <use x="885.888672" xlink:href="#DejaVuSerif-117"/>
     <use x="950.292969" xlink:href="#DejaVuSerif-97"/>
     <use x="1009.912109" xlink:href="#DejaVuSerif-108"/>
     <use x="1041.894531" xlink:href="#DejaVuSerif-58"/>
     <use x="1075.585938" xlink:href="#DejaVuSerif-32"/>
     <use x="1107.373047" xlink:href="#DejaVuSerif-73"/>
     <use x="1146.875" xlink:href="#DejaVuSerif-110"/>
     <use x="1211.279297" xlink:href="#DejaVuSerif-102"/>
     <use x="1248.291016" xlink:href="#DejaVuSerif-101"/>
     <use x="1307.470703" xlink:href="#DejaVuSerif-99"/>
     <use x="1363.476562" xlink:href="#DejaVuSerif-116"/>
     <use x="1403.662109" xlink:href="#DejaVuSerif-101"/>
     <use x="1462.841797" xlink:href="#DejaVuSerif-100"/>
     <use x="1526.855469" xlink:href="#DejaVuSerif-32"/>
     <use x="1558.642578" xlink:href="#DejaVuSerif-97"/>
     <use x="1618.261719" xlink:href="#DejaVuSerif-110"/>
     <use x="1682.666016" xlink:href="#DejaVuSerif-100"/>
     <use x="1746.679688" xlink:href="#DejaVuSerif-32"/>
     <use x="1778.466797" xlink:href="#DejaVuSerif-82"/>
     <use x="1853.759766" xlink:href="#DejaVuSerif-101"/>
     <use x="1912.939453" xlink:href="#DejaVuSerif-99"/>
     <use x="1968.945312" xlink:href="#DejaVuSerif-111"/>
     <use x="2029.150391" xlink:href="#DejaVuSerif-118"/>
     <use x="2085.644531" xlink:href="#DejaVuSerif-101"/>
     <use x="2144.824219" xlink:href="#DejaVuSerif-114"/>
     <use x="2192.626953" xlink:href="#DejaVuSerif-101"/>
     <use x="2251.806641" xlink:href="#DejaVuSerif-100"/>
     <use x="2315.820312" xlink:href="#DejaVuSerif-32"/>
     <use x="2347.607422" xlink:href="#DejaVuSerif-45"/>
     <use x="2381.396484" xlink:href="#DejaVuSerif-32"/>
     <use x="2413.183594" xlink:href="#DejaVuSerif-67"/>
     <use x="2489.697266" xlink:href="#DejaVuSerif-79"/>
     <use x="2571.664062" xlink:href="#DejaVuSerif-86"/>
     <use x="2643.880859" xlink:href="#DejaVuSerif-73"/>
     <use x="2683.382812" xlink:href="#DejaVuSerif-68"/>
     <use x="2763.558594" xlink:href="#DejaVuSerif-49"/>
     <use x="2827.181641" xlink:href="#DejaVuSerif-57"/>
     <use x="2890.804688" xlink:href="#DejaVuSerif-32"/>
     <use x="2922.591797" xlink:href="#DejaVuSerif-105"/>
     <use x="2954.574219" xlink:href="#DejaVuSerif-110"/>
     <use x="3018.978516" xlink:href="#DejaVuSerif-32"/>
     <use x="3050.765625" xlink:href="#DejaVuSerif-66"/>
     <use x="3124.267578" xlink:href="#DejaVuSerif-67"/>
    </g>
   </g>
   <g id="legend_1">
    <g id="patch_7">
     <path d="M 86.086875 119.362875 
L 282.574687 119.362875 
Q 285.374687 119.362875 285.374687 116.562875 
L 285.374687 35.765375 
Q 285.374687 32.965375 282.574687 32.965375 
L 86.086875 32.965375 
Q 83.286875 32.965375 83.286875 35.765375 
L 83.286875 116.562875 
Q 83.286875 119.362875 86.086875 119.362875 
z
" style="fill:#ffffff;opacity:0.8;stroke:#cccccc;stroke-linejoin:miter;"/>
    </g>
    <g id="line2d_38">
     <path d="M 88.886875 44.303187 
L 116.886875 44.303187 
" style="fill:none;stroke:#f08080;stroke-linecap:square;stroke-width:1.5;"/>
    </g>
    <g id="line2d_39"/>
    <g id="text_19">
     <!-- Infected -->
     <g transform="translate(128.086875 49.203187)scale(0.14 -0.14)">
      <use xlink:href="#DejaVuSerif-73"/>
      <use x="39.501953" xlink:href="#DejaVuSerif-110"/>
      <use x="103.90625" xlink:href="#DejaVuSerif-102"/>
      <use x="140.917969" xlink:href="#DejaVuSerif-101"/>
      <use x="200.097656" xlink:href="#DejaVuSerif-99"/>
      <use x="256.103516" xlink:href="#DejaVuSerif-116"/>
      <use x="296.289062" xlink:href="#DejaVuSerif-101"/>
      <use x="355.46875" xlink:href="#DejaVuSerif-100"/>
     </g>
    </g>
    <g id="line2d_40">
     <path d="M 88.886875 64.852562 
L 116.886875 64.852562 
" style="fill:none;stroke:#8b0000;stroke-linecap:square;stroke-width:1.5;"/>
    </g>
    <g id="line2d_41"/>
    <g id="text_20">
     <!-- Estimated Infected -->
     <g transform="translate(128.086875 69.752562)scale(0.14 -0.14)">
      <use xlink:href="#DejaVuSerif-69"/>
      <use x="72.998047" xlink:href="#DejaVuSerif-115"/>
      <use x="124.316406" xlink:href="#DejaVuSerif-116"/>
      <use x="164.501953" xlink:href="#DejaVuSerif-105"/>
      <use x="196.484375" xlink:href="#DejaVuSerif-109"/>
      <use x="291.308594" xlink:href="#DejaVuSerif-97"/>
      <use x="350.927734" xlink:href="#DejaVuSerif-116"/>
      <use x="391.113281" xlink:href="#DejaVuSerif-101"/>
      <use x="450.292969" xlink:href="#DejaVuSerif-100"/>
      <use x="514.306641" xlink:href="#DejaVuSerif-32"/>
      <use x="546.09375" xlink:href="#DejaVuSerif-73"/>
      <use x="585.595703" xlink:href="#DejaVuSerif-110"/>
      <use x="650" xlink:href="#DejaVuSerif-102"/>
      <use x="687.011719" xlink:href="#DejaVuSerif-101"/>
      <use x="746.191406" xlink:href="#DejaVuSerif-99"/>
      <use x="802.197266" xlink:href="#DejaVuSerif-116"/>
      <use x="842.382812" xlink:href="#DejaVuSerif-101"/>
      <use x="901.5625" xlink:href="#DejaVuSerif-100"/>
     </g>
    </g>
    <g id="line2d_42">
     <path d="M 88.886875 85.401937 
L 116.886875 85.401937 
" style="fill:none;stroke:#00ff7f;stroke-linecap:square;stroke-width:1.5;"/>
    </g>
    <g id="line2d_43"/>
    <g id="text_21">
     <!-- Recovered -->
     <g transform="translate(128.086875 90.301937)scale(0.14 -0.14)">
      <use xlink:href="#DejaVuSerif-82"/>
      <use x="75.292969" xlink:href="#DejaVuSerif-101"/>
      <use x="134.472656" xlink:href="#DejaVuSerif-99"/>
      <use x="190.478516" xlink:href="#DejaVuSerif-111"/>
      <use x="250.683594" xlink:href="#DejaVuSerif-118"/>
      <use x="307.177734" xlink:href="#DejaVuSerif-101"/>
      <use x="366.357422" xlink:href="#DejaVuSerif-114"/>
      <use x="414.160156" xlink:href="#DejaVuSerif-101"/>
      <use x="473.339844" xlink:href="#DejaVuSerif-100"/>
     </g>
    </g>
    <g id="line2d_44">
     <path d="M 88.886875 105.951312 
L 116.886875 105.951312 
" style="fill:none;stroke:#006400;stroke-linecap:square;stroke-width:1.5;"/>
    </g>
    <g id="line2d_45"/>
    <g id="text_22">
     <!-- Estimated Recovered -->
     <g transform="translate(128.086875 110.851312)scale(0.14 -0.14)">
      <use xlink:href="#DejaVuSerif-69"/>
      <use x="72.998047" xlink:href="#DejaVuSerif-115"/>
      <use x="124.316406" xlink:href="#DejaVuSerif-116"/>
      <use x="164.501953" xlink:href="#DejaVuSerif-105"/>
      <use x="196.484375" xlink:href="#DejaVuSerif-109"/>
      <use x="291.308594" xlink:href="#DejaVuSerif-97"/>
      <use x="350.927734" xlink:href="#DejaVuSerif-116"/>
      <use x="391.113281" xlink:href="#DejaVuSerif-101"/>
      <use x="450.292969" xlink:href="#DejaVuSerif-100"/>
      <use x="514.306641" xlink:href="#DejaVuSerif-32"/>
      <use x="546.09375" xlink:href="#DejaVuSerif-82"/>
      <use x="621.386719" xlink:href="#DejaVuSerif-101"/>
      <use x="680.566406" xlink:href="#DejaVuSerif-99"/>
      <use x="736.572266" xlink:href="#DejaVuSerif-111"/>
      <use x="796.777344" xlink:href="#DejaVuSerif-118"/>
      <use x="853.271484" xlink:href="#DejaVuSerif-101"/>
      <use x="912.451172" xlink:href="#DejaVuSerif-114"/>
      <use x="960.253906" xlink:href="#DejaVuSerif-101"/>
      <use x="1019.433594" xlink:href="#DejaVuSerif-100"/>
     </g>
    </g>
   </g>
  </g>
 </g>
 <defs>
  <clipPath id="pcf6082ce61">
   <rect height="652.32" width="1004.4" x="76.286875" y="25.965375"/>
  </clipPath>
 </defs>
</svg>
