<?xml version="1.0" encoding="utf-8" standalone="no"?>
<!DOCTYPE svg PUBLIC "-//W3C//DTD SVG 1.1//EN"
  "http://www.w3.org/Graphics/SVG/1.1/DTD/svg11.dtd">
<!-- Created with matplotlib (https://matplotlib.org/) -->
<svg height="723.584125pt" version="1.1" viewBox="0 0 1079.948438 723.584125" width="1079.948438pt" xmlns="http://www.w3.org/2000/svg" xmlns:xlink="http://www.w3.org/1999/xlink">
 <defs>
  <style type="text/css">
*{stroke-linecap:butt;stroke-linejoin:round;}
  </style>
 </defs>
 <g id="figure_1">
  <g id="patch_1">
   <path d="M -0 723.584125 
L 1079.948438 723.584125 
L 1079.948438 0 
L -0 0 
z
" style="fill:none;"/>
  </g>
  <g id="axes_1">
   <g id="patch_2">
    <path d="M 68.348438 678.285375 
L 1072.748438 678.285375 
L 1072.748438 25.965375 
L 68.348438 25.965375 
z
" style="fill:#ffffff;"/>
   </g>
   <g id="matplotlib.axis_1">
    <g id="xtick_1">
     <g id="line2d_1">
      <path clip-path="url(#pce960fc12b)" d="M 114.002983 678.285375 
L 114.002983 25.965375 
" style="fill:none;stroke:#b0b0b0;stroke-linecap:square;stroke-width:0.8;"/>
     </g>
     <g id="line2d_2">
      <defs>
       <path d="M 0 0 
L 0 3.5 
" id="mbd1085faf1" style="stroke:#000000;stroke-width:0.8;"/>
      </defs>
      <g>
       <use style="stroke:#000000;stroke-width:0.8;" x="114.002983" xlink:href="#mbd1085faf1" y="678.285375"/>
      </g>
     </g>
     <g id="text_1">
      <!-- 2020-01-31 -->
      <defs>
       <path d="M 12.796875 55.515625 
L 7.328125 55.515625 
L 7.328125 68.5 
Q 12.546875 71.296875 17.84375 72.75 
Q 23.140625 74.21875 28.21875 74.21875 
Q 39.59375 74.21875 46.1875 68.703125 
Q 52.78125 63.1875 52.78125 53.71875 
Q 52.78125 43.015625 37.84375 28.125 
Q 36.671875 27 36.078125 26.421875 
L 17.671875 8.015625 
L 48.09375 8.015625 
L 48.09375 17 
L 53.8125 17 
L 53.8125 0 
L 6.78125 0 
L 6.78125 5.328125 
L 28.90625 27.390625 
Q 36.234375 34.71875 39.359375 40.84375 
Q 42.484375 46.96875 42.484375 53.71875 
Q 42.484375 61.078125 38.640625 65.234375 
Q 34.8125 69.390625 28.078125 69.390625 
Q 21.09375 69.390625 17.28125 65.921875 
Q 13.484375 62.453125 12.796875 55.515625 
z
" id="DejaVuSerif-50"/>
       <path d="M 31.78125 3.421875 
Q 39.265625 3.421875 42.96875 11.625 
Q 46.6875 19.828125 46.6875 36.375 
Q 46.6875 52.984375 42.96875 61.1875 
Q 39.265625 69.390625 31.78125 69.390625 
Q 24.3125 69.390625 20.59375 61.1875 
Q 16.890625 52.984375 16.890625 36.375 
Q 16.890625 19.828125 20.59375 11.625 
Q 24.3125 3.421875 31.78125 3.421875 
z
M 31.78125 -1.421875 
Q 19.921875 -1.421875 13.25 8.53125 
Q 6.59375 18.5 6.59375 36.375 
Q 6.59375 54.296875 13.25 64.25 
Q 19.921875 74.21875 31.78125 74.21875 
Q 43.703125 74.21875 50.34375 64.25 
Q 56.984375 54.296875 56.984375 36.375 
Q 56.984375 18.5 50.34375 8.53125 
Q 43.703125 -1.421875 31.78125 -1.421875 
z
" id="DejaVuSerif-48"/>
       <path d="M 4.390625 30.609375 
L 29.390625 30.609375 
L 29.390625 23 
L 4.390625 23 
z
" id="DejaVuSerif-45"/>
       <path d="M 14.203125 0 
L 14.203125 5.171875 
L 26.90625 5.171875 
L 26.90625 65.828125 
L 12.203125 56.296875 
L 12.203125 62.703125 
L 29.984375 74.21875 
L 36.71875 74.21875 
L 36.71875 5.171875 
L 49.421875 5.171875 
L 49.421875 0 
z
" id="DejaVuSerif-49"/>
       <path d="M 9.71875 69.828125 
Q 15.4375 71.96875 20.671875 73.09375 
Q 25.921875 74.21875 30.515625 74.21875 
Q 41.21875 74.21875 47.21875 69.59375 
Q 53.21875 64.984375 53.21875 56.78125 
Q 53.21875 50.203125 49.0625 45.78125 
Q 44.921875 41.359375 37.3125 39.796875 
Q 46.296875 38.53125 51.25 33.28125 
Q 56.203125 28.03125 56.203125 19.671875 
Q 56.203125 9.46875 49.34375 4.015625 
Q 42.484375 -1.421875 29.59375 -1.421875 
Q 23.875 -1.421875 18.421875 -0.1875 
Q 12.984375 1.03125 7.625 3.515625 
L 7.625 17.671875 
L 13.09375 17.671875 
Q 13.578125 10.640625 17.828125 7.03125 
Q 22.078125 3.421875 29.78125 3.421875 
Q 37.25 3.421875 41.578125 7.734375 
Q 45.90625 12.0625 45.90625 19.578125 
Q 45.90625 28.171875 41.453125 32.59375 
Q 37.015625 37.015625 28.421875 37.015625 
L 23.78125 37.015625 
L 23.78125 42 
L 26.21875 42 
Q 34.765625 42 39.03125 45.53125 
Q 43.3125 49.078125 43.3125 56.203125 
Q 43.3125 62.59375 39.796875 65.984375 
Q 36.28125 69.390625 29.6875 69.390625 
Q 23.09375 69.390625 19.453125 66.265625 
Q 15.828125 63.140625 15.1875 56.984375 
L 9.71875 56.984375 
z
" id="DejaVuSerif-51"/>
      </defs>
      <g transform="translate(73.64142 695.923187)scale(0.14 -0.14)">
       <use xlink:href="#DejaVuSerif-50"/>
       <use x="63.623047" xlink:href="#DejaVuSerif-48"/>
       <use x="127.246094" xlink:href="#DejaVuSerif-50"/>
       <use x="190.869141" xlink:href="#DejaVuSerif-48"/>
       <use x="254.492188" xlink:href="#DejaVuSerif-45"/>
       <use x="288.28125" xlink:href="#DejaVuSerif-48"/>
       <use x="351.904297" xlink:href="#DejaVuSerif-49"/>
       <use x="415.527344" xlink:href="#DejaVuSerif-45"/>
       <use x="449.316406" xlink:href="#DejaVuSerif-51"/>
       <use x="512.939453" xlink:href="#DejaVuSerif-49"/>
      </g>
     </g>
    </g>
    <g id="xtick_2">
     <g id="line2d_3">
      <path clip-path="url(#pce960fc12b)" d="M 241.312327 678.285375 
L 241.312327 25.965375 
" style="fill:none;stroke:#b0b0b0;stroke-linecap:square;stroke-width:0.8;"/>
     </g>
     <g id="line2d_4">
      <g>
       <use style="stroke:#000000;stroke-width:0.8;" x="241.312327" xlink:href="#mbd1085faf1" y="678.285375"/>
      </g>
     </g>
     <g id="text_2">
      <!-- 2020-08-22 -->
      <defs>
       <path d="M 46.578125 19.921875 
Q 46.578125 27.734375 42.6875 32.046875 
Q 38.8125 36.375 31.78125 36.375 
Q 24.75 36.375 20.875 32.046875 
Q 17 27.734375 17 19.921875 
Q 17 12.0625 20.875 7.734375 
Q 24.75 3.421875 31.78125 3.421875 
Q 38.8125 3.421875 42.6875 7.734375 
Q 46.578125 12.0625 46.578125 19.921875 
z
M 44.578125 55.328125 
Q 44.578125 61.96875 41.203125 65.671875 
Q 37.84375 69.390625 31.78125 69.390625 
Q 25.78125 69.390625 22.390625 65.671875 
Q 19 61.96875 19 55.328125 
Q 19 48.640625 22.390625 44.921875 
Q 25.78125 41.21875 31.78125 41.21875 
Q 37.84375 41.21875 41.203125 44.921875 
Q 44.578125 48.640625 44.578125 55.328125 
z
M 39.3125 38.8125 
Q 47.609375 37.703125 52.25 32.6875 
Q 56.890625 27.6875 56.890625 19.921875 
Q 56.890625 9.671875 50.390625 4.125 
Q 43.890625 -1.421875 31.78125 -1.421875 
Q 19.734375 -1.421875 13.203125 4.125 
Q 6.6875 9.671875 6.6875 19.921875 
Q 6.6875 27.6875 11.328125 32.6875 
Q 15.96875 37.703125 24.3125 38.8125 
Q 16.9375 40.140625 13 44.40625 
Q 9.078125 48.6875 9.078125 55.328125 
Q 9.078125 64.109375 15.125 69.15625 
Q 21.1875 74.21875 31.78125 74.21875 
Q 42.390625 74.21875 48.4375 69.15625 
Q 54.5 64.109375 54.5 55.328125 
Q 54.5 48.6875 50.5625 44.40625 
Q 46.625 40.140625 39.3125 38.8125 
z
" id="DejaVuSerif-56"/>
      </defs>
      <g transform="translate(200.950765 695.923187)scale(0.14 -0.14)">
       <use xlink:href="#DejaVuSerif-50"/>
       <use x="63.623047" xlink:href="#DejaVuSerif-48"/>
       <use x="127.246094" xlink:href="#DejaVuSerif-50"/>
       <use x="190.869141" xlink:href="#DejaVuSerif-48"/>
       <use x="254.492188" xlink:href="#DejaVuSerif-45"/>
       <use x="288.28125" xlink:href="#DejaVuSerif-48"/>
       <use x="351.904297" xlink:href="#DejaVuSerif-56"/>
       <use x="415.527344" xlink:href="#DejaVuSerif-45"/>
       <use x="449.316406" xlink:href="#DejaVuSerif-50"/>
       <use x="512.939453" xlink:href="#DejaVuSerif-50"/>
      </g>
     </g>
    </g>
    <g id="xtick_3">
     <g id="line2d_5">
      <path clip-path="url(#pce960fc12b)" d="M 368.621672 678.285375 
L 368.621672 25.965375 
" style="fill:none;stroke:#b0b0b0;stroke-linecap:square;stroke-width:0.8;"/>
     </g>
     <g id="line2d_6">
      <g>
       <use style="stroke:#000000;stroke-width:0.8;" x="368.621672" xlink:href="#mbd1085faf1" y="678.285375"/>
      </g>
     </g>
     <g id="text_3">
      <!-- 2021-02-18 -->
      <g transform="translate(328.260109 695.923187)scale(0.14 -0.14)">
       <use xlink:href="#DejaVuSerif-50"/>
       <use x="63.623047" xlink:href="#DejaVuSerif-48"/>
       <use x="127.246094" xlink:href="#DejaVuSerif-50"/>
       <use x="190.869141" xlink:href="#DejaVuSerif-49"/>
       <use x="254.492188" xlink:href="#DejaVuSerif-45"/>
       <use x="288.28125" xlink:href="#DejaVuSerif-48"/>
       <use x="351.904297" xlink:href="#DejaVuSerif-50"/>
       <use x="415.527344" xlink:href="#DejaVuSerif-45"/>
       <use x="449.316406" xlink:href="#DejaVuSerif-49"/>
       <use x="512.939453" xlink:href="#DejaVuSerif-56"/>
      </g>
     </g>
    </g>
    <g id="xtick_4">
     <g id="line2d_7">
      <path clip-path="url(#pce960fc12b)" d="M 495.931016 678.285375 
L 495.931016 25.965375 
" style="fill:none;stroke:#b0b0b0;stroke-linecap:square;stroke-width:0.8;"/>
     </g>
     <g id="line2d_8">
      <g>
       <use style="stroke:#000000;stroke-width:0.8;" x="495.931016" xlink:href="#mbd1085faf1" y="678.285375"/>
      </g>
     </g>
     <g id="text_4">
      <!-- 2021-08-17 -->
      <defs>
       <path d="M 56.390625 67.921875 
L 27.875 0 
L 20.609375 0 
L 47.796875 64.890625 
L 14.109375 64.890625 
L 14.109375 55.90625 
L 8.40625 55.90625 
L 8.40625 72.90625 
L 56.390625 72.90625 
z
" id="DejaVuSerif-55"/>
      </defs>
      <g transform="translate(455.569454 695.923187)scale(0.14 -0.14)">
       <use xlink:href="#DejaVuSerif-50"/>
       <use x="63.623047" xlink:href="#DejaVuSerif-48"/>
       <use x="127.246094" xlink:href="#DejaVuSerif-50"/>
       <use x="190.869141" xlink:href="#DejaVuSerif-49"/>
       <use x="254.492188" xlink:href="#DejaVuSerif-45"/>
       <use x="288.28125" xlink:href="#DejaVuSerif-48"/>
       <use x="351.904297" xlink:href="#DejaVuSerif-56"/>
       <use x="415.527344" xlink:href="#DejaVuSerif-45"/>
       <use x="449.316406" xlink:href="#DejaVuSerif-49"/>
       <use x="512.939453" xlink:href="#DejaVuSerif-55"/>
      </g>
     </g>
    </g>
    <g id="xtick_5">
     <g id="line2d_9">
      <path clip-path="url(#pce960fc12b)" d="M 623.240361 678.285375 
L 623.240361 25.965375 
" style="fill:none;stroke:#b0b0b0;stroke-linecap:square;stroke-width:0.8;"/>
     </g>
     <g id="line2d_10">
      <g>
       <use style="stroke:#000000;stroke-width:0.8;" x="623.240361" xlink:href="#mbd1085faf1" y="678.285375"/>
      </g>
     </g>
     <g id="text_5">
      <!-- 2022-02-13 -->
      <g transform="translate(582.878798 695.923187)scale(0.14 -0.14)">
       <use xlink:href="#DejaVuSerif-50"/>
       <use x="63.623047" xlink:href="#DejaVuSerif-48"/>
       <use x="127.246094" xlink:href="#DejaVuSerif-50"/>
       <use x="190.869141" xlink:href="#DejaVuSerif-50"/>
       <use x="254.492188" xlink:href="#DejaVuSerif-45"/>
       <use x="288.28125" xlink:href="#DejaVuSerif-48"/>
       <use x="351.904297" xlink:href="#DejaVuSerif-50"/>
       <use x="415.527344" xlink:href="#DejaVuSerif-45"/>
       <use x="449.316406" xlink:href="#DejaVuSerif-49"/>
       <use x="512.939453" xlink:href="#DejaVuSerif-51"/>
      </g>
     </g>
    </g>
    <g id="xtick_6">
     <g id="line2d_11">
      <path clip-path="url(#pce960fc12b)" d="M 750.549705 678.285375 
L 750.549705 25.965375 
" style="fill:none;stroke:#b0b0b0;stroke-linecap:square;stroke-width:0.8;"/>
     </g>
     <g id="line2d_12">
      <g>
       <use style="stroke:#000000;stroke-width:0.8;" x="750.549705" xlink:href="#mbd1085faf1" y="678.285375"/>
      </g>
     </g>
     <g id="text_6">
      <!-- 2022-08-12 -->
      <g transform="translate(710.188143 695.923187)scale(0.14 -0.14)">
       <use xlink:href="#DejaVuSerif-50"/>
       <use x="63.623047" xlink:href="#DejaVuSerif-48"/>
       <use x="127.246094" xlink:href="#DejaVuSerif-50"/>
       <use x="190.869141" xlink:href="#DejaVuSerif-50"/>
       <use x="254.492188" xlink:href="#DejaVuSerif-45"/>
       <use x="288.28125" xlink:href="#DejaVuSerif-48"/>
       <use x="351.904297" xlink:href="#DejaVuSerif-56"/>
       <use x="415.527344" xlink:href="#DejaVuSerif-45"/>
       <use x="449.316406" xlink:href="#DejaVuSerif-49"/>
       <use x="512.939453" xlink:href="#DejaVuSerif-50"/>
      </g>
     </g>
    </g>
    <g id="xtick_7">
     <g id="line2d_13">
      <path clip-path="url(#pce960fc12b)" d="M 877.859049 678.285375 
L 877.859049 25.965375 
" style="fill:none;stroke:#b0b0b0;stroke-linecap:square;stroke-width:0.8;"/>
     </g>
     <g id="line2d_14">
      <g>
       <use style="stroke:#000000;stroke-width:0.8;" x="877.859049" xlink:href="#mbd1085faf1" y="678.285375"/>
      </g>
     </g>
     <g id="text_7">
      <!-- 2023-02-08 -->
      <g transform="translate(837.497487 695.923187)scale(0.14 -0.14)">
       <use xlink:href="#DejaVuSerif-50"/>
       <use x="63.623047" xlink:href="#DejaVuSerif-48"/>
       <use x="127.246094" xlink:href="#DejaVuSerif-50"/>
       <use x="190.869141" xlink:href="#DejaVuSerif-51"/>
       <use x="254.492188" xlink:href="#DejaVuSerif-45"/>
       <use x="288.28125" xlink:href="#DejaVuSerif-48"/>
       <use x="351.904297" xlink:href="#DejaVuSerif-50"/>
       <use x="415.527344" xlink:href="#DejaVuSerif-45"/>
       <use x="449.316406" xlink:href="#DejaVuSerif-48"/>
       <use x="512.939453" xlink:href="#DejaVuSerif-56"/>
      </g>
     </g>
    </g>
    <g id="xtick_8">
     <g id="line2d_15">
      <path clip-path="url(#pce960fc12b)" d="M 1005.168394 678.285375 
L 1005.168394 25.965375 
" style="fill:none;stroke:#b0b0b0;stroke-linecap:square;stroke-width:0.8;"/>
     </g>
     <g id="line2d_16">
      <g>
       <use style="stroke:#000000;stroke-width:0.8;" x="1005.168394" xlink:href="#mbd1085faf1" y="678.285375"/>
      </g>
     </g>
     <g id="text_8">
      <!-- 2023-08-07 -->
      <g transform="translate(964.806831 695.923187)scale(0.14 -0.14)">
       <use xlink:href="#DejaVuSerif-50"/>
       <use x="63.623047" xlink:href="#DejaVuSerif-48"/>
       <use x="127.246094" xlink:href="#DejaVuSerif-50"/>
       <use x="190.869141" xlink:href="#DejaVuSerif-51"/>
       <use x="254.492188" xlink:href="#DejaVuSerif-45"/>
       <use x="288.28125" xlink:href="#DejaVuSerif-48"/>
       <use x="351.904297" xlink:href="#DejaVuSerif-56"/>
       <use x="415.527344" xlink:href="#DejaVuSerif-45"/>
       <use x="449.316406" xlink:href="#DejaVuSerif-48"/>
       <use x="512.939453" xlink:href="#DejaVuSerif-55"/>
      </g>
     </g>
    </g>
    <g id="text_9">
     <!-- Dates -->
     <defs>
      <path d="M 24.703125 5.171875 
L 33.796875 5.171875 
Q 48 5.171875 55.59375 13.28125 
Q 63.1875 21.390625 63.1875 36.53125 
Q 63.1875 51.65625 55.609375 59.65625 
Q 48.046875 67.671875 33.796875 67.671875 
L 24.703125 67.671875 
z
M 5.515625 0 
L 5.515625 5.171875 
L 14.796875 5.171875 
L 14.796875 67.671875 
L 5.515625 67.671875 
L 5.515625 72.90625 
L 34.515625 72.90625 
Q 53.375 72.90625 63.890625 63.28125 
Q 74.421875 53.65625 74.421875 36.53125 
Q 74.421875 19.34375 63.875 9.671875 
Q 53.328125 0 34.515625 0 
z
" id="DejaVuSerif-68"/>
      <path d="M 39.796875 16.3125 
L 39.796875 27.296875 
L 28.21875 27.296875 
Q 21.53125 27.296875 18.25 24.40625 
Q 14.984375 21.53125 14.984375 15.578125 
Q 14.984375 10.15625 18.296875 6.984375 
Q 21.625 3.8125 27.296875 3.8125 
Q 32.90625 3.8125 36.34375 7.28125 
Q 39.796875 10.75 39.796875 16.3125 
z
M 48.78125 32.421875 
L 48.78125 5.171875 
L 56.78125 5.171875 
L 56.78125 0 
L 39.796875 0 
L 39.796875 5.609375 
Q 36.8125 2 32.90625 0.28125 
Q 29 -1.421875 23.78125 -1.421875 
Q 15.140625 -1.421875 10.0625 3.171875 
Q 4.984375 7.765625 4.984375 15.578125 
Q 4.984375 23.640625 10.796875 28.078125 
Q 16.609375 32.515625 27.203125 32.515625 
L 39.796875 32.515625 
L 39.796875 36.078125 
Q 39.796875 42 36.203125 45.234375 
Q 32.625 48.484375 26.125 48.484375 
Q 20.75 48.484375 17.578125 46.046875 
Q 14.40625 43.609375 13.625 38.8125 
L 8.984375 38.8125 
L 8.984375 49.3125 
Q 13.671875 51.3125 18.09375 52.3125 
Q 22.515625 53.328125 26.703125 53.328125 
Q 37.5 53.328125 43.140625 47.96875 
Q 48.78125 42.625 48.78125 32.421875 
z
" id="DejaVuSerif-97"/>
      <path d="M 10.796875 46.6875 
L 2.875 46.6875 
L 2.875 51.90625 
L 10.796875 51.90625 
L 10.796875 68.015625 
L 19.828125 68.015625 
L 19.828125 51.90625 
L 36.71875 51.90625 
L 36.71875 46.6875 
L 19.828125 46.6875 
L 19.828125 13.71875 
Q 19.828125 7.125 21.09375 5.265625 
Q 22.359375 3.421875 25.78125 3.421875 
Q 29.296875 3.421875 30.90625 5.484375 
Q 32.515625 7.5625 32.625 12.203125 
L 39.40625 12.203125 
Q 39.015625 5.125 35.546875 1.84375 
Q 32.078125 -1.421875 25 -1.421875 
Q 17.234375 -1.421875 14.015625 2.015625 
Q 10.796875 5.46875 10.796875 13.71875 
z
" id="DejaVuSerif-116"/>
      <path d="M 54.203125 25 
L 15.484375 25 
L 15.484375 24.609375 
Q 15.484375 14.109375 19.4375 8.765625 
Q 23.390625 3.421875 31.109375 3.421875 
Q 37.015625 3.421875 40.796875 6.515625 
Q 44.578125 9.625 46.09375 15.71875 
L 53.328125 15.71875 
Q 51.171875 7.171875 45.375 2.875 
Q 39.59375 -1.421875 30.171875 -1.421875 
Q 18.796875 -1.421875 11.890625 6.078125 
Q 4.984375 13.578125 4.984375 25.984375 
Q 4.984375 38.28125 11.765625 45.796875 
Q 18.5625 53.328125 29.59375 53.328125 
Q 41.359375 53.328125 47.65625 46.0625 
Q 53.953125 38.8125 54.203125 25 
z
M 43.609375 30.171875 
Q 43.3125 39.265625 39.765625 43.875 
Q 36.234375 48.484375 29.59375 48.484375 
Q 23.390625 48.484375 19.828125 43.84375 
Q 16.265625 39.203125 15.484375 30.171875 
z
" id="DejaVuSerif-101"/>
      <path d="M 5.609375 2.875 
L 5.609375 14.984375 
L 10.796875 14.984375 
Q 10.984375 9.1875 14.421875 6.296875 
Q 17.875 3.421875 24.609375 3.421875 
Q 30.671875 3.421875 33.84375 5.6875 
Q 37.015625 7.953125 37.015625 12.3125 
Q 37.015625 15.71875 34.6875 17.8125 
Q 32.375 19.921875 24.90625 22.3125 
L 18.40625 24.515625 
Q 11.71875 26.65625 8.71875 29.875 
Q 5.71875 33.109375 5.71875 38.09375 
Q 5.71875 45.21875 10.9375 49.265625 
Q 16.15625 53.328125 25.390625 53.328125 
Q 29.5 53.328125 34.03125 52.25 
Q 38.578125 51.171875 43.40625 49.125 
L 43.40625 37.796875 
L 38.234375 37.796875 
Q 38.03125 42.828125 34.703125 45.65625 
Q 31.390625 48.484375 25.6875 48.484375 
Q 20.015625 48.484375 17.109375 46.484375 
Q 14.203125 44.484375 14.203125 40.484375 
Q 14.203125 37.203125 16.40625 35.21875 
Q 18.609375 33.25 25.203125 31.203125 
L 32.328125 29 
Q 39.703125 26.703125 42.9375 23.265625 
Q 46.1875 19.828125 46.1875 14.40625 
Q 46.1875 7.03125 40.546875 2.796875 
Q 34.90625 -1.421875 25 -1.421875 
Q 19.96875 -1.421875 15.1875 -0.34375 
Q 10.40625 0.734375 5.609375 2.875 
z
" id="DejaVuSerif-115"/>
     </defs>
     <g transform="translate(550.214531 713.472562)scale(0.14 -0.14)">
      <use xlink:href="#DejaVuSerif-68"/>
      <use x="80.175781" xlink:href="#DejaVuSerif-97"/>
      <use x="139.794922" xlink:href="#DejaVuSerif-116"/>
      <use x="179.980469" xlink:href="#DejaVuSerif-101"/>
      <use x="239.160156" xlink:href="#DejaVuSerif-115"/>
     </g>
    </g>
   </g>
   <g id="matplotlib.axis_2">
    <g id="ytick_1">
     <g id="line2d_17">
      <path clip-path="url(#pce960fc12b)" d="M 68.348438 648.634466 
L 1072.748438 648.634466 
" style="fill:none;stroke:#b0b0b0;stroke-linecap:square;stroke-width:0.8;"/>
     </g>
     <g id="line2d_18">
      <defs>
       <path d="M 0 0 
L -3.5 0 
" id="mfbdd253edf" style="stroke:#000000;stroke-width:0.8;"/>
      </defs>
      <g>
       <use style="stroke:#000000;stroke-width:0.8;" x="68.348438" xlink:href="#mfbdd253edf" y="648.634466"/>
      </g>
     </g>
     <g id="text_10">
      <!-- 0.0M -->
      <defs>
       <path d="M 9.421875 5.078125 
Q 9.421875 7.8125 11.28125 9.71875 
Q 13.140625 11.625 15.921875 11.625 
Q 18.609375 11.625 20.5 9.71875 
Q 22.40625 7.8125 22.40625 5.078125 
Q 22.40625 2.390625 20.5 0.484375 
Q 18.609375 -1.421875 15.921875 -1.421875 
Q 13.140625 -1.421875 11.28125 0.453125 
Q 9.421875 2.34375 9.421875 5.078125 
z
" id="DejaVuSerif-46"/>
       <path d="M 5.515625 0 
L 5.515625 5.171875 
L 14.796875 5.171875 
L 14.796875 67.671875 
L 4.984375 67.671875 
L 4.984375 72.90625 
L 26.21875 72.90625 
L 51.8125 21 
L 77.390625 72.90625 
L 97.3125 72.90625 
L 97.3125 67.671875 
L 87.59375 67.671875 
L 87.59375 5.171875 
L 96.921875 5.171875 
L 96.921875 0 
L 68.40625 0 
L 68.40625 5.171875 
L 77.6875 5.171875 
L 77.6875 61.53125 
L 52.6875 10.6875 
L 45.796875 10.6875 
L 20.796875 61.53125 
L 20.796875 5.171875 
L 30.078125 5.171875 
L 30.078125 0 
z
" id="DejaVuSerif-77"/>
      </defs>
      <g transform="translate(24.749375 653.953372)scale(0.14 -0.14)">
       <use xlink:href="#DejaVuSerif-48"/>
       <use x="63.623047" xlink:href="#DejaVuSerif-46"/>
       <use x="95.410156" xlink:href="#DejaVuSerif-48"/>
       <use x="159.033203" xlink:href="#DejaVuSerif-77"/>
      </g>
     </g>
    </g>
    <g id="ytick_2">
     <g id="line2d_19">
      <path clip-path="url(#pce960fc12b)" d="M 68.348438 590.609113 
L 1072.748438 590.609113 
" style="fill:none;stroke:#b0b0b0;stroke-linecap:square;stroke-width:0.8;"/>
     </g>
     <g id="line2d_20">
      <g>
       <use style="stroke:#000000;stroke-width:0.8;" x="68.348438" xlink:href="#mfbdd253edf" y="590.609113"/>
      </g>
     </g>
     <g id="text_11">
      <!-- 0.5M -->
      <defs>
       <path d="M 50.296875 72.90625 
L 50.296875 64.890625 
L 16.890625 64.890625 
L 16.890625 44 
Q 19.4375 45.75 22.828125 46.625 
Q 26.21875 47.515625 30.421875 47.515625 
Q 42.234375 47.515625 49.0625 40.96875 
Q 55.90625 34.421875 55.90625 23.09375 
Q 55.90625 11.53125 49 5.046875 
Q 42.09375 -1.421875 29.59375 -1.421875 
Q 24.5625 -1.421875 19.28125 -0.1875 
Q 14.015625 1.03125 8.5 3.515625 
L 8.5 17.671875 
L 14.015625 17.671875 
Q 14.453125 10.75 18.421875 7.078125 
Q 22.40625 3.421875 29.59375 3.421875 
Q 37.3125 3.421875 41.453125 8.5 
Q 45.609375 13.578125 45.609375 23.09375 
Q 45.609375 32.5625 41.484375 37.609375 
Q 37.359375 42.671875 29.59375 42.671875 
Q 25.203125 42.671875 21.84375 41.109375 
Q 18.5 39.546875 15.921875 36.28125 
L 11.71875 36.28125 
L 11.71875 72.90625 
z
" id="DejaVuSerif-53"/>
      </defs>
      <g transform="translate(24.749375 595.928019)scale(0.14 -0.14)">
       <use xlink:href="#DejaVuSerif-48"/>
       <use x="63.623047" xlink:href="#DejaVuSerif-46"/>
       <use x="95.410156" xlink:href="#DejaVuSerif-53"/>
       <use x="159.033203" xlink:href="#DejaVuSerif-77"/>
      </g>
     </g>
    </g>
    <g id="ytick_3">
     <g id="line2d_21">
      <path clip-path="url(#pce960fc12b)" d="M 68.348438 532.583759 
L 1072.748438 532.583759 
" style="fill:none;stroke:#b0b0b0;stroke-linecap:square;stroke-width:0.8;"/>
     </g>
     <g id="line2d_22">
      <g>
       <use style="stroke:#000000;stroke-width:0.8;" x="68.348438" xlink:href="#mfbdd253edf" y="532.583759"/>
      </g>
     </g>
     <g id="text_12">
      <!-- 1.0M -->
      <g transform="translate(24.749375 537.902666)scale(0.14 -0.14)">
       <use xlink:href="#DejaVuSerif-49"/>
       <use x="63.623047" xlink:href="#DejaVuSerif-46"/>
       <use x="95.410156" xlink:href="#DejaVuSerif-48"/>
       <use x="159.033203" xlink:href="#DejaVuSerif-77"/>
      </g>
     </g>
    </g>
    <g id="ytick_4">
     <g id="line2d_23">
      <path clip-path="url(#pce960fc12b)" d="M 68.348438 474.558406 
L 1072.748438 474.558406 
" style="fill:none;stroke:#b0b0b0;stroke-linecap:square;stroke-width:0.8;"/>
     </g>
     <g id="line2d_24">
      <g>
       <use style="stroke:#000000;stroke-width:0.8;" x="68.348438" xlink:href="#mfbdd253edf" y="474.558406"/>
      </g>
     </g>
     <g id="text_13">
      <!-- 1.5M -->
      <g transform="translate(24.749375 479.877312)scale(0.14 -0.14)">
       <use xlink:href="#DejaVuSerif-49"/>
       <use x="63.623047" xlink:href="#DejaVuSerif-46"/>
       <use x="95.410156" xlink:href="#DejaVuSerif-53"/>
       <use x="159.033203" xlink:href="#DejaVuSerif-77"/>
      </g>
     </g>
    </g>
    <g id="ytick_5">
     <g id="line2d_25">
      <path clip-path="url(#pce960fc12b)" d="M 68.348438 416.533053 
L 1072.748438 416.533053 
" style="fill:none;stroke:#b0b0b0;stroke-linecap:square;stroke-width:0.8;"/>
     </g>
     <g id="line2d_26">
      <g>
       <use style="stroke:#000000;stroke-width:0.8;" x="68.348438" xlink:href="#mfbdd253edf" y="416.533053"/>
      </g>
     </g>
     <g id="text_14">
      <!-- 2.0M -->
      <g transform="translate(24.749375 421.851959)scale(0.14 -0.14)">
       <use xlink:href="#DejaVuSerif-50"/>
       <use x="63.623047" xlink:href="#DejaVuSerif-46"/>
       <use x="95.410156" xlink:href="#DejaVuSerif-48"/>
       <use x="159.033203" xlink:href="#DejaVuSerif-77"/>
      </g>
     </g>
    </g>
    <g id="ytick_6">
     <g id="line2d_27">
      <path clip-path="url(#pce960fc12b)" d="M 68.348438 358.5077 
L 1072.748438 358.5077 
" style="fill:none;stroke:#b0b0b0;stroke-linecap:square;stroke-width:0.8;"/>
     </g>
     <g id="line2d_28">
      <g>
       <use style="stroke:#000000;stroke-width:0.8;" x="68.348438" xlink:href="#mfbdd253edf" y="358.5077"/>
      </g>
     </g>
     <g id="text_15">
      <!-- 2.5M -->
      <g transform="translate(24.749375 363.826606)scale(0.14 -0.14)">
       <use xlink:href="#DejaVuSerif-50"/>
       <use x="63.623047" xlink:href="#DejaVuSerif-46"/>
       <use x="95.410156" xlink:href="#DejaVuSerif-53"/>
       <use x="159.033203" xlink:href="#DejaVuSerif-77"/>
      </g>
     </g>
    </g>
    <g id="ytick_7">
     <g id="line2d_29">
      <path clip-path="url(#pce960fc12b)" d="M 68.348438 300.482346 
L 1072.748438 300.482346 
" style="fill:none;stroke:#b0b0b0;stroke-linecap:square;stroke-width:0.8;"/>
     </g>
     <g id="line2d_30">
      <g>
       <use style="stroke:#000000;stroke-width:0.8;" x="68.348438" xlink:href="#mfbdd253edf" y="300.482346"/>
      </g>
     </g>
     <g id="text_16">
      <!-- 3.0M -->
      <g transform="translate(24.749375 305.801253)scale(0.14 -0.14)">
       <use xlink:href="#DejaVuSerif-51"/>
       <use x="63.623047" xlink:href="#DejaVuSerif-46"/>
       <use x="95.410156" xlink:href="#DejaVuSerif-48"/>
       <use x="159.033203" xlink:href="#DejaVuSerif-77"/>
      </g>
     </g>
    </g>
    <g id="ytick_8">
     <g id="line2d_31">
      <path clip-path="url(#pce960fc12b)" d="M 68.348438 242.456993 
L 1072.748438 242.456993 
" style="fill:none;stroke:#b0b0b0;stroke-linecap:square;stroke-width:0.8;"/>
     </g>
     <g id="line2d_32">
      <g>
       <use style="stroke:#000000;stroke-width:0.8;" x="68.348438" xlink:href="#mfbdd253edf" y="242.456993"/>
      </g>
     </g>
     <g id="text_17">
      <!-- 3.5M -->
      <g transform="translate(24.749375 247.775899)scale(0.14 -0.14)">
       <use xlink:href="#DejaVuSerif-51"/>
       <use x="63.623047" xlink:href="#DejaVuSerif-46"/>
       <use x="95.410156" xlink:href="#DejaVuSerif-53"/>
       <use x="159.033203" xlink:href="#DejaVuSerif-77"/>
      </g>
     </g>
    </g>
    <g id="ytick_9">
     <g id="line2d_33">
      <path clip-path="url(#pce960fc12b)" d="M 68.348438 184.43164 
L 1072.748438 184.43164 
" style="fill:none;stroke:#b0b0b0;stroke-linecap:square;stroke-width:0.8;"/>
     </g>
     <g id="line2d_34">
      <g>
       <use style="stroke:#000000;stroke-width:0.8;" x="68.348438" xlink:href="#mfbdd253edf" y="184.43164"/>
      </g>
     </g>
     <g id="text_18">
      <!-- 4.0M -->
      <defs>
       <path d="M 34.90625 24.703125 
L 34.90625 63.484375 
L 10.015625 24.703125 
z
M 56.390625 0 
L 23.1875 0 
L 23.1875 5.171875 
L 34.90625 5.171875 
L 34.90625 19.484375 
L 3.078125 19.484375 
L 3.078125 24.8125 
L 35.015625 74.21875 
L 44.671875 74.21875 
L 44.671875 24.703125 
L 58.59375 24.703125 
L 58.59375 19.484375 
L 44.671875 19.484375 
L 44.671875 5.171875 
L 56.390625 5.171875 
z
" id="DejaVuSerif-52"/>
      </defs>
      <g transform="translate(24.749375 189.750546)scale(0.14 -0.14)">
       <use xlink:href="#DejaVuSerif-52"/>
       <use x="63.623047" xlink:href="#DejaVuSerif-46"/>
       <use x="95.410156" xlink:href="#DejaVuSerif-48"/>
       <use x="159.033203" xlink:href="#DejaVuSerif-77"/>
      </g>
     </g>
    </g>
    <g id="ytick_10">
     <g id="line2d_35">
      <path clip-path="url(#pce960fc12b)" d="M 68.348438 126.406287 
L 1072.748438 126.406287 
" style="fill:none;stroke:#b0b0b0;stroke-linecap:square;stroke-width:0.8;"/>
     </g>
     <g id="line2d_36">
      <g>
       <use style="stroke:#000000;stroke-width:0.8;" x="68.348438" xlink:href="#mfbdd253edf" y="126.406287"/>
      </g>
     </g>
     <g id="text_19">
      <!-- 4.5M -->
      <g transform="translate(24.749375 131.725193)scale(0.14 -0.14)">
       <use xlink:href="#DejaVuSerif-52"/>
       <use x="63.623047" xlink:href="#DejaVuSerif-46"/>
       <use x="95.410156" xlink:href="#DejaVuSerif-53"/>
       <use x="159.033203" xlink:href="#DejaVuSerif-77"/>
      </g>
     </g>
    </g>
    <g id="ytick_11">
     <g id="line2d_37">
      <path clip-path="url(#pce960fc12b)" d="M 68.348438 68.380933 
L 1072.748438 68.380933 
" style="fill:none;stroke:#b0b0b0;stroke-linecap:square;stroke-width:0.8;"/>
     </g>
     <g id="line2d_38">
      <g>
       <use style="stroke:#000000;stroke-width:0.8;" x="68.348438" xlink:href="#mfbdd253edf" y="68.380933"/>
      </g>
     </g>
     <g id="text_20">
      <!-- 5.0M -->
      <g transform="translate(24.749375 73.69984)scale(0.14 -0.14)">
       <use xlink:href="#DejaVuSerif-53"/>
       <use x="63.623047" xlink:href="#DejaVuSerif-46"/>
       <use x="95.410156" xlink:href="#DejaVuSerif-48"/>
       <use x="159.033203" xlink:href="#DejaVuSerif-77"/>
      </g>
     </g>
    </g>
    <g id="text_21">
     <!-- Cumulative Counts (Millions) -->
     <defs>
      <path d="M 70.515625 19.28125 
Q 67.28125 9.078125 59.6875 3.828125 
Q 52.09375 -1.421875 40.484375 -1.421875 
Q 33.34375 -1.421875 27.234375 1.015625 
Q 21.140625 3.46875 16.40625 8.203125 
Q 10.9375 13.671875 8.265625 20.625 
Q 5.609375 27.59375 5.609375 36.375 
Q 5.609375 53.375 15.421875 63.796875 
Q 25.25 74.21875 41.3125 74.21875 
Q 47.265625 74.21875 54 72.65625 
Q 60.75 71.09375 68.5 67.921875 
L 68.5 51.125 
L 62.984375 51.125 
Q 61.1875 60.296875 55.734375 64.640625 
Q 50.296875 69 40.484375 69 
Q 28.8125 69 22.796875 60.71875 
Q 16.796875 52.4375 16.796875 36.375 
Q 16.796875 20.359375 22.796875 12.078125 
Q 28.8125 3.8125 40.484375 3.8125 
Q 48.640625 3.8125 53.90625 7.6875 
Q 59.1875 11.578125 61.53125 19.28125 
z
" id="DejaVuSerif-67"/>
      <path d="M 35.40625 51.90625 
L 52.203125 51.90625 
L 52.203125 5.171875 
L 60.6875 5.171875 
L 60.6875 0 
L 43.21875 0 
L 43.21875 9.1875 
Q 40.71875 4 36.765625 1.28125 
Q 32.8125 -1.421875 27.59375 -1.421875 
Q 18.953125 -1.421875 14.875 3.484375 
Q 10.796875 8.40625 10.796875 18.890625 
L 10.796875 46.6875 
L 2.6875 46.6875 
L 2.6875 51.90625 
L 19.828125 51.90625 
L 19.828125 21.6875 
Q 19.828125 12.203125 22.140625 8.6875 
Q 24.46875 5.171875 30.421875 5.171875 
Q 36.671875 5.171875 39.9375 9.765625 
Q 43.21875 14.359375 43.21875 23.09375 
L 43.21875 46.6875 
L 35.40625 46.6875 
z
" id="DejaVuSerif-117"/>
      <path d="M 51.8125 41.796875 
Q 54.390625 47.515625 58.421875 50.421875 
Q 62.453125 53.328125 67.828125 53.328125 
Q 75.984375 53.328125 79.984375 48.265625 
Q 83.984375 43.21875 83.984375 33.015625 
L 83.984375 5.171875 
L 92.09375 5.171875 
L 92.09375 0 
L 67.1875 0 
L 67.1875 5.171875 
L 75 5.171875 
L 75 31.984375 
Q 75 39.9375 72.65625 43.3125 
Q 70.3125 46.6875 64.890625 46.6875 
Q 58.890625 46.6875 55.734375 42.140625 
Q 52.59375 37.59375 52.59375 28.90625 
L 52.59375 5.171875 
L 60.40625 5.171875 
L 60.40625 0 
L 35.796875 0 
L 35.796875 5.171875 
L 43.609375 5.171875 
L 43.609375 32.328125 
Q 43.609375 40.09375 41.265625 43.390625 
Q 38.921875 46.6875 33.5 46.6875 
Q 27.484375 46.6875 24.328125 42.140625 
Q 21.1875 37.59375 21.1875 28.90625 
L 21.1875 5.171875 
L 29 5.171875 
L 29 0 
L 4.109375 0 
L 4.109375 5.171875 
L 12.203125 5.171875 
L 12.203125 46.78125 
L 3.609375 46.78125 
L 3.609375 51.90625 
L 21.1875 51.90625 
L 21.1875 42.671875 
Q 23.6875 47.859375 27.53125 50.59375 
Q 31.390625 53.328125 36.28125 53.328125 
Q 42.328125 53.328125 46.375 50.3125 
Q 50.4375 47.3125 51.8125 41.796875 
z
" id="DejaVuSerif-109"/>
      <path d="M 20.515625 5.171875 
L 29 5.171875 
L 29 0 
L 2.875 0 
L 2.875 5.171875 
L 11.53125 5.171875 
L 11.53125 70.796875 
L 2.875 70.796875 
L 2.875 75.984375 
L 20.515625 75.984375 
z
" id="DejaVuSerif-108"/>
      <path d="M 9.71875 68.015625 
Q 9.71875 70.265625 11.34375 71.921875 
Q 12.984375 73.578125 15.28125 73.578125 
Q 17.53125 73.578125 19.15625 71.921875 
Q 20.796875 70.265625 20.796875 68.015625 
Q 20.796875 65.71875 19.1875 64.109375 
Q 17.578125 62.5 15.28125 62.5 
Q 12.984375 62.5 11.34375 64.109375 
Q 9.71875 65.71875 9.71875 68.015625 
z
M 21.1875 5.171875 
L 29.6875 5.171875 
L 29.6875 0 
L 3.609375 0 
L 3.609375 5.171875 
L 12.203125 5.171875 
L 12.203125 46.6875 
L 3.609375 46.6875 
L 3.609375 51.90625 
L 21.1875 51.90625 
z
" id="DejaVuSerif-105"/>
      <path d="M 24.703125 0 
L 5.609375 46.6875 
L -0.296875 46.6875 
L -0.296875 51.90625 
L 23.578125 51.90625 
L 23.578125 46.6875 
L 15.28125 46.6875 
L 29.890625 10.984375 
L 44.484375 46.6875 
L 36.71875 46.6875 
L 36.71875 51.90625 
L 56.203125 51.90625 
L 56.203125 46.6875 
L 50.390625 46.6875 
L 31.296875 0 
z
" id="DejaVuSerif-118"/>
      <path id="DejaVuSerif-32"/>
      <path d="M 30.078125 3.421875 
Q 37.3125 3.421875 40.984375 9.125 
Q 44.671875 14.84375 44.671875 25.984375 
Q 44.671875 37.109375 40.984375 42.796875 
Q 37.3125 48.484375 30.078125 48.484375 
Q 22.859375 48.484375 19.171875 42.796875 
Q 15.484375 37.109375 15.484375 25.984375 
Q 15.484375 14.84375 19.1875 9.125 
Q 22.90625 3.421875 30.078125 3.421875 
z
M 30.078125 -1.421875 
Q 18.75 -1.421875 11.859375 6.078125 
Q 4.984375 13.578125 4.984375 25.984375 
Q 4.984375 38.375 11.84375 45.84375 
Q 18.703125 53.328125 30.078125 53.328125 
Q 41.453125 53.328125 48.3125 45.84375 
Q 55.171875 38.375 55.171875 25.984375 
Q 55.171875 13.578125 48.3125 6.078125 
Q 41.453125 -1.421875 30.078125 -1.421875 
z
" id="DejaVuSerif-111"/>
      <path d="M 4.109375 0 
L 4.109375 5.171875 
L 12.203125 5.171875 
L 12.203125 46.6875 
L 3.609375 46.6875 
L 3.609375 51.90625 
L 21.1875 51.90625 
L 21.1875 42.671875 
Q 23.6875 47.953125 27.65625 50.640625 
Q 31.640625 53.328125 36.921875 53.328125 
Q 45.515625 53.328125 49.5625 48.390625 
Q 53.609375 43.453125 53.609375 33.015625 
L 53.609375 5.171875 
L 61.625 5.171875 
L 61.625 0 
L 36.8125 0 
L 36.8125 5.171875 
L 44.578125 5.171875 
L 44.578125 30.171875 
Q 44.578125 39.703125 42.234375 43.234375 
Q 39.890625 46.78125 33.984375 46.78125 
Q 27.734375 46.78125 24.453125 42.203125 
Q 21.1875 37.640625 21.1875 28.90625 
L 21.1875 5.171875 
L 29 5.171875 
L 29 0 
z
" id="DejaVuSerif-110"/>
      <path d="M 31.890625 -15.578125 
Q 20.015625 -10.25 13.953125 1.296875 
Q 7.90625 12.84375 7.90625 30.171875 
Q 7.90625 47.5625 13.953125 59.109375 
Q 20.015625 70.65625 31.890625 75.984375 
L 31.890625 71.1875 
Q 24.359375 66.015625 21.09375 56.609375 
Q 17.828125 47.21875 17.828125 30.171875 
Q 17.828125 13.1875 21.09375 3.78125 
Q 24.359375 -5.609375 31.890625 -10.796875 
z
" id="DejaVuSerif-40"/>
      <path d="M 7.078125 -15.578125 
L 7.078125 -10.796875 
Q 14.59375 -5.609375 17.890625 3.78125 
Q 21.1875 13.1875 21.1875 30.171875 
Q 21.1875 47.21875 17.890625 56.609375 
Q 14.59375 66.015625 7.078125 71.1875 
L 7.078125 75.984375 
Q 19 70.65625 25.046875 59.109375 
Q 31.109375 47.5625 31.109375 30.171875 
Q 31.109375 12.84375 25.046875 1.296875 
Q 19 -10.25 7.078125 -15.578125 
z
" id="DejaVuSerif-41"/>
     </defs>
     <g transform="translate(17.837813 456.040375)rotate(-90)scale(0.14 -0.14)">
      <use xlink:href="#DejaVuSerif-67"/>
      <use x="76.513672" xlink:href="#DejaVuSerif-117"/>
      <use x="140.917969" xlink:href="#DejaVuSerif-109"/>
      <use x="235.742188" xlink:href="#DejaVuSerif-117"/>
      <use x="300.146484" xlink:href="#DejaVuSerif-108"/>
      <use x="332.128906" xlink:href="#DejaVuSerif-97"/>
      <use x="391.748047" xlink:href="#DejaVuSerif-116"/>
      <use x="431.933594" xlink:href="#DejaVuSerif-105"/>
      <use x="463.916016" xlink:href="#DejaVuSerif-118"/>
      <use x="520.410156" xlink:href="#DejaVuSerif-101"/>
      <use x="579.589844" xlink:href="#DejaVuSerif-32"/>
      <use x="611.376953" xlink:href="#DejaVuSerif-67"/>
      <use x="687.890625" xlink:href="#DejaVuSerif-111"/>
      <use x="748.095703" xlink:href="#DejaVuSerif-117"/>
      <use x="812.5" xlink:href="#DejaVuSerif-110"/>
      <use x="876.904297" xlink:href="#DejaVuSerif-116"/>
      <use x="917.089844" xlink:href="#DejaVuSerif-115"/>
      <use x="968.408203" xlink:href="#DejaVuSerif-32"/>
      <use x="1000.195312" xlink:href="#DejaVuSerif-40"/>
      <use x="1039.208984" xlink:href="#DejaVuSerif-77"/>
      <use x="1141.601562" xlink:href="#DejaVuSerif-105"/>
      <use x="1173.583984" xlink:href="#DejaVuSerif-108"/>
      <use x="1205.566406" xlink:href="#DejaVuSerif-108"/>
      <use x="1237.548828" xlink:href="#DejaVuSerif-105"/>
      <use x="1269.53125" xlink:href="#DejaVuSerif-111"/>
      <use x="1329.736328" xlink:href="#DejaVuSerif-110"/>
      <use x="1394.140625" xlink:href="#DejaVuSerif-115"/>
      <use x="1445.458984" xlink:href="#DejaVuSerif-41"/>
     </g>
    </g>
   </g>
   <g id="line2d_39">
    <path clip-path="url(#pce960fc12b)" d="M 135.928481 55.616284 
L 141.586674 55.723631 
L 161.39035 55.928344 
L 209.484991 56.188298 
L 231.410489 56.395075 
L 264.652374 56.949552 
L 292.236065 57.622773 
L 315.576112 58.405624 
L 336.087062 59.309414 
L 354.476189 60.340401 
L 370.743494 61.469163 
L 385.596251 62.715671 
L 399.03446 64.054481 
L 411.765394 65.538976 
L 423.789054 67.163663 
L 435.105441 68.918133 
L 445.714553 70.786854 
L 455.61639 72.749203 
L 465.518228 74.944821 
L 474.712792 77.213013 
L 483.907356 79.72242 
L 492.394646 82.270717 
L 500.881935 85.058791 
L 508.661951 87.83962 
L 516.441966 90.849219 
L 524.221982 94.100502 
L 532.001997 97.60602 
L 539.074738 101.023552 
L 546.14748 104.669476 
L 553.220221 108.551421 
L 560.292963 112.676071 
L 567.365704 117.048972 
L 574.438445 121.674331 
L 581.511187 126.554818 
L 588.583928 131.691375 
L 595.656669 137.083039 
L 603.436685 143.304846 
L 611.2167 149.824535 
L 618.996716 156.631665 
L 627.484005 164.369072 
L 635.971295 172.409391 
L 645.165859 181.429854 
L 655.067697 191.459567 
L 666.384083 203.250676 
L 680.529566 218.344077 
L 730.746029 272.283631 
L 742.062415 283.941811 
L 752.671527 294.551782 
L 762.573365 304.131503 
L 771.767929 312.719207 
L 780.962493 320.990213 
L 789.449782 328.331201 
L 797.937072 335.382026 
L 806.424362 342.138037 
L 814.911651 348.597442 
L 823.398941 354.76097 
L 831.886231 360.631529 
L 840.37352 366.213873 
L 848.86081 371.514289 
L 857.348099 376.540303 
L 865.835389 381.300416 
L 874.322679 385.803865 
L 882.809968 390.060416 
L 891.297258 394.080179 
L 900.491822 398.179666 
L 909.686386 402.026525 
L 918.880949 405.633858 
L 928.075513 409.014565 
L 937.977351 412.41632 
L 947.879189 415.585087 
L 958.488301 418.738281 
L 969.097413 421.658024 
L 980.413799 424.533459 
L 991.730185 427.180468 
L 1003.753846 429.762141 
L 1016.48478 432.257732 
L 1027.093892 434.165608 
L 1027.093892 434.165608 
" style="fill:none;stroke:#ffa500;stroke-linecap:square;stroke-width:1.5;"/>
   </g>
   <g id="line2d_40">
    <path clip-path="url(#pce960fc12b)" d="M 114.002983 648.63435 
L 140.172126 648.510756 
L 168.463091 648.361399 
L 231.410489 648.180502 
L 280.919679 647.785214 
L 318.405208 647.273137 
L 348.817996 646.643003 
L 374.279865 645.90281 
L 396.912637 645.026078 
L 416.716313 644.042926 
L 435.105441 642.907474 
L 452.08002 641.632191 
L 467.640051 640.240401 
L 482.492808 638.686374 
L 496.63829 636.979392 
L 510.076499 635.1355 
L 523.514707 633.06225 
L 536.245642 630.879705 
L 549.68385 628.344837 
L 563.122059 625.581141 
L 577.267542 622.446902 
L 593.534847 618.608335 
L 616.874893 612.842047 
L 642.336762 606.604336 
L 656.482245 603.371596 
L 668.505905 600.855602 
L 679.115017 598.864424 
L 689.016855 597.233997 
L 698.211419 595.939992 
L 707.405983 594.874235 
L 715.893272 594.102898 
L 724.380562 593.540937 
L 732.867852 593.19003 
L 741.355141 593.048437 
L 750.549705 593.12547 
L 759.744269 593.432309 
L 768.938833 593.955589 
L 778.84067 594.742705 
L 789.449782 595.818123 
L 800.766169 597.19667 
L 813.497103 598.986967 
L 827.642586 601.210815 
L 844.617165 604.110481 
L 870.079034 608.710432 
L 911.100934 616.112313 
L 933.026432 619.827739 
L 952.830108 622.960907 
L 971.926509 625.756162 
L 990.315637 628.228506 
L 1009.412039 630.5676 
L 1027.093892 632.531291 
L 1027.093892 632.531291 
" style="fill:none;stroke:#ff0000;stroke-linecap:square;stroke-width:1.5;"/>
   </g>
   <g id="line2d_41">
    <path clip-path="url(#pce960fc12b)" d="M 135.928481 648.61288 
L 157.853979 648.502516 
L 185.437671 648.371611 
L 233.532312 648.209823 
L 276.676034 647.76825 
L 310.625193 647.205569 
L 338.208884 646.534293 
L 361.54893 645.75458 
L 382.05988 644.855728 
L 400.449008 643.832179 
L 416.716313 642.713808 
L 431.56907 641.481524 
L 445.714553 640.085698 
L 458.445487 638.613372 
L 470.469147 637.00683 
L 481.785533 635.277551 
L 492.394646 633.441965 
L 503.003758 631.375923 
L 512.905595 629.218678 
L 522.100159 626.999477 
L 531.294723 624.55511 
L 540.489287 621.868618 
L 548.976576 619.159207 
L 557.463866 616.215922 
L 565.951156 613.026104 
L 573.731171 609.875326 
L 581.511187 606.49891 
L 589.291202 602.889334 
L 597.071218 599.040207 
L 604.851233 594.946487 
L 612.631249 590.604686 
L 620.411264 586.01307 
L 628.19128 581.171833 
L 635.971295 576.083253 
L 644.458585 570.255297 
L 652.945874 564.147237 
L 661.433164 557.77121 
L 670.627728 550.579311 
L 680.529566 542.529731 
L 691.138678 533.593125 
L 702.455064 523.757931 
L 715.185998 512.397984 
L 732.160577 496.927656 
L 775.3043 457.441334 
L 789.449782 444.883124 
L 801.473443 434.493879 
L 812.789829 425.002851 
L 823.398941 416.389005 
L 833.300779 408.617862 
L 843.202617 401.120595 
L 853.104455 393.90783 
L 863.006293 386.986825 
L 872.200856 380.825148 
L 881.39542 374.919964 
L 890.589984 369.27075 
L 899.784548 363.875418 
L 908.979111 358.730531 
L 918.173675 353.831508 
L 927.368239 349.172812 
L 936.562803 344.748125 
L 946.464641 340.236804 
L 956.366478 335.979526 
L 966.268316 331.96653 
L 976.170154 328.187741 
L 986.779266 324.38729 
L 997.388378 320.83125 
L 1007.99749 317.506995 
L 1019.313877 314.202567 
L 1027.093892 312.067822 
L 1027.093892 312.067822 
" style="fill:none;stroke:#008000;stroke-linecap:square;stroke-width:1.5;"/>
   </g>
   <g id="line2d_42">
    <path clip-path="url(#pce960fc12b)" d="M 114.002983 648.634466 
L 390.54717 648.524185 
L 472.59097 648.301805 
L 519.271063 647.96787 
L 553.220221 647.51018 
L 580.096638 646.934167 
L 603.436685 646.218764 
L 624.654909 645.351469 
L 645.165859 644.288878 
L 664.969535 643.0437 
L 686.187759 641.481942 
L 710.235079 639.476668 
L 745.598786 636.270533 
L 787.32796 632.537637 
L 812.789829 630.489656 
L 836.129875 628.836623 
L 858.762648 627.456613 
L 882.102694 626.259674 
L 906.857289 625.221049 
L 933.026432 624.347911 
L 962.024672 623.603143 
L 995.266556 622.974226 
L 1027.093892 622.540063 
L 1027.093892 622.540063 
" style="fill:none;stroke:#000000;stroke-linecap:square;stroke-width:1.5;"/>
   </g>
   <g id="line2d_43">
    <path clip-path="url(#pce960fc12b)" d="M 226.459571 678.285375 
L 226.459571 25.965375 
" style="fill:none;stroke:#708090;stroke-dasharray:2,3.3;stroke-dashoffset:0;stroke-width:2;"/>
   </g>
   <g id="line2d_44">
    <path clip-path="url(#pce960fc12b)" d="M 68.348438 622.540063 
L 1072.748438 622.540063 
" style="fill:none;stroke:#000000;stroke-dasharray:7.4,3.2;stroke-dashoffset:0;stroke-width:2;"/>
   </g>
   <g id="patch_3">
    <path d="M 68.348438 678.285375 
L 68.348438 25.965375 
" style="fill:none;stroke:#000000;stroke-linecap:square;stroke-linejoin:miter;stroke-width:0.8;"/>
   </g>
   <g id="patch_4">
    <path d="M 1072.748438 678.285375 
L 1072.748438 25.965375 
" style="fill:none;stroke:#000000;stroke-linecap:square;stroke-linejoin:miter;stroke-width:0.8;"/>
   </g>
   <g id="patch_5">
    <path d="M 68.348438 678.285375 
L 1072.748438 678.285375 
" style="fill:none;stroke:#000000;stroke-linecap:square;stroke-linejoin:miter;stroke-width:0.8;"/>
   </g>
   <g id="patch_6">
    <path d="M 68.348438 25.965375 
L 1072.748438 25.965375 
" style="fill:none;stroke:#000000;stroke-linecap:square;stroke-linejoin:miter;stroke-width:0.8;"/>
   </g>
   <g id="text_22">
    <!-- Long-Term Advanced SIR Model Predictions - 0.7 Transmission Factor -->
    <defs>
     <path d="M 5.515625 0 
L 5.515625 5.171875 
L 14.796875 5.171875 
L 14.796875 67.671875 
L 5.515625 67.671875 
L 5.515625 72.90625 
L 33.984375 72.90625 
L 33.984375 67.671875 
L 24.703125 67.671875 
L 24.703125 6 
L 58.015625 6 
L 58.015625 18.21875 
L 64.015625 18.21875 
L 64.015625 0 
z
" id="DejaVuSerif-76"/>
     <path d="M 52.484375 46.6875 
L 52.484375 1.125 
Q 52.484375 -10.0625 46.328125 -16.140625 
Q 40.1875 -22.21875 28.8125 -22.21875 
Q 23.6875 -22.21875 19 -21.28125 
Q 14.3125 -20.359375 10.015625 -18.5 
L 10.015625 -7.625 
L 14.703125 -7.625 
Q 15.578125 -12.703125 18.84375 -15.046875 
Q 22.125 -17.390625 28.21875 -17.390625 
Q 36.140625 -17.390625 39.8125 -12.921875 
Q 43.5 -8.453125 43.5 1.125 
L 43.5 8.109375 
Q 40.875 3.21875 36.796875 0.890625 
Q 32.71875 -1.421875 26.703125 -1.421875 
Q 17.140625 -1.421875 11.0625 6.171875 
Q 4.984375 13.765625 4.984375 25.984375 
Q 4.984375 38.1875 11.03125 45.75 
Q 17.09375 53.328125 26.703125 53.328125 
Q 32.71875 53.328125 36.796875 51 
Q 40.875 48.6875 43.5 43.796875 
L 43.5 51.90625 
L 61.078125 51.90625 
L 61.078125 46.6875 
z
M 43.5 28.515625 
Q 43.5 37.84375 39.90625 42.765625 
Q 36.328125 47.703125 29.5 47.703125 
Q 22.5625 47.703125 19.015625 42.234375 
Q 15.484375 36.765625 15.484375 25.984375 
Q 15.484375 15.234375 19.015625 9.71875 
Q 22.5625 4.203125 29.5 4.203125 
Q 36.328125 4.203125 39.90625 9.109375 
Q 43.5 14.015625 43.5 23.390625 
z
" id="DejaVuSerif-103"/>
     <path d="M 19.09375 0 
L 19.09375 5.171875 
L 28.421875 5.171875 
L 28.421875 67.09375 
L 6.984375 67.09375 
L 6.984375 55.71875 
L 0.984375 55.71875 
L 0.984375 72.90625 
L 65.71875 72.90625 
L 65.71875 55.71875 
L 59.71875 55.71875 
L 59.71875 67.09375 
L 38.28125 67.09375 
L 38.28125 5.171875 
L 47.609375 5.171875 
L 47.609375 0 
z
" id="DejaVuSerif-84"/>
     <path d="M 47.796875 52 
L 47.796875 39.015625 
L 42.625 39.015625 
Q 42.390625 42.875 40.484375 44.78125 
Q 38.578125 46.6875 34.90625 46.6875 
Q 28.265625 46.6875 24.71875 42.09375 
Q 21.1875 37.5 21.1875 28.90625 
L 21.1875 5.171875 
L 31.59375 5.171875 
L 31.59375 0 
L 4.109375 0 
L 4.109375 5.171875 
L 12.203125 5.171875 
L 12.203125 46.78125 
L 3.609375 46.78125 
L 3.609375 51.90625 
L 21.1875 51.90625 
L 21.1875 42.671875 
Q 23.828125 48.09375 27.96875 50.703125 
Q 32.125 53.328125 38.09375 53.328125 
Q 40.28125 53.328125 42.703125 52.984375 
Q 45.125 52.640625 47.796875 52 
z
" id="DejaVuSerif-114"/>
     <path d="M 20.015625 26.421875 
L 46.78125 26.421875 
L 33.40625 61.078125 
z
M -0.59375 0 
L -0.59375 5.171875 
L 5.8125 5.171875 
L 31.78125 72.90625 
L 39.984375 72.90625 
L 66.015625 5.171875 
L 73.1875 5.171875 
L 73.1875 0 
L 46.6875 0 
L 46.6875 5.171875 
L 54.78125 5.171875 
L 48.6875 21.1875 
L 18.015625 21.1875 
L 11.921875 5.171875 
L 19.921875 5.171875 
L 19.921875 0 
z
" id="DejaVuSerif-65"/>
     <path d="M 52.484375 5.171875 
L 61.078125 5.171875 
L 61.078125 0 
L 43.5 0 
L 43.5 8.109375 
Q 40.875 3.21875 36.796875 0.890625 
Q 32.71875 -1.421875 26.703125 -1.421875 
Q 17.140625 -1.421875 11.0625 6.171875 
Q 4.984375 13.765625 4.984375 25.984375 
Q 4.984375 38.1875 11.03125 45.75 
Q 17.09375 53.328125 26.703125 53.328125 
Q 32.71875 53.328125 36.796875 51 
Q 40.875 48.6875 43.5 43.796875 
L 43.5 70.796875 
L 35.015625 70.796875 
L 35.015625 75.984375 
L 52.484375 75.984375 
z
M 43.5 23.390625 
L 43.5 28.515625 
Q 43.5 37.84375 39.90625 42.765625 
Q 36.328125 47.703125 29.5 47.703125 
Q 22.5625 47.703125 19.015625 42.234375 
Q 15.484375 36.765625 15.484375 25.984375 
Q 15.484375 15.234375 19.015625 9.71875 
Q 22.5625 4.203125 29.5 4.203125 
Q 36.328125 4.203125 39.90625 9.109375 
Q 43.5 14.015625 43.5 23.390625 
z
" id="DejaVuSerif-100"/>
     <path d="M 51.421875 15.578125 
Q 49.515625 7.28125 44.09375 2.921875 
Q 38.671875 -1.421875 30.078125 -1.421875 
Q 18.75 -1.421875 11.859375 6.078125 
Q 4.984375 13.578125 4.984375 25.984375 
Q 4.984375 38.421875 11.859375 45.875 
Q 18.75 53.328125 30.078125 53.328125 
Q 35.015625 53.328125 39.890625 52.171875 
Q 44.78125 51.03125 49.703125 48.6875 
L 49.703125 35.40625 
L 44.484375 35.40625 
Q 43.453125 42.234375 40.015625 45.359375 
Q 36.578125 48.484375 30.171875 48.484375 
Q 22.90625 48.484375 19.1875 42.84375 
Q 15.484375 37.203125 15.484375 25.984375 
Q 15.484375 14.75 19.171875 9.078125 
Q 22.859375 3.421875 30.171875 3.421875 
Q 35.984375 3.421875 39.453125 6.4375 
Q 42.921875 9.46875 44.1875 15.578125 
z
" id="DejaVuSerif-99"/>
     <path d="M 9.28125 3.515625 
L 9.28125 20.125 
L 14.890625 20.0625 
Q 15.140625 11.765625 19.703125 7.78125 
Q 24.265625 3.8125 33.59375 3.8125 
Q 42.28125 3.8125 46.84375 7.25 
Q 51.421875 10.6875 51.421875 17.28125 
Q 51.421875 22.5625 48.65625 25.390625 
Q 45.90625 28.21875 37.015625 30.90625 
L 27.390625 33.796875 
Q 16.9375 36.96875 12.671875 41.703125 
Q 8.40625 46.4375 8.40625 54.6875 
Q 8.40625 63.96875 14.984375 69.09375 
Q 21.578125 74.21875 33.5 74.21875 
Q 38.578125 74.21875 44.625 73.109375 
Q 50.6875 72.015625 57.515625 69.921875 
L 57.515625 54.390625 
L 52 54.390625 
Q 51.171875 62.109375 46.84375 65.546875 
Q 42.53125 69 33.6875 69 
Q 25.984375 69 21.953125 65.84375 
Q 17.921875 62.703125 17.921875 56.6875 
Q 17.921875 51.46875 20.9375 48.484375 
Q 23.96875 45.515625 33.796875 42.578125 
L 42.828125 39.890625 
Q 52.734375 36.921875 56.953125 32.296875 
Q 61.1875 27.6875 61.1875 19.921875 
Q 61.1875 9.328125 54.390625 3.953125 
Q 47.609375 -1.421875 34.1875 -1.421875 
Q 28.171875 -1.421875 21.9375 -0.1875 
Q 15.71875 1.03125 9.28125 3.515625 
z
" id="DejaVuSerif-83"/>
     <path d="M 24.703125 5.171875 
L 33.984375 5.171875 
L 33.984375 0 
L 5.515625 0 
L 5.515625 5.171875 
L 14.796875 5.171875 
L 14.796875 67.671875 
L 5.515625 67.671875 
L 5.515625 72.90625 
L 33.984375 72.90625 
L 33.984375 67.671875 
L 24.703125 67.671875 
z
" id="DejaVuSerif-73"/>
     <path d="M 47.90625 36.1875 
Q 51.3125 35.25 53.78125 33.03125 
Q 56.25 30.8125 58.203125 26.8125 
L 68.796875 5.171875 
L 77.6875 5.171875 
L 77.6875 0 
L 60.5 0 
L 49.125 23.1875 
Q 45.84375 29.9375 43.109375 31.90625 
Q 40.375 33.890625 35.59375 33.890625 
L 24.703125 33.890625 
L 24.703125 5.171875 
L 35.015625 5.171875 
L 35.015625 0 
L 5.515625 0 
L 5.515625 5.171875 
L 14.796875 5.171875 
L 14.796875 67.671875 
L 5.515625 67.671875 
L 5.515625 72.90625 
L 42.484375 72.90625 
Q 53.125 72.90625 58.90625 67.828125 
Q 64.703125 62.75 64.703125 53.421875 
Q 64.703125 45.90625 60.46875 41.578125 
Q 56.25 37.25 47.90625 36.1875 
z
M 24.703125 39.109375 
L 39.109375 39.109375 
Q 46.484375 39.109375 50 42.59375 
Q 53.515625 46.09375 53.515625 53.421875 
Q 53.515625 60.75 50 64.203125 
Q 46.484375 67.671875 39.109375 67.671875 
L 24.703125 67.671875 
z
" id="DejaVuSerif-82"/>
     <path d="M 24.703125 37.109375 
L 37.59375 37.109375 
Q 44.875 37.109375 48.671875 41.03125 
Q 52.484375 44.96875 52.484375 52.390625 
Q 52.484375 59.859375 48.671875 63.765625 
Q 44.875 67.671875 37.59375 67.671875 
L 24.703125 67.671875 
z
M 5.515625 0 
L 5.515625 5.171875 
L 14.796875 5.171875 
L 14.796875 67.671875 
L 5.515625 67.671875 
L 5.515625 72.90625 
L 39.984375 72.90625 
Q 50.921875 72.90625 57.3125 67.359375 
Q 63.71875 61.8125 63.71875 52.390625 
Q 63.71875 43.015625 57.3125 37.453125 
Q 50.921875 31.890625 39.984375 31.890625 
L 24.703125 31.890625 
L 24.703125 5.171875 
L 35.984375 5.171875 
L 35.984375 0 
z
" id="DejaVuSerif-80"/>
     <path d="M 5.515625 0 
L 5.515625 5.171875 
L 14.796875 5.171875 
L 14.796875 67.671875 
L 5.515625 67.671875 
L 5.515625 72.90625 
L 65.1875 72.90625 
L 65.1875 56.6875 
L 59.1875 56.6875 
L 59.1875 66.890625 
L 24.703125 66.890625 
L 24.703125 42.484375 
L 49.609375 42.484375 
L 49.609375 51.609375 
L 55.609375 51.609375 
L 55.609375 27.390625 
L 49.609375 27.390625 
L 49.609375 36.53125 
L 24.703125 36.53125 
L 24.703125 5.171875 
L 36.375 5.171875 
L 36.375 0 
z
" id="DejaVuSerif-70"/>
    </defs>
    <g transform="translate(269.437313 19.965375)scale(0.168 -0.168)">
     <use xlink:href="#DejaVuSerif-76"/>
     <use x="66.40625" xlink:href="#DejaVuSerif-111"/>
     <use x="126.611328" xlink:href="#DejaVuSerif-110"/>
     <use x="191.015625" xlink:href="#DejaVuSerif-103"/>
     <use x="255.029297" xlink:href="#DejaVuSerif-45"/>
     <use x="288.771484" xlink:href="#DejaVuSerif-84"/>
     <use x="355.361328" xlink:href="#DejaVuSerif-101"/>
     <use x="414.541016" xlink:href="#DejaVuSerif-114"/>
     <use x="462.34375" xlink:href="#DejaVuSerif-109"/>
     <use x="557.167969" xlink:href="#DejaVuSerif-32"/>
     <use x="588.955078" xlink:href="#DejaVuSerif-65"/>
     <use x="661.171875" xlink:href="#DejaVuSerif-100"/>
     <use x="725.185547" xlink:href="#DejaVuSerif-118"/>
     <use x="781.679688" xlink:href="#DejaVuSerif-97"/>
     <use x="841.298828" xlink:href="#DejaVuSerif-110"/>
     <use x="905.703125" xlink:href="#DejaVuSerif-99"/>
     <use x="961.708984" xlink:href="#DejaVuSerif-101"/>
     <use x="1020.888672" xlink:href="#DejaVuSerif-100"/>
     <use x="1084.902344" xlink:href="#DejaVuSerif-32"/>
     <use x="1116.689453" xlink:href="#DejaVuSerif-83"/>
     <use x="1185.195312" xlink:href="#DejaVuSerif-73"/>
     <use x="1224.697266" xlink:href="#DejaVuSerif-82"/>
     <use x="1299.990234" xlink:href="#DejaVuSerif-32"/>
     <use x="1331.777344" xlink:href="#DejaVuSerif-77"/>
     <use x="1434.169922" xlink:href="#DejaVuSerif-111"/>
     <use x="1494.375" xlink:href="#DejaVuSerif-100"/>
     <use x="1558.388672" xlink:href="#DejaVuSerif-101"/>
     <use x="1617.568359" xlink:href="#DejaVuSerif-108"/>
     <use x="1649.550781" xlink:href="#DejaVuSerif-32"/>
     <use x="1681.337891" xlink:href="#DejaVuSerif-80"/>
     <use x="1748.623047" xlink:href="#DejaVuSerif-114"/>
     <use x="1796.425781" xlink:href="#DejaVuSerif-101"/>
     <use x="1855.605469" xlink:href="#DejaVuSerif-100"/>
     <use x="1919.619141" xlink:href="#DejaVuSerif-105"/>
     <use x="1951.601562" xlink:href="#DejaVuSerif-99"/>
     <use x="2007.607422" xlink:href="#DejaVuSerif-116"/>
     <use x="2047.792969" xlink:href="#DejaVuSerif-105"/>
     <use x="2079.775391" xlink:href="#DejaVuSerif-111"/>
     <use x="2139.980469" xlink:href="#DejaVuSerif-110"/>
     <use x="2204.384766" xlink:href="#DejaVuSerif-115"/>
     <use x="2255.703125" xlink:href="#DejaVuSerif-32"/>
     <use x="2287.490234" xlink:href="#DejaVuSerif-45"/>
     <use x="2321.279297" xlink:href="#DejaVuSerif-32"/>
     <use x="2353.066406" xlink:href="#DejaVuSerif-48"/>
     <use x="2416.689453" xlink:href="#DejaVuSerif-46"/>
     <use x="2448.476562" xlink:href="#DejaVuSerif-55"/>
     <use x="2512.099609" xlink:href="#DejaVuSerif-32"/>
     <use x="2543.886719" xlink:href="#DejaVuSerif-84"/>
     <use x="2610.585938" xlink:href="#DejaVuSerif-114"/>
     <use x="2658.388672" xlink:href="#DejaVuSerif-97"/>
     <use x="2718.007812" xlink:href="#DejaVuSerif-110"/>
     <use x="2782.412109" xlink:href="#DejaVuSerif-115"/>
     <use x="2833.730469" xlink:href="#DejaVuSerif-109"/>
     <use x="2928.554688" xlink:href="#DejaVuSerif-105"/>
     <use x="2960.537109" xlink:href="#DejaVuSerif-115"/>
     <use x="3011.855469" xlink:href="#DejaVuSerif-115"/>
     <use x="3063.173828" xlink:href="#DejaVuSerif-105"/>
     <use x="3095.15625" xlink:href="#DejaVuSerif-111"/>
     <use x="3155.361328" xlink:href="#DejaVuSerif-110"/>
     <use x="3219.765625" xlink:href="#DejaVuSerif-32"/>
     <use x="3251.552734" xlink:href="#DejaVuSerif-70"/>
     <use x="3320.84375" xlink:href="#DejaVuSerif-97"/>
     <use x="3380.462891" xlink:href="#DejaVuSerif-99"/>
     <use x="3436.46875" xlink:href="#DejaVuSerif-116"/>
     <use x="3476.654297" xlink:href="#DejaVuSerif-111"/>
     <use x="3536.859375" xlink:href="#DejaVuSerif-114"/>
    </g>
   </g>
   <g id="legend_1">
    <g id="patch_7">
     <path d="M 853.24375 160.660687 
L 1062.948438 160.660687 
Q 1065.748438 160.660687 1065.748438 157.860687 
L 1065.748438 35.765375 
Q 1065.748438 32.965375 1062.948438 32.965375 
L 853.24375 32.965375 
Q 850.44375 32.965375 850.44375 35.765375 
L 850.44375 157.860687 
Q 850.44375 160.660687 853.24375 160.660687 
z
" style="fill:#ffffff;opacity:0.8;stroke:#cccccc;stroke-linejoin:miter;"/>
    </g>
    <g id="line2d_45">
     <path d="M 856.04375 44.303187 
L 884.04375 44.303187 
" style="fill:none;stroke:#ffa500;stroke-linecap:square;stroke-width:1.5;"/>
    </g>
    <g id="line2d_46"/>
    <g id="text_23">
     <!-- Susceptible Estimate -->
     <defs>
      <path d="M 20.515625 28.515625 
L 20.515625 23.390625 
Q 20.515625 14.015625 24.09375 9.109375 
Q 27.6875 4.203125 34.515625 4.203125 
Q 41.40625 4.203125 44.9375 9.71875 
Q 48.484375 15.234375 48.484375 25.984375 
Q 48.484375 36.765625 44.9375 42.234375 
Q 41.40625 47.703125 34.515625 47.703125 
Q 27.6875 47.703125 24.09375 42.765625 
Q 20.515625 37.84375 20.515625 28.515625 
z
M 11.53125 46.6875 
L 2.875 46.6875 
L 2.875 51.90625 
L 20.515625 51.90625 
L 20.515625 43.796875 
Q 23.140625 48.6875 27.21875 51 
Q 31.296875 53.328125 37.3125 53.328125 
Q 46.875 53.328125 52.921875 45.75 
Q 58.984375 38.1875 58.984375 25.984375 
Q 58.984375 13.765625 52.921875 6.171875 
Q 46.875 -1.421875 37.3125 -1.421875 
Q 31.296875 -1.421875 27.21875 0.890625 
Q 23.140625 3.21875 20.515625 8.109375 
L 20.515625 -15.578125 
L 29 -15.578125 
L 29 -20.796875 
L 2.875 -20.796875 
L 2.875 -15.578125 
L 11.53125 -15.578125 
z
" id="DejaVuSerif-112"/>
      <path d="M 11.53125 5.171875 
L 11.53125 70.796875 
L 2.875 70.796875 
L 2.875 75.984375 
L 20.515625 75.984375 
L 20.515625 43.796875 
Q 23.140625 48.6875 27.21875 51 
Q 31.296875 53.328125 37.3125 53.328125 
Q 46.875 53.328125 52.921875 45.75 
Q 58.984375 38.1875 58.984375 25.984375 
Q 58.984375 13.765625 52.921875 6.171875 
Q 46.875 -1.421875 37.3125 -1.421875 
Q 31.296875 -1.421875 27.21875 0.890625 
Q 23.140625 3.21875 20.515625 8.109375 
L 20.515625 0 
L 2.875 0 
L 2.875 5.171875 
z
M 20.515625 23.390625 
Q 20.515625 14.015625 24.09375 9.109375 
Q 27.6875 4.203125 34.515625 4.203125 
Q 41.40625 4.203125 44.9375 9.71875 
Q 48.484375 15.234375 48.484375 25.984375 
Q 48.484375 36.765625 44.9375 42.234375 
Q 41.40625 47.703125 34.515625 47.703125 
Q 27.6875 47.703125 24.09375 42.765625 
Q 20.515625 37.84375 20.515625 28.515625 
z
" id="DejaVuSerif-98"/>
      <path d="M 5.515625 0 
L 5.515625 5.171875 
L 14.796875 5.171875 
L 14.796875 67.671875 
L 5.515625 67.671875 
L 5.515625 72.90625 
L 64.203125 72.90625 
L 64.203125 56.6875 
L 58.203125 56.6875 
L 58.203125 66.890625 
L 24.703125 66.890625 
L 24.703125 42.484375 
L 48.578125 42.484375 
L 48.578125 51.609375 
L 54.59375 51.609375 
L 54.59375 27.390625 
L 48.578125 27.390625 
L 48.578125 36.53125 
L 24.703125 36.53125 
L 24.703125 6 
L 58.984375 6 
L 58.984375 16.21875 
L 64.984375 16.21875 
L 64.984375 0 
z
" id="DejaVuSerif-69"/>
     </defs>
     <g transform="translate(895.24375 49.203187)scale(0.14 -0.14)">
      <use xlink:href="#DejaVuSerif-83"/>
      <use x="68.505859" xlink:href="#DejaVuSerif-117"/>
      <use x="132.910156" xlink:href="#DejaVuSerif-115"/>
      <use x="184.228516" xlink:href="#DejaVuSerif-99"/>
      <use x="240.234375" xlink:href="#DejaVuSerif-101"/>
      <use x="299.414062" xlink:href="#DejaVuSerif-112"/>
      <use x="363.427734" xlink:href="#DejaVuSerif-116"/>
      <use x="403.613281" xlink:href="#DejaVuSerif-105"/>
      <use x="435.595703" xlink:href="#DejaVuSerif-98"/>
      <use x="499.609375" xlink:href="#DejaVuSerif-108"/>
      <use x="531.591797" xlink:href="#DejaVuSerif-101"/>
      <use x="590.771484" xlink:href="#DejaVuSerif-32"/>
      <use x="622.558594" xlink:href="#DejaVuSerif-69"/>
      <use x="695.556641" xlink:href="#DejaVuSerif-115"/>
      <use x="746.875" xlink:href="#DejaVuSerif-116"/>
      <use x="787.060547" xlink:href="#DejaVuSerif-105"/>
      <use x="819.042969" xlink:href="#DejaVuSerif-109"/>
      <use x="913.867188" xlink:href="#DejaVuSerif-97"/>
      <use x="973.486328" xlink:href="#DejaVuSerif-116"/>
      <use x="1013.671875" xlink:href="#DejaVuSerif-101"/>
     </g>
    </g>
    <g id="line2d_47">
     <path d="M 856.04375 64.852562 
L 884.04375 64.852562 
" style="fill:none;stroke:#ff0000;stroke-linecap:square;stroke-width:1.5;"/>
    </g>
    <g id="line2d_48"/>
    <g id="text_24">
     <!-- Infected Estimate -->
     <defs>
      <path d="M 43.015625 63.71875 
L 38.28125 63.71875 
Q 38.234375 67.390625 36.203125 69.28125 
Q 34.1875 71.1875 30.328125 71.1875 
Q 25.296875 71.1875 23.234375 68.421875 
Q 21.1875 65.671875 21.1875 58.59375 
L 21.1875 51.90625 
L 35.6875 51.90625 
L 35.6875 46.6875 
L 21.1875 46.6875 
L 21.1875 5.171875 
L 32.71875 5.171875 
L 32.71875 0 
L 3.609375 0 
L 3.609375 5.171875 
L 12.203125 5.171875 
L 12.203125 46.6875 
L 3.609375 46.6875 
L 3.609375 51.90625 
L 12.203125 51.90625 
L 12.203125 58.40625 
Q 12.203125 67.09375 16.71875 71.53125 
Q 21.234375 75.984375 29.984375 75.984375 
Q 33.25 75.984375 36.515625 75.390625 
Q 39.796875 74.8125 43.015625 73.578125 
z
" id="DejaVuSerif-102"/>
     </defs>
     <g transform="translate(895.24375 69.752562)scale(0.14 -0.14)">
      <use xlink:href="#DejaVuSerif-73"/>
      <use x="39.501953" xlink:href="#DejaVuSerif-110"/>
      <use x="103.90625" xlink:href="#DejaVuSerif-102"/>
      <use x="140.917969" xlink:href="#DejaVuSerif-101"/>
      <use x="200.097656" xlink:href="#DejaVuSerif-99"/>
      <use x="256.103516" xlink:href="#DejaVuSerif-116"/>
      <use x="296.289062" xlink:href="#DejaVuSerif-101"/>
      <use x="355.46875" xlink:href="#DejaVuSerif-100"/>
      <use x="419.482422" xlink:href="#DejaVuSerif-32"/>
      <use x="451.269531" xlink:href="#DejaVuSerif-69"/>
      <use x="524.267578" xlink:href="#DejaVuSerif-115"/>
      <use x="575.585938" xlink:href="#DejaVuSerif-116"/>
      <use x="615.771484" xlink:href="#DejaVuSerif-105"/>
      <use x="647.753906" xlink:href="#DejaVuSerif-109"/>
      <use x="742.578125" xlink:href="#DejaVuSerif-97"/>
      <use x="802.197266" xlink:href="#DejaVuSerif-116"/>
      <use x="842.382812" xlink:href="#DejaVuSerif-101"/>
     </g>
    </g>
    <g id="line2d_49">
     <path d="M 856.04375 85.401937 
L 884.04375 85.401937 
" style="fill:none;stroke:#008000;stroke-linecap:square;stroke-width:1.5;"/>
    </g>
    <g id="line2d_50"/>
    <g id="text_25">
     <!-- Recovered Estimate -->
     <g transform="translate(895.24375 90.301937)scale(0.14 -0.14)">
      <use xlink:href="#DejaVuSerif-82"/>
      <use x="75.292969" xlink:href="#DejaVuSerif-101"/>
      <use x="134.472656" xlink:href="#DejaVuSerif-99"/>
      <use x="190.478516" xlink:href="#DejaVuSerif-111"/>
      <use x="250.683594" xlink:href="#DejaVuSerif-118"/>
      <use x="307.177734" xlink:href="#DejaVuSerif-101"/>
      <use x="366.357422" xlink:href="#DejaVuSerif-114"/>
      <use x="414.160156" xlink:href="#DejaVuSerif-101"/>
      <use x="473.339844" xlink:href="#DejaVuSerif-100"/>
      <use x="537.353516" xlink:href="#DejaVuSerif-32"/>
      <use x="569.140625" xlink:href="#DejaVuSerif-69"/>
      <use x="642.138672" xlink:href="#DejaVuSerif-115"/>
      <use x="693.457031" xlink:href="#DejaVuSerif-116"/>
      <use x="733.642578" xlink:href="#DejaVuSerif-105"/>
      <use x="765.625" xlink:href="#DejaVuSerif-109"/>
      <use x="860.449219" xlink:href="#DejaVuSerif-97"/>
      <use x="920.068359" xlink:href="#DejaVuSerif-116"/>
      <use x="960.253906" xlink:href="#DejaVuSerif-101"/>
     </g>
    </g>
    <g id="line2d_51">
     <path d="M 856.04375 105.951312 
L 884.04375 105.951312 
" style="fill:none;stroke:#000000;stroke-linecap:square;stroke-width:1.5;"/>
    </g>
    <g id="line2d_52"/>
    <g id="text_26">
     <!-- Dead Estimate -->
     <g transform="translate(895.24375 110.851312)scale(0.14 -0.14)">
      <use xlink:href="#DejaVuSerif-68"/>
      <use x="80.175781" xlink:href="#DejaVuSerif-101"/>
      <use x="139.355469" xlink:href="#DejaVuSerif-97"/>
      <use x="198.974609" xlink:href="#DejaVuSerif-100"/>
      <use x="262.988281" xlink:href="#DejaVuSerif-32"/>
      <use x="294.775391" xlink:href="#DejaVuSerif-69"/>
      <use x="367.773438" xlink:href="#DejaVuSerif-115"/>
      <use x="419.091797" xlink:href="#DejaVuSerif-116"/>
      <use x="459.277344" xlink:href="#DejaVuSerif-105"/>
      <use x="491.259766" xlink:href="#DejaVuSerif-109"/>
      <use x="586.083984" xlink:href="#DejaVuSerif-97"/>
      <use x="645.703125" xlink:href="#DejaVuSerif-116"/>
      <use x="685.888672" xlink:href="#DejaVuSerif-101"/>
     </g>
    </g>
    <g id="line2d_53">
     <path d="M 856.04375 126.500687 
L 884.04375 126.500687 
" style="fill:none;stroke:#708090;stroke-dasharray:2,3.3;stroke-dashoffset:0;stroke-width:2;"/>
    </g>
    <g id="line2d_54"/>
    <g id="text_27">
     <!-- Projection Start Date -->
     <defs>
      <path d="M 10.015625 68.015625 
Q 10.015625 70.265625 11.640625 71.921875 
Q 13.28125 73.578125 15.578125 73.578125 
Q 17.828125 73.578125 19.453125 71.921875 
Q 21.09375 70.265625 21.09375 68.015625 
Q 21.09375 65.71875 19.5 64.109375 
Q 17.921875 62.5 15.578125 62.5 
Q 13.28125 62.5 11.640625 64.109375 
Q 10.015625 65.71875 10.015625 68.015625 
z
M 12.203125 46.6875 
L 3.71875 46.6875 
L 3.71875 51.90625 
L 21.1875 51.90625 
L 21.1875 -5.078125 
Q 21.1875 -13.09375 16.421875 -17.65625 
Q 11.671875 -22.21875 3.328125 -22.21875 
Q -0.203125 -22.21875 -3.390625 -21.40625 
Q -6.59375 -20.609375 -9.625 -19 
L -9.625 -8.296875 
L -4.984375 -8.296875 
Q -4.640625 -12.984375 -2.5625 -15.1875 
Q -0.484375 -17.390625 3.515625 -17.390625 
Q 7.953125 -17.390625 10.078125 -14.375 
Q 12.203125 -11.375 12.203125 -5.078125 
z
" id="DejaVuSerif-106"/>
     </defs>
     <g transform="translate(895.24375 131.400687)scale(0.14 -0.14)">
      <use xlink:href="#DejaVuSerif-80"/>
      <use x="67.285156" xlink:href="#DejaVuSerif-114"/>
      <use x="115.087891" xlink:href="#DejaVuSerif-111"/>
      <use x="175.292969" xlink:href="#DejaVuSerif-106"/>
      <use x="206.298828" xlink:href="#DejaVuSerif-101"/>
      <use x="265.478516" xlink:href="#DejaVuSerif-99"/>
      <use x="321.484375" xlink:href="#DejaVuSerif-116"/>
      <use x="361.669922" xlink:href="#DejaVuSerif-105"/>
      <use x="393.652344" xlink:href="#DejaVuSerif-111"/>
      <use x="453.857422" xlink:href="#DejaVuSerif-110"/>
      <use x="518.261719" xlink:href="#DejaVuSerif-32"/>
      <use x="550.048828" xlink:href="#DejaVuSerif-83"/>
      <use x="618.554688" xlink:href="#DejaVuSerif-116"/>
      <use x="658.740234" xlink:href="#DejaVuSerif-97"/>
      <use x="718.359375" xlink:href="#DejaVuSerif-114"/>
      <use x="766.162109" xlink:href="#DejaVuSerif-116"/>
      <use x="806.347656" xlink:href="#DejaVuSerif-32"/>
      <use x="838.134766" xlink:href="#DejaVuSerif-68"/>
      <use x="918.310547" xlink:href="#DejaVuSerif-97"/>
      <use x="977.929688" xlink:href="#DejaVuSerif-116"/>
      <use x="1018.115234" xlink:href="#DejaVuSerif-101"/>
     </g>
    </g>
    <g id="line2d_55">
     <path d="M 856.04375 147.249125 
L 884.04375 147.249125 
" style="fill:none;stroke:#000000;stroke-dasharray:7.4,3.2;stroke-dashoffset:0;stroke-width:2;"/>
    </g>
    <g id="line2d_56"/>
    <g id="text_28">
     <!-- Total Dead = 224853.0 -->
     <defs>
      <path d="M 10.59375 45.21875 
L 73.1875 45.21875 
L 73.1875 37.40625 
L 10.59375 37.40625 
z
M 10.59375 25.296875 
L 73.1875 25.296875 
L 73.1875 17.484375 
L 10.59375 17.484375 
z
" id="DejaVuSerif-61"/>
     </defs>
     <g transform="translate(895.24375 152.149125)scale(0.14 -0.14)">
      <use xlink:href="#DejaVuSerif-84"/>
      <use x="66.589844" xlink:href="#DejaVuSerif-111"/>
      <use x="126.794922" xlink:href="#DejaVuSerif-116"/>
      <use x="166.980469" xlink:href="#DejaVuSerif-97"/>
      <use x="226.599609" xlink:href="#DejaVuSerif-108"/>
      <use x="258.582031" xlink:href="#DejaVuSerif-32"/>
      <use x="290.369141" xlink:href="#DejaVuSerif-68"/>
      <use x="370.544922" xlink:href="#DejaVuSerif-101"/>
      <use x="429.724609" xlink:href="#DejaVuSerif-97"/>
      <use x="489.34375" xlink:href="#DejaVuSerif-100"/>
      <use x="553.357422" xlink:href="#DejaVuSerif-32"/>
      <use x="585.144531" xlink:href="#DejaVuSerif-61"/>
      <use x="668.933594" xlink:href="#DejaVuSerif-32"/>
      <use x="700.720703" xlink:href="#DejaVuSerif-50"/>
      <use x="764.34375" xlink:href="#DejaVuSerif-50"/>
      <use x="827.966797" xlink:href="#DejaVuSerif-52"/>
      <use x="891.589844" xlink:href="#DejaVuSerif-56"/>
      <use x="955.212891" xlink:href="#DejaVuSerif-53"/>
      <use x="1018.835938" xlink:href="#DejaVuSerif-51"/>
      <use x="1082.458984" xlink:href="#DejaVuSerif-46"/>
      <use x="1114.246094" xlink:href="#DejaVuSerif-48"/>
     </g>
    </g>
   </g>
  </g>
 </g>
 <defs>
  <clipPath id="pce960fc12b">
   <rect height="652.32" width="1004.4" x="68.348438" y="25.965375"/>
  </clipPath>
 </defs>
</svg>
