<?xml version="1.0" encoding="utf-8" standalone="no"?>
<!DOCTYPE svg PUBLIC "-//W3C//DTD SVG 1.1//EN"
  "http://www.w3.org/Graphics/SVG/1.1/DTD/svg11.dtd">
<!-- Created with matplotlib (https://matplotlib.org/) -->
<svg height="723.584125pt" version="1.1" viewBox="0 0 1078.979375 723.584125" width="1078.979375pt" xmlns="http://www.w3.org/2000/svg" xmlns:xlink="http://www.w3.org/1999/xlink">
 <defs>
  <style type="text/css">
*{stroke-linecap:butt;stroke-linejoin:round;}
  </style>
 </defs>
 <g id="figure_1">
  <g id="patch_1">
   <path d="M 0 723.584125 
L 1078.979375 723.584125 
L 1078.979375 0 
L 0 0 
z
" style="fill:none;"/>
  </g>
  <g id="axes_1">
   <g id="patch_2">
    <path d="M 67.379375 678.285375 
L 1071.779375 678.285375 
L 1071.779375 25.965375 
L 67.379375 25.965375 
z
" style="fill:#ffffff;"/>
   </g>
   <g id="matplotlib.axis_1">
    <g id="xtick_1">
     <g id="line2d_1">
      <path clip-path="url(#pbad37279bc)" d="M 67.379375 678.285375 
L 67.379375 25.965375 
" style="fill:none;stroke:#b0b0b0;stroke-linecap:square;stroke-width:0.8;"/>
     </g>
     <g id="line2d_2">
      <defs>
       <path d="M 0 0 
L 0 3.5 
" id="ma405a49bbf" style="stroke:#000000;stroke-width:0.8;"/>
      </defs>
      <g>
       <use style="stroke:#000000;stroke-width:0.8;" x="67.379375" xlink:href="#ma405a49bbf" y="678.285375"/>
      </g>
     </g>
     <g id="text_1">
      <!-- 2020-01-31 -->
      <defs>
       <path d="M 12.796875 55.515625 
L 7.328125 55.515625 
L 7.328125 68.5 
Q 12.546875 71.296875 17.84375 72.75 
Q 23.140625 74.21875 28.21875 74.21875 
Q 39.59375 74.21875 46.1875 68.703125 
Q 52.78125 63.1875 52.78125 53.71875 
Q 52.78125 43.015625 37.84375 28.125 
Q 36.671875 27 36.078125 26.421875 
L 17.671875 8.015625 
L 48.09375 8.015625 
L 48.09375 17 
L 53.8125 17 
L 53.8125 0 
L 6.78125 0 
L 6.78125 5.328125 
L 28.90625 27.390625 
Q 36.234375 34.71875 39.359375 40.84375 
Q 42.484375 46.96875 42.484375 53.71875 
Q 42.484375 61.078125 38.640625 65.234375 
Q 34.8125 69.390625 28.078125 69.390625 
Q 21.09375 69.390625 17.28125 65.921875 
Q 13.484375 62.453125 12.796875 55.515625 
z
" id="DejaVuSerif-50"/>
       <path d="M 31.78125 3.421875 
Q 39.265625 3.421875 42.96875 11.625 
Q 46.6875 19.828125 46.6875 36.375 
Q 46.6875 52.984375 42.96875 61.1875 
Q 39.265625 69.390625 31.78125 69.390625 
Q 24.3125 69.390625 20.59375 61.1875 
Q 16.890625 52.984375 16.890625 36.375 
Q 16.890625 19.828125 20.59375 11.625 
Q 24.3125 3.421875 31.78125 3.421875 
z
M 31.78125 -1.421875 
Q 19.921875 -1.421875 13.25 8.53125 
Q 6.59375 18.5 6.59375 36.375 
Q 6.59375 54.296875 13.25 64.25 
Q 19.921875 74.21875 31.78125 74.21875 
Q 43.703125 74.21875 50.34375 64.25 
Q 56.984375 54.296875 56.984375 36.375 
Q 56.984375 18.5 50.34375 8.53125 
Q 43.703125 -1.421875 31.78125 -1.421875 
z
" id="DejaVuSerif-48"/>
       <path d="M 4.390625 30.609375 
L 29.390625 30.609375 
L 29.390625 23 
L 4.390625 23 
z
" id="DejaVuSerif-45"/>
       <path d="M 14.203125 0 
L 14.203125 5.171875 
L 26.90625 5.171875 
L 26.90625 65.828125 
L 12.203125 56.296875 
L 12.203125 62.703125 
L 29.984375 74.21875 
L 36.71875 74.21875 
L 36.71875 5.171875 
L 49.421875 5.171875 
L 49.421875 0 
z
" id="DejaVuSerif-49"/>
       <path d="M 9.71875 69.828125 
Q 15.4375 71.96875 20.671875 73.09375 
Q 25.921875 74.21875 30.515625 74.21875 
Q 41.21875 74.21875 47.21875 69.59375 
Q 53.21875 64.984375 53.21875 56.78125 
Q 53.21875 50.203125 49.0625 45.78125 
Q 44.921875 41.359375 37.3125 39.796875 
Q 46.296875 38.53125 51.25 33.28125 
Q 56.203125 28.03125 56.203125 19.671875 
Q 56.203125 9.46875 49.34375 4.015625 
Q 42.484375 -1.421875 29.59375 -1.421875 
Q 23.875 -1.421875 18.421875 -0.1875 
Q 12.984375 1.03125 7.625 3.515625 
L 7.625 17.671875 
L 13.09375 17.671875 
Q 13.578125 10.640625 17.828125 7.03125 
Q 22.078125 3.421875 29.78125 3.421875 
Q 37.25 3.421875 41.578125 7.734375 
Q 45.90625 12.0625 45.90625 19.578125 
Q 45.90625 28.171875 41.453125 32.59375 
Q 37.015625 37.015625 28.421875 37.015625 
L 23.78125 37.015625 
L 23.78125 42 
L 26.21875 42 
Q 34.765625 42 39.03125 45.53125 
Q 43.3125 49.078125 43.3125 56.203125 
Q 43.3125 62.59375 39.796875 65.984375 
Q 36.28125 69.390625 29.6875 69.390625 
Q 23.09375 69.390625 19.453125 66.265625 
Q 15.828125 63.140625 15.1875 56.984375 
L 9.71875 56.984375 
z
" id="DejaVuSerif-51"/>
      </defs>
      <g transform="translate(27.017813 695.923187)scale(0.14 -0.14)">
       <use xlink:href="#DejaVuSerif-50"/>
       <use x="63.623047" xlink:href="#DejaVuSerif-48"/>
       <use x="127.246094" xlink:href="#DejaVuSerif-50"/>
       <use x="190.869141" xlink:href="#DejaVuSerif-48"/>
       <use x="254.492188" xlink:href="#DejaVuSerif-45"/>
       <use x="288.28125" xlink:href="#DejaVuSerif-48"/>
       <use x="351.904297" xlink:href="#DejaVuSerif-49"/>
       <use x="415.527344" xlink:href="#DejaVuSerif-45"/>
       <use x="449.316406" xlink:href="#DejaVuSerif-51"/>
       <use x="512.939453" xlink:href="#DejaVuSerif-49"/>
      </g>
     </g>
    </g>
    <g id="xtick_2">
     <g id="line2d_3">
      <path clip-path="url(#pbad37279bc)" d="M 204.343011 678.285375 
L 204.343011 25.965375 
" style="fill:none;stroke:#b0b0b0;stroke-linecap:square;stroke-width:0.8;"/>
     </g>
     <g id="line2d_4">
      <g>
       <use style="stroke:#000000;stroke-width:0.8;" x="204.343011" xlink:href="#ma405a49bbf" y="678.285375"/>
      </g>
     </g>
     <g id="text_2">
      <!-- 2020-03-25 -->
      <defs>
       <path d="M 50.296875 72.90625 
L 50.296875 64.890625 
L 16.890625 64.890625 
L 16.890625 44 
Q 19.4375 45.75 22.828125 46.625 
Q 26.21875 47.515625 30.421875 47.515625 
Q 42.234375 47.515625 49.0625 40.96875 
Q 55.90625 34.421875 55.90625 23.09375 
Q 55.90625 11.53125 49 5.046875 
Q 42.09375 -1.421875 29.59375 -1.421875 
Q 24.5625 -1.421875 19.28125 -0.1875 
Q 14.015625 1.03125 8.5 3.515625 
L 8.5 17.671875 
L 14.015625 17.671875 
Q 14.453125 10.75 18.421875 7.078125 
Q 22.40625 3.421875 29.59375 3.421875 
Q 37.3125 3.421875 41.453125 8.5 
Q 45.609375 13.578125 45.609375 23.09375 
Q 45.609375 32.5625 41.484375 37.609375 
Q 37.359375 42.671875 29.59375 42.671875 
Q 25.203125 42.671875 21.84375 41.109375 
Q 18.5 39.546875 15.921875 36.28125 
L 11.71875 36.28125 
L 11.71875 72.90625 
z
" id="DejaVuSerif-53"/>
      </defs>
      <g transform="translate(163.981449 695.923187)scale(0.14 -0.14)">
       <use xlink:href="#DejaVuSerif-50"/>
       <use x="63.623047" xlink:href="#DejaVuSerif-48"/>
       <use x="127.246094" xlink:href="#DejaVuSerif-50"/>
       <use x="190.869141" xlink:href="#DejaVuSerif-48"/>
       <use x="254.492188" xlink:href="#DejaVuSerif-45"/>
       <use x="288.28125" xlink:href="#DejaVuSerif-48"/>
       <use x="351.904297" xlink:href="#DejaVuSerif-51"/>
       <use x="415.527344" xlink:href="#DejaVuSerif-45"/>
       <use x="449.316406" xlink:href="#DejaVuSerif-50"/>
       <use x="512.939453" xlink:href="#DejaVuSerif-53"/>
      </g>
     </g>
    </g>
    <g id="xtick_3">
     <g id="line2d_5">
      <path clip-path="url(#pbad37279bc)" d="M 341.306648 678.285375 
L 341.306648 25.965375 
" style="fill:none;stroke:#b0b0b0;stroke-linecap:square;stroke-width:0.8;"/>
     </g>
     <g id="line2d_6">
      <g>
       <use style="stroke:#000000;stroke-width:0.8;" x="341.306648" xlink:href="#ma405a49bbf" y="678.285375"/>
      </g>
     </g>
     <g id="text_3">
      <!-- 2020-04-24 -->
      <defs>
       <path d="M 34.90625 24.703125 
L 34.90625 63.484375 
L 10.015625 24.703125 
z
M 56.390625 0 
L 23.1875 0 
L 23.1875 5.171875 
L 34.90625 5.171875 
L 34.90625 19.484375 
L 3.078125 19.484375 
L 3.078125 24.8125 
L 35.015625 74.21875 
L 44.671875 74.21875 
L 44.671875 24.703125 
L 58.59375 24.703125 
L 58.59375 19.484375 
L 44.671875 19.484375 
L 44.671875 5.171875 
L 56.390625 5.171875 
z
" id="DejaVuSerif-52"/>
      </defs>
      <g transform="translate(300.945085 695.923187)scale(0.14 -0.14)">
       <use xlink:href="#DejaVuSerif-50"/>
       <use x="63.623047" xlink:href="#DejaVuSerif-48"/>
       <use x="127.246094" xlink:href="#DejaVuSerif-50"/>
       <use x="190.869141" xlink:href="#DejaVuSerif-48"/>
       <use x="254.492188" xlink:href="#DejaVuSerif-45"/>
       <use x="288.28125" xlink:href="#DejaVuSerif-48"/>
       <use x="351.904297" xlink:href="#DejaVuSerif-52"/>
       <use x="415.527344" xlink:href="#DejaVuSerif-45"/>
       <use x="449.316406" xlink:href="#DejaVuSerif-50"/>
       <use x="512.939453" xlink:href="#DejaVuSerif-52"/>
      </g>
     </g>
    </g>
    <g id="xtick_4">
     <g id="line2d_7">
      <path clip-path="url(#pbad37279bc)" d="M 478.270284 678.285375 
L 478.270284 25.965375 
" style="fill:none;stroke:#b0b0b0;stroke-linecap:square;stroke-width:0.8;"/>
     </g>
     <g id="line2d_8">
      <g>
       <use style="stroke:#000000;stroke-width:0.8;" x="478.270284" xlink:href="#ma405a49bbf" y="678.285375"/>
      </g>
     </g>
     <g id="text_4">
      <!-- 2020-05-24 -->
      <g transform="translate(437.908722 695.923187)scale(0.14 -0.14)">
       <use xlink:href="#DejaVuSerif-50"/>
       <use x="63.623047" xlink:href="#DejaVuSerif-48"/>
       <use x="127.246094" xlink:href="#DejaVuSerif-50"/>
       <use x="190.869141" xlink:href="#DejaVuSerif-48"/>
       <use x="254.492188" xlink:href="#DejaVuSerif-45"/>
       <use x="288.28125" xlink:href="#DejaVuSerif-48"/>
       <use x="351.904297" xlink:href="#DejaVuSerif-53"/>
       <use x="415.527344" xlink:href="#DejaVuSerif-45"/>
       <use x="449.316406" xlink:href="#DejaVuSerif-50"/>
       <use x="512.939453" xlink:href="#DejaVuSerif-52"/>
      </g>
     </g>
    </g>
    <g id="xtick_5">
     <g id="line2d_9">
      <path clip-path="url(#pbad37279bc)" d="M 615.23392 678.285375 
L 615.23392 25.965375 
" style="fill:none;stroke:#b0b0b0;stroke-linecap:square;stroke-width:0.8;"/>
     </g>
     <g id="line2d_10">
      <g>
       <use style="stroke:#000000;stroke-width:0.8;" x="615.23392" xlink:href="#ma405a49bbf" y="678.285375"/>
      </g>
     </g>
     <g id="text_5">
      <!-- 2020-06-23 -->
      <defs>
       <path d="M 32.71875 3.421875 
Q 39.59375 3.421875 43.296875 8.46875 
Q 47.015625 13.53125 47.015625 23 
Q 47.015625 32.46875 43.296875 37.515625 
Q 39.59375 42.578125 32.71875 42.578125 
Q 25.734375 42.578125 22.0625 37.6875 
Q 18.40625 32.8125 18.40625 23.578125 
Q 18.40625 13.875 22.109375 8.640625 
Q 25.828125 3.421875 32.71875 3.421875 
z
M 16.796875 40.140625 
Q 20.125 43.796875 24.3125 45.59375 
Q 28.515625 47.40625 33.796875 47.40625 
Q 44.671875 47.40625 51 40.859375 
Q 57.328125 34.328125 57.328125 23 
Q 57.328125 11.921875 50.515625 5.25 
Q 43.703125 -1.421875 32.328125 -1.421875 
Q 19.96875 -1.421875 13.328125 7.78125 
Q 6.6875 17 6.6875 34.078125 
Q 6.6875 53.21875 14.546875 63.71875 
Q 22.40625 74.21875 36.71875 74.21875 
Q 40.578125 74.21875 44.828125 73.484375 
Q 49.078125 72.75 53.515625 71.296875 
L 53.515625 59.28125 
L 48 59.28125 
Q 47.40625 64.203125 44.234375 66.796875 
Q 41.0625 69.390625 35.6875 69.390625 
Q 26.21875 69.390625 21.578125 62.203125 
Q 16.9375 55.03125 16.796875 40.140625 
z
" id="DejaVuSerif-54"/>
      </defs>
      <g transform="translate(574.872358 695.923187)scale(0.14 -0.14)">
       <use xlink:href="#DejaVuSerif-50"/>
       <use x="63.623047" xlink:href="#DejaVuSerif-48"/>
       <use x="127.246094" xlink:href="#DejaVuSerif-50"/>
       <use x="190.869141" xlink:href="#DejaVuSerif-48"/>
       <use x="254.492188" xlink:href="#DejaVuSerif-45"/>
       <use x="288.28125" xlink:href="#DejaVuSerif-48"/>
       <use x="351.904297" xlink:href="#DejaVuSerif-54"/>
       <use x="415.527344" xlink:href="#DejaVuSerif-45"/>
       <use x="449.316406" xlink:href="#DejaVuSerif-50"/>
       <use x="512.939453" xlink:href="#DejaVuSerif-51"/>
      </g>
     </g>
    </g>
    <g id="xtick_6">
     <g id="line2d_11">
      <path clip-path="url(#pbad37279bc)" d="M 752.197557 678.285375 
L 752.197557 25.965375 
" style="fill:none;stroke:#b0b0b0;stroke-linecap:square;stroke-width:0.8;"/>
     </g>
     <g id="line2d_12">
      <g>
       <use style="stroke:#000000;stroke-width:0.8;" x="752.197557" xlink:href="#ma405a49bbf" y="678.285375"/>
      </g>
     </g>
     <g id="text_6">
      <!-- 2020-07-23 -->
      <defs>
       <path d="M 56.390625 67.921875 
L 27.875 0 
L 20.609375 0 
L 47.796875 64.890625 
L 14.109375 64.890625 
L 14.109375 55.90625 
L 8.40625 55.90625 
L 8.40625 72.90625 
L 56.390625 72.90625 
z
" id="DejaVuSerif-55"/>
      </defs>
      <g transform="translate(711.835994 695.923187)scale(0.14 -0.14)">
       <use xlink:href="#DejaVuSerif-50"/>
       <use x="63.623047" xlink:href="#DejaVuSerif-48"/>
       <use x="127.246094" xlink:href="#DejaVuSerif-50"/>
       <use x="190.869141" xlink:href="#DejaVuSerif-48"/>
       <use x="254.492188" xlink:href="#DejaVuSerif-45"/>
       <use x="288.28125" xlink:href="#DejaVuSerif-48"/>
       <use x="351.904297" xlink:href="#DejaVuSerif-55"/>
       <use x="415.527344" xlink:href="#DejaVuSerif-45"/>
       <use x="449.316406" xlink:href="#DejaVuSerif-50"/>
       <use x="512.939453" xlink:href="#DejaVuSerif-51"/>
      </g>
     </g>
    </g>
    <g id="xtick_7">
     <g id="line2d_13">
      <path clip-path="url(#pbad37279bc)" d="M 889.161193 678.285375 
L 889.161193 25.965375 
" style="fill:none;stroke:#b0b0b0;stroke-linecap:square;stroke-width:0.8;"/>
     </g>
     <g id="line2d_14">
      <g>
       <use style="stroke:#000000;stroke-width:0.8;" x="889.161193" xlink:href="#ma405a49bbf" y="678.285375"/>
      </g>
     </g>
     <g id="text_7">
      <!-- 2020-08-22 -->
      <defs>
       <path d="M 46.578125 19.921875 
Q 46.578125 27.734375 42.6875 32.046875 
Q 38.8125 36.375 31.78125 36.375 
Q 24.75 36.375 20.875 32.046875 
Q 17 27.734375 17 19.921875 
Q 17 12.0625 20.875 7.734375 
Q 24.75 3.421875 31.78125 3.421875 
Q 38.8125 3.421875 42.6875 7.734375 
Q 46.578125 12.0625 46.578125 19.921875 
z
M 44.578125 55.328125 
Q 44.578125 61.96875 41.203125 65.671875 
Q 37.84375 69.390625 31.78125 69.390625 
Q 25.78125 69.390625 22.390625 65.671875 
Q 19 61.96875 19 55.328125 
Q 19 48.640625 22.390625 44.921875 
Q 25.78125 41.21875 31.78125 41.21875 
Q 37.84375 41.21875 41.203125 44.921875 
Q 44.578125 48.640625 44.578125 55.328125 
z
M 39.3125 38.8125 
Q 47.609375 37.703125 52.25 32.6875 
Q 56.890625 27.6875 56.890625 19.921875 
Q 56.890625 9.671875 50.390625 4.125 
Q 43.890625 -1.421875 31.78125 -1.421875 
Q 19.734375 -1.421875 13.203125 4.125 
Q 6.6875 9.671875 6.6875 19.921875 
Q 6.6875 27.6875 11.328125 32.6875 
Q 15.96875 37.703125 24.3125 38.8125 
Q 16.9375 40.140625 13 44.40625 
Q 9.078125 48.6875 9.078125 55.328125 
Q 9.078125 64.109375 15.125 69.15625 
Q 21.1875 74.21875 31.78125 74.21875 
Q 42.390625 74.21875 48.4375 69.15625 
Q 54.5 64.109375 54.5 55.328125 
Q 54.5 48.6875 50.5625 44.40625 
Q 46.625 40.140625 39.3125 38.8125 
z
" id="DejaVuSerif-56"/>
      </defs>
      <g transform="translate(848.799631 695.923187)scale(0.14 -0.14)">
       <use xlink:href="#DejaVuSerif-50"/>
       <use x="63.623047" xlink:href="#DejaVuSerif-48"/>
       <use x="127.246094" xlink:href="#DejaVuSerif-50"/>
       <use x="190.869141" xlink:href="#DejaVuSerif-48"/>
       <use x="254.492188" xlink:href="#DejaVuSerif-45"/>
       <use x="288.28125" xlink:href="#DejaVuSerif-48"/>
       <use x="351.904297" xlink:href="#DejaVuSerif-56"/>
       <use x="415.527344" xlink:href="#DejaVuSerif-45"/>
       <use x="449.316406" xlink:href="#DejaVuSerif-50"/>
       <use x="512.939453" xlink:href="#DejaVuSerif-50"/>
      </g>
     </g>
    </g>
    <g id="xtick_8">
     <g id="line2d_15">
      <path clip-path="url(#pbad37279bc)" d="M 1026.12483 678.285375 
L 1026.12483 25.965375 
" style="fill:none;stroke:#b0b0b0;stroke-linecap:square;stroke-width:0.8;"/>
     </g>
     <g id="line2d_16">
      <g>
       <use style="stroke:#000000;stroke-width:0.8;" x="1026.12483" xlink:href="#ma405a49bbf" y="678.285375"/>
      </g>
     </g>
     <g id="text_8">
      <!-- 2020-09-21 -->
      <defs>
       <path d="M 46.78125 32.671875 
Q 43.5 29 39.25 27.1875 
Q 35.015625 25.390625 29.6875 25.390625 
Q 18.84375 25.390625 12.5625 31.9375 
Q 6.296875 38.484375 6.296875 49.8125 
Q 6.296875 60.890625 13.109375 67.546875 
Q 19.921875 74.21875 31.296875 74.21875 
Q 43.65625 74.21875 50.265625 65.015625 
Q 56.890625 55.8125 56.890625 38.71875 
Q 56.890625 19.578125 49.015625 9.078125 
Q 41.15625 -1.421875 26.90625 -1.421875 
Q 23.046875 -1.421875 18.796875 -0.6875 
Q 14.546875 0.046875 10.109375 1.515625 
L 10.109375 13.625 
L 15.578125 13.625 
Q 16.21875 8.6875 19.390625 6.046875 
Q 22.5625 3.421875 27.875 3.421875 
Q 37.359375 3.421875 41.984375 10.5625 
Q 46.625 17.71875 46.78125 32.671875 
z
M 30.90625 69.390625 
Q 23.96875 69.390625 20.28125 64.328125 
Q 16.609375 59.28125 16.609375 49.8125 
Q 16.609375 40.328125 20.28125 35.25 
Q 23.96875 30.171875 30.90625 30.171875 
Q 37.84375 30.171875 41.53125 35.078125 
Q 45.21875 39.984375 45.21875 49.21875 
Q 45.21875 58.9375 41.5 64.15625 
Q 37.796875 69.390625 30.90625 69.390625 
z
" id="DejaVuSerif-57"/>
      </defs>
      <g transform="translate(985.763267 695.923187)scale(0.14 -0.14)">
       <use xlink:href="#DejaVuSerif-50"/>
       <use x="63.623047" xlink:href="#DejaVuSerif-48"/>
       <use x="127.246094" xlink:href="#DejaVuSerif-50"/>
       <use x="190.869141" xlink:href="#DejaVuSerif-48"/>
       <use x="254.492188" xlink:href="#DejaVuSerif-45"/>
       <use x="288.28125" xlink:href="#DejaVuSerif-48"/>
       <use x="351.904297" xlink:href="#DejaVuSerif-57"/>
       <use x="415.527344" xlink:href="#DejaVuSerif-45"/>
       <use x="449.316406" xlink:href="#DejaVuSerif-50"/>
       <use x="512.939453" xlink:href="#DejaVuSerif-49"/>
      </g>
     </g>
    </g>
    <g id="text_9">
     <!-- Dates -->
     <defs>
      <path d="M 24.703125 5.171875 
L 33.796875 5.171875 
Q 48 5.171875 55.59375 13.28125 
Q 63.1875 21.390625 63.1875 36.53125 
Q 63.1875 51.65625 55.609375 59.65625 
Q 48.046875 67.671875 33.796875 67.671875 
L 24.703125 67.671875 
z
M 5.515625 0 
L 5.515625 5.171875 
L 14.796875 5.171875 
L 14.796875 67.671875 
L 5.515625 67.671875 
L 5.515625 72.90625 
L 34.515625 72.90625 
Q 53.375 72.90625 63.890625 63.28125 
Q 74.421875 53.65625 74.421875 36.53125 
Q 74.421875 19.34375 63.875 9.671875 
Q 53.328125 0 34.515625 0 
z
" id="DejaVuSerif-68"/>
      <path d="M 39.796875 16.3125 
L 39.796875 27.296875 
L 28.21875 27.296875 
Q 21.53125 27.296875 18.25 24.40625 
Q 14.984375 21.53125 14.984375 15.578125 
Q 14.984375 10.15625 18.296875 6.984375 
Q 21.625 3.8125 27.296875 3.8125 
Q 32.90625 3.8125 36.34375 7.28125 
Q 39.796875 10.75 39.796875 16.3125 
z
M 48.78125 32.421875 
L 48.78125 5.171875 
L 56.78125 5.171875 
L 56.78125 0 
L 39.796875 0 
L 39.796875 5.609375 
Q 36.8125 2 32.90625 0.28125 
Q 29 -1.421875 23.78125 -1.421875 
Q 15.140625 -1.421875 10.0625 3.171875 
Q 4.984375 7.765625 4.984375 15.578125 
Q 4.984375 23.640625 10.796875 28.078125 
Q 16.609375 32.515625 27.203125 32.515625 
L 39.796875 32.515625 
L 39.796875 36.078125 
Q 39.796875 42 36.203125 45.234375 
Q 32.625 48.484375 26.125 48.484375 
Q 20.75 48.484375 17.578125 46.046875 
Q 14.40625 43.609375 13.625 38.8125 
L 8.984375 38.8125 
L 8.984375 49.3125 
Q 13.671875 51.3125 18.09375 52.3125 
Q 22.515625 53.328125 26.703125 53.328125 
Q 37.5 53.328125 43.140625 47.96875 
Q 48.78125 42.625 48.78125 32.421875 
z
" id="DejaVuSerif-97"/>
      <path d="M 10.796875 46.6875 
L 2.875 46.6875 
L 2.875 51.90625 
L 10.796875 51.90625 
L 10.796875 68.015625 
L 19.828125 68.015625 
L 19.828125 51.90625 
L 36.71875 51.90625 
L 36.71875 46.6875 
L 19.828125 46.6875 
L 19.828125 13.71875 
Q 19.828125 7.125 21.09375 5.265625 
Q 22.359375 3.421875 25.78125 3.421875 
Q 29.296875 3.421875 30.90625 5.484375 
Q 32.515625 7.5625 32.625 12.203125 
L 39.40625 12.203125 
Q 39.015625 5.125 35.546875 1.84375 
Q 32.078125 -1.421875 25 -1.421875 
Q 17.234375 -1.421875 14.015625 2.015625 
Q 10.796875 5.46875 10.796875 13.71875 
z
" id="DejaVuSerif-116"/>
      <path d="M 54.203125 25 
L 15.484375 25 
L 15.484375 24.609375 
Q 15.484375 14.109375 19.4375 8.765625 
Q 23.390625 3.421875 31.109375 3.421875 
Q 37.015625 3.421875 40.796875 6.515625 
Q 44.578125 9.625 46.09375 15.71875 
L 53.328125 15.71875 
Q 51.171875 7.171875 45.375 2.875 
Q 39.59375 -1.421875 30.171875 -1.421875 
Q 18.796875 -1.421875 11.890625 6.078125 
Q 4.984375 13.578125 4.984375 25.984375 
Q 4.984375 38.28125 11.765625 45.796875 
Q 18.5625 53.328125 29.59375 53.328125 
Q 41.359375 53.328125 47.65625 46.0625 
Q 53.953125 38.8125 54.203125 25 
z
M 43.609375 30.171875 
Q 43.3125 39.265625 39.765625 43.875 
Q 36.234375 48.484375 29.59375 48.484375 
Q 23.390625 48.484375 19.828125 43.84375 
Q 16.265625 39.203125 15.484375 30.171875 
z
" id="DejaVuSerif-101"/>
      <path d="M 5.609375 2.875 
L 5.609375 14.984375 
L 10.796875 14.984375 
Q 10.984375 9.1875 14.421875 6.296875 
Q 17.875 3.421875 24.609375 3.421875 
Q 30.671875 3.421875 33.84375 5.6875 
Q 37.015625 7.953125 37.015625 12.3125 
Q 37.015625 15.71875 34.6875 17.8125 
Q 32.375 19.921875 24.90625 22.3125 
L 18.40625 24.515625 
Q 11.71875 26.65625 8.71875 29.875 
Q 5.71875 33.109375 5.71875 38.09375 
Q 5.71875 45.21875 10.9375 49.265625 
Q 16.15625 53.328125 25.390625 53.328125 
Q 29.5 53.328125 34.03125 52.25 
Q 38.578125 51.171875 43.40625 49.125 
L 43.40625 37.796875 
L 38.234375 37.796875 
Q 38.03125 42.828125 34.703125 45.65625 
Q 31.390625 48.484375 25.6875 48.484375 
Q 20.015625 48.484375 17.109375 46.484375 
Q 14.203125 44.484375 14.203125 40.484375 
Q 14.203125 37.203125 16.40625 35.21875 
Q 18.609375 33.25 25.203125 31.203125 
L 32.328125 29 
Q 39.703125 26.703125 42.9375 23.265625 
Q 46.1875 19.828125 46.1875 14.40625 
Q 46.1875 7.03125 40.546875 2.796875 
Q 34.90625 -1.421875 25 -1.421875 
Q 19.96875 -1.421875 15.1875 -0.34375 
Q 10.40625 0.734375 5.609375 2.875 
z
" id="DejaVuSerif-115"/>
     </defs>
     <g transform="translate(549.245469 713.472562)scale(0.14 -0.14)">
      <use xlink:href="#DejaVuSerif-68"/>
      <use x="80.175781" xlink:href="#DejaVuSerif-97"/>
      <use x="139.794922" xlink:href="#DejaVuSerif-116"/>
      <use x="179.980469" xlink:href="#DejaVuSerif-101"/>
      <use x="239.160156" xlink:href="#DejaVuSerif-115"/>
     </g>
    </g>
   </g>
   <g id="matplotlib.axis_2">
    <g id="ytick_1">
     <g id="line2d_17">
      <path clip-path="url(#pbad37279bc)" d="M 67.379375 678.285375 
L 1071.779375 678.285375 
" style="fill:none;stroke:#b0b0b0;stroke-linecap:square;stroke-width:0.8;"/>
     </g>
     <g id="line2d_18">
      <defs>
       <path d="M 0 0 
L -3.5 0 
" id="m308b6f13e6" style="stroke:#000000;stroke-width:0.8;"/>
      </defs>
      <g>
       <use style="stroke:#000000;stroke-width:0.8;" x="67.379375" xlink:href="#m308b6f13e6" y="678.285375"/>
      </g>
     </g>
     <g id="text_10">
      <!-- 0 -->
      <g transform="translate(51.471875 683.604281)scale(0.14 -0.14)">
       <use xlink:href="#DejaVuSerif-48"/>
      </g>
     </g>
    </g>
    <g id="ytick_2">
     <g id="line2d_19">
      <path clip-path="url(#pbad37279bc)" d="M 67.379375 540.954849 
L 1071.779375 540.954849 
" style="fill:none;stroke:#b0b0b0;stroke-linecap:square;stroke-width:0.8;"/>
     </g>
     <g id="line2d_20">
      <g>
       <use style="stroke:#000000;stroke-width:0.8;" x="67.379375" xlink:href="#m308b6f13e6" y="540.954849"/>
      </g>
     </g>
     <g id="text_11">
      <!-- 2000 -->
      <g transform="translate(24.749375 546.273755)scale(0.14 -0.14)">
       <use xlink:href="#DejaVuSerif-50"/>
       <use x="63.623047" xlink:href="#DejaVuSerif-48"/>
       <use x="127.246094" xlink:href="#DejaVuSerif-48"/>
       <use x="190.869141" xlink:href="#DejaVuSerif-48"/>
      </g>
     </g>
    </g>
    <g id="ytick_3">
     <g id="line2d_21">
      <path clip-path="url(#pbad37279bc)" d="M 67.379375 403.624322 
L 1071.779375 403.624322 
" style="fill:none;stroke:#b0b0b0;stroke-linecap:square;stroke-width:0.8;"/>
     </g>
     <g id="line2d_22">
      <g>
       <use style="stroke:#000000;stroke-width:0.8;" x="67.379375" xlink:href="#m308b6f13e6" y="403.624322"/>
      </g>
     </g>
     <g id="text_12">
      <!-- 4000 -->
      <g transform="translate(24.749375 408.943229)scale(0.14 -0.14)">
       <use xlink:href="#DejaVuSerif-52"/>
       <use x="63.623047" xlink:href="#DejaVuSerif-48"/>
       <use x="127.246094" xlink:href="#DejaVuSerif-48"/>
       <use x="190.869141" xlink:href="#DejaVuSerif-48"/>
      </g>
     </g>
    </g>
    <g id="ytick_4">
     <g id="line2d_23">
      <path clip-path="url(#pbad37279bc)" d="M 67.379375 266.293796 
L 1071.779375 266.293796 
" style="fill:none;stroke:#b0b0b0;stroke-linecap:square;stroke-width:0.8;"/>
     </g>
     <g id="line2d_24">
      <g>
       <use style="stroke:#000000;stroke-width:0.8;" x="67.379375" xlink:href="#m308b6f13e6" y="266.293796"/>
      </g>
     </g>
     <g id="text_13">
      <!-- 6000 -->
      <g transform="translate(24.749375 271.612702)scale(0.14 -0.14)">
       <use xlink:href="#DejaVuSerif-54"/>
       <use x="63.623047" xlink:href="#DejaVuSerif-48"/>
       <use x="127.246094" xlink:href="#DejaVuSerif-48"/>
       <use x="190.869141" xlink:href="#DejaVuSerif-48"/>
      </g>
     </g>
    </g>
    <g id="ytick_5">
     <g id="line2d_25">
      <path clip-path="url(#pbad37279bc)" d="M 67.379375 128.96327 
L 1071.779375 128.96327 
" style="fill:none;stroke:#b0b0b0;stroke-linecap:square;stroke-width:0.8;"/>
     </g>
     <g id="line2d_26">
      <g>
       <use style="stroke:#000000;stroke-width:0.8;" x="67.379375" xlink:href="#m308b6f13e6" y="128.96327"/>
      </g>
     </g>
     <g id="text_14">
      <!-- 8000 -->
      <g transform="translate(24.749375 134.282176)scale(0.14 -0.14)">
       <use xlink:href="#DejaVuSerif-56"/>
       <use x="63.623047" xlink:href="#DejaVuSerif-48"/>
       <use x="127.246094" xlink:href="#DejaVuSerif-48"/>
       <use x="190.869141" xlink:href="#DejaVuSerif-48"/>
      </g>
     </g>
    </g>
    <g id="text_15">
     <!-- Cumulative Counts -->
     <defs>
      <path d="M 70.515625 19.28125 
Q 67.28125 9.078125 59.6875 3.828125 
Q 52.09375 -1.421875 40.484375 -1.421875 
Q 33.34375 -1.421875 27.234375 1.015625 
Q 21.140625 3.46875 16.40625 8.203125 
Q 10.9375 13.671875 8.265625 20.625 
Q 5.609375 27.59375 5.609375 36.375 
Q 5.609375 53.375 15.421875 63.796875 
Q 25.25 74.21875 41.3125 74.21875 
Q 47.265625 74.21875 54 72.65625 
Q 60.75 71.09375 68.5 67.921875 
L 68.5 51.125 
L 62.984375 51.125 
Q 61.1875 60.296875 55.734375 64.640625 
Q 50.296875 69 40.484375 69 
Q 28.8125 69 22.796875 60.71875 
Q 16.796875 52.4375 16.796875 36.375 
Q 16.796875 20.359375 22.796875 12.078125 
Q 28.8125 3.8125 40.484375 3.8125 
Q 48.640625 3.8125 53.90625 7.6875 
Q 59.1875 11.578125 61.53125 19.28125 
z
" id="DejaVuSerif-67"/>
      <path d="M 35.40625 51.90625 
L 52.203125 51.90625 
L 52.203125 5.171875 
L 60.6875 5.171875 
L 60.6875 0 
L 43.21875 0 
L 43.21875 9.1875 
Q 40.71875 4 36.765625 1.28125 
Q 32.8125 -1.421875 27.59375 -1.421875 
Q 18.953125 -1.421875 14.875 3.484375 
Q 10.796875 8.40625 10.796875 18.890625 
L 10.796875 46.6875 
L 2.6875 46.6875 
L 2.6875 51.90625 
L 19.828125 51.90625 
L 19.828125 21.6875 
Q 19.828125 12.203125 22.140625 8.6875 
Q 24.46875 5.171875 30.421875 5.171875 
Q 36.671875 5.171875 39.9375 9.765625 
Q 43.21875 14.359375 43.21875 23.09375 
L 43.21875 46.6875 
L 35.40625 46.6875 
z
" id="DejaVuSerif-117"/>
      <path d="M 51.8125 41.796875 
Q 54.390625 47.515625 58.421875 50.421875 
Q 62.453125 53.328125 67.828125 53.328125 
Q 75.984375 53.328125 79.984375 48.265625 
Q 83.984375 43.21875 83.984375 33.015625 
L 83.984375 5.171875 
L 92.09375 5.171875 
L 92.09375 0 
L 67.1875 0 
L 67.1875 5.171875 
L 75 5.171875 
L 75 31.984375 
Q 75 39.9375 72.65625 43.3125 
Q 70.3125 46.6875 64.890625 46.6875 
Q 58.890625 46.6875 55.734375 42.140625 
Q 52.59375 37.59375 52.59375 28.90625 
L 52.59375 5.171875 
L 60.40625 5.171875 
L 60.40625 0 
L 35.796875 0 
L 35.796875 5.171875 
L 43.609375 5.171875 
L 43.609375 32.328125 
Q 43.609375 40.09375 41.265625 43.390625 
Q 38.921875 46.6875 33.5 46.6875 
Q 27.484375 46.6875 24.328125 42.140625 
Q 21.1875 37.59375 21.1875 28.90625 
L 21.1875 5.171875 
L 29 5.171875 
L 29 0 
L 4.109375 0 
L 4.109375 5.171875 
L 12.203125 5.171875 
L 12.203125 46.78125 
L 3.609375 46.78125 
L 3.609375 51.90625 
L 21.1875 51.90625 
L 21.1875 42.671875 
Q 23.6875 47.859375 27.53125 50.59375 
Q 31.390625 53.328125 36.28125 53.328125 
Q 42.328125 53.328125 46.375 50.3125 
Q 50.4375 47.3125 51.8125 41.796875 
z
" id="DejaVuSerif-109"/>
      <path d="M 20.515625 5.171875 
L 29 5.171875 
L 29 0 
L 2.875 0 
L 2.875 5.171875 
L 11.53125 5.171875 
L 11.53125 70.796875 
L 2.875 70.796875 
L 2.875 75.984375 
L 20.515625 75.984375 
z
" id="DejaVuSerif-108"/>
      <path d="M 9.71875 68.015625 
Q 9.71875 70.265625 11.34375 71.921875 
Q 12.984375 73.578125 15.28125 73.578125 
Q 17.53125 73.578125 19.15625 71.921875 
Q 20.796875 70.265625 20.796875 68.015625 
Q 20.796875 65.71875 19.1875 64.109375 
Q 17.578125 62.5 15.28125 62.5 
Q 12.984375 62.5 11.34375 64.109375 
Q 9.71875 65.71875 9.71875 68.015625 
z
M 21.1875 5.171875 
L 29.6875 5.171875 
L 29.6875 0 
L 3.609375 0 
L 3.609375 5.171875 
L 12.203125 5.171875 
L 12.203125 46.6875 
L 3.609375 46.6875 
L 3.609375 51.90625 
L 21.1875 51.90625 
z
" id="DejaVuSerif-105"/>
      <path d="M 24.703125 0 
L 5.609375 46.6875 
L -0.296875 46.6875 
L -0.296875 51.90625 
L 23.578125 51.90625 
L 23.578125 46.6875 
L 15.28125 46.6875 
L 29.890625 10.984375 
L 44.484375 46.6875 
L 36.71875 46.6875 
L 36.71875 51.90625 
L 56.203125 51.90625 
L 56.203125 46.6875 
L 50.390625 46.6875 
L 31.296875 0 
z
" id="DejaVuSerif-118"/>
      <path id="DejaVuSerif-32"/>
      <path d="M 30.078125 3.421875 
Q 37.3125 3.421875 40.984375 9.125 
Q 44.671875 14.84375 44.671875 25.984375 
Q 44.671875 37.109375 40.984375 42.796875 
Q 37.3125 48.484375 30.078125 48.484375 
Q 22.859375 48.484375 19.171875 42.796875 
Q 15.484375 37.109375 15.484375 25.984375 
Q 15.484375 14.84375 19.1875 9.125 
Q 22.90625 3.421875 30.078125 3.421875 
z
M 30.078125 -1.421875 
Q 18.75 -1.421875 11.859375 6.078125 
Q 4.984375 13.578125 4.984375 25.984375 
Q 4.984375 38.375 11.84375 45.84375 
Q 18.703125 53.328125 30.078125 53.328125 
Q 41.453125 53.328125 48.3125 45.84375 
Q 55.171875 38.375 55.171875 25.984375 
Q 55.171875 13.578125 48.3125 6.078125 
Q 41.453125 -1.421875 30.078125 -1.421875 
z
" id="DejaVuSerif-111"/>
      <path d="M 4.109375 0 
L 4.109375 5.171875 
L 12.203125 5.171875 
L 12.203125 46.6875 
L 3.609375 46.6875 
L 3.609375 51.90625 
L 21.1875 51.90625 
L 21.1875 42.671875 
Q 23.6875 47.953125 27.65625 50.640625 
Q 31.640625 53.328125 36.921875 53.328125 
Q 45.515625 53.328125 49.5625 48.390625 
Q 53.609375 43.453125 53.609375 33.015625 
L 53.609375 5.171875 
L 61.625 5.171875 
L 61.625 0 
L 36.8125 0 
L 36.8125 5.171875 
L 44.578125 5.171875 
L 44.578125 30.171875 
Q 44.578125 39.703125 42.234375 43.234375 
Q 39.890625 46.78125 33.984375 46.78125 
Q 27.734375 46.78125 24.453125 42.203125 
Q 21.1875 37.640625 21.1875 28.90625 
L 21.1875 5.171875 
L 29 5.171875 
L 29 0 
z
" id="DejaVuSerif-110"/>
     </defs>
     <g transform="translate(17.837813 419.916)rotate(-90)scale(0.14 -0.14)">
      <use xlink:href="#DejaVuSerif-67"/>
      <use x="76.513672" xlink:href="#DejaVuSerif-117"/>
      <use x="140.917969" xlink:href="#DejaVuSerif-109"/>
      <use x="235.742188" xlink:href="#DejaVuSerif-117"/>
      <use x="300.146484" xlink:href="#DejaVuSerif-108"/>
      <use x="332.128906" xlink:href="#DejaVuSerif-97"/>
      <use x="391.748047" xlink:href="#DejaVuSerif-116"/>
      <use x="431.933594" xlink:href="#DejaVuSerif-105"/>
      <use x="463.916016" xlink:href="#DejaVuSerif-118"/>
      <use x="520.410156" xlink:href="#DejaVuSerif-101"/>
      <use x="579.589844" xlink:href="#DejaVuSerif-32"/>
      <use x="611.376953" xlink:href="#DejaVuSerif-67"/>
      <use x="687.890625" xlink:href="#DejaVuSerif-111"/>
      <use x="748.095703" xlink:href="#DejaVuSerif-117"/>
      <use x="812.5" xlink:href="#DejaVuSerif-110"/>
      <use x="876.904297" xlink:href="#DejaVuSerif-116"/>
      <use x="917.089844" xlink:href="#DejaVuSerif-115"/>
     </g>
    </g>
   </g>
   <g id="line2d_27">
    <path clip-path="url(#pbad37279bc)" d="M 67.379375 678.21671 
L 71.94483 678.010714 
L 90.206648 677.804718 
L 108.468466 677.736053 
L 113.03392 677.461392 
L 117.599375 676.843404 
L 122.16483 676.843404 
L 126.730284 676.431413 
L 131.295739 676.431413 
L 135.861193 676.088087 
L 149.557557 674.646116 
L 154.123011 673.890798 
L 158.688466 673.272811 
L 163.25392 673.272811 
L 167.819375 671.212853 
L 176.950284 659.677089 
L 181.515739 659.677089 
L 186.081193 649.171303 
L 190.646648 649.171303 
L 195.212102 645.875371 
L 199.777557 635.918908 
L 204.343011 633.034967 
L 208.908466 628.503059 
L 213.47392 628.503059 
L 218.039375 617.585282 
L 222.60483 617.585282 
L 227.170284 612.366722 
L 231.735739 611.68007 
L 236.301193 605.088204 
L 245.432102 597.672356 
L 249.997557 595.681063 
L 254.563011 595.681063 
L 259.128466 591.355152 
L 263.69392 589.63852 
L 268.259375 586.548583 
L 272.82483 584.213964 
L 277.390284 581.467354 
L 281.955739 579.06407 
L 286.521193 579.06407 
L 291.086648 575.974133 
L 295.652102 574.120171 
L 300.217557 571.098899 
L 304.783011 571.098899 
L 309.348466 570.137586 
L 313.91392 567.184979 
L 318.479375 567.184979 
L 323.04483 561.623093 
L 327.610284 559.906461 
L 332.175739 555.031228 
L 341.306648 551.048642 
L 345.872102 544.525442 
L 350.437557 544.525442 
L 355.003011 541.092179 
L 359.568466 537.31559 
L 364.13392 534.980971 
L 368.699375 533.264339 
L 373.26483 530.998386 
L 377.830284 529.213089 
L 382.395739 529.213089 
L 386.961193 525.57383 
L 391.526648 525.024508 
L 396.092102 523.445207 
L 400.657557 521.179253 
L 405.223011 519.325291 
L 409.788466 518.295312 
L 414.35392 518.295312 
L 418.919375 516.716011 
L 423.48483 516.235354 
L 437.181193 513.008087 
L 441.746648 511.566116 
L 446.312102 511.566116 
L 450.877557 510.467472 
L 455.443011 510.330141 
L 460.008466 508.888171 
L 464.57392 508.064188 
L 469.139375 506.14156 
L 473.70483 505.454908 
L 478.270284 505.454908 
L 482.835739 504.562259 
L 487.401193 503.806941 
L 496.532102 502.639632 
L 501.097557 502.364971 
L 505.663011 501.609653 
L 510.228466 501.609653 
L 514.79392 499.961687 
L 519.359375 499.687026 
L 523.92483 498.17639 
L 528.490284 497.558402 
L 542.186648 497.558402 
L 546.752102 495.70444 
L 555.883011 494.26247 
L 565.01392 492.271177 
L 574.14483 492.271177 
L 578.710284 489.799228 
L 583.275739 489.04391 
L 587.841193 487.73927 
L 596.972102 486.709291 
L 606.103011 486.709291 
L 610.668466 484.512002 
L 619.799375 482.65804 
L 624.36483 481.284735 
L 628.930284 480.666748 
L 638.061193 480.666748 
L 642.626648 478.881451 
L 647.192102 478.057468 
L 651.757557 478.057468 
L 656.323011 476.409501 
L 660.888466 475.928844 
L 670.019375 475.928844 
L 674.58483 473.800221 
L 679.150284 472.976238 
L 683.715739 471.740263 
L 688.281193 470.366958 
L 692.846648 468.650327 
L 701.977557 468.650327 
L 706.543011 464.39308 
L 711.108466 463.500432 
L 720.239375 460.616491 
L 724.80483 458.693863 
L 733.935739 458.693863 
L 738.501193 451.690007 
L 743.066648 449.767379 
L 747.632102 447.43276 
L 752.197557 445.372802 
L 756.763011 443.51884 
L 765.89392 443.51884 
L 770.459375 437.956954 
L 775.02483 436.377653 
L 779.590284 433.699708 
L 784.155739 431.708415 
L 788.721193 428.275152 
L 802.417557 428.275152 
L 806.983011 418.250023 
L 816.11392 411.795489 
L 820.679375 408.15623 
L 829.810284 408.15623 
L 834.375739 399.16108 
L 838.941193 396.002478 
L 843.506648 390.165931 
L 848.072102 384.81004 
L 852.637557 379.042158 
L 861.768466 379.042158 
L 866.33392 362.837156 
L 870.899375 357.137939 
L 875.46483 352.468701 
L 880.030284 346.97548 
L 884.595739 340.795607 
L 893.726648 340.795607 
L 898.292102 322.324651 
L 902.857557 318.342066 
L 907.423011 314.084819 
L 911.988466 309.415581 
L 916.55392 300.901089 
L 925.68483 300.901089 
L 930.250284 280.713501 
L 934.815739 276.730916 
L 939.381193 269.589729 
L 943.946648 263.47852 
L 948.512102 255.170023 
L 962.208466 255.170023 
L 966.77392 225.712626 
L 971.339375 218.846099 
L 975.90483 209.301628 
L 980.470284 200.237813 
L 989.601193 200.237813 
L 994.166648 178.470924 
L 998.732102 171.810394 
L 1003.297557 163.433232 
L 1007.863011 152.103463 
L 1012.428466 139.812381 
L 1021.559375 139.812381 
L 1026.12483 114.680895 
L 1030.690284 108.08903 
L 1035.255739 101.840491 
L 1039.821193 91.678032 
L 1044.386648 84.948836 
L 1053.517557 84.948836 
L 1058.083011 66.615211 
L 1062.648466 59.405358 
L 1067.21392 50.8222 
L 1071.779375 45.191649 
L 1076.34483 34.136541 
L 1076.34483 34.136541 
" style="fill:none;stroke:#f08080;stroke-dasharray:5.55,2.4;stroke-dashoffset:0;stroke-width:1.5;"/>
   </g>
   <g id="line2d_28">
    <path clip-path="url(#pbad37279bc)" d="M 172.38483 678.285375 
L 172.38483 25.965375 
" style="fill:none;stroke:#008080;stroke-linecap:square;stroke-width:1.5;"/>
   </g>
   <g id="line2d_29">
    <path clip-path="url(#pbad37279bc)" d="M 172.38483 678.285375 
L 172.38483 25.965375 
" style="fill:none;stroke:#4b0082;stroke-linecap:square;stroke-width:1.5;"/>
   </g>
   <g id="line2d_30">
    <path clip-path="url(#pbad37279bc)" d="M 172.38483 678.285375 
L 172.38483 25.965375 
" style="fill:none;stroke:#ffd700;stroke-linecap:square;stroke-width:1.5;"/>
   </g>
   <g id="line2d_31">
    <path clip-path="url(#pbad37279bc)" d="M 172.38483 678.285375 
L 172.38483 25.965375 
" style="fill:none;stroke:#a0522d;stroke-linecap:square;stroke-width:1.5;"/>
   </g>
   <g id="line2d_32">
    <path clip-path="url(#pbad37279bc)" d="M 172.38483 678.285375 
L 172.38483 25.965375 
" style="fill:none;stroke:#32cd32;stroke-linecap:square;stroke-width:1.5;"/>
   </g>
   <g id="line2d_33">
    <path clip-path="url(#pbad37279bc)" d="M 144.992102 678.285375 
L 144.992102 25.965375 
" style="fill:none;stroke:#4169e1;stroke-linecap:square;stroke-width:1.5;"/>
   </g>
   <g id="line2d_34">
    <path clip-path="url(#pbad37279bc)" d="M 163.25392 678.285375 
L 163.25392 25.965375 
" style="fill:none;stroke:#d8bfd8;stroke-linecap:square;stroke-width:1.5;"/>
   </g>
   <g id="line2d_35">
    <path clip-path="url(#pbad37279bc)" d="M 163.25392 678.285375 
L 163.25392 25.965375 
" style="fill:none;stroke:#8b008b;stroke-linecap:square;stroke-width:1.5;"/>
   </g>
   <g id="line2d_36">
    <path clip-path="url(#pbad37279bc)" d="M 227.170284 678.285375 
L 227.170284 25.965375 
" style="fill:none;stroke:#ffd700;stroke-linecap:square;stroke-width:1.5;"/>
   </g>
   <g id="line2d_37">
    <path clip-path="url(#pbad37279bc)" d="M 268.259375 678.285375 
L 268.259375 25.965375 
" style="fill:none;stroke:#6b8e23;stroke-linecap:square;stroke-width:1.5;"/>
   </g>
   <g id="line2d_38">
    <path clip-path="url(#pbad37279bc)" d="M 323.04483 678.285375 
L 323.04483 25.965375 
" style="fill:none;stroke:#cd5c5c;stroke-linecap:square;stroke-width:1.5;"/>
   </g>
   <g id="line2d_39">
    <path clip-path="url(#pbad37279bc)" d="M 345.872102 678.285375 
L 345.872102 25.965375 
" style="fill:none;stroke:#00bfff;stroke-linecap:square;stroke-width:1.5;"/>
   </g>
   <g id="line2d_40">
    <path clip-path="url(#pbad37279bc)" d="M 592.406648 678.285375 
L 592.406648 25.965375 
" style="fill:none;stroke:#ff69b4;stroke-linecap:square;stroke-width:1.5;"/>
   </g>
   <g id="line2d_41">
    <path clip-path="url(#pbad37279bc)" d="M 779.590284 678.285375 
L 779.590284 25.965375 
" style="fill:none;stroke:#d2b48c;stroke-linecap:square;stroke-width:1.5;"/>
   </g>
   <g id="line2d_42">
    <path clip-path="url(#pbad37279bc)" d="M 884.595739 678.285375 
L 884.595739 25.965375 
" style="fill:none;stroke:#f0e68c;stroke-linecap:square;stroke-width:1.5;"/>
   </g>
   <g id="patch_3">
    <path d="M 67.379375 678.285375 
L 67.379375 25.965375 
" style="fill:none;stroke:#000000;stroke-linecap:square;stroke-linejoin:miter;stroke-width:0.8;"/>
   </g>
   <g id="patch_4">
    <path d="M 1071.779375 678.285375 
L 1071.779375 25.965375 
" style="fill:none;stroke:#000000;stroke-linecap:square;stroke-linejoin:miter;stroke-width:0.8;"/>
   </g>
   <g id="patch_5">
    <path d="M 67.379375 678.285375 
L 1071.779375 678.285375 
" style="fill:none;stroke:#000000;stroke-linecap:square;stroke-linejoin:miter;stroke-width:0.8;"/>
   </g>
   <g id="patch_6">
    <path d="M 67.379375 25.965375 
L 1071.779375 25.965375 
" style="fill:none;stroke:#000000;stroke-linecap:square;stroke-linejoin:miter;stroke-width:0.8;"/>
   </g>
   <g id="text_16">
    <!-- Visualization of Infected and NPIs in BC -->
    <defs>
     <path d="M 17.484375 67.671875 
L 39.015625 11.71875 
L 60.5 67.671875 
L 52.296875 67.671875 
L 52.296875 72.90625 
L 73.6875 72.90625 
L 73.6875 67.671875 
L 66.609375 67.671875 
L 40.578125 0 
L 32.171875 0 
L 6.296875 67.671875 
L -0.984375 67.671875 
L -0.984375 72.90625 
L 25.59375 72.90625 
L 25.59375 67.671875 
z
" id="DejaVuSerif-86"/>
     <path d="M 4 0 
L 4 4.203125 
L 36.53125 46.6875 
L 10.796875 46.6875 
L 10.796875 37.703125 
L 5.609375 37.703125 
L 5.609375 51.90625 
L 48.09375 51.90625 
L 48.09375 47.703125 
L 15.578125 5.171875 
L 43.796875 5.171875 
L 43.796875 14.59375 
L 49.03125 14.59375 
L 49.03125 0 
z
" id="DejaVuSerif-122"/>
     <path d="M 43.015625 63.71875 
L 38.28125 63.71875 
Q 38.234375 67.390625 36.203125 69.28125 
Q 34.1875 71.1875 30.328125 71.1875 
Q 25.296875 71.1875 23.234375 68.421875 
Q 21.1875 65.671875 21.1875 58.59375 
L 21.1875 51.90625 
L 35.6875 51.90625 
L 35.6875 46.6875 
L 21.1875 46.6875 
L 21.1875 5.171875 
L 32.71875 5.171875 
L 32.71875 0 
L 3.609375 0 
L 3.609375 5.171875 
L 12.203125 5.171875 
L 12.203125 46.6875 
L 3.609375 46.6875 
L 3.609375 51.90625 
L 12.203125 51.90625 
L 12.203125 58.40625 
Q 12.203125 67.09375 16.71875 71.53125 
Q 21.234375 75.984375 29.984375 75.984375 
Q 33.25 75.984375 36.515625 75.390625 
Q 39.796875 74.8125 43.015625 73.578125 
z
" id="DejaVuSerif-102"/>
     <path d="M 24.703125 5.171875 
L 33.984375 5.171875 
L 33.984375 0 
L 5.515625 0 
L 5.515625 5.171875 
L 14.796875 5.171875 
L 14.796875 67.671875 
L 5.515625 67.671875 
L 5.515625 72.90625 
L 33.984375 72.90625 
L 33.984375 67.671875 
L 24.703125 67.671875 
z
" id="DejaVuSerif-73"/>
     <path d="M 51.421875 15.578125 
Q 49.515625 7.28125 44.09375 2.921875 
Q 38.671875 -1.421875 30.078125 -1.421875 
Q 18.75 -1.421875 11.859375 6.078125 
Q 4.984375 13.578125 4.984375 25.984375 
Q 4.984375 38.421875 11.859375 45.875 
Q 18.75 53.328125 30.078125 53.328125 
Q 35.015625 53.328125 39.890625 52.171875 
Q 44.78125 51.03125 49.703125 48.6875 
L 49.703125 35.40625 
L 44.484375 35.40625 
Q 43.453125 42.234375 40.015625 45.359375 
Q 36.578125 48.484375 30.171875 48.484375 
Q 22.90625 48.484375 19.1875 42.84375 
Q 15.484375 37.203125 15.484375 25.984375 
Q 15.484375 14.75 19.171875 9.078125 
Q 22.859375 3.421875 30.171875 3.421875 
Q 35.984375 3.421875 39.453125 6.4375 
Q 42.921875 9.46875 44.1875 15.578125 
z
" id="DejaVuSerif-99"/>
     <path d="M 52.484375 5.171875 
L 61.078125 5.171875 
L 61.078125 0 
L 43.5 0 
L 43.5 8.109375 
Q 40.875 3.21875 36.796875 0.890625 
Q 32.71875 -1.421875 26.703125 -1.421875 
Q 17.140625 -1.421875 11.0625 6.171875 
Q 4.984375 13.765625 4.984375 25.984375 
Q 4.984375 38.1875 11.03125 45.75 
Q 17.09375 53.328125 26.703125 53.328125 
Q 32.71875 53.328125 36.796875 51 
Q 40.875 48.6875 43.5 43.796875 
L 43.5 70.796875 
L 35.015625 70.796875 
L 35.015625 75.984375 
L 52.484375 75.984375 
z
M 43.5 23.390625 
L 43.5 28.515625 
Q 43.5 37.84375 39.90625 42.765625 
Q 36.328125 47.703125 29.5 47.703125 
Q 22.5625 47.703125 19.015625 42.234375 
Q 15.484375 36.765625 15.484375 25.984375 
Q 15.484375 15.234375 19.015625 9.71875 
Q 22.5625 4.203125 29.5 4.203125 
Q 36.328125 4.203125 39.90625 9.109375 
Q 43.5 14.015625 43.5 23.390625 
z
" id="DejaVuSerif-100"/>
     <path d="M 4.890625 0 
L 4.890625 5.171875 
L 14.703125 5.171875 
L 14.703125 67.671875 
L 4.890625 67.671875 
L 4.890625 72.90625 
L 23.578125 72.90625 
L 67.28125 15.375 
L 67.28125 67.671875 
L 57.515625 67.671875 
L 57.515625 72.90625 
L 83.109375 72.90625 
L 83.109375 67.671875 
L 73.296875 67.671875 
L 73.296875 -1.421875 
L 67.390625 -1.421875 
L 20.703125 60.015625 
L 20.703125 5.171875 
L 30.515625 5.171875 
L 30.515625 0 
z
" id="DejaVuSerif-78"/>
     <path d="M 24.703125 37.109375 
L 37.59375 37.109375 
Q 44.875 37.109375 48.671875 41.03125 
Q 52.484375 44.96875 52.484375 52.390625 
Q 52.484375 59.859375 48.671875 63.765625 
Q 44.875 67.671875 37.59375 67.671875 
L 24.703125 67.671875 
z
M 5.515625 0 
L 5.515625 5.171875 
L 14.796875 5.171875 
L 14.796875 67.671875 
L 5.515625 67.671875 
L 5.515625 72.90625 
L 39.984375 72.90625 
Q 50.921875 72.90625 57.3125 67.359375 
Q 63.71875 61.8125 63.71875 52.390625 
Q 63.71875 43.015625 57.3125 37.453125 
Q 50.921875 31.890625 39.984375 31.890625 
L 24.703125 31.890625 
L 24.703125 5.171875 
L 35.984375 5.171875 
L 35.984375 0 
z
" id="DejaVuSerif-80"/>
     <path d="M 24.703125 5.171875 
L 39.3125 5.171875 
Q 48.09375 5.171875 52.140625 8.984375 
Q 56.203125 12.796875 56.203125 21.09375 
Q 56.203125 29.34375 52.171875 33.125 
Q 48.140625 36.921875 39.3125 36.921875 
L 24.703125 36.921875 
z
M 24.703125 42.09375 
L 37.109375 42.09375 
Q 45.125 42.09375 48.796875 45.171875 
Q 52.484375 48.25 52.484375 54.890625 
Q 52.484375 61.578125 48.796875 64.625 
Q 45.125 67.671875 37.109375 67.671875 
L 24.703125 67.671875 
z
M 5.515625 0 
L 5.515625 5.171875 
L 14.796875 5.171875 
L 14.796875 67.671875 
L 5.515625 67.671875 
L 5.515625 72.90625 
L 41.5 72.90625 
Q 52.546875 72.90625 58.125 68.390625 
Q 63.71875 63.875 63.71875 54.890625 
Q 63.71875 48.390625 59.828125 44.53125 
Q 55.953125 40.671875 48.484375 39.796875 
Q 57.765625 38.625 62.578125 33.859375 
Q 67.390625 29.109375 67.390625 21.09375 
Q 67.390625 10.25 60.546875 5.125 
Q 53.71875 0 39.203125 0 
z
" id="DejaVuSerif-66"/>
    </defs>
    <g transform="translate(398.215438 19.965375)scale(0.168 -0.168)">
     <use xlink:href="#DejaVuSerif-86"/>
     <use x="72.201172" xlink:href="#DejaVuSerif-105"/>
     <use x="104.183594" xlink:href="#DejaVuSerif-115"/>
     <use x="155.501953" xlink:href="#DejaVuSerif-117"/>
     <use x="219.90625" xlink:href="#DejaVuSerif-97"/>
     <use x="279.525391" xlink:href="#DejaVuSerif-108"/>
     <use x="311.507812" xlink:href="#DejaVuSerif-105"/>
     <use x="343.490234" xlink:href="#DejaVuSerif-122"/>
     <use x="396.175781" xlink:href="#DejaVuSerif-97"/>
     <use x="455.794922" xlink:href="#DejaVuSerif-116"/>
     <use x="495.980469" xlink:href="#DejaVuSerif-105"/>
     <use x="527.962891" xlink:href="#DejaVuSerif-111"/>
     <use x="588.167969" xlink:href="#DejaVuSerif-110"/>
     <use x="652.572266" xlink:href="#DejaVuSerif-32"/>
     <use x="684.359375" xlink:href="#DejaVuSerif-111"/>
     <use x="744.564453" xlink:href="#DejaVuSerif-102"/>
     <use x="781.576172" xlink:href="#DejaVuSerif-32"/>
     <use x="813.363281" xlink:href="#DejaVuSerif-73"/>
     <use x="852.865234" xlink:href="#DejaVuSerif-110"/>
     <use x="917.269531" xlink:href="#DejaVuSerif-102"/>
     <use x="954.28125" xlink:href="#DejaVuSerif-101"/>
     <use x="1013.460938" xlink:href="#DejaVuSerif-99"/>
     <use x="1069.466797" xlink:href="#DejaVuSerif-116"/>
     <use x="1109.652344" xlink:href="#DejaVuSerif-101"/>
     <use x="1168.832031" xlink:href="#DejaVuSerif-100"/>
     <use x="1232.845703" xlink:href="#DejaVuSerif-32"/>
     <use x="1264.632812" xlink:href="#DejaVuSerif-97"/>
     <use x="1324.251953" xlink:href="#DejaVuSerif-110"/>
     <use x="1388.65625" xlink:href="#DejaVuSerif-100"/>
     <use x="1452.669922" xlink:href="#DejaVuSerif-32"/>
     <use x="1484.457031" xlink:href="#DejaVuSerif-78"/>
     <use x="1571.957031" xlink:href="#DejaVuSerif-80"/>
     <use x="1639.242188" xlink:href="#DejaVuSerif-73"/>
     <use x="1678.744141" xlink:href="#DejaVuSerif-115"/>
     <use x="1730.0625" xlink:href="#DejaVuSerif-32"/>
     <use x="1761.849609" xlink:href="#DejaVuSerif-105"/>
     <use x="1793.832031" xlink:href="#DejaVuSerif-110"/>
     <use x="1858.236328" xlink:href="#DejaVuSerif-32"/>
     <use x="1890.023438" xlink:href="#DejaVuSerif-66"/>
     <use x="1963.525391" xlink:href="#DejaVuSerif-67"/>
    </g>
   </g>
   <g id="legend_1">
    <g id="patch_7">
     <path d="M 77.179375 367.746937 
L 419.278125 367.746937 
Q 422.078125 367.746937 422.078125 364.946937 
L 422.078125 35.765375 
Q 422.078125 32.965375 419.278125 32.965375 
L 77.179375 32.965375 
Q 74.379375 32.965375 74.379375 35.765375 
L 74.379375 364.946937 
Q 74.379375 367.746937 77.179375 367.746937 
z
" style="fill:#ffffff;opacity:0.8;stroke:#cccccc;stroke-linejoin:miter;"/>
    </g>
    <g id="line2d_43">
     <path d="M 79.979375 44.303187 
L 107.979375 44.303187 
" style="fill:none;stroke:#f08080;stroke-dasharray:5.55,2.4;stroke-dashoffset:0;stroke-width:1.5;"/>
    </g>
    <g id="line2d_44"/>
    <g id="text_17">
     <!-- Infected -->
     <g transform="translate(119.179375 49.203187)scale(0.14 -0.14)">
      <use xlink:href="#DejaVuSerif-73"/>
      <use x="39.501953" xlink:href="#DejaVuSerif-110"/>
      <use x="103.90625" xlink:href="#DejaVuSerif-102"/>
      <use x="140.917969" xlink:href="#DejaVuSerif-101"/>
      <use x="200.097656" xlink:href="#DejaVuSerif-99"/>
      <use x="256.103516" xlink:href="#DejaVuSerif-116"/>
      <use x="296.289062" xlink:href="#DejaVuSerif-101"/>
      <use x="355.46875" xlink:href="#DejaVuSerif-100"/>
     </g>
    </g>
    <g id="line2d_45">
     <path d="M 79.979375 64.852562 
L 107.979375 64.852562 
" style="fill:none;stroke:#008080;stroke-linecap:square;stroke-width:1.5;"/>
    </g>
    <g id="line2d_46"/>
    <g id="text_18">
     <!-- Activate or establish emergency response -->
     <defs>
      <path d="M 20.015625 26.421875 
L 46.78125 26.421875 
L 33.40625 61.078125 
z
M -0.59375 0 
L -0.59375 5.171875 
L 5.8125 5.171875 
L 31.78125 72.90625 
L 39.984375 72.90625 
L 66.015625 5.171875 
L 73.1875 5.171875 
L 73.1875 0 
L 46.6875 0 
L 46.6875 5.171875 
L 54.78125 5.171875 
L 48.6875 21.1875 
L 18.015625 21.1875 
L 11.921875 5.171875 
L 19.921875 5.171875 
L 19.921875 0 
z
" id="DejaVuSerif-65"/>
      <path d="M 47.796875 52 
L 47.796875 39.015625 
L 42.625 39.015625 
Q 42.390625 42.875 40.484375 44.78125 
Q 38.578125 46.6875 34.90625 46.6875 
Q 28.265625 46.6875 24.71875 42.09375 
Q 21.1875 37.5 21.1875 28.90625 
L 21.1875 5.171875 
L 31.59375 5.171875 
L 31.59375 0 
L 4.109375 0 
L 4.109375 5.171875 
L 12.203125 5.171875 
L 12.203125 46.78125 
L 3.609375 46.78125 
L 3.609375 51.90625 
L 21.1875 51.90625 
L 21.1875 42.671875 
Q 23.828125 48.09375 27.96875 50.703125 
Q 32.125 53.328125 38.09375 53.328125 
Q 40.28125 53.328125 42.703125 52.984375 
Q 45.125 52.640625 47.796875 52 
z
" id="DejaVuSerif-114"/>
      <path d="M 11.53125 5.171875 
L 11.53125 70.796875 
L 2.875 70.796875 
L 2.875 75.984375 
L 20.515625 75.984375 
L 20.515625 43.796875 
Q 23.140625 48.6875 27.21875 51 
Q 31.296875 53.328125 37.3125 53.328125 
Q 46.875 53.328125 52.921875 45.75 
Q 58.984375 38.1875 58.984375 25.984375 
Q 58.984375 13.765625 52.921875 6.171875 
Q 46.875 -1.421875 37.3125 -1.421875 
Q 31.296875 -1.421875 27.21875 0.890625 
Q 23.140625 3.21875 20.515625 8.109375 
L 20.515625 0 
L 2.875 0 
L 2.875 5.171875 
z
M 20.515625 23.390625 
Q 20.515625 14.015625 24.09375 9.109375 
Q 27.6875 4.203125 34.515625 4.203125 
Q 41.40625 4.203125 44.9375 9.71875 
Q 48.484375 15.234375 48.484375 25.984375 
Q 48.484375 36.765625 44.9375 42.234375 
Q 41.40625 47.703125 34.515625 47.703125 
Q 27.6875 47.703125 24.09375 42.765625 
Q 20.515625 37.84375 20.515625 28.515625 
z
" id="DejaVuSerif-98"/>
      <path d="M 4.109375 0 
L 4.109375 5.171875 
L 12.203125 5.171875 
L 12.203125 70.796875 
L 3.609375 70.796875 
L 3.609375 75.984375 
L 21.1875 75.984375 
L 21.1875 42.671875 
Q 23.6875 47.953125 27.65625 50.640625 
Q 31.640625 53.328125 36.921875 53.328125 
Q 45.515625 53.328125 49.5625 48.390625 
Q 53.609375 43.453125 53.609375 33.015625 
L 53.609375 5.171875 
L 61.625 5.171875 
L 61.625 0 
L 36.8125 0 
L 36.8125 5.171875 
L 44.578125 5.171875 
L 44.578125 30.171875 
Q 44.578125 39.703125 42.25 43.1875 
Q 39.9375 46.6875 33.984375 46.6875 
Q 27.734375 46.6875 24.453125 42.140625 
Q 21.1875 37.59375 21.1875 28.90625 
L 21.1875 5.171875 
L 29 5.171875 
L 29 0 
z
" id="DejaVuSerif-104"/>
      <path d="M 52.484375 46.6875 
L 52.484375 1.125 
Q 52.484375 -10.0625 46.328125 -16.140625 
Q 40.1875 -22.21875 28.8125 -22.21875 
Q 23.6875 -22.21875 19 -21.28125 
Q 14.3125 -20.359375 10.015625 -18.5 
L 10.015625 -7.625 
L 14.703125 -7.625 
Q 15.578125 -12.703125 18.84375 -15.046875 
Q 22.125 -17.390625 28.21875 -17.390625 
Q 36.140625 -17.390625 39.8125 -12.921875 
Q 43.5 -8.453125 43.5 1.125 
L 43.5 8.109375 
Q 40.875 3.21875 36.796875 0.890625 
Q 32.71875 -1.421875 26.703125 -1.421875 
Q 17.140625 -1.421875 11.0625 6.171875 
Q 4.984375 13.765625 4.984375 25.984375 
Q 4.984375 38.1875 11.03125 45.75 
Q 17.09375 53.328125 26.703125 53.328125 
Q 32.71875 53.328125 36.796875 51 
Q 40.875 48.6875 43.5 43.796875 
L 43.5 51.90625 
L 61.078125 51.90625 
L 61.078125 46.6875 
z
M 43.5 28.515625 
Q 43.5 37.84375 39.90625 42.765625 
Q 36.328125 47.703125 29.5 47.703125 
Q 22.5625 47.703125 19.015625 42.234375 
Q 15.484375 36.765625 15.484375 25.984375 
Q 15.484375 15.234375 19.015625 9.71875 
Q 22.5625 4.203125 29.5 4.203125 
Q 36.328125 4.203125 39.90625 9.109375 
Q 43.5 14.015625 43.5 23.390625 
z
" id="DejaVuSerif-103"/>
      <path d="M 21.578125 -9.515625 
L 25 -0.875 
L 5.609375 46.6875 
L -0.296875 46.6875 
L -0.296875 51.90625 
L 23.578125 51.90625 
L 23.578125 46.6875 
L 15.28125 46.6875 
L 29.890625 10.984375 
L 44.484375 46.6875 
L 36.71875 46.6875 
L 36.71875 51.90625 
L 56.203125 51.90625 
L 56.203125 46.6875 
L 50.390625 46.6875 
L 26.609375 -11.71875 
Q 24.171875 -17.78125 21.1875 -20 
Q 18.21875 -22.21875 12.796875 -22.21875 
Q 10.5 -22.21875 8.078125 -21.828125 
Q 5.671875 -21.4375 3.21875 -20.703125 
L 3.21875 -10.796875 
L 7.8125 -10.796875 
Q 8.109375 -14.109375 9.5 -15.546875 
Q 10.890625 -17 13.8125 -17 
Q 16.5 -17 18.140625 -15.5 
Q 19.78125 -14.015625 21.578125 -9.515625 
z
" id="DejaVuSerif-121"/>
      <path d="M 20.515625 28.515625 
L 20.515625 23.390625 
Q 20.515625 14.015625 24.09375 9.109375 
Q 27.6875 4.203125 34.515625 4.203125 
Q 41.40625 4.203125 44.9375 9.71875 
Q 48.484375 15.234375 48.484375 25.984375 
Q 48.484375 36.765625 44.9375 42.234375 
Q 41.40625 47.703125 34.515625 47.703125 
Q 27.6875 47.703125 24.09375 42.765625 
Q 20.515625 37.84375 20.515625 28.515625 
z
M 11.53125 46.6875 
L 2.875 46.6875 
L 2.875 51.90625 
L 20.515625 51.90625 
L 20.515625 43.796875 
Q 23.140625 48.6875 27.21875 51 
Q 31.296875 53.328125 37.3125 53.328125 
Q 46.875 53.328125 52.921875 45.75 
Q 58.984375 38.1875 58.984375 25.984375 
Q 58.984375 13.765625 52.921875 6.171875 
Q 46.875 -1.421875 37.3125 -1.421875 
Q 31.296875 -1.421875 27.21875 0.890625 
Q 23.140625 3.21875 20.515625 8.109375 
L 20.515625 -15.578125 
L 29 -15.578125 
L 29 -20.796875 
L 2.875 -20.796875 
L 2.875 -15.578125 
L 11.53125 -15.578125 
z
" id="DejaVuSerif-112"/>
     </defs>
     <g transform="translate(119.179375 69.752562)scale(0.14 -0.14)">
      <use xlink:href="#DejaVuSerif-65"/>
      <use x="72.216797" xlink:href="#DejaVuSerif-99"/>
      <use x="128.222656" xlink:href="#DejaVuSerif-116"/>
      <use x="168.408203" xlink:href="#DejaVuSerif-105"/>
      <use x="200.390625" xlink:href="#DejaVuSerif-118"/>
      <use x="256.884766" xlink:href="#DejaVuSerif-97"/>
      <use x="316.503906" xlink:href="#DejaVuSerif-116"/>
      <use x="356.689453" xlink:href="#DejaVuSerif-101"/>
      <use x="415.869141" xlink:href="#DejaVuSerif-32"/>
      <use x="447.65625" xlink:href="#DejaVuSerif-111"/>
      <use x="507.861328" xlink:href="#DejaVuSerif-114"/>
      <use x="555.664062" xlink:href="#DejaVuSerif-32"/>
      <use x="587.451172" xlink:href="#DejaVuSerif-101"/>
      <use x="646.630859" xlink:href="#DejaVuSerif-115"/>
      <use x="697.949219" xlink:href="#DejaVuSerif-116"/>
      <use x="738.134766" xlink:href="#DejaVuSerif-97"/>
      <use x="797.753906" xlink:href="#DejaVuSerif-98"/>
      <use x="861.767578" xlink:href="#DejaVuSerif-108"/>
      <use x="893.75" xlink:href="#DejaVuSerif-105"/>
      <use x="925.732422" xlink:href="#DejaVuSerif-115"/>
      <use x="977.050781" xlink:href="#DejaVuSerif-104"/>
      <use x="1041.455078" xlink:href="#DejaVuSerif-32"/>
      <use x="1073.242188" xlink:href="#DejaVuSerif-101"/>
      <use x="1132.421875" xlink:href="#DejaVuSerif-109"/>
      <use x="1227.246094" xlink:href="#DejaVuSerif-101"/>
      <use x="1286.425781" xlink:href="#DejaVuSerif-114"/>
      <use x="1334.228516" xlink:href="#DejaVuSerif-103"/>
      <use x="1398.242188" xlink:href="#DejaVuSerif-101"/>
      <use x="1457.421875" xlink:href="#DejaVuSerif-110"/>
      <use x="1521.826172" xlink:href="#DejaVuSerif-99"/>
      <use x="1577.832031" xlink:href="#DejaVuSerif-121"/>
      <use x="1634.326172" xlink:href="#DejaVuSerif-32"/>
      <use x="1666.113281" xlink:href="#DejaVuSerif-114"/>
      <use x="1713.916016" xlink:href="#DejaVuSerif-101"/>
      <use x="1773.095703" xlink:href="#DejaVuSerif-115"/>
      <use x="1824.414062" xlink:href="#DejaVuSerif-112"/>
      <use x="1888.427734" xlink:href="#DejaVuSerif-111"/>
      <use x="1948.632812" xlink:href="#DejaVuSerif-110"/>
      <use x="2013.037109" xlink:href="#DejaVuSerif-115"/>
      <use x="2064.355469" xlink:href="#DejaVuSerif-101"/>
     </g>
    </g>
    <g id="line2d_47">
     <path d="M 79.979375 85.601 
L 107.979375 85.601 
" style="fill:none;stroke:#4b0082;stroke-linecap:square;stroke-width:1.5;"/>
    </g>
    <g id="line2d_48"/>
    <g id="text_19">
     <!-- Cordon sanitaire -->
     <g transform="translate(119.179375 90.501)scale(0.14 -0.14)">
      <use xlink:href="#DejaVuSerif-67"/>
      <use x="76.513672" xlink:href="#DejaVuSerif-111"/>
      <use x="136.71875" xlink:href="#DejaVuSerif-114"/>
      <use x="184.521484" xlink:href="#DejaVuSerif-100"/>
      <use x="248.535156" xlink:href="#DejaVuSerif-111"/>
      <use x="308.740234" xlink:href="#DejaVuSerif-110"/>
      <use x="373.144531" xlink:href="#DejaVuSerif-32"/>
      <use x="404.931641" xlink:href="#DejaVuSerif-115"/>
      <use x="456.25" xlink:href="#DejaVuSerif-97"/>
      <use x="515.869141" xlink:href="#DejaVuSerif-110"/>
      <use x="580.273438" xlink:href="#DejaVuSerif-105"/>
      <use x="612.255859" xlink:href="#DejaVuSerif-116"/>
      <use x="652.441406" xlink:href="#DejaVuSerif-97"/>
      <use x="712.060547" xlink:href="#DejaVuSerif-105"/>
      <use x="744.042969" xlink:href="#DejaVuSerif-114"/>
      <use x="791.845703" xlink:href="#DejaVuSerif-101"/>
     </g>
    </g>
    <g id="line2d_49">
     <path d="M 79.979375 106.150375 
L 107.979375 106.150375 
" style="fill:none;stroke:#ffd700;stroke-linecap:square;stroke-width:1.5;"/>
    </g>
    <g id="line2d_50"/>
    <g id="text_20">
     <!-- Measures to ensure security of supply -->
     <defs>
      <path d="M 5.515625 0 
L 5.515625 5.171875 
L 14.796875 5.171875 
L 14.796875 67.671875 
L 4.984375 67.671875 
L 4.984375 72.90625 
L 26.21875 72.90625 
L 51.8125 21 
L 77.390625 72.90625 
L 97.3125 72.90625 
L 97.3125 67.671875 
L 87.59375 67.671875 
L 87.59375 5.171875 
L 96.921875 5.171875 
L 96.921875 0 
L 68.40625 0 
L 68.40625 5.171875 
L 77.6875 5.171875 
L 77.6875 61.53125 
L 52.6875 10.6875 
L 45.796875 10.6875 
L 20.796875 61.53125 
L 20.796875 5.171875 
L 30.078125 5.171875 
L 30.078125 0 
z
" id="DejaVuSerif-77"/>
     </defs>
     <g transform="translate(119.179375 111.050375)scale(0.14 -0.14)">
      <use xlink:href="#DejaVuSerif-77"/>
      <use x="102.392578" xlink:href="#DejaVuSerif-101"/>
      <use x="161.572266" xlink:href="#DejaVuSerif-97"/>
      <use x="221.191406" xlink:href="#DejaVuSerif-115"/>
      <use x="272.509766" xlink:href="#DejaVuSerif-117"/>
      <use x="336.914062" xlink:href="#DejaVuSerif-114"/>
      <use x="384.716797" xlink:href="#DejaVuSerif-101"/>
      <use x="443.896484" xlink:href="#DejaVuSerif-115"/>
      <use x="495.214844" xlink:href="#DejaVuSerif-32"/>
      <use x="527.001953" xlink:href="#DejaVuSerif-116"/>
      <use x="567.1875" xlink:href="#DejaVuSerif-111"/>
      <use x="627.392578" xlink:href="#DejaVuSerif-32"/>
      <use x="659.179688" xlink:href="#DejaVuSerif-101"/>
      <use x="718.359375" xlink:href="#DejaVuSerif-110"/>
      <use x="782.763672" xlink:href="#DejaVuSerif-115"/>
      <use x="834.082031" xlink:href="#DejaVuSerif-117"/>
      <use x="898.486328" xlink:href="#DejaVuSerif-114"/>
      <use x="946.289062" xlink:href="#DejaVuSerif-101"/>
      <use x="1005.46875" xlink:href="#DejaVuSerif-32"/>
      <use x="1037.255859" xlink:href="#DejaVuSerif-115"/>
      <use x="1088.574219" xlink:href="#DejaVuSerif-101"/>
      <use x="1147.753906" xlink:href="#DejaVuSerif-99"/>
      <use x="1203.759766" xlink:href="#DejaVuSerif-117"/>
      <use x="1268.164062" xlink:href="#DejaVuSerif-114"/>
      <use x="1315.966797" xlink:href="#DejaVuSerif-105"/>
      <use x="1347.949219" xlink:href="#DejaVuSerif-116"/>
      <use x="1388.134766" xlink:href="#DejaVuSerif-121"/>
      <use x="1444.628906" xlink:href="#DejaVuSerif-32"/>
      <use x="1476.416016" xlink:href="#DejaVuSerif-111"/>
      <use x="1536.621094" xlink:href="#DejaVuSerif-102"/>
      <use x="1573.632812" xlink:href="#DejaVuSerif-32"/>
      <use x="1605.419922" xlink:href="#DejaVuSerif-115"/>
      <use x="1656.738281" xlink:href="#DejaVuSerif-117"/>
      <use x="1721.142578" xlink:href="#DejaVuSerif-112"/>
      <use x="1785.15625" xlink:href="#DejaVuSerif-112"/>
      <use x="1849.169922" xlink:href="#DejaVuSerif-108"/>
      <use x="1881.152344" xlink:href="#DejaVuSerif-121"/>
     </g>
    </g>
    <g id="line2d_51">
     <path d="M 79.979375 126.898812 
L 107.979375 126.898812 
" style="fill:none;stroke:#a0522d;stroke-linecap:square;stroke-width:1.5;"/>
    </g>
    <g id="line2d_52"/>
    <g id="text_21">
     <!-- Indoor gathering restriction -->
     <g transform="translate(119.179375 131.798812)scale(0.14 -0.14)">
      <use xlink:href="#DejaVuSerif-73"/>
      <use x="39.501953" xlink:href="#DejaVuSerif-110"/>
      <use x="103.90625" xlink:href="#DejaVuSerif-100"/>
      <use x="167.919922" xlink:href="#DejaVuSerif-111"/>
      <use x="228.125" xlink:href="#DejaVuSerif-111"/>
      <use x="288.330078" xlink:href="#DejaVuSerif-114"/>
      <use x="336.132812" xlink:href="#DejaVuSerif-32"/>
      <use x="367.919922" xlink:href="#DejaVuSerif-103"/>
      <use x="431.933594" xlink:href="#DejaVuSerif-97"/>
      <use x="491.552734" xlink:href="#DejaVuSerif-116"/>
      <use x="531.738281" xlink:href="#DejaVuSerif-104"/>
      <use x="596.142578" xlink:href="#DejaVuSerif-101"/>
      <use x="655.322266" xlink:href="#DejaVuSerif-114"/>
      <use x="703.125" xlink:href="#DejaVuSerif-105"/>
      <use x="735.107422" xlink:href="#DejaVuSerif-110"/>
      <use x="799.511719" xlink:href="#DejaVuSerif-103"/>
      <use x="863.525391" xlink:href="#DejaVuSerif-32"/>
      <use x="895.3125" xlink:href="#DejaVuSerif-114"/>
      <use x="943.115234" xlink:href="#DejaVuSerif-101"/>
      <use x="1002.294922" xlink:href="#DejaVuSerif-115"/>
      <use x="1053.613281" xlink:href="#DejaVuSerif-116"/>
      <use x="1093.798828" xlink:href="#DejaVuSerif-114"/>
      <use x="1141.601562" xlink:href="#DejaVuSerif-105"/>
      <use x="1173.583984" xlink:href="#DejaVuSerif-99"/>
      <use x="1229.589844" xlink:href="#DejaVuSerif-116"/>
      <use x="1269.775391" xlink:href="#DejaVuSerif-105"/>
      <use x="1301.757812" xlink:href="#DejaVuSerif-111"/>
      <use x="1361.962891" xlink:href="#DejaVuSerif-110"/>
     </g>
    </g>
    <g id="line2d_53">
     <path d="M 79.979375 147.64725 
L 107.979375 147.64725 
" style="fill:none;stroke:#32cd32;stroke-linecap:square;stroke-width:1.5;"/>
    </g>
    <g id="line2d_54"/>
    <g id="text_22">
     <!-- Indoor and outdoor gathering restriction -->
     <g transform="translate(119.179375 152.54725)scale(0.14 -0.14)">
      <use xlink:href="#DejaVuSerif-73"/>
      <use x="39.501953" xlink:href="#DejaVuSerif-110"/>
      <use x="103.90625" xlink:href="#DejaVuSerif-100"/>
      <use x="167.919922" xlink:href="#DejaVuSerif-111"/>
      <use x="228.125" xlink:href="#DejaVuSerif-111"/>
      <use x="288.330078" xlink:href="#DejaVuSerif-114"/>
      <use x="336.132812" xlink:href="#DejaVuSerif-32"/>
      <use x="367.919922" xlink:href="#DejaVuSerif-97"/>
      <use x="427.539062" xlink:href="#DejaVuSerif-110"/>
      <use x="491.943359" xlink:href="#DejaVuSerif-100"/>
      <use x="555.957031" xlink:href="#DejaVuSerif-32"/>
      <use x="587.744141" xlink:href="#DejaVuSerif-111"/>
      <use x="647.949219" xlink:href="#DejaVuSerif-117"/>
      <use x="712.353516" xlink:href="#DejaVuSerif-116"/>
      <use x="752.539062" xlink:href="#DejaVuSerif-100"/>
      <use x="816.552734" xlink:href="#DejaVuSerif-111"/>
      <use x="876.757812" xlink:href="#DejaVuSerif-111"/>
      <use x="936.962891" xlink:href="#DejaVuSerif-114"/>
      <use x="984.765625" xlink:href="#DejaVuSerif-32"/>
      <use x="1016.552734" xlink:href="#DejaVuSerif-103"/>
      <use x="1080.566406" xlink:href="#DejaVuSerif-97"/>
      <use x="1140.185547" xlink:href="#DejaVuSerif-116"/>
      <use x="1180.371094" xlink:href="#DejaVuSerif-104"/>
      <use x="1244.775391" xlink:href="#DejaVuSerif-101"/>
      <use x="1303.955078" xlink:href="#DejaVuSerif-114"/>
      <use x="1351.757812" xlink:href="#DejaVuSerif-105"/>
      <use x="1383.740234" xlink:href="#DejaVuSerif-110"/>
      <use x="1448.144531" xlink:href="#DejaVuSerif-103"/>
      <use x="1512.158203" xlink:href="#DejaVuSerif-32"/>
      <use x="1543.945312" xlink:href="#DejaVuSerif-114"/>
      <use x="1591.748047" xlink:href="#DejaVuSerif-101"/>
      <use x="1650.927734" xlink:href="#DejaVuSerif-115"/>
      <use x="1702.246094" xlink:href="#DejaVuSerif-116"/>
      <use x="1742.431641" xlink:href="#DejaVuSerif-114"/>
      <use x="1790.234375" xlink:href="#DejaVuSerif-105"/>
      <use x="1822.216797" xlink:href="#DejaVuSerif-99"/>
      <use x="1878.222656" xlink:href="#DejaVuSerif-116"/>
      <use x="1918.408203" xlink:href="#DejaVuSerif-105"/>
      <use x="1950.390625" xlink:href="#DejaVuSerif-111"/>
      <use x="2010.595703" xlink:href="#DejaVuSerif-110"/>
     </g>
    </g>
    <g id="line2d_55">
     <path d="M 79.979375 168.395687 
L 107.979375 168.395687 
" style="fill:none;stroke:#4169e1;stroke-linecap:square;stroke-width:1.5;"/>
    </g>
    <g id="line2d_56"/>
    <g id="text_23">
     <!-- Non-essential travel restrictions -->
     <g transform="translate(119.179375 173.295687)scale(0.14 -0.14)">
      <use xlink:href="#DejaVuSerif-78"/>
      <use x="87.5" xlink:href="#DejaVuSerif-111"/>
      <use x="147.705078" xlink:href="#DejaVuSerif-110"/>
      <use x="212.109375" xlink:href="#DejaVuSerif-45"/>
      <use x="245.898438" xlink:href="#DejaVuSerif-101"/>
      <use x="305.078125" xlink:href="#DejaVuSerif-115"/>
      <use x="356.396484" xlink:href="#DejaVuSerif-115"/>
      <use x="407.714844" xlink:href="#DejaVuSerif-101"/>
      <use x="466.894531" xlink:href="#DejaVuSerif-110"/>
      <use x="531.298828" xlink:href="#DejaVuSerif-116"/>
      <use x="571.484375" xlink:href="#DejaVuSerif-105"/>
      <use x="603.466797" xlink:href="#DejaVuSerif-97"/>
      <use x="663.085938" xlink:href="#DejaVuSerif-108"/>
      <use x="695.068359" xlink:href="#DejaVuSerif-32"/>
      <use x="726.855469" xlink:href="#DejaVuSerif-116"/>
      <use x="767.041016" xlink:href="#DejaVuSerif-114"/>
      <use x="814.84375" xlink:href="#DejaVuSerif-97"/>
      <use x="874.462891" xlink:href="#DejaVuSerif-118"/>
      <use x="930.957031" xlink:href="#DejaVuSerif-101"/>
      <use x="990.136719" xlink:href="#DejaVuSerif-108"/>
      <use x="1022.119141" xlink:href="#DejaVuSerif-32"/>
      <use x="1053.90625" xlink:href="#DejaVuSerif-114"/>
      <use x="1101.708984" xlink:href="#DejaVuSerif-101"/>
      <use x="1160.888672" xlink:href="#DejaVuSerif-115"/>
      <use x="1212.207031" xlink:href="#DejaVuSerif-116"/>
      <use x="1252.392578" xlink:href="#DejaVuSerif-114"/>
      <use x="1300.195312" xlink:href="#DejaVuSerif-105"/>
      <use x="1332.177734" xlink:href="#DejaVuSerif-99"/>
      <use x="1388.183594" xlink:href="#DejaVuSerif-116"/>
      <use x="1428.369141" xlink:href="#DejaVuSerif-105"/>
      <use x="1460.351562" xlink:href="#DejaVuSerif-111"/>
      <use x="1520.556641" xlink:href="#DejaVuSerif-110"/>
      <use x="1584.960938" xlink:href="#DejaVuSerif-115"/>
     </g>
    </g>
    <g id="line2d_57">
     <path d="M 79.979375 188.945062 
L 107.979375 188.945062 
" style="fill:none;stroke:#d8bfd8;stroke-linecap:square;stroke-width:1.5;"/>
    </g>
    <g id="line2d_58"/>
    <g id="text_24">
     <!-- 50 people gathering restrictions -->
     <g transform="translate(119.179375 193.845062)scale(0.14 -0.14)">
      <use xlink:href="#DejaVuSerif-53"/>
      <use x="63.623047" xlink:href="#DejaVuSerif-48"/>
      <use x="127.246094" xlink:href="#DejaVuSerif-32"/>
      <use x="159.033203" xlink:href="#DejaVuSerif-112"/>
      <use x="223.046875" xlink:href="#DejaVuSerif-101"/>
      <use x="282.226562" xlink:href="#DejaVuSerif-111"/>
      <use x="342.431641" xlink:href="#DejaVuSerif-112"/>
      <use x="406.445312" xlink:href="#DejaVuSerif-108"/>
      <use x="438.427734" xlink:href="#DejaVuSerif-101"/>
      <use x="497.607422" xlink:href="#DejaVuSerif-32"/>
      <use x="529.394531" xlink:href="#DejaVuSerif-103"/>
      <use x="593.408203" xlink:href="#DejaVuSerif-97"/>
      <use x="653.027344" xlink:href="#DejaVuSerif-116"/>
      <use x="693.212891" xlink:href="#DejaVuSerif-104"/>
      <use x="757.617188" xlink:href="#DejaVuSerif-101"/>
      <use x="816.796875" xlink:href="#DejaVuSerif-114"/>
      <use x="864.599609" xlink:href="#DejaVuSerif-105"/>
      <use x="896.582031" xlink:href="#DejaVuSerif-110"/>
      <use x="960.986328" xlink:href="#DejaVuSerif-103"/>
      <use x="1025" xlink:href="#DejaVuSerif-32"/>
      <use x="1056.787109" xlink:href="#DejaVuSerif-114"/>
      <use x="1104.589844" xlink:href="#DejaVuSerif-101"/>
      <use x="1163.769531" xlink:href="#DejaVuSerif-115"/>
      <use x="1215.087891" xlink:href="#DejaVuSerif-116"/>
      <use x="1255.273438" xlink:href="#DejaVuSerif-114"/>
      <use x="1303.076172" xlink:href="#DejaVuSerif-105"/>
      <use x="1335.058594" xlink:href="#DejaVuSerif-99"/>
      <use x="1391.064453" xlink:href="#DejaVuSerif-116"/>
      <use x="1431.25" xlink:href="#DejaVuSerif-105"/>
      <use x="1463.232422" xlink:href="#DejaVuSerif-111"/>
      <use x="1523.4375" xlink:href="#DejaVuSerif-110"/>
      <use x="1587.841797" xlink:href="#DejaVuSerif-115"/>
     </g>
    </g>
    <g id="line2d_59">
     <path d="M 79.979375 209.6935 
L 107.979375 209.6935 
" style="fill:none;stroke:#8b008b;stroke-linecap:square;stroke-width:1.5;"/>
    </g>
    <g id="line2d_60"/>
    <g id="text_25">
     <!-- Take-out only restaurants -->
     <defs>
      <path d="M 19.09375 0 
L 19.09375 5.171875 
L 28.421875 5.171875 
L 28.421875 67.09375 
L 6.984375 67.09375 
L 6.984375 55.71875 
L 0.984375 55.71875 
L 0.984375 72.90625 
L 65.71875 72.90625 
L 65.71875 55.71875 
L 59.71875 55.71875 
L 59.71875 67.09375 
L 38.28125 67.09375 
L 38.28125 5.171875 
L 47.609375 5.171875 
L 47.609375 0 
z
" id="DejaVuSerif-84"/>
      <path d="M 28.609375 0 
L 3.421875 0 
L 3.421875 5.171875 
L 11.53125 5.171875 
L 11.53125 70.796875 
L 2.875 70.796875 
L 2.875 75.984375 
L 20.515625 75.984375 
L 20.515625 26.515625 
L 42.390625 46.6875 
L 34.90625 46.6875 
L 34.90625 51.90625 
L 58.40625 51.90625 
L 58.40625 46.6875 
L 49.515625 46.6875 
L 34.078125 32.421875 
L 53.8125 5.171875 
L 61.28125 5.171875 
L 61.28125 0 
L 35.6875 0 
L 35.6875 5.171875 
L 43.109375 5.171875 
L 27.59375 26.515625 
L 20.515625 19.921875 
L 20.515625 5.171875 
L 28.609375 5.171875 
z
" id="DejaVuSerif-107"/>
     </defs>
     <g transform="translate(119.179375 214.5935)scale(0.14 -0.14)">
      <use xlink:href="#DejaVuSerif-84"/>
      <use x="66.589844" xlink:href="#DejaVuSerif-97"/>
      <use x="126.208984" xlink:href="#DejaVuSerif-107"/>
      <use x="186.804688" xlink:href="#DejaVuSerif-101"/>
      <use x="245.984375" xlink:href="#DejaVuSerif-45"/>
      <use x="279.773438" xlink:href="#DejaVuSerif-111"/>
      <use x="339.978516" xlink:href="#DejaVuSerif-117"/>
      <use x="404.382812" xlink:href="#DejaVuSerif-116"/>
      <use x="444.568359" xlink:href="#DejaVuSerif-32"/>
      <use x="476.355469" xlink:href="#DejaVuSerif-111"/>
      <use x="536.560547" xlink:href="#DejaVuSerif-110"/>
      <use x="600.964844" xlink:href="#DejaVuSerif-108"/>
      <use x="632.947266" xlink:href="#DejaVuSerif-121"/>
      <use x="689.441406" xlink:href="#DejaVuSerif-32"/>
      <use x="721.228516" xlink:href="#DejaVuSerif-114"/>
      <use x="769.03125" xlink:href="#DejaVuSerif-101"/>
      <use x="828.210938" xlink:href="#DejaVuSerif-115"/>
      <use x="879.529297" xlink:href="#DejaVuSerif-116"/>
      <use x="919.714844" xlink:href="#DejaVuSerif-97"/>
      <use x="979.333984" xlink:href="#DejaVuSerif-117"/>
      <use x="1043.738281" xlink:href="#DejaVuSerif-114"/>
      <use x="1091.541016" xlink:href="#DejaVuSerif-97"/>
      <use x="1151.160156" xlink:href="#DejaVuSerif-110"/>
      <use x="1215.564453" xlink:href="#DejaVuSerif-116"/>
      <use x="1255.75" xlink:href="#DejaVuSerif-115"/>
     </g>
    </g>
    <g id="line2d_61">
     <path d="M 79.979375 230.441937 
L 107.979375 230.441937 
" style="fill:none;stroke:#ffd700;stroke-linecap:square;stroke-width:1.5;"/>
    </g>
    <g id="line2d_62"/>
    <g id="text_26">
     <!-- Overflow centres prepared -->
     <defs>
      <path d="M 41.015625 3.8125 
Q 52.984375 3.8125 59.078125 12.03125 
Q 65.1875 20.265625 65.1875 36.375 
Q 65.1875 52.546875 59.078125 60.765625 
Q 52.984375 69 41.015625 69 
Q 29 69 22.890625 60.765625 
Q 16.796875 52.546875 16.796875 36.375 
Q 16.796875 20.265625 22.890625 12.03125 
Q 29 3.8125 41.015625 3.8125 
z
M 41.015625 -1.421875 
Q 33.59375 -1.421875 27.359375 1.015625 
Q 21.140625 3.46875 16.40625 8.203125 
Q 10.9375 13.671875 8.265625 20.609375 
Q 5.609375 27.546875 5.609375 36.375 
Q 5.609375 45.21875 8.265625 52.171875 
Q 10.9375 59.125 16.40625 64.59375 
Q 21.1875 69.390625 27.34375 71.796875 
Q 33.5 74.21875 41.015625 74.21875 
Q 56.890625 74.21875 66.65625 63.8125 
Q 76.421875 53.421875 76.421875 36.375 
Q 76.421875 27.640625 73.734375 20.625 
Q 71.046875 13.625 65.578125 8.203125 
Q 60.796875 3.421875 54.640625 1 
Q 48.484375 -1.421875 41.015625 -1.421875 
z
" id="DejaVuSerif-79"/>
      <path d="M 48 51.90625 
L 61.28125 11.375 
L 73 46.6875 
L 65.484375 46.6875 
L 65.484375 51.90625 
L 84.28125 51.90625 
L 84.28125 46.6875 
L 78.515625 46.6875 
L 63.09375 0 
L 55.609375 0 
L 42.828125 38.8125 
L 29.984375 0 
L 22.796875 0 
L 7.421875 46.6875 
L 1.609375 46.6875 
L 1.609375 51.90625 
L 25.09375 51.90625 
L 25.09375 46.6875 
L 16.703125 46.6875 
L 28.328125 11.375 
L 41.703125 51.90625 
z
" id="DejaVuSerif-119"/>
     </defs>
     <g transform="translate(119.179375 235.341937)scale(0.14 -0.14)">
      <use xlink:href="#DejaVuSerif-79"/>
      <use x="81.982422" xlink:href="#DejaVuSerif-118"/>
      <use x="138.476562" xlink:href="#DejaVuSerif-101"/>
      <use x="197.65625" xlink:href="#DejaVuSerif-114"/>
      <use x="245.458984" xlink:href="#DejaVuSerif-102"/>
      <use x="282.470703" xlink:href="#DejaVuSerif-108"/>
      <use x="314.453125" xlink:href="#DejaVuSerif-111"/>
      <use x="374.658203" xlink:href="#DejaVuSerif-119"/>
      <use x="460.253906" xlink:href="#DejaVuSerif-32"/>
      <use x="492.041016" xlink:href="#DejaVuSerif-99"/>
      <use x="548.046875" xlink:href="#DejaVuSerif-101"/>
      <use x="607.226562" xlink:href="#DejaVuSerif-110"/>
      <use x="671.630859" xlink:href="#DejaVuSerif-116"/>
      <use x="711.816406" xlink:href="#DejaVuSerif-114"/>
      <use x="759.619141" xlink:href="#DejaVuSerif-101"/>
      <use x="818.798828" xlink:href="#DejaVuSerif-115"/>
      <use x="870.117188" xlink:href="#DejaVuSerif-32"/>
      <use x="901.904297" xlink:href="#DejaVuSerif-112"/>
      <use x="965.917969" xlink:href="#DejaVuSerif-114"/>
      <use x="1013.720703" xlink:href="#DejaVuSerif-101"/>
      <use x="1072.900391" xlink:href="#DejaVuSerif-112"/>
      <use x="1136.914062" xlink:href="#DejaVuSerif-97"/>
      <use x="1196.533203" xlink:href="#DejaVuSerif-114"/>
      <use x="1244.335938" xlink:href="#DejaVuSerif-101"/>
      <use x="1303.515625" xlink:href="#DejaVuSerif-100"/>
     </g>
    </g>
    <g id="line2d_63">
     <path d="M 79.979375 250.991312 
L 107.979375 250.991312 
" style="fill:none;stroke:#6b8e23;stroke-linecap:square;stroke-width:1.5;"/>
    </g>
    <g id="line2d_64"/>
    <g id="text_27">
     <!-- Self-isolation restrictions after travelling -->
     <defs>
      <path d="M 9.28125 3.515625 
L 9.28125 20.125 
L 14.890625 20.0625 
Q 15.140625 11.765625 19.703125 7.78125 
Q 24.265625 3.8125 33.59375 3.8125 
Q 42.28125 3.8125 46.84375 7.25 
Q 51.421875 10.6875 51.421875 17.28125 
Q 51.421875 22.5625 48.65625 25.390625 
Q 45.90625 28.21875 37.015625 30.90625 
L 27.390625 33.796875 
Q 16.9375 36.96875 12.671875 41.703125 
Q 8.40625 46.4375 8.40625 54.6875 
Q 8.40625 63.96875 14.984375 69.09375 
Q 21.578125 74.21875 33.5 74.21875 
Q 38.578125 74.21875 44.625 73.109375 
Q 50.6875 72.015625 57.515625 69.921875 
L 57.515625 54.390625 
L 52 54.390625 
Q 51.171875 62.109375 46.84375 65.546875 
Q 42.53125 69 33.6875 69 
Q 25.984375 69 21.953125 65.84375 
Q 17.921875 62.703125 17.921875 56.6875 
Q 17.921875 51.46875 20.9375 48.484375 
Q 23.96875 45.515625 33.796875 42.578125 
L 42.828125 39.890625 
Q 52.734375 36.921875 56.953125 32.296875 
Q 61.1875 27.6875 61.1875 19.921875 
Q 61.1875 9.328125 54.390625 3.953125 
Q 47.609375 -1.421875 34.1875 -1.421875 
Q 28.171875 -1.421875 21.9375 -0.1875 
Q 15.71875 1.03125 9.28125 3.515625 
z
" id="DejaVuSerif-83"/>
     </defs>
     <g transform="translate(119.179375 255.891312)scale(0.14 -0.14)">
      <use xlink:href="#DejaVuSerif-83"/>
      <use x="68.505859" xlink:href="#DejaVuSerif-101"/>
      <use x="127.685547" xlink:href="#DejaVuSerif-108"/>
      <use x="159.667969" xlink:href="#DejaVuSerif-102"/>
      <use x="196.632812" xlink:href="#DejaVuSerif-45"/>
      <use x="230.421875" xlink:href="#DejaVuSerif-105"/>
      <use x="262.404297" xlink:href="#DejaVuSerif-115"/>
      <use x="313.722656" xlink:href="#DejaVuSerif-111"/>
      <use x="373.927734" xlink:href="#DejaVuSerif-108"/>
      <use x="405.910156" xlink:href="#DejaVuSerif-97"/>
      <use x="465.529297" xlink:href="#DejaVuSerif-116"/>
      <use x="505.714844" xlink:href="#DejaVuSerif-105"/>
      <use x="537.697266" xlink:href="#DejaVuSerif-111"/>
      <use x="597.902344" xlink:href="#DejaVuSerif-110"/>
      <use x="662.306641" xlink:href="#DejaVuSerif-32"/>
      <use x="694.09375" xlink:href="#DejaVuSerif-114"/>
      <use x="741.896484" xlink:href="#DejaVuSerif-101"/>
      <use x="801.076172" xlink:href="#DejaVuSerif-115"/>
      <use x="852.394531" xlink:href="#DejaVuSerif-116"/>
      <use x="892.580078" xlink:href="#DejaVuSerif-114"/>
      <use x="940.382812" xlink:href="#DejaVuSerif-105"/>
      <use x="972.365234" xlink:href="#DejaVuSerif-99"/>
      <use x="1028.371094" xlink:href="#DejaVuSerif-116"/>
      <use x="1068.556641" xlink:href="#DejaVuSerif-105"/>
      <use x="1100.539062" xlink:href="#DejaVuSerif-111"/>
      <use x="1160.744141" xlink:href="#DejaVuSerif-110"/>
      <use x="1225.148438" xlink:href="#DejaVuSerif-115"/>
      <use x="1276.466797" xlink:href="#DejaVuSerif-32"/>
      <use x="1308.253906" xlink:href="#DejaVuSerif-97"/>
      <use x="1367.873047" xlink:href="#DejaVuSerif-102"/>
      <use x="1404.884766" xlink:href="#DejaVuSerif-116"/>
      <use x="1445.070312" xlink:href="#DejaVuSerif-101"/>
      <use x="1504.25" xlink:href="#DejaVuSerif-114"/>
      <use x="1552.052734" xlink:href="#DejaVuSerif-32"/>
      <use x="1583.839844" xlink:href="#DejaVuSerif-116"/>
      <use x="1624.025391" xlink:href="#DejaVuSerif-114"/>
      <use x="1671.828125" xlink:href="#DejaVuSerif-97"/>
      <use x="1731.447266" xlink:href="#DejaVuSerif-118"/>
      <use x="1787.941406" xlink:href="#DejaVuSerif-101"/>
      <use x="1847.121094" xlink:href="#DejaVuSerif-108"/>
      <use x="1879.103516" xlink:href="#DejaVuSerif-108"/>
      <use x="1911.085938" xlink:href="#DejaVuSerif-105"/>
      <use x="1943.068359" xlink:href="#DejaVuSerif-110"/>
      <use x="2007.472656" xlink:href="#DejaVuSerif-103"/>
     </g>
    </g>
    <g id="line2d_65">
     <path d="M 79.979375 271.73975 
L 107.979375 271.73975 
" style="fill:none;stroke:#cd5c5c;stroke-linecap:square;stroke-width:1.5;"/>
    </g>
    <g id="line2d_66"/>
    <g id="text_28">
     <!-- Major event cancellations -->
     <defs>
      <path d="M 10.015625 68.015625 
Q 10.015625 70.265625 11.640625 71.921875 
Q 13.28125 73.578125 15.578125 73.578125 
Q 17.828125 73.578125 19.453125 71.921875 
Q 21.09375 70.265625 21.09375 68.015625 
Q 21.09375 65.71875 19.5 64.109375 
Q 17.921875 62.5 15.578125 62.5 
Q 13.28125 62.5 11.640625 64.109375 
Q 10.015625 65.71875 10.015625 68.015625 
z
M 12.203125 46.6875 
L 3.71875 46.6875 
L 3.71875 51.90625 
L 21.1875 51.90625 
L 21.1875 -5.078125 
Q 21.1875 -13.09375 16.421875 -17.65625 
Q 11.671875 -22.21875 3.328125 -22.21875 
Q -0.203125 -22.21875 -3.390625 -21.40625 
Q -6.59375 -20.609375 -9.625 -19 
L -9.625 -8.296875 
L -4.984375 -8.296875 
Q -4.640625 -12.984375 -2.5625 -15.1875 
Q -0.484375 -17.390625 3.515625 -17.390625 
Q 7.953125 -17.390625 10.078125 -14.375 
Q 12.203125 -11.375 12.203125 -5.078125 
z
" id="DejaVuSerif-106"/>
     </defs>
     <g transform="translate(119.179375 276.63975)scale(0.14 -0.14)">
      <use xlink:href="#DejaVuSerif-77"/>
      <use x="102.392578" xlink:href="#DejaVuSerif-97"/>
      <use x="162.011719" xlink:href="#DejaVuSerif-106"/>
      <use x="193.017578" xlink:href="#DejaVuSerif-111"/>
      <use x="253.222656" xlink:href="#DejaVuSerif-114"/>
      <use x="301.025391" xlink:href="#DejaVuSerif-32"/>
      <use x="332.8125" xlink:href="#DejaVuSerif-101"/>
      <use x="391.992188" xlink:href="#DejaVuSerif-118"/>
      <use x="448.486328" xlink:href="#DejaVuSerif-101"/>
      <use x="507.666016" xlink:href="#DejaVuSerif-110"/>
      <use x="572.070312" xlink:href="#DejaVuSerif-116"/>
      <use x="612.255859" xlink:href="#DejaVuSerif-32"/>
      <use x="644.042969" xlink:href="#DejaVuSerif-99"/>
      <use x="700.048828" xlink:href="#DejaVuSerif-97"/>
      <use x="759.667969" xlink:href="#DejaVuSerif-110"/>
      <use x="824.072266" xlink:href="#DejaVuSerif-99"/>
      <use x="880.078125" xlink:href="#DejaVuSerif-101"/>
      <use x="939.257812" xlink:href="#DejaVuSerif-108"/>
      <use x="971.240234" xlink:href="#DejaVuSerif-108"/>
      <use x="1003.222656" xlink:href="#DejaVuSerif-97"/>
      <use x="1062.841797" xlink:href="#DejaVuSerif-116"/>
      <use x="1103.027344" xlink:href="#DejaVuSerif-105"/>
      <use x="1135.009766" xlink:href="#DejaVuSerif-111"/>
      <use x="1195.214844" xlink:href="#DejaVuSerif-110"/>
      <use x="1259.619141" xlink:href="#DejaVuSerif-115"/>
     </g>
    </g>
    <g id="line2d_67">
     <path d="M 79.979375 292.488187 
L 107.979375 292.488187 
" style="fill:none;stroke:#00bfff;stroke-linecap:square;stroke-width:1.5;"/>
    </g>
    <g id="line2d_68"/>
    <g id="text_29">
     <!-- Tent cities broken up -->
     <g transform="translate(119.179375 297.388187)scale(0.14 -0.14)">
      <use xlink:href="#DejaVuSerif-84"/>
      <use x="66.589844" xlink:href="#DejaVuSerif-101"/>
      <use x="125.769531" xlink:href="#DejaVuSerif-110"/>
      <use x="190.173828" xlink:href="#DejaVuSerif-116"/>
      <use x="230.359375" xlink:href="#DejaVuSerif-32"/>
      <use x="262.146484" xlink:href="#DejaVuSerif-99"/>
      <use x="318.152344" xlink:href="#DejaVuSerif-105"/>
      <use x="350.134766" xlink:href="#DejaVuSerif-116"/>
      <use x="390.320312" xlink:href="#DejaVuSerif-105"/>
      <use x="422.302734" xlink:href="#DejaVuSerif-101"/>
      <use x="481.482422" xlink:href="#DejaVuSerif-115"/>
      <use x="532.800781" xlink:href="#DejaVuSerif-32"/>
      <use x="564.587891" xlink:href="#DejaVuSerif-98"/>
      <use x="628.601562" xlink:href="#DejaVuSerif-114"/>
      <use x="676.404297" xlink:href="#DejaVuSerif-111"/>
      <use x="736.609375" xlink:href="#DejaVuSerif-107"/>
      <use x="797.205078" xlink:href="#DejaVuSerif-101"/>
      <use x="856.384766" xlink:href="#DejaVuSerif-110"/>
      <use x="920.789062" xlink:href="#DejaVuSerif-32"/>
      <use x="952.576172" xlink:href="#DejaVuSerif-117"/>
      <use x="1016.980469" xlink:href="#DejaVuSerif-112"/>
     </g>
    </g>
    <g id="line2d_69">
     <path d="M 79.979375 313.037562 
L 107.979375 313.037562 
" style="fill:none;stroke:#ff69b4;stroke-linecap:square;stroke-width:1.5;"/>
    </g>
    <g id="line2d_70"/>
    <g id="text_30">
     <!-- Peace arch park closed -->
     <g transform="translate(119.179375 317.937562)scale(0.14 -0.14)">
      <use xlink:href="#DejaVuSerif-80"/>
      <use x="67.222656" xlink:href="#DejaVuSerif-101"/>
      <use x="126.402344" xlink:href="#DejaVuSerif-97"/>
      <use x="186.021484" xlink:href="#DejaVuSerif-99"/>
      <use x="242.027344" xlink:href="#DejaVuSerif-101"/>
      <use x="301.207031" xlink:href="#DejaVuSerif-32"/>
      <use x="332.994141" xlink:href="#DejaVuSerif-97"/>
      <use x="392.613281" xlink:href="#DejaVuSerif-114"/>
      <use x="440.416016" xlink:href="#DejaVuSerif-99"/>
      <use x="496.421875" xlink:href="#DejaVuSerif-104"/>
      <use x="560.826172" xlink:href="#DejaVuSerif-32"/>
      <use x="592.613281" xlink:href="#DejaVuSerif-112"/>
      <use x="656.626953" xlink:href="#DejaVuSerif-97"/>
      <use x="716.246094" xlink:href="#DejaVuSerif-114"/>
      <use x="764.048828" xlink:href="#DejaVuSerif-107"/>
      <use x="824.644531" xlink:href="#DejaVuSerif-32"/>
      <use x="856.431641" xlink:href="#DejaVuSerif-99"/>
      <use x="912.4375" xlink:href="#DejaVuSerif-108"/>
      <use x="944.419922" xlink:href="#DejaVuSerif-111"/>
      <use x="1004.625" xlink:href="#DejaVuSerif-115"/>
      <use x="1055.943359" xlink:href="#DejaVuSerif-101"/>
      <use x="1115.123047" xlink:href="#DejaVuSerif-100"/>
     </g>
    </g>
    <g id="line2d_71">
     <path d="M 79.979375 333.586937 
L 107.979375 333.586937 
" style="fill:none;stroke:#d2b48c;stroke-linecap:square;stroke-width:1.5;"/>
    </g>
    <g id="line2d_72"/>
    <g id="text_31">
     <!-- Back to school restrictions -->
     <g transform="translate(119.179375 338.486937)scale(0.14 -0.14)">
      <use xlink:href="#DejaVuSerif-66"/>
      <use x="73.486328" xlink:href="#DejaVuSerif-97"/>
      <use x="133.105469" xlink:href="#DejaVuSerif-99"/>
      <use x="189.111328" xlink:href="#DejaVuSerif-107"/>
      <use x="249.707031" xlink:href="#DejaVuSerif-32"/>
      <use x="281.494141" xlink:href="#DejaVuSerif-116"/>
      <use x="321.679688" xlink:href="#DejaVuSerif-111"/>
      <use x="381.884766" xlink:href="#DejaVuSerif-32"/>
      <use x="413.671875" xlink:href="#DejaVuSerif-115"/>
      <use x="464.990234" xlink:href="#DejaVuSerif-99"/>
      <use x="520.996094" xlink:href="#DejaVuSerif-104"/>
      <use x="585.400391" xlink:href="#DejaVuSerif-111"/>
      <use x="645.605469" xlink:href="#DejaVuSerif-111"/>
      <use x="705.810547" xlink:href="#DejaVuSerif-108"/>
      <use x="737.792969" xlink:href="#DejaVuSerif-32"/>
      <use x="769.580078" xlink:href="#DejaVuSerif-114"/>
      <use x="817.382812" xlink:href="#DejaVuSerif-101"/>
      <use x="876.5625" xlink:href="#DejaVuSerif-115"/>
      <use x="927.880859" xlink:href="#DejaVuSerif-116"/>
      <use x="968.066406" xlink:href="#DejaVuSerif-114"/>
      <use x="1015.869141" xlink:href="#DejaVuSerif-105"/>
      <use x="1047.851562" xlink:href="#DejaVuSerif-99"/>
      <use x="1103.857422" xlink:href="#DejaVuSerif-116"/>
      <use x="1144.042969" xlink:href="#DejaVuSerif-105"/>
      <use x="1176.025391" xlink:href="#DejaVuSerif-111"/>
      <use x="1236.230469" xlink:href="#DejaVuSerif-110"/>
      <use x="1300.634766" xlink:href="#DejaVuSerif-115"/>
     </g>
    </g>
    <g id="line2d_73">
     <path d="M 79.979375 354.136312 
L 107.979375 354.136312 
" style="fill:none;stroke:#f0e68c;stroke-linecap:square;stroke-width:1.5;"/>
    </g>
    <g id="line2d_74"/>
    <g id="text_32">
     <!-- Stronger COVID policing -->
     <g transform="translate(119.179375 359.036312)scale(0.14 -0.14)">
      <use xlink:href="#DejaVuSerif-83"/>
      <use x="68.505859" xlink:href="#DejaVuSerif-116"/>
      <use x="108.691406" xlink:href="#DejaVuSerif-114"/>
      <use x="156.494141" xlink:href="#DejaVuSerif-111"/>
      <use x="216.699219" xlink:href="#DejaVuSerif-110"/>
      <use x="281.103516" xlink:href="#DejaVuSerif-103"/>
      <use x="345.117188" xlink:href="#DejaVuSerif-101"/>
      <use x="404.296875" xlink:href="#DejaVuSerif-114"/>
      <use x="452.099609" xlink:href="#DejaVuSerif-32"/>
      <use x="483.886719" xlink:href="#DejaVuSerif-67"/>
      <use x="560.400391" xlink:href="#DejaVuSerif-79"/>
      <use x="642.367188" xlink:href="#DejaVuSerif-86"/>
      <use x="714.583984" xlink:href="#DejaVuSerif-73"/>
      <use x="754.085938" xlink:href="#DejaVuSerif-68"/>
      <use x="834.261719" xlink:href="#DejaVuSerif-32"/>
      <use x="866.048828" xlink:href="#DejaVuSerif-112"/>
      <use x="930.0625" xlink:href="#DejaVuSerif-111"/>
      <use x="990.267578" xlink:href="#DejaVuSerif-108"/>
      <use x="1022.25" xlink:href="#DejaVuSerif-105"/>
      <use x="1054.232422" xlink:href="#DejaVuSerif-99"/>
      <use x="1110.238281" xlink:href="#DejaVuSerif-105"/>
      <use x="1142.220703" xlink:href="#DejaVuSerif-110"/>
      <use x="1206.625" xlink:href="#DejaVuSerif-103"/>
     </g>
    </g>
   </g>
  </g>
 </g>
 <defs>
  <clipPath id="pbad37279bc">
   <rect height="652.32" width="1004.4" x="67.379375" y="25.965375"/>
  </clipPath>
 </defs>
</svg>
