<?xml version="1.0" encoding="utf-8" standalone="no"?>
<!DOCTYPE svg PUBLIC "-//W3C//DTD SVG 1.1//EN"
  "http://www.w3.org/Graphics/SVG/1.1/DTD/svg11.dtd">
<!-- Created with matplotlib (https://matplotlib.org/) -->
<svg height="723.584125pt" version="1.1" viewBox="0 0 1087.886875 723.584125" width="1087.886875pt" xmlns="http://www.w3.org/2000/svg" xmlns:xlink="http://www.w3.org/1999/xlink">
 <defs>
  <style type="text/css">
*{stroke-linecap:butt;stroke-linejoin:round;}
  </style>
 </defs>
 <g id="figure_1">
  <g id="patch_1">
   <path d="M 0 723.584125 
L 1087.886875 723.584125 
L 1087.886875 0 
L 0 0 
z
" style="fill:none;"/>
  </g>
  <g id="axes_1">
   <g id="patch_2">
    <path d="M 76.286875 678.285375 
L 1080.686875 678.285375 
L 1080.686875 25.965375 
L 76.286875 25.965375 
z
" style="fill:#ffffff;"/>
   </g>
   <g id="matplotlib.axis_1">
    <g id="xtick_1">
     <g id="line2d_1">
      <defs>
       <path d="M 0 0 
L 0 3.5 
" id="m61e1b2a45a" style="stroke:#000000;stroke-width:0.8;"/>
      </defs>
      <g>
       <use style="stroke:#000000;stroke-width:0.8;" x="121.94142" xlink:href="#m61e1b2a45a" y="678.285375"/>
      </g>
     </g>
     <g id="text_1">
      <!-- 1/22/20 -->
      <defs>
       <path d="M 14.203125 0 
L 14.203125 5.171875 
L 26.90625 5.171875 
L 26.90625 65.828125 
L 12.203125 56.296875 
L 12.203125 62.703125 
L 29.984375 74.21875 
L 36.71875 74.21875 
L 36.71875 5.171875 
L 49.421875 5.171875 
L 49.421875 0 
z
" id="DejaVuSerif-49"/>
       <path d="M 25.875 72.90625 
L 33.6875 72.90625 
L 7.8125 -9.28125 
L 0 -9.28125 
z
" id="DejaVuSerif-47"/>
       <path d="M 12.796875 55.515625 
L 7.328125 55.515625 
L 7.328125 68.5 
Q 12.546875 71.296875 17.84375 72.75 
Q 23.140625 74.21875 28.21875 74.21875 
Q 39.59375 74.21875 46.1875 68.703125 
Q 52.78125 63.1875 52.78125 53.71875 
Q 52.78125 43.015625 37.84375 28.125 
Q 36.671875 27 36.078125 26.421875 
L 17.671875 8.015625 
L 48.09375 8.015625 
L 48.09375 17 
L 53.8125 17 
L 53.8125 0 
L 6.78125 0 
L 6.78125 5.328125 
L 28.90625 27.390625 
Q 36.234375 34.71875 39.359375 40.84375 
Q 42.484375 46.96875 42.484375 53.71875 
Q 42.484375 61.078125 38.640625 65.234375 
Q 34.8125 69.390625 28.078125 69.390625 
Q 21.09375 69.390625 17.28125 65.921875 
Q 13.484375 62.453125 12.796875 55.515625 
z
" id="DejaVuSerif-50"/>
       <path d="M 31.78125 3.421875 
Q 39.265625 3.421875 42.96875 11.625 
Q 46.6875 19.828125 46.6875 36.375 
Q 46.6875 52.984375 42.96875 61.1875 
Q 39.265625 69.390625 31.78125 69.390625 
Q 24.3125 69.390625 20.59375 61.1875 
Q 16.890625 52.984375 16.890625 36.375 
Q 16.890625 19.828125 20.59375 11.625 
Q 24.3125 3.421875 31.78125 3.421875 
z
M 31.78125 -1.421875 
Q 19.921875 -1.421875 13.25 8.53125 
Q 6.59375 18.5 6.59375 36.375 
Q 6.59375 54.296875 13.25 64.25 
Q 19.921875 74.21875 31.78125 74.21875 
Q 43.703125 74.21875 50.34375 64.25 
Q 56.984375 54.296875 56.984375 36.375 
Q 56.984375 18.5 50.34375 8.53125 
Q 43.703125 -1.421875 31.78125 -1.421875 
z
" id="DejaVuSerif-48"/>
      </defs>
      <g transform="translate(94.95642 695.923187)scale(0.14 -0.14)">
       <use xlink:href="#DejaVuSerif-49"/>
       <use x="63.623047" xlink:href="#DejaVuSerif-47"/>
       <use x="97.314453" xlink:href="#DejaVuSerif-50"/>
       <use x="160.9375" xlink:href="#DejaVuSerif-50"/>
       <use x="224.560547" xlink:href="#DejaVuSerif-47"/>
       <use x="258.251953" xlink:href="#DejaVuSerif-50"/>
       <use x="321.875" xlink:href="#DejaVuSerif-48"/>
      </g>
     </g>
    </g>
    <g id="xtick_2">
     <g id="line2d_2">
      <g>
       <use style="stroke:#000000;stroke-width:0.8;" x="267.338062" xlink:href="#m61e1b2a45a" y="678.285375"/>
      </g>
     </g>
     <g id="text_2">
      <!-- 3/12/20 -->
      <defs>
       <path d="M 9.71875 69.828125 
Q 15.4375 71.96875 20.671875 73.09375 
Q 25.921875 74.21875 30.515625 74.21875 
Q 41.21875 74.21875 47.21875 69.59375 
Q 53.21875 64.984375 53.21875 56.78125 
Q 53.21875 50.203125 49.0625 45.78125 
Q 44.921875 41.359375 37.3125 39.796875 
Q 46.296875 38.53125 51.25 33.28125 
Q 56.203125 28.03125 56.203125 19.671875 
Q 56.203125 9.46875 49.34375 4.015625 
Q 42.484375 -1.421875 29.59375 -1.421875 
Q 23.875 -1.421875 18.421875 -0.1875 
Q 12.984375 1.03125 7.625 3.515625 
L 7.625 17.671875 
L 13.09375 17.671875 
Q 13.578125 10.640625 17.828125 7.03125 
Q 22.078125 3.421875 29.78125 3.421875 
Q 37.25 3.421875 41.578125 7.734375 
Q 45.90625 12.0625 45.90625 19.578125 
Q 45.90625 28.171875 41.453125 32.59375 
Q 37.015625 37.015625 28.421875 37.015625 
L 23.78125 37.015625 
L 23.78125 42 
L 26.21875 42 
Q 34.765625 42 39.03125 45.53125 
Q 43.3125 49.078125 43.3125 56.203125 
Q 43.3125 62.59375 39.796875 65.984375 
Q 36.28125 69.390625 29.6875 69.390625 
Q 23.09375 69.390625 19.453125 66.265625 
Q 15.828125 63.140625 15.1875 56.984375 
L 9.71875 56.984375 
z
" id="DejaVuSerif-51"/>
      </defs>
      <g transform="translate(240.353062 695.923187)scale(0.14 -0.14)">
       <use xlink:href="#DejaVuSerif-51"/>
       <use x="63.623047" xlink:href="#DejaVuSerif-47"/>
       <use x="97.314453" xlink:href="#DejaVuSerif-49"/>
       <use x="160.9375" xlink:href="#DejaVuSerif-50"/>
       <use x="224.560547" xlink:href="#DejaVuSerif-47"/>
       <use x="258.251953" xlink:href="#DejaVuSerif-50"/>
       <use x="321.875" xlink:href="#DejaVuSerif-48"/>
      </g>
     </g>
    </g>
    <g id="xtick_3">
     <g id="line2d_3">
      <g>
       <use style="stroke:#000000;stroke-width:0.8;" x="412.734704" xlink:href="#m61e1b2a45a" y="678.285375"/>
      </g>
     </g>
     <g id="text_3">
      <!-- 5/1/20 -->
      <defs>
       <path d="M 50.296875 72.90625 
L 50.296875 64.890625 
L 16.890625 64.890625 
L 16.890625 44 
Q 19.4375 45.75 22.828125 46.625 
Q 26.21875 47.515625 30.421875 47.515625 
Q 42.234375 47.515625 49.0625 40.96875 
Q 55.90625 34.421875 55.90625 23.09375 
Q 55.90625 11.53125 49 5.046875 
Q 42.09375 -1.421875 29.59375 -1.421875 
Q 24.5625 -1.421875 19.28125 -0.1875 
Q 14.015625 1.03125 8.5 3.515625 
L 8.5 17.671875 
L 14.015625 17.671875 
Q 14.453125 10.75 18.421875 7.078125 
Q 22.40625 3.421875 29.59375 3.421875 
Q 37.3125 3.421875 41.453125 8.5 
Q 45.609375 13.578125 45.609375 23.09375 
Q 45.609375 32.5625 41.484375 37.609375 
Q 37.359375 42.671875 29.59375 42.671875 
Q 25.203125 42.671875 21.84375 41.109375 
Q 18.5 39.546875 15.921875 36.28125 
L 11.71875 36.28125 
L 11.71875 72.90625 
z
" id="DejaVuSerif-53"/>
      </defs>
      <g transform="translate(390.203454 695.923187)scale(0.14 -0.14)">
       <use xlink:href="#DejaVuSerif-53"/>
       <use x="63.623047" xlink:href="#DejaVuSerif-47"/>
       <use x="97.314453" xlink:href="#DejaVuSerif-49"/>
       <use x="160.9375" xlink:href="#DejaVuSerif-47"/>
       <use x="194.628906" xlink:href="#DejaVuSerif-50"/>
       <use x="258.251953" xlink:href="#DejaVuSerif-48"/>
      </g>
     </g>
    </g>
    <g id="xtick_4">
     <g id="line2d_4">
      <g>
       <use style="stroke:#000000;stroke-width:0.8;" x="558.131345" xlink:href="#m61e1b2a45a" y="678.285375"/>
      </g>
     </g>
     <g id="text_4">
      <!-- 6/20/20 -->
      <defs>
       <path d="M 32.71875 3.421875 
Q 39.59375 3.421875 43.296875 8.46875 
Q 47.015625 13.53125 47.015625 23 
Q 47.015625 32.46875 43.296875 37.515625 
Q 39.59375 42.578125 32.71875 42.578125 
Q 25.734375 42.578125 22.0625 37.6875 
Q 18.40625 32.8125 18.40625 23.578125 
Q 18.40625 13.875 22.109375 8.640625 
Q 25.828125 3.421875 32.71875 3.421875 
z
M 16.796875 40.140625 
Q 20.125 43.796875 24.3125 45.59375 
Q 28.515625 47.40625 33.796875 47.40625 
Q 44.671875 47.40625 51 40.859375 
Q 57.328125 34.328125 57.328125 23 
Q 57.328125 11.921875 50.515625 5.25 
Q 43.703125 -1.421875 32.328125 -1.421875 
Q 19.96875 -1.421875 13.328125 7.78125 
Q 6.6875 17 6.6875 34.078125 
Q 6.6875 53.21875 14.546875 63.71875 
Q 22.40625 74.21875 36.71875 74.21875 
Q 40.578125 74.21875 44.828125 73.484375 
Q 49.078125 72.75 53.515625 71.296875 
L 53.515625 59.28125 
L 48 59.28125 
Q 47.40625 64.203125 44.234375 66.796875 
Q 41.0625 69.390625 35.6875 69.390625 
Q 26.21875 69.390625 21.578125 62.203125 
Q 16.9375 55.03125 16.796875 40.140625 
z
" id="DejaVuSerif-54"/>
      </defs>
      <g transform="translate(531.146345 695.923187)scale(0.14 -0.14)">
       <use xlink:href="#DejaVuSerif-54"/>
       <use x="63.623047" xlink:href="#DejaVuSerif-47"/>
       <use x="97.314453" xlink:href="#DejaVuSerif-50"/>
       <use x="160.9375" xlink:href="#DejaVuSerif-48"/>
       <use x="224.560547" xlink:href="#DejaVuSerif-47"/>
       <use x="258.251953" xlink:href="#DejaVuSerif-50"/>
       <use x="321.875" xlink:href="#DejaVuSerif-48"/>
      </g>
     </g>
    </g>
    <g id="xtick_5">
     <g id="line2d_5">
      <g>
       <use style="stroke:#000000;stroke-width:0.8;" x="703.527987" xlink:href="#m61e1b2a45a" y="678.285375"/>
      </g>
     </g>
     <g id="text_5">
      <!-- 8/9/20 -->
      <defs>
       <path d="M 46.578125 19.921875 
Q 46.578125 27.734375 42.6875 32.046875 
Q 38.8125 36.375 31.78125 36.375 
Q 24.75 36.375 20.875 32.046875 
Q 17 27.734375 17 19.921875 
Q 17 12.0625 20.875 7.734375 
Q 24.75 3.421875 31.78125 3.421875 
Q 38.8125 3.421875 42.6875 7.734375 
Q 46.578125 12.0625 46.578125 19.921875 
z
M 44.578125 55.328125 
Q 44.578125 61.96875 41.203125 65.671875 
Q 37.84375 69.390625 31.78125 69.390625 
Q 25.78125 69.390625 22.390625 65.671875 
Q 19 61.96875 19 55.328125 
Q 19 48.640625 22.390625 44.921875 
Q 25.78125 41.21875 31.78125 41.21875 
Q 37.84375 41.21875 41.203125 44.921875 
Q 44.578125 48.640625 44.578125 55.328125 
z
M 39.3125 38.8125 
Q 47.609375 37.703125 52.25 32.6875 
Q 56.890625 27.6875 56.890625 19.921875 
Q 56.890625 9.671875 50.390625 4.125 
Q 43.890625 -1.421875 31.78125 -1.421875 
Q 19.734375 -1.421875 13.203125 4.125 
Q 6.6875 9.671875 6.6875 19.921875 
Q 6.6875 27.6875 11.328125 32.6875 
Q 15.96875 37.703125 24.3125 38.8125 
Q 16.9375 40.140625 13 44.40625 
Q 9.078125 48.6875 9.078125 55.328125 
Q 9.078125 64.109375 15.125 69.15625 
Q 21.1875 74.21875 31.78125 74.21875 
Q 42.390625 74.21875 48.4375 69.15625 
Q 54.5 64.109375 54.5 55.328125 
Q 54.5 48.6875 50.5625 44.40625 
Q 46.625 40.140625 39.3125 38.8125 
z
" id="DejaVuSerif-56"/>
       <path d="M 46.78125 32.671875 
Q 43.5 29 39.25 27.1875 
Q 35.015625 25.390625 29.6875 25.390625 
Q 18.84375 25.390625 12.5625 31.9375 
Q 6.296875 38.484375 6.296875 49.8125 
Q 6.296875 60.890625 13.109375 67.546875 
Q 19.921875 74.21875 31.296875 74.21875 
Q 43.65625 74.21875 50.265625 65.015625 
Q 56.890625 55.8125 56.890625 38.71875 
Q 56.890625 19.578125 49.015625 9.078125 
Q 41.15625 -1.421875 26.90625 -1.421875 
Q 23.046875 -1.421875 18.796875 -0.6875 
Q 14.546875 0.046875 10.109375 1.515625 
L 10.109375 13.625 
L 15.578125 13.625 
Q 16.21875 8.6875 19.390625 6.046875 
Q 22.5625 3.421875 27.875 3.421875 
Q 37.359375 3.421875 41.984375 10.5625 
Q 46.625 17.71875 46.78125 32.671875 
z
M 30.90625 69.390625 
Q 23.96875 69.390625 20.28125 64.328125 
Q 16.609375 59.28125 16.609375 49.8125 
Q 16.609375 40.328125 20.28125 35.25 
Q 23.96875 30.171875 30.90625 30.171875 
Q 37.84375 30.171875 41.53125 35.078125 
Q 45.21875 39.984375 45.21875 49.21875 
Q 45.21875 58.9375 41.5 64.15625 
Q 37.796875 69.390625 30.90625 69.390625 
z
" id="DejaVuSerif-57"/>
      </defs>
      <g transform="translate(680.996737 695.923187)scale(0.14 -0.14)">
       <use xlink:href="#DejaVuSerif-56"/>
       <use x="63.623047" xlink:href="#DejaVuSerif-47"/>
       <use x="97.314453" xlink:href="#DejaVuSerif-57"/>
       <use x="160.9375" xlink:href="#DejaVuSerif-47"/>
       <use x="194.628906" xlink:href="#DejaVuSerif-50"/>
       <use x="258.251953" xlink:href="#DejaVuSerif-48"/>
      </g>
     </g>
    </g>
    <g id="xtick_6">
     <g id="line2d_6">
      <g>
       <use style="stroke:#000000;stroke-width:0.8;" x="848.924628" xlink:href="#m61e1b2a45a" y="678.285375"/>
      </g>
     </g>
     <g id="text_6">
      <!-- 9/28/20 -->
      <g transform="translate(821.939628 695.923187)scale(0.14 -0.14)">
       <use xlink:href="#DejaVuSerif-57"/>
       <use x="63.623047" xlink:href="#DejaVuSerif-47"/>
       <use x="97.314453" xlink:href="#DejaVuSerif-50"/>
       <use x="160.9375" xlink:href="#DejaVuSerif-56"/>
       <use x="224.560547" xlink:href="#DejaVuSerif-47"/>
       <use x="258.251953" xlink:href="#DejaVuSerif-50"/>
       <use x="321.875" xlink:href="#DejaVuSerif-48"/>
      </g>
     </g>
    </g>
    <g id="xtick_7">
     <g id="line2d_7">
      <g>
       <use style="stroke:#000000;stroke-width:0.8;" x="994.32127" xlink:href="#m61e1b2a45a" y="678.285375"/>
      </g>
     </g>
     <g id="text_7">
      <!-- 11/17/20 -->
      <defs>
       <path d="M 56.390625 67.921875 
L 27.875 0 
L 20.609375 0 
L 47.796875 64.890625 
L 14.109375 64.890625 
L 14.109375 55.90625 
L 8.40625 55.90625 
L 8.40625 72.90625 
L 56.390625 72.90625 
z
" id="DejaVuSerif-55"/>
      </defs>
      <g transform="translate(962.88252 695.923187)scale(0.14 -0.14)">
       <use xlink:href="#DejaVuSerif-49"/>
       <use x="63.623047" xlink:href="#DejaVuSerif-49"/>
       <use x="127.246094" xlink:href="#DejaVuSerif-47"/>
       <use x="160.9375" xlink:href="#DejaVuSerif-49"/>
       <use x="224.560547" xlink:href="#DejaVuSerif-55"/>
       <use x="288.183594" xlink:href="#DejaVuSerif-47"/>
       <use x="321.875" xlink:href="#DejaVuSerif-50"/>
       <use x="385.498047" xlink:href="#DejaVuSerif-48"/>
      </g>
     </g>
    </g>
    <g id="text_8">
     <!-- Dates -->
     <defs>
      <path d="M 24.703125 5.171875 
L 33.796875 5.171875 
Q 48 5.171875 55.59375 13.28125 
Q 63.1875 21.390625 63.1875 36.53125 
Q 63.1875 51.65625 55.609375 59.65625 
Q 48.046875 67.671875 33.796875 67.671875 
L 24.703125 67.671875 
z
M 5.515625 0 
L 5.515625 5.171875 
L 14.796875 5.171875 
L 14.796875 67.671875 
L 5.515625 67.671875 
L 5.515625 72.90625 
L 34.515625 72.90625 
Q 53.375 72.90625 63.890625 63.28125 
Q 74.421875 53.65625 74.421875 36.53125 
Q 74.421875 19.34375 63.875 9.671875 
Q 53.328125 0 34.515625 0 
z
" id="DejaVuSerif-68"/>
      <path d="M 39.796875 16.3125 
L 39.796875 27.296875 
L 28.21875 27.296875 
Q 21.53125 27.296875 18.25 24.40625 
Q 14.984375 21.53125 14.984375 15.578125 
Q 14.984375 10.15625 18.296875 6.984375 
Q 21.625 3.8125 27.296875 3.8125 
Q 32.90625 3.8125 36.34375 7.28125 
Q 39.796875 10.75 39.796875 16.3125 
z
M 48.78125 32.421875 
L 48.78125 5.171875 
L 56.78125 5.171875 
L 56.78125 0 
L 39.796875 0 
L 39.796875 5.609375 
Q 36.8125 2 32.90625 0.28125 
Q 29 -1.421875 23.78125 -1.421875 
Q 15.140625 -1.421875 10.0625 3.171875 
Q 4.984375 7.765625 4.984375 15.578125 
Q 4.984375 23.640625 10.796875 28.078125 
Q 16.609375 32.515625 27.203125 32.515625 
L 39.796875 32.515625 
L 39.796875 36.078125 
Q 39.796875 42 36.203125 45.234375 
Q 32.625 48.484375 26.125 48.484375 
Q 20.75 48.484375 17.578125 46.046875 
Q 14.40625 43.609375 13.625 38.8125 
L 8.984375 38.8125 
L 8.984375 49.3125 
Q 13.671875 51.3125 18.09375 52.3125 
Q 22.515625 53.328125 26.703125 53.328125 
Q 37.5 53.328125 43.140625 47.96875 
Q 48.78125 42.625 48.78125 32.421875 
z
" id="DejaVuSerif-97"/>
      <path d="M 10.796875 46.6875 
L 2.875 46.6875 
L 2.875 51.90625 
L 10.796875 51.90625 
L 10.796875 68.015625 
L 19.828125 68.015625 
L 19.828125 51.90625 
L 36.71875 51.90625 
L 36.71875 46.6875 
L 19.828125 46.6875 
L 19.828125 13.71875 
Q 19.828125 7.125 21.09375 5.265625 
Q 22.359375 3.421875 25.78125 3.421875 
Q 29.296875 3.421875 30.90625 5.484375 
Q 32.515625 7.5625 32.625 12.203125 
L 39.40625 12.203125 
Q 39.015625 5.125 35.546875 1.84375 
Q 32.078125 -1.421875 25 -1.421875 
Q 17.234375 -1.421875 14.015625 2.015625 
Q 10.796875 5.46875 10.796875 13.71875 
z
" id="DejaVuSerif-116"/>
      <path d="M 54.203125 25 
L 15.484375 25 
L 15.484375 24.609375 
Q 15.484375 14.109375 19.4375 8.765625 
Q 23.390625 3.421875 31.109375 3.421875 
Q 37.015625 3.421875 40.796875 6.515625 
Q 44.578125 9.625 46.09375 15.71875 
L 53.328125 15.71875 
Q 51.171875 7.171875 45.375 2.875 
Q 39.59375 -1.421875 30.171875 -1.421875 
Q 18.796875 -1.421875 11.890625 6.078125 
Q 4.984375 13.578125 4.984375 25.984375 
Q 4.984375 38.28125 11.765625 45.796875 
Q 18.5625 53.328125 29.59375 53.328125 
Q 41.359375 53.328125 47.65625 46.0625 
Q 53.953125 38.8125 54.203125 25 
z
M 43.609375 30.171875 
Q 43.3125 39.265625 39.765625 43.875 
Q 36.234375 48.484375 29.59375 48.484375 
Q 23.390625 48.484375 19.828125 43.84375 
Q 16.265625 39.203125 15.484375 30.171875 
z
" id="DejaVuSerif-101"/>
      <path d="M 5.609375 2.875 
L 5.609375 14.984375 
L 10.796875 14.984375 
Q 10.984375 9.1875 14.421875 6.296875 
Q 17.875 3.421875 24.609375 3.421875 
Q 30.671875 3.421875 33.84375 5.6875 
Q 37.015625 7.953125 37.015625 12.3125 
Q 37.015625 15.71875 34.6875 17.8125 
Q 32.375 19.921875 24.90625 22.3125 
L 18.40625 24.515625 
Q 11.71875 26.65625 8.71875 29.875 
Q 5.71875 33.109375 5.71875 38.09375 
Q 5.71875 45.21875 10.9375 49.265625 
Q 16.15625 53.328125 25.390625 53.328125 
Q 29.5 53.328125 34.03125 52.25 
Q 38.578125 51.171875 43.40625 49.125 
L 43.40625 37.796875 
L 38.234375 37.796875 
Q 38.03125 42.828125 34.703125 45.65625 
Q 31.390625 48.484375 25.6875 48.484375 
Q 20.015625 48.484375 17.109375 46.484375 
Q 14.203125 44.484375 14.203125 40.484375 
Q 14.203125 37.203125 16.40625 35.21875 
Q 18.609375 33.25 25.203125 31.203125 
L 32.328125 29 
Q 39.703125 26.703125 42.9375 23.265625 
Q 46.1875 19.828125 46.1875 14.40625 
Q 46.1875 7.03125 40.546875 2.796875 
Q 34.90625 -1.421875 25 -1.421875 
Q 19.96875 -1.421875 15.1875 -0.34375 
Q 10.40625 0.734375 5.609375 2.875 
z
" id="DejaVuSerif-115"/>
     </defs>
     <g transform="translate(558.152969 713.472562)scale(0.14 -0.14)">
      <use xlink:href="#DejaVuSerif-68"/>
      <use x="80.175781" xlink:href="#DejaVuSerif-97"/>
      <use x="139.794922" xlink:href="#DejaVuSerif-116"/>
      <use x="179.980469" xlink:href="#DejaVuSerif-101"/>
      <use x="239.160156" xlink:href="#DejaVuSerif-115"/>
     </g>
    </g>
   </g>
   <g id="matplotlib.axis_2">
    <g id="ytick_1">
     <g id="line2d_8">
      <defs>
       <path d="M 0 0 
L -3.5 0 
" id="m1e6c345a89" style="stroke:#000000;stroke-width:0.8;"/>
      </defs>
      <g>
       <use style="stroke:#000000;stroke-width:0.8;" x="76.286875" xlink:href="#m1e6c345a89" y="678.285375"/>
      </g>
     </g>
     <g id="text_9">
      <!-- 0 -->
      <g transform="translate(60.379375 683.604281)scale(0.14 -0.14)">
       <use xlink:href="#DejaVuSerif-48"/>
      </g>
     </g>
    </g>
    <g id="ytick_2">
     <g id="line2d_9">
      <g>
       <use style="stroke:#000000;stroke-width:0.8;" x="76.286875" xlink:href="#m1e6c345a89" y="573.844325"/>
      </g>
     </g>
     <g id="text_10">
      <!-- 10000 -->
      <g transform="translate(24.749375 579.163231)scale(0.14 -0.14)">
       <use xlink:href="#DejaVuSerif-49"/>
       <use x="63.623047" xlink:href="#DejaVuSerif-48"/>
       <use x="127.246094" xlink:href="#DejaVuSerif-48"/>
       <use x="190.869141" xlink:href="#DejaVuSerif-48"/>
       <use x="254.492188" xlink:href="#DejaVuSerif-48"/>
      </g>
     </g>
    </g>
    <g id="ytick_3">
     <g id="line2d_10">
      <g>
       <use style="stroke:#000000;stroke-width:0.8;" x="76.286875" xlink:href="#m1e6c345a89" y="469.403275"/>
      </g>
     </g>
     <g id="text_11">
      <!-- 20000 -->
      <g transform="translate(24.749375 474.722181)scale(0.14 -0.14)">
       <use xlink:href="#DejaVuSerif-50"/>
       <use x="63.623047" xlink:href="#DejaVuSerif-48"/>
       <use x="127.246094" xlink:href="#DejaVuSerif-48"/>
       <use x="190.869141" xlink:href="#DejaVuSerif-48"/>
       <use x="254.492188" xlink:href="#DejaVuSerif-48"/>
      </g>
     </g>
    </g>
    <g id="ytick_4">
     <g id="line2d_11">
      <g>
       <use style="stroke:#000000;stroke-width:0.8;" x="76.286875" xlink:href="#m1e6c345a89" y="364.962224"/>
      </g>
     </g>
     <g id="text_12">
      <!-- 30000 -->
      <g transform="translate(24.749375 370.281131)scale(0.14 -0.14)">
       <use xlink:href="#DejaVuSerif-51"/>
       <use x="63.623047" xlink:href="#DejaVuSerif-48"/>
       <use x="127.246094" xlink:href="#DejaVuSerif-48"/>
       <use x="190.869141" xlink:href="#DejaVuSerif-48"/>
       <use x="254.492188" xlink:href="#DejaVuSerif-48"/>
      </g>
     </g>
    </g>
    <g id="ytick_5">
     <g id="line2d_12">
      <g>
       <use style="stroke:#000000;stroke-width:0.8;" x="76.286875" xlink:href="#m1e6c345a89" y="260.521174"/>
      </g>
     </g>
     <g id="text_13">
      <!-- 40000 -->
      <defs>
       <path d="M 34.90625 24.703125 
L 34.90625 63.484375 
L 10.015625 24.703125 
z
M 56.390625 0 
L 23.1875 0 
L 23.1875 5.171875 
L 34.90625 5.171875 
L 34.90625 19.484375 
L 3.078125 19.484375 
L 3.078125 24.8125 
L 35.015625 74.21875 
L 44.671875 74.21875 
L 44.671875 24.703125 
L 58.59375 24.703125 
L 58.59375 19.484375 
L 44.671875 19.484375 
L 44.671875 5.171875 
L 56.390625 5.171875 
z
" id="DejaVuSerif-52"/>
      </defs>
      <g transform="translate(24.749375 265.840081)scale(0.14 -0.14)">
       <use xlink:href="#DejaVuSerif-52"/>
       <use x="63.623047" xlink:href="#DejaVuSerif-48"/>
       <use x="127.246094" xlink:href="#DejaVuSerif-48"/>
       <use x="190.869141" xlink:href="#DejaVuSerif-48"/>
       <use x="254.492188" xlink:href="#DejaVuSerif-48"/>
      </g>
     </g>
    </g>
    <g id="ytick_6">
     <g id="line2d_13">
      <g>
       <use style="stroke:#000000;stroke-width:0.8;" x="76.286875" xlink:href="#m1e6c345a89" y="156.080124"/>
      </g>
     </g>
     <g id="text_14">
      <!-- 50000 -->
      <g transform="translate(24.749375 161.39903)scale(0.14 -0.14)">
       <use xlink:href="#DejaVuSerif-53"/>
       <use x="63.623047" xlink:href="#DejaVuSerif-48"/>
       <use x="127.246094" xlink:href="#DejaVuSerif-48"/>
       <use x="190.869141" xlink:href="#DejaVuSerif-48"/>
       <use x="254.492188" xlink:href="#DejaVuSerif-48"/>
      </g>
     </g>
    </g>
    <g id="ytick_7">
     <g id="line2d_14">
      <g>
       <use style="stroke:#000000;stroke-width:0.8;" x="76.286875" xlink:href="#m1e6c345a89" y="51.639074"/>
      </g>
     </g>
     <g id="text_15">
      <!-- 60000 -->
      <g transform="translate(24.749375 56.95798)scale(0.14 -0.14)">
       <use xlink:href="#DejaVuSerif-54"/>
       <use x="63.623047" xlink:href="#DejaVuSerif-48"/>
       <use x="127.246094" xlink:href="#DejaVuSerif-48"/>
       <use x="190.869141" xlink:href="#DejaVuSerif-48"/>
       <use x="254.492188" xlink:href="#DejaVuSerif-48"/>
      </g>
     </g>
    </g>
    <g id="text_16">
     <!-- Cumulative Case Counts -->
     <defs>
      <path d="M 70.515625 19.28125 
Q 67.28125 9.078125 59.6875 3.828125 
Q 52.09375 -1.421875 40.484375 -1.421875 
Q 33.34375 -1.421875 27.234375 1.015625 
Q 21.140625 3.46875 16.40625 8.203125 
Q 10.9375 13.671875 8.265625 20.625 
Q 5.609375 27.59375 5.609375 36.375 
Q 5.609375 53.375 15.421875 63.796875 
Q 25.25 74.21875 41.3125 74.21875 
Q 47.265625 74.21875 54 72.65625 
Q 60.75 71.09375 68.5 67.921875 
L 68.5 51.125 
L 62.984375 51.125 
Q 61.1875 60.296875 55.734375 64.640625 
Q 50.296875 69 40.484375 69 
Q 28.8125 69 22.796875 60.71875 
Q 16.796875 52.4375 16.796875 36.375 
Q 16.796875 20.359375 22.796875 12.078125 
Q 28.8125 3.8125 40.484375 3.8125 
Q 48.640625 3.8125 53.90625 7.6875 
Q 59.1875 11.578125 61.53125 19.28125 
z
" id="DejaVuSerif-67"/>
      <path d="M 35.40625 51.90625 
L 52.203125 51.90625 
L 52.203125 5.171875 
L 60.6875 5.171875 
L 60.6875 0 
L 43.21875 0 
L 43.21875 9.1875 
Q 40.71875 4 36.765625 1.28125 
Q 32.8125 -1.421875 27.59375 -1.421875 
Q 18.953125 -1.421875 14.875 3.484375 
Q 10.796875 8.40625 10.796875 18.890625 
L 10.796875 46.6875 
L 2.6875 46.6875 
L 2.6875 51.90625 
L 19.828125 51.90625 
L 19.828125 21.6875 
Q 19.828125 12.203125 22.140625 8.6875 
Q 24.46875 5.171875 30.421875 5.171875 
Q 36.671875 5.171875 39.9375 9.765625 
Q 43.21875 14.359375 43.21875 23.09375 
L 43.21875 46.6875 
L 35.40625 46.6875 
z
" id="DejaVuSerif-117"/>
      <path d="M 51.8125 41.796875 
Q 54.390625 47.515625 58.421875 50.421875 
Q 62.453125 53.328125 67.828125 53.328125 
Q 75.984375 53.328125 79.984375 48.265625 
Q 83.984375 43.21875 83.984375 33.015625 
L 83.984375 5.171875 
L 92.09375 5.171875 
L 92.09375 0 
L 67.1875 0 
L 67.1875 5.171875 
L 75 5.171875 
L 75 31.984375 
Q 75 39.9375 72.65625 43.3125 
Q 70.3125 46.6875 64.890625 46.6875 
Q 58.890625 46.6875 55.734375 42.140625 
Q 52.59375 37.59375 52.59375 28.90625 
L 52.59375 5.171875 
L 60.40625 5.171875 
L 60.40625 0 
L 35.796875 0 
L 35.796875 5.171875 
L 43.609375 5.171875 
L 43.609375 32.328125 
Q 43.609375 40.09375 41.265625 43.390625 
Q 38.921875 46.6875 33.5 46.6875 
Q 27.484375 46.6875 24.328125 42.140625 
Q 21.1875 37.59375 21.1875 28.90625 
L 21.1875 5.171875 
L 29 5.171875 
L 29 0 
L 4.109375 0 
L 4.109375 5.171875 
L 12.203125 5.171875 
L 12.203125 46.78125 
L 3.609375 46.78125 
L 3.609375 51.90625 
L 21.1875 51.90625 
L 21.1875 42.671875 
Q 23.6875 47.859375 27.53125 50.59375 
Q 31.390625 53.328125 36.28125 53.328125 
Q 42.328125 53.328125 46.375 50.3125 
Q 50.4375 47.3125 51.8125 41.796875 
z
" id="DejaVuSerif-109"/>
      <path d="M 20.515625 5.171875 
L 29 5.171875 
L 29 0 
L 2.875 0 
L 2.875 5.171875 
L 11.53125 5.171875 
L 11.53125 70.796875 
L 2.875 70.796875 
L 2.875 75.984375 
L 20.515625 75.984375 
z
" id="DejaVuSerif-108"/>
      <path d="M 9.71875 68.015625 
Q 9.71875 70.265625 11.34375 71.921875 
Q 12.984375 73.578125 15.28125 73.578125 
Q 17.53125 73.578125 19.15625 71.921875 
Q 20.796875 70.265625 20.796875 68.015625 
Q 20.796875 65.71875 19.1875 64.109375 
Q 17.578125 62.5 15.28125 62.5 
Q 12.984375 62.5 11.34375 64.109375 
Q 9.71875 65.71875 9.71875 68.015625 
z
M 21.1875 5.171875 
L 29.6875 5.171875 
L 29.6875 0 
L 3.609375 0 
L 3.609375 5.171875 
L 12.203125 5.171875 
L 12.203125 46.6875 
L 3.609375 46.6875 
L 3.609375 51.90625 
L 21.1875 51.90625 
z
" id="DejaVuSerif-105"/>
      <path d="M 24.703125 0 
L 5.609375 46.6875 
L -0.296875 46.6875 
L -0.296875 51.90625 
L 23.578125 51.90625 
L 23.578125 46.6875 
L 15.28125 46.6875 
L 29.890625 10.984375 
L 44.484375 46.6875 
L 36.71875 46.6875 
L 36.71875 51.90625 
L 56.203125 51.90625 
L 56.203125 46.6875 
L 50.390625 46.6875 
L 31.296875 0 
z
" id="DejaVuSerif-118"/>
      <path id="DejaVuSerif-32"/>
      <path d="M 30.078125 3.421875 
Q 37.3125 3.421875 40.984375 9.125 
Q 44.671875 14.84375 44.671875 25.984375 
Q 44.671875 37.109375 40.984375 42.796875 
Q 37.3125 48.484375 30.078125 48.484375 
Q 22.859375 48.484375 19.171875 42.796875 
Q 15.484375 37.109375 15.484375 25.984375 
Q 15.484375 14.84375 19.1875 9.125 
Q 22.90625 3.421875 30.078125 3.421875 
z
M 30.078125 -1.421875 
Q 18.75 -1.421875 11.859375 6.078125 
Q 4.984375 13.578125 4.984375 25.984375 
Q 4.984375 38.375 11.84375 45.84375 
Q 18.703125 53.328125 30.078125 53.328125 
Q 41.453125 53.328125 48.3125 45.84375 
Q 55.171875 38.375 55.171875 25.984375 
Q 55.171875 13.578125 48.3125 6.078125 
Q 41.453125 -1.421875 30.078125 -1.421875 
z
" id="DejaVuSerif-111"/>
      <path d="M 4.109375 0 
L 4.109375 5.171875 
L 12.203125 5.171875 
L 12.203125 46.6875 
L 3.609375 46.6875 
L 3.609375 51.90625 
L 21.1875 51.90625 
L 21.1875 42.671875 
Q 23.6875 47.953125 27.65625 50.640625 
Q 31.640625 53.328125 36.921875 53.328125 
Q 45.515625 53.328125 49.5625 48.390625 
Q 53.609375 43.453125 53.609375 33.015625 
L 53.609375 5.171875 
L 61.625 5.171875 
L 61.625 0 
L 36.8125 0 
L 36.8125 5.171875 
L 44.578125 5.171875 
L 44.578125 30.171875 
Q 44.578125 39.703125 42.234375 43.234375 
Q 39.890625 46.78125 33.984375 46.78125 
Q 27.734375 46.78125 24.453125 42.203125 
Q 21.1875 37.640625 21.1875 28.90625 
L 21.1875 5.171875 
L 29 5.171875 
L 29 0 
z
" id="DejaVuSerif-110"/>
     </defs>
     <g transform="translate(17.837813 439.405531)rotate(-90)scale(0.14 -0.14)">
      <use xlink:href="#DejaVuSerif-67"/>
      <use x="76.513672" xlink:href="#DejaVuSerif-117"/>
      <use x="140.917969" xlink:href="#DejaVuSerif-109"/>
      <use x="235.742188" xlink:href="#DejaVuSerif-117"/>
      <use x="300.146484" xlink:href="#DejaVuSerif-108"/>
      <use x="332.128906" xlink:href="#DejaVuSerif-97"/>
      <use x="391.748047" xlink:href="#DejaVuSerif-116"/>
      <use x="431.933594" xlink:href="#DejaVuSerif-105"/>
      <use x="463.916016" xlink:href="#DejaVuSerif-118"/>
      <use x="520.410156" xlink:href="#DejaVuSerif-101"/>
      <use x="579.589844" xlink:href="#DejaVuSerif-32"/>
      <use x="611.376953" xlink:href="#DejaVuSerif-67"/>
      <use x="687.890625" xlink:href="#DejaVuSerif-97"/>
      <use x="747.509766" xlink:href="#DejaVuSerif-115"/>
      <use x="798.828125" xlink:href="#DejaVuSerif-101"/>
      <use x="858.007812" xlink:href="#DejaVuSerif-32"/>
      <use x="889.794922" xlink:href="#DejaVuSerif-67"/>
      <use x="966.308594" xlink:href="#DejaVuSerif-111"/>
      <use x="1026.513672" xlink:href="#DejaVuSerif-117"/>
      <use x="1090.917969" xlink:href="#DejaVuSerif-110"/>
      <use x="1155.322266" xlink:href="#DejaVuSerif-116"/>
      <use x="1195.507812" xlink:href="#DejaVuSerif-115"/>
     </g>
    </g>
   </g>
   <g id="line2d_15">
    <path clip-path="url(#pa609fec4ef)" d="M 121.94142 678.285375 
L 261.522196 678.212266 
L 264.430129 678.086937 
L 273.153928 677.982496 
L 278.969793 677.700505 
L 287.693592 677.042527 
L 290.601525 676.760536 
L 293.509458 676.248775 
L 296.41739 675.580352 
L 299.325323 675.141699 
L 302.233256 674.535941 
L 305.141189 674.546385 
L 308.049122 673.20954 
L 310.957055 672.62467 
L 313.864987 672.62467 
L 316.77292 671.799586 
L 319.680853 671.381822 
L 322.588786 671.078943 
L 325.496719 670.41052 
L 328.404651 668.165037 
L 331.312584 668.165037 
L 337.12845 665.950887 
L 340.036383 665.230244 
L 342.944316 663.945619 
L 345.852248 663.945619 
L 348.760181 663.423414 
L 351.668114 663.130979 
L 354.576047 661.919462 
L 357.48398 661.919462 
L 360.391913 660.196185 
L 363.299845 658.754899 
L 366.207778 658.754899 
L 369.115711 657.438941 
L 372.023644 653.250855 
L 374.931577 651.527578 
L 377.83951 649.010549 
L 380.747442 647.913918 
L 383.655375 645.96087 
L 392.379174 636.331405 
L 395.287107 634.075478 
L 398.195039 631.495785 
L 401.102972 629.239858 
L 404.010905 627.631466 
L 406.918838 624.341573 
L 409.826771 622.357193 
L 412.734704 620.080378 
L 418.550569 618.064665 
L 421.458502 617.333578 
L 424.366435 616.738264 
L 427.274368 616.007177 
L 430.182301 615.443195 
L 433.090233 614.597223 
L 435.998166 613.98102 
L 438.906099 612.978386 
L 444.721965 612.017529 
L 447.629898 611.369994 
L 453.445763 610.242031 
L 456.353696 609.490055 
L 459.261629 608.894741 
L 465.077495 608.142766 
L 467.985427 607.944328 
L 473.801293 607.265461 
L 476.709226 607.077467 
L 479.617159 606.638815 
L 488.340957 605.949504 
L 494.156823 605.395966 
L 499.972689 605.072199 
L 502.880621 604.717099 
L 514.512353 604.153118 
L 517.420286 603.735353 
L 520.328218 603.735353 
L 523.236151 603.066931 
L 526.144084 602.78494 
L 531.95995 601.876303 
L 537.775815 601.176548 
L 540.683748 600.654342 
L 546.499614 600.142581 
L 558.131345 598.147757 
L 563.947211 597.489779 
L 569.763077 596.560253 
L 572.671009 596.288707 
L 575.578942 595.902275 
L 578.486875 595.181631 
L 581.394808 594.774311 
L 584.302741 594.03278 
L 587.210673 593.604572 
L 590.118606 593.604572 
L 593.026539 592.622826 
L 595.934472 592.027512 
L 601.750338 592.027512 
L 604.65827 590.669778 
L 610.474136 589.698476 
L 613.382069 589.312044 
L 616.290002 588.507848 
L 622.105867 588.507848 
L 625.0138 586.105704 
L 630.829666 584.351094 
L 633.737599 583.097802 
L 636.645532 582.001171 
L 642.461397 582.001171 
L 645.36933 578.15774 
L 648.277263 576.685121 
L 651.185196 576.685121 
L 654.093129 574.105427 
L 657.001061 572.946132 
L 662.816927 572.946132 
L 665.72486 569.771124 
L 668.632793 568.935595 
L 671.540726 567.54653 
L 674.448658 566.366346 
L 677.356591 565.039944 
L 686.08039 565.039944 
L 688.988323 561.87538 
L 691.896255 560.893635 
L 694.804188 560.308765 
L 697.712121 558.909255 
L 703.527987 558.909255 
L 706.43592 556.22512 
L 709.343852 555.337371 
L 712.251785 554.073634 
L 718.067651 552.402577 
L 726.791449 552.402577 
L 729.699382 548.580035 
L 732.607315 547.723618 
L 735.515248 547.723618 
L 738.423181 545.143924 
L 744.239046 545.143924 
L 747.146979 542.449345 
L 750.054912 541.645149 
L 752.962845 540.318748 
L 755.870778 539.190784 
L 758.778711 537.540616 
L 764.594576 537.540616 
L 767.502509 533.091427 
L 770.410442 531.378594 
L 773.318375 530.187966 
L 776.226308 528.830232 
L 779.13424 527.117399 
L 787.858039 527.117399 
L 790.765972 520.652498 
L 793.673905 520.652498 
L 796.581837 518.448792 
L 799.48977 517.289496 
L 805.305636 517.289496 
L 808.213569 512.92386 
L 811.121502 511.628791 
L 814.029434 509.842849 
L 816.937367 508.31801 
L 819.8453 507.200491 
L 825.661166 507.200491 
L 828.569099 503.461501 
L 840.20083 497.153262 
L 846.016695 497.153262 
L 848.924628 492.912955 
L 857.648427 487.83712 
L 860.55636 486.562939 
L 866.372225 486.562939 
L 869.280158 480.526246 
L 872.188091 477.643674 
L 875.096024 476.150166 
L 878.003957 472.348512 
L 880.911889 469.455495 
L 889.635688 469.455495 
L 892.543621 459.41871 
L 898.359486 454.332431 
L 901.267419 450.864988 
L 907.083285 450.864988 
L 909.991218 441.486182 
L 912.899151 438.112736 
L 915.807083 433.872429 
L 921.622949 424.900943 
L 927.438815 424.900943 
L 930.346748 409.527221 
L 936.162613 400.837725 
L 939.070546 395.855887 
L 941.978479 389.359654 
L 950.702277 389.359654 
L 953.61021 365.672424 
L 956.518143 365.672424 
L 959.426076 360.29371 
L 962.334009 345.557077 
L 965.241942 335.958945 
L 968.149874 328.36608 
L 971.057807 321.514748 
L 973.96574 314.068101 
L 976.873673 307.049662 
L 979.781606 298.067732 
L 982.689539 288.594929 
L 988.505404 267.529169 
L 991.413337 258.547238 
L 994.32127 250.473945 
L 997.229203 242.849749 
L 1000.137136 231.309013 
L 1003.045068 219.246071 
L 1005.953001 205.292747 
L 1011.768867 172.571366 
L 1014.6768 160.926189 
L 1017.584733 147.714396 
L 1020.492665 136.466095 
L 1023.400598 123.651178 
L 1026.308531 105.572432 
L 1029.216464 88.778311 
L 1032.124397 70.678677 
L 1035.03233 57.028232 
L 1035.03233 57.028232 
" style="fill:none;stroke:#4169e1;stroke-linecap:square;stroke-width:1.5;"/>
   </g>
   <g id="line2d_16">
    <path clip-path="url(#pa609fec4ef)" d="M 130.665219 678.285375 
L 130.665219 25.965375 
" style="fill:none;stroke:#ff0000;stroke-linecap:square;stroke-width:0.5;"/>
   </g>
   <g id="line2d_17">
    <path clip-path="url(#pa609fec4ef)" d="M 229.534935 678.285375 
L 229.534935 25.965375 
" style="fill:none;stroke:#008b8b;stroke-linecap:square;stroke-width:0.5;"/>
   </g>
   <g id="line2d_18">
    <path clip-path="url(#pa609fec4ef)" d="M 261.522196 678.285375 
L 261.522196 25.965375 
" style="fill:none;stroke:#4b0082;stroke-linecap:square;stroke-width:0.5;"/>
   </g>
   <g id="line2d_19">
    <path clip-path="url(#pa609fec4ef)" d="M 264.430129 678.285375 
L 264.430129 25.965375 
" style="fill:none;stroke:#8b0000;stroke-linecap:square;stroke-width:0.5;"/>
   </g>
   <g id="line2d_20">
    <path clip-path="url(#pa609fec4ef)" d="M 308.049122 678.285375 
L 308.049122 25.965375 
" style="fill:none;stroke:#ff00ff;stroke-linecap:square;stroke-width:0.5;"/>
   </g>
   <g id="line2d_21">
    <path clip-path="url(#pa609fec4ef)" d="M 342.944316 678.285375 
L 342.944316 25.965375 
" style="fill:none;stroke:#006400;stroke-linecap:square;stroke-width:0.5;"/>
   </g>
   <g id="line2d_22">
    <path clip-path="url(#pa609fec4ef)" d="M 372.023644 678.285375 
L 372.023644 25.965375 
" style="fill:none;stroke:#191970;stroke-linecap:square;stroke-width:0.5;"/>
   </g>
   <g id="line2d_23">
    <path clip-path="url(#pa609fec4ef)" d="M 444.721965 678.285375 
L 444.721965 25.965375 
" style="fill:none;stroke:#a0522d;stroke-linecap:square;stroke-width:0.5;"/>
   </g>
   <g id="line2d_24">
    <path clip-path="url(#pa609fec4ef)" d="M 511.60442 678.285375 
L 511.60442 25.965375 
" style="fill:none;stroke:#00008b;stroke-linecap:square;stroke-width:0.5;"/>
   </g>
   <g id="line2d_25">
    <path clip-path="url(#pa609fec4ef)" d="M 552.31548 678.285375 
L 552.31548 25.965375 
" style="fill:none;stroke:#8b4513;stroke-linecap:square;stroke-width:0.5;"/>
   </g>
   <g id="line2d_26">
    <path clip-path="url(#pa609fec4ef)" d="M 587.210673 678.285375 
L 587.210673 25.965375 
" style="fill:none;stroke:#708090;stroke-linecap:square;stroke-width:0.5;"/>
   </g>
   <g id="patch_3">
    <path d="M 76.286875 678.285375 
L 76.286875 25.965375 
" style="fill:none;stroke:#000000;stroke-linecap:square;stroke-linejoin:miter;stroke-width:0.8;"/>
   </g>
   <g id="patch_4">
    <path d="M 1080.686875 678.285375 
L 1080.686875 25.965375 
" style="fill:none;stroke:#000000;stroke-linecap:square;stroke-linejoin:miter;stroke-width:0.8;"/>
   </g>
   <g id="patch_5">
    <path d="M 76.286875 678.285375 
L 1080.686875 678.285375 
" style="fill:none;stroke:#000000;stroke-linecap:square;stroke-linejoin:miter;stroke-width:0.8;"/>
   </g>
   <g id="patch_6">
    <path d="M 76.286875 25.965375 
L 1080.686875 25.965375 
" style="fill:none;stroke:#000000;stroke-linecap:square;stroke-linejoin:miter;stroke-width:0.8;"/>
   </g>
   <g id="text_17">
    <!-- Visualization of COVID-19 Cumulative Cases &amp; Policies in Canada -->
    <defs>
     <path d="M 17.484375 67.671875 
L 39.015625 11.71875 
L 60.5 67.671875 
L 52.296875 67.671875 
L 52.296875 72.90625 
L 73.6875 72.90625 
L 73.6875 67.671875 
L 66.609375 67.671875 
L 40.578125 0 
L 32.171875 0 
L 6.296875 67.671875 
L -0.984375 67.671875 
L -0.984375 72.90625 
L 25.59375 72.90625 
L 25.59375 67.671875 
z
" id="DejaVuSerif-86"/>
     <path d="M 4 0 
L 4 4.203125 
L 36.53125 46.6875 
L 10.796875 46.6875 
L 10.796875 37.703125 
L 5.609375 37.703125 
L 5.609375 51.90625 
L 48.09375 51.90625 
L 48.09375 47.703125 
L 15.578125 5.171875 
L 43.796875 5.171875 
L 43.796875 14.59375 
L 49.03125 14.59375 
L 49.03125 0 
z
" id="DejaVuSerif-122"/>
     <path d="M 43.015625 63.71875 
L 38.28125 63.71875 
Q 38.234375 67.390625 36.203125 69.28125 
Q 34.1875 71.1875 30.328125 71.1875 
Q 25.296875 71.1875 23.234375 68.421875 
Q 21.1875 65.671875 21.1875 58.59375 
L 21.1875 51.90625 
L 35.6875 51.90625 
L 35.6875 46.6875 
L 21.1875 46.6875 
L 21.1875 5.171875 
L 32.71875 5.171875 
L 32.71875 0 
L 3.609375 0 
L 3.609375 5.171875 
L 12.203125 5.171875 
L 12.203125 46.6875 
L 3.609375 46.6875 
L 3.609375 51.90625 
L 12.203125 51.90625 
L 12.203125 58.40625 
Q 12.203125 67.09375 16.71875 71.53125 
Q 21.234375 75.984375 29.984375 75.984375 
Q 33.25 75.984375 36.515625 75.390625 
Q 39.796875 74.8125 43.015625 73.578125 
z
" id="DejaVuSerif-102"/>
     <path d="M 41.015625 3.8125 
Q 52.984375 3.8125 59.078125 12.03125 
Q 65.1875 20.265625 65.1875 36.375 
Q 65.1875 52.546875 59.078125 60.765625 
Q 52.984375 69 41.015625 69 
Q 29 69 22.890625 60.765625 
Q 16.796875 52.546875 16.796875 36.375 
Q 16.796875 20.265625 22.890625 12.03125 
Q 29 3.8125 41.015625 3.8125 
z
M 41.015625 -1.421875 
Q 33.59375 -1.421875 27.359375 1.015625 
Q 21.140625 3.46875 16.40625 8.203125 
Q 10.9375 13.671875 8.265625 20.609375 
Q 5.609375 27.546875 5.609375 36.375 
Q 5.609375 45.21875 8.265625 52.171875 
Q 10.9375 59.125 16.40625 64.59375 
Q 21.1875 69.390625 27.34375 71.796875 
Q 33.5 74.21875 41.015625 74.21875 
Q 56.890625 74.21875 66.65625 63.8125 
Q 76.421875 53.421875 76.421875 36.375 
Q 76.421875 27.640625 73.734375 20.625 
Q 71.046875 13.625 65.578125 8.203125 
Q 60.796875 3.421875 54.640625 1 
Q 48.484375 -1.421875 41.015625 -1.421875 
z
" id="DejaVuSerif-79"/>
     <path d="M 24.703125 5.171875 
L 33.984375 5.171875 
L 33.984375 0 
L 5.515625 0 
L 5.515625 5.171875 
L 14.796875 5.171875 
L 14.796875 67.671875 
L 5.515625 67.671875 
L 5.515625 72.90625 
L 33.984375 72.90625 
L 33.984375 67.671875 
L 24.703125 67.671875 
z
" id="DejaVuSerif-73"/>
     <path d="M 4.390625 30.609375 
L 29.390625 30.609375 
L 29.390625 23 
L 4.390625 23 
z
" id="DejaVuSerif-45"/>
     <path d="M 54 11.28125 
L 25.59375 41.21875 
Q 21.34375 37.40625 19.21875 32.984375 
Q 17.09375 28.5625 17.09375 23.578125 
Q 17.09375 15.484375 22.703125 9.984375 
Q 28.328125 4.5 36.71875 4.5 
Q 41.703125 4.5 46.109375 6.21875 
Q 50.53125 7.953125 54 11.28125 
z
M 84.28125 0 
L 64.703125 0 
L 58.015625 7.078125 
Q 52.875 2.78125 47.0625 0.671875 
Q 41.265625 -1.421875 34.515625 -1.421875 
Q 21.921875 -1.421875 14.546875 5.015625 
Q 7.171875 11.46875 7.171875 22.515625 
Q 7.171875 29 10.90625 34.640625 
Q 14.65625 40.28125 22.21875 45.21875 
Q 19.734375 48.1875 18.5625 51.140625 
Q 17.390625 54.109375 17.390625 57.328125 
Q 17.390625 65.09375 22.96875 69.65625 
Q 28.5625 74.21875 38.1875 74.21875 
Q 41.453125 74.21875 45.828125 73.390625 
Q 50.203125 72.5625 55.8125 70.90625 
L 55.8125 58.296875 
L 50.296875 58.296875 
Q 49.609375 63.53125 46.484375 66.265625 
Q 43.359375 69 37.984375 69 
Q 32.953125 69 29.828125 66.234375 
Q 26.703125 63.484375 26.703125 59.078125 
Q 26.703125 56.109375 28.359375 53.15625 
Q 30.03125 50.203125 35.296875 44.671875 
L 60.5 18.109375 
Q 63.875 22.015625 65.796875 26.53125 
Q 67.71875 31.0625 68.21875 36.1875 
L 59.421875 36.1875 
L 59.421875 41.40625 
L 82.515625 41.40625 
L 82.515625 36.1875 
L 74.125 36.1875 
Q 73.296875 29.828125 70.875 24.3125 
Q 68.453125 18.796875 64.40625 14.109375 
L 72.796875 5.171875 
L 84.28125 5.171875 
z
" id="DejaVuSerif-38"/>
     <path d="M 24.703125 37.109375 
L 37.59375 37.109375 
Q 44.875 37.109375 48.671875 41.03125 
Q 52.484375 44.96875 52.484375 52.390625 
Q 52.484375 59.859375 48.671875 63.765625 
Q 44.875 67.671875 37.59375 67.671875 
L 24.703125 67.671875 
z
M 5.515625 0 
L 5.515625 5.171875 
L 14.796875 5.171875 
L 14.796875 67.671875 
L 5.515625 67.671875 
L 5.515625 72.90625 
L 39.984375 72.90625 
Q 50.921875 72.90625 57.3125 67.359375 
Q 63.71875 61.8125 63.71875 52.390625 
Q 63.71875 43.015625 57.3125 37.453125 
Q 50.921875 31.890625 39.984375 31.890625 
L 24.703125 31.890625 
L 24.703125 5.171875 
L 35.984375 5.171875 
L 35.984375 0 
z
" id="DejaVuSerif-80"/>
     <path d="M 51.421875 15.578125 
Q 49.515625 7.28125 44.09375 2.921875 
Q 38.671875 -1.421875 30.078125 -1.421875 
Q 18.75 -1.421875 11.859375 6.078125 
Q 4.984375 13.578125 4.984375 25.984375 
Q 4.984375 38.421875 11.859375 45.875 
Q 18.75 53.328125 30.078125 53.328125 
Q 35.015625 53.328125 39.890625 52.171875 
Q 44.78125 51.03125 49.703125 48.6875 
L 49.703125 35.40625 
L 44.484375 35.40625 
Q 43.453125 42.234375 40.015625 45.359375 
Q 36.578125 48.484375 30.171875 48.484375 
Q 22.90625 48.484375 19.1875 42.84375 
Q 15.484375 37.203125 15.484375 25.984375 
Q 15.484375 14.75 19.171875 9.078125 
Q 22.859375 3.421875 30.171875 3.421875 
Q 35.984375 3.421875 39.453125 6.4375 
Q 42.921875 9.46875 44.1875 15.578125 
z
" id="DejaVuSerif-99"/>
     <path d="M 52.484375 5.171875 
L 61.078125 5.171875 
L 61.078125 0 
L 43.5 0 
L 43.5 8.109375 
Q 40.875 3.21875 36.796875 0.890625 
Q 32.71875 -1.421875 26.703125 -1.421875 
Q 17.140625 -1.421875 11.0625 6.171875 
Q 4.984375 13.765625 4.984375 25.984375 
Q 4.984375 38.1875 11.03125 45.75 
Q 17.09375 53.328125 26.703125 53.328125 
Q 32.71875 53.328125 36.796875 51 
Q 40.875 48.6875 43.5 43.796875 
L 43.5 70.796875 
L 35.015625 70.796875 
L 35.015625 75.984375 
L 52.484375 75.984375 
z
M 43.5 23.390625 
L 43.5 28.515625 
Q 43.5 37.84375 39.90625 42.765625 
Q 36.328125 47.703125 29.5 47.703125 
Q 22.5625 47.703125 19.015625 42.234375 
Q 15.484375 36.765625 15.484375 25.984375 
Q 15.484375 15.234375 19.015625 9.71875 
Q 22.5625 4.203125 29.5 4.203125 
Q 36.328125 4.203125 39.90625 9.109375 
Q 43.5 14.015625 43.5 23.390625 
z
" id="DejaVuSerif-100"/>
    </defs>
    <g transform="translate(296.904438 19.965375)scale(0.168 -0.168)">
     <use xlink:href="#DejaVuSerif-86"/>
     <use x="72.201172" xlink:href="#DejaVuSerif-105"/>
     <use x="104.183594" xlink:href="#DejaVuSerif-115"/>
     <use x="155.501953" xlink:href="#DejaVuSerif-117"/>
     <use x="219.90625" xlink:href="#DejaVuSerif-97"/>
     <use x="279.525391" xlink:href="#DejaVuSerif-108"/>
     <use x="311.507812" xlink:href="#DejaVuSerif-105"/>
     <use x="343.490234" xlink:href="#DejaVuSerif-122"/>
     <use x="396.175781" xlink:href="#DejaVuSerif-97"/>
     <use x="455.794922" xlink:href="#DejaVuSerif-116"/>
     <use x="495.980469" xlink:href="#DejaVuSerif-105"/>
     <use x="527.962891" xlink:href="#DejaVuSerif-111"/>
     <use x="588.167969" xlink:href="#DejaVuSerif-110"/>
     <use x="652.572266" xlink:href="#DejaVuSerif-32"/>
     <use x="684.359375" xlink:href="#DejaVuSerif-111"/>
     <use x="744.564453" xlink:href="#DejaVuSerif-102"/>
     <use x="781.576172" xlink:href="#DejaVuSerif-32"/>
     <use x="813.363281" xlink:href="#DejaVuSerif-67"/>
     <use x="889.876953" xlink:href="#DejaVuSerif-79"/>
     <use x="971.84375" xlink:href="#DejaVuSerif-86"/>
     <use x="1044.060547" xlink:href="#DejaVuSerif-73"/>
     <use x="1083.5625" xlink:href="#DejaVuSerif-68"/>
     <use x="1163.753906" xlink:href="#DejaVuSerif-45"/>
     <use x="1197.542969" xlink:href="#DejaVuSerif-49"/>
     <use x="1261.166016" xlink:href="#DejaVuSerif-57"/>
     <use x="1324.789062" xlink:href="#DejaVuSerif-32"/>
     <use x="1356.576172" xlink:href="#DejaVuSerif-67"/>
     <use x="1433.089844" xlink:href="#DejaVuSerif-117"/>
     <use x="1497.494141" xlink:href="#DejaVuSerif-109"/>
     <use x="1592.318359" xlink:href="#DejaVuSerif-117"/>
     <use x="1656.722656" xlink:href="#DejaVuSerif-108"/>
     <use x="1688.705078" xlink:href="#DejaVuSerif-97"/>
     <use x="1748.324219" xlink:href="#DejaVuSerif-116"/>
     <use x="1788.509766" xlink:href="#DejaVuSerif-105"/>
     <use x="1820.492188" xlink:href="#DejaVuSerif-118"/>
     <use x="1876.986328" xlink:href="#DejaVuSerif-101"/>
     <use x="1936.166016" xlink:href="#DejaVuSerif-32"/>
     <use x="1967.953125" xlink:href="#DejaVuSerif-67"/>
     <use x="2044.466797" xlink:href="#DejaVuSerif-97"/>
     <use x="2104.085938" xlink:href="#DejaVuSerif-115"/>
     <use x="2155.404297" xlink:href="#DejaVuSerif-101"/>
     <use x="2214.583984" xlink:href="#DejaVuSerif-115"/>
     <use x="2265.902344" xlink:href="#DejaVuSerif-32"/>
     <use x="2297.689453" xlink:href="#DejaVuSerif-38"/>
     <use x="2386.703125" xlink:href="#DejaVuSerif-32"/>
     <use x="2418.490234" xlink:href="#DejaVuSerif-80"/>
     <use x="2485.712891" xlink:href="#DejaVuSerif-111"/>
     <use x="2545.917969" xlink:href="#DejaVuSerif-108"/>
     <use x="2577.900391" xlink:href="#DejaVuSerif-105"/>
     <use x="2609.882812" xlink:href="#DejaVuSerif-99"/>
     <use x="2665.888672" xlink:href="#DejaVuSerif-105"/>
     <use x="2697.871094" xlink:href="#DejaVuSerif-101"/>
     <use x="2757.050781" xlink:href="#DejaVuSerif-115"/>
     <use x="2808.369141" xlink:href="#DejaVuSerif-32"/>
     <use x="2840.15625" xlink:href="#DejaVuSerif-105"/>
     <use x="2872.138672" xlink:href="#DejaVuSerif-110"/>
     <use x="2936.542969" xlink:href="#DejaVuSerif-32"/>
     <use x="2968.330078" xlink:href="#DejaVuSerif-67"/>
     <use x="3044.84375" xlink:href="#DejaVuSerif-97"/>
     <use x="3104.462891" xlink:href="#DejaVuSerif-110"/>
     <use x="3168.867188" xlink:href="#DejaVuSerif-97"/>
     <use x="3228.486328" xlink:href="#DejaVuSerif-100"/>
     <use x="3292.5" xlink:href="#DejaVuSerif-97"/>
    </g>
   </g>
   <g id="legend_1">
    <g id="patch_7">
     <path d="M 367.52 284.95225 
L 789.45375 284.95225 
Q 792.25375 284.95225 792.25375 282.15225 
L 792.25375 35.765375 
Q 792.25375 32.965375 789.45375 32.965375 
L 367.52 32.965375 
Q 364.72 32.965375 364.72 35.765375 
L 364.72 282.15225 
Q 364.72 284.95225 367.52 284.95225 
z
" style="fill:#ffffff;opacity:0.8;stroke:#cccccc;stroke-linejoin:miter;"/>
    </g>
    <g id="line2d_27">
     <path d="M 370.32 44.303187 
L 398.32 44.303187 
" style="fill:none;stroke:#4169e1;stroke-linecap:square;stroke-width:1.5;"/>
    </g>
    <g id="line2d_28"/>
    <g id="text_18">
     <!-- Cumulative COVID-19 Cases -->
     <g transform="translate(409.52 49.203187)scale(0.14 -0.14)">
      <use xlink:href="#DejaVuSerif-67"/>
      <use x="76.513672" xlink:href="#DejaVuSerif-117"/>
      <use x="140.917969" xlink:href="#DejaVuSerif-109"/>
      <use x="235.742188" xlink:href="#DejaVuSerif-117"/>
      <use x="300.146484" xlink:href="#DejaVuSerif-108"/>
      <use x="332.128906" xlink:href="#DejaVuSerif-97"/>
      <use x="391.748047" xlink:href="#DejaVuSerif-116"/>
      <use x="431.933594" xlink:href="#DejaVuSerif-105"/>
      <use x="463.916016" xlink:href="#DejaVuSerif-118"/>
      <use x="520.410156" xlink:href="#DejaVuSerif-101"/>
      <use x="579.589844" xlink:href="#DejaVuSerif-32"/>
      <use x="611.376953" xlink:href="#DejaVuSerif-67"/>
      <use x="687.890625" xlink:href="#DejaVuSerif-79"/>
      <use x="769.857422" xlink:href="#DejaVuSerif-86"/>
      <use x="842.074219" xlink:href="#DejaVuSerif-73"/>
      <use x="881.576172" xlink:href="#DejaVuSerif-68"/>
      <use x="961.767578" xlink:href="#DejaVuSerif-45"/>
      <use x="995.556641" xlink:href="#DejaVuSerif-49"/>
      <use x="1059.179688" xlink:href="#DejaVuSerif-57"/>
      <use x="1122.802734" xlink:href="#DejaVuSerif-32"/>
      <use x="1154.589844" xlink:href="#DejaVuSerif-67"/>
      <use x="1231.103516" xlink:href="#DejaVuSerif-97"/>
      <use x="1290.722656" xlink:href="#DejaVuSerif-115"/>
      <use x="1342.041016" xlink:href="#DejaVuSerif-101"/>
      <use x="1401.220703" xlink:href="#DejaVuSerif-115"/>
     </g>
    </g>
    <g id="line2d_29">
     <path d="M 370.32 64.852562 
L 398.32 64.852562 
" style="fill:none;stroke:#ff0000;stroke-linecap:square;stroke-width:0.5;"/>
    </g>
    <g id="line2d_30"/>
    <g id="text_19">
     <!-- 1/25/2020 First Canadian Case -->
     <defs>
      <path d="M 5.515625 0 
L 5.515625 5.171875 
L 14.796875 5.171875 
L 14.796875 67.671875 
L 5.515625 67.671875 
L 5.515625 72.90625 
L 65.1875 72.90625 
L 65.1875 56.6875 
L 59.1875 56.6875 
L 59.1875 66.890625 
L 24.703125 66.890625 
L 24.703125 42.484375 
L 49.609375 42.484375 
L 49.609375 51.609375 
L 55.609375 51.609375 
L 55.609375 27.390625 
L 49.609375 27.390625 
L 49.609375 36.53125 
L 24.703125 36.53125 
L 24.703125 5.171875 
L 36.375 5.171875 
L 36.375 0 
z
" id="DejaVuSerif-70"/>
      <path d="M 47.796875 52 
L 47.796875 39.015625 
L 42.625 39.015625 
Q 42.390625 42.875 40.484375 44.78125 
Q 38.578125 46.6875 34.90625 46.6875 
Q 28.265625 46.6875 24.71875 42.09375 
Q 21.1875 37.5 21.1875 28.90625 
L 21.1875 5.171875 
L 31.59375 5.171875 
L 31.59375 0 
L 4.109375 0 
L 4.109375 5.171875 
L 12.203125 5.171875 
L 12.203125 46.78125 
L 3.609375 46.78125 
L 3.609375 51.90625 
L 21.1875 51.90625 
L 21.1875 42.671875 
Q 23.828125 48.09375 27.96875 50.703125 
Q 32.125 53.328125 38.09375 53.328125 
Q 40.28125 53.328125 42.703125 52.984375 
Q 45.125 52.640625 47.796875 52 
z
" id="DejaVuSerif-114"/>
     </defs>
     <g transform="translate(409.52 69.752562)scale(0.14 -0.14)">
      <use xlink:href="#DejaVuSerif-49"/>
      <use x="63.623047" xlink:href="#DejaVuSerif-47"/>
      <use x="97.314453" xlink:href="#DejaVuSerif-50"/>
      <use x="160.9375" xlink:href="#DejaVuSerif-53"/>
      <use x="224.560547" xlink:href="#DejaVuSerif-47"/>
      <use x="258.251953" xlink:href="#DejaVuSerif-50"/>
      <use x="321.875" xlink:href="#DejaVuSerif-48"/>
      <use x="385.498047" xlink:href="#DejaVuSerif-50"/>
      <use x="449.121094" xlink:href="#DejaVuSerif-48"/>
      <use x="512.744141" xlink:href="#DejaVuSerif-32"/>
      <use x="544.53125" xlink:href="#DejaVuSerif-70"/>
      <use x="613.916016" xlink:href="#DejaVuSerif-105"/>
      <use x="645.898438" xlink:href="#DejaVuSerif-114"/>
      <use x="693.701172" xlink:href="#DejaVuSerif-115"/>
      <use x="745.019531" xlink:href="#DejaVuSerif-116"/>
      <use x="785.205078" xlink:href="#DejaVuSerif-32"/>
      <use x="816.992188" xlink:href="#DejaVuSerif-67"/>
      <use x="893.505859" xlink:href="#DejaVuSerif-97"/>
      <use x="953.125" xlink:href="#DejaVuSerif-110"/>
      <use x="1017.529297" xlink:href="#DejaVuSerif-97"/>
      <use x="1077.148438" xlink:href="#DejaVuSerif-100"/>
      <use x="1141.162109" xlink:href="#DejaVuSerif-105"/>
      <use x="1173.144531" xlink:href="#DejaVuSerif-97"/>
      <use x="1232.763672" xlink:href="#DejaVuSerif-110"/>
      <use x="1297.167969" xlink:href="#DejaVuSerif-32"/>
      <use x="1328.955078" xlink:href="#DejaVuSerif-67"/>
      <use x="1405.46875" xlink:href="#DejaVuSerif-97"/>
      <use x="1465.087891" xlink:href="#DejaVuSerif-115"/>
      <use x="1516.40625" xlink:href="#DejaVuSerif-101"/>
     </g>
    </g>
    <g id="line2d_31">
     <path d="M 370.32 85.401937 
L 398.32 85.401937 
" style="fill:none;stroke:#008b8b;stroke-linecap:square;stroke-width:0.5;"/>
    </g>
    <g id="line2d_32"/>
    <g id="text_20">
     <!-- 2/28/2020 Beginning of Travel Bans -->
     <defs>
      <path d="M 24.703125 5.171875 
L 39.3125 5.171875 
Q 48.09375 5.171875 52.140625 8.984375 
Q 56.203125 12.796875 56.203125 21.09375 
Q 56.203125 29.34375 52.171875 33.125 
Q 48.140625 36.921875 39.3125 36.921875 
L 24.703125 36.921875 
z
M 24.703125 42.09375 
L 37.109375 42.09375 
Q 45.125 42.09375 48.796875 45.171875 
Q 52.484375 48.25 52.484375 54.890625 
Q 52.484375 61.578125 48.796875 64.625 
Q 45.125 67.671875 37.109375 67.671875 
L 24.703125 67.671875 
z
M 5.515625 0 
L 5.515625 5.171875 
L 14.796875 5.171875 
L 14.796875 67.671875 
L 5.515625 67.671875 
L 5.515625 72.90625 
L 41.5 72.90625 
Q 52.546875 72.90625 58.125 68.390625 
Q 63.71875 63.875 63.71875 54.890625 
Q 63.71875 48.390625 59.828125 44.53125 
Q 55.953125 40.671875 48.484375 39.796875 
Q 57.765625 38.625 62.578125 33.859375 
Q 67.390625 29.109375 67.390625 21.09375 
Q 67.390625 10.25 60.546875 5.125 
Q 53.71875 0 39.203125 0 
z
" id="DejaVuSerif-66"/>
      <path d="M 52.484375 46.6875 
L 52.484375 1.125 
Q 52.484375 -10.0625 46.328125 -16.140625 
Q 40.1875 -22.21875 28.8125 -22.21875 
Q 23.6875 -22.21875 19 -21.28125 
Q 14.3125 -20.359375 10.015625 -18.5 
L 10.015625 -7.625 
L 14.703125 -7.625 
Q 15.578125 -12.703125 18.84375 -15.046875 
Q 22.125 -17.390625 28.21875 -17.390625 
Q 36.140625 -17.390625 39.8125 -12.921875 
Q 43.5 -8.453125 43.5 1.125 
L 43.5 8.109375 
Q 40.875 3.21875 36.796875 0.890625 
Q 32.71875 -1.421875 26.703125 -1.421875 
Q 17.140625 -1.421875 11.0625 6.171875 
Q 4.984375 13.765625 4.984375 25.984375 
Q 4.984375 38.1875 11.03125 45.75 
Q 17.09375 53.328125 26.703125 53.328125 
Q 32.71875 53.328125 36.796875 51 
Q 40.875 48.6875 43.5 43.796875 
L 43.5 51.90625 
L 61.078125 51.90625 
L 61.078125 46.6875 
z
M 43.5 28.515625 
Q 43.5 37.84375 39.90625 42.765625 
Q 36.328125 47.703125 29.5 47.703125 
Q 22.5625 47.703125 19.015625 42.234375 
Q 15.484375 36.765625 15.484375 25.984375 
Q 15.484375 15.234375 19.015625 9.71875 
Q 22.5625 4.203125 29.5 4.203125 
Q 36.328125 4.203125 39.90625 9.109375 
Q 43.5 14.015625 43.5 23.390625 
z
" id="DejaVuSerif-103"/>
      <path d="M 19.09375 0 
L 19.09375 5.171875 
L 28.421875 5.171875 
L 28.421875 67.09375 
L 6.984375 67.09375 
L 6.984375 55.71875 
L 0.984375 55.71875 
L 0.984375 72.90625 
L 65.71875 72.90625 
L 65.71875 55.71875 
L 59.71875 55.71875 
L 59.71875 67.09375 
L 38.28125 67.09375 
L 38.28125 5.171875 
L 47.609375 5.171875 
L 47.609375 0 
z
" id="DejaVuSerif-84"/>
     </defs>
     <g transform="translate(409.52 90.301937)scale(0.14 -0.14)">
      <use xlink:href="#DejaVuSerif-50"/>
      <use x="63.623047" xlink:href="#DejaVuSerif-47"/>
      <use x="97.314453" xlink:href="#DejaVuSerif-50"/>
      <use x="160.9375" xlink:href="#DejaVuSerif-56"/>
      <use x="224.560547" xlink:href="#DejaVuSerif-47"/>
      <use x="258.251953" xlink:href="#DejaVuSerif-50"/>
      <use x="321.875" xlink:href="#DejaVuSerif-48"/>
      <use x="385.498047" xlink:href="#DejaVuSerif-50"/>
      <use x="449.121094" xlink:href="#DejaVuSerif-48"/>
      <use x="512.744141" xlink:href="#DejaVuSerif-32"/>
      <use x="544.53125" xlink:href="#DejaVuSerif-66"/>
      <use x="618.017578" xlink:href="#DejaVuSerif-101"/>
      <use x="677.197266" xlink:href="#DejaVuSerif-103"/>
      <use x="741.210938" xlink:href="#DejaVuSerif-105"/>
      <use x="773.193359" xlink:href="#DejaVuSerif-110"/>
      <use x="837.597656" xlink:href="#DejaVuSerif-110"/>
      <use x="902.001953" xlink:href="#DejaVuSerif-105"/>
      <use x="933.984375" xlink:href="#DejaVuSerif-110"/>
      <use x="998.388672" xlink:href="#DejaVuSerif-103"/>
      <use x="1062.402344" xlink:href="#DejaVuSerif-32"/>
      <use x="1094.189453" xlink:href="#DejaVuSerif-111"/>
      <use x="1154.394531" xlink:href="#DejaVuSerif-102"/>
      <use x="1191.40625" xlink:href="#DejaVuSerif-32"/>
      <use x="1223.193359" xlink:href="#DejaVuSerif-84"/>
      <use x="1289.892578" xlink:href="#DejaVuSerif-114"/>
      <use x="1337.695312" xlink:href="#DejaVuSerif-97"/>
      <use x="1397.314453" xlink:href="#DejaVuSerif-118"/>
      <use x="1453.808594" xlink:href="#DejaVuSerif-101"/>
      <use x="1512.988281" xlink:href="#DejaVuSerif-108"/>
      <use x="1544.970703" xlink:href="#DejaVuSerif-32"/>
      <use x="1576.757812" xlink:href="#DejaVuSerif-66"/>
      <use x="1650.244141" xlink:href="#DejaVuSerif-97"/>
      <use x="1709.863281" xlink:href="#DejaVuSerif-110"/>
      <use x="1774.267578" xlink:href="#DejaVuSerif-115"/>
     </g>
    </g>
    <g id="line2d_33">
     <path d="M 370.32 106.150375 
L 398.32 106.150375 
" style="fill:none;stroke:#4b0082;stroke-linecap:square;stroke-width:0.5;"/>
    </g>
    <g id="line2d_34"/>
    <g id="text_21">
     <!-- 3/10/20 Work From Home Guidelines -->
     <defs>
      <path d="M 76.21875 0 
L 68.21875 0 
L 51.515625 59.28125 
L 34.8125 0 
L 26.8125 0 
L 7.71875 67.671875 
L 0.484375 67.671875 
L 0.484375 72.90625 
L 27.09375 72.90625 
L 27.09375 67.671875 
L 18.015625 67.671875 
L 33.203125 13.8125 
L 49.8125 72.90625 
L 57.71875 72.90625 
L 74.609375 13.1875 
L 89.890625 67.671875 
L 81.5 67.671875 
L 81.5 72.90625 
L 102.484375 72.90625 
L 102.484375 67.671875 
L 95.3125 67.671875 
z
" id="DejaVuSerif-87"/>
      <path d="M 28.609375 0 
L 3.421875 0 
L 3.421875 5.171875 
L 11.53125 5.171875 
L 11.53125 70.796875 
L 2.875 70.796875 
L 2.875 75.984375 
L 20.515625 75.984375 
L 20.515625 26.515625 
L 42.390625 46.6875 
L 34.90625 46.6875 
L 34.90625 51.90625 
L 58.40625 51.90625 
L 58.40625 46.6875 
L 49.515625 46.6875 
L 34.078125 32.421875 
L 53.8125 5.171875 
L 61.28125 5.171875 
L 61.28125 0 
L 35.6875 0 
L 35.6875 5.171875 
L 43.109375 5.171875 
L 27.59375 26.515625 
L 20.515625 19.921875 
L 20.515625 5.171875 
L 28.609375 5.171875 
z
" id="DejaVuSerif-107"/>
      <path d="M 5.515625 0 
L 5.515625 5.171875 
L 14.796875 5.171875 
L 14.796875 67.671875 
L 5.515625 67.671875 
L 5.515625 72.90625 
L 33.984375 72.90625 
L 33.984375 67.671875 
L 24.703125 67.671875 
L 24.703125 42.484375 
L 62.5 42.484375 
L 62.5 67.671875 
L 53.21875 67.671875 
L 53.21875 72.90625 
L 81.6875 72.90625 
L 81.6875 67.671875 
L 72.40625 67.671875 
L 72.40625 5.171875 
L 81.6875 5.171875 
L 81.6875 0 
L 53.21875 0 
L 53.21875 5.171875 
L 62.5 5.171875 
L 62.5 36.53125 
L 24.703125 36.53125 
L 24.703125 5.171875 
L 33.984375 5.171875 
L 33.984375 0 
z
" id="DejaVuSerif-72"/>
      <path d="M 64.015625 51.125 
Q 62.3125 60.25 56.890625 64.625 
Q 51.46875 69 41.796875 69 
Q 29.203125 69 23 60.890625 
Q 16.796875 52.78125 16.796875 36.375 
Q 16.796875 20.3125 23.1875 12.0625 
Q 29.59375 3.8125 42 3.8125 
Q 47.515625 3.8125 52.53125 5.171875 
Q 57.5625 6.546875 62.109375 9.28125 
L 62.109375 28.078125 
L 48.390625 28.078125 
L 48.390625 33.296875 
L 72.015625 33.296875 
L 72.015625 6.109375 
Q 65.53125 2.34375 58.03125 0.453125 
Q 50.53125 -1.421875 42 -1.421875 
Q 25.484375 -1.421875 15.546875 8.90625 
Q 5.609375 19.234375 5.609375 36.375 
Q 5.609375 53.65625 15.5625 63.9375 
Q 25.53125 74.21875 42.390625 74.21875 
Q 48.640625 74.21875 55.296875 72.78125 
Q 61.96875 71.34375 69.484375 68.40625 
L 69.484375 51.125 
z
" id="DejaVuSerif-71"/>
     </defs>
     <g transform="translate(409.52 111.050375)scale(0.14 -0.14)">
      <use xlink:href="#DejaVuSerif-51"/>
      <use x="63.623047" xlink:href="#DejaVuSerif-47"/>
      <use x="97.314453" xlink:href="#DejaVuSerif-49"/>
      <use x="160.9375" xlink:href="#DejaVuSerif-48"/>
      <use x="224.560547" xlink:href="#DejaVuSerif-47"/>
      <use x="258.251953" xlink:href="#DejaVuSerif-50"/>
      <use x="321.875" xlink:href="#DejaVuSerif-48"/>
      <use x="385.498047" xlink:href="#DejaVuSerif-32"/>
      <use x="417.285156" xlink:href="#DejaVuSerif-87"/>
      <use x="519.974609" xlink:href="#DejaVuSerif-111"/>
      <use x="580.179688" xlink:href="#DejaVuSerif-114"/>
      <use x="627.982422" xlink:href="#DejaVuSerif-107"/>
      <use x="688.578125" xlink:href="#DejaVuSerif-32"/>
      <use x="720.365234" xlink:href="#DejaVuSerif-70"/>
      <use x="789.75" xlink:href="#DejaVuSerif-114"/>
      <use x="837.552734" xlink:href="#DejaVuSerif-111"/>
      <use x="897.757812" xlink:href="#DejaVuSerif-109"/>
      <use x="992.582031" xlink:href="#DejaVuSerif-32"/>
      <use x="1024.369141" xlink:href="#DejaVuSerif-72"/>
      <use x="1111.576172" xlink:href="#DejaVuSerif-111"/>
      <use x="1171.78125" xlink:href="#DejaVuSerif-109"/>
      <use x="1266.605469" xlink:href="#DejaVuSerif-101"/>
      <use x="1325.785156" xlink:href="#DejaVuSerif-32"/>
      <use x="1357.572266" xlink:href="#DejaVuSerif-71"/>
      <use x="1437.455078" xlink:href="#DejaVuSerif-117"/>
      <use x="1501.859375" xlink:href="#DejaVuSerif-105"/>
      <use x="1533.841797" xlink:href="#DejaVuSerif-100"/>
      <use x="1597.855469" xlink:href="#DejaVuSerif-101"/>
      <use x="1657.035156" xlink:href="#DejaVuSerif-108"/>
      <use x="1689.017578" xlink:href="#DejaVuSerif-105"/>
      <use x="1721" xlink:href="#DejaVuSerif-110"/>
      <use x="1785.404297" xlink:href="#DejaVuSerif-101"/>
      <use x="1844.583984" xlink:href="#DejaVuSerif-115"/>
     </g>
    </g>
    <g id="line2d_35">
     <path d="M 370.32 126.69975 
L 398.32 126.69975 
" style="fill:none;stroke:#8b0000;stroke-linecap:square;stroke-width:0.5;"/>
    </g>
    <g id="line2d_36"/>
    <g id="text_22">
     <!-- 3/11/20 Self Isolation Guidelines -->
     <defs>
      <path d="M 9.28125 3.515625 
L 9.28125 20.125 
L 14.890625 20.0625 
Q 15.140625 11.765625 19.703125 7.78125 
Q 24.265625 3.8125 33.59375 3.8125 
Q 42.28125 3.8125 46.84375 7.25 
Q 51.421875 10.6875 51.421875 17.28125 
Q 51.421875 22.5625 48.65625 25.390625 
Q 45.90625 28.21875 37.015625 30.90625 
L 27.390625 33.796875 
Q 16.9375 36.96875 12.671875 41.703125 
Q 8.40625 46.4375 8.40625 54.6875 
Q 8.40625 63.96875 14.984375 69.09375 
Q 21.578125 74.21875 33.5 74.21875 
Q 38.578125 74.21875 44.625 73.109375 
Q 50.6875 72.015625 57.515625 69.921875 
L 57.515625 54.390625 
L 52 54.390625 
Q 51.171875 62.109375 46.84375 65.546875 
Q 42.53125 69 33.6875 69 
Q 25.984375 69 21.953125 65.84375 
Q 17.921875 62.703125 17.921875 56.6875 
Q 17.921875 51.46875 20.9375 48.484375 
Q 23.96875 45.515625 33.796875 42.578125 
L 42.828125 39.890625 
Q 52.734375 36.921875 56.953125 32.296875 
Q 61.1875 27.6875 61.1875 19.921875 
Q 61.1875 9.328125 54.390625 3.953125 
Q 47.609375 -1.421875 34.1875 -1.421875 
Q 28.171875 -1.421875 21.9375 -0.1875 
Q 15.71875 1.03125 9.28125 3.515625 
z
" id="DejaVuSerif-83"/>
     </defs>
     <g transform="translate(409.52 131.59975)scale(0.14 -0.14)">
      <use xlink:href="#DejaVuSerif-51"/>
      <use x="63.623047" xlink:href="#DejaVuSerif-47"/>
      <use x="97.314453" xlink:href="#DejaVuSerif-49"/>
      <use x="160.9375" xlink:href="#DejaVuSerif-49"/>
      <use x="224.560547" xlink:href="#DejaVuSerif-47"/>
      <use x="258.251953" xlink:href="#DejaVuSerif-50"/>
      <use x="321.875" xlink:href="#DejaVuSerif-48"/>
      <use x="385.498047" xlink:href="#DejaVuSerif-32"/>
      <use x="417.285156" xlink:href="#DejaVuSerif-83"/>
      <use x="485.791016" xlink:href="#DejaVuSerif-101"/>
      <use x="544.970703" xlink:href="#DejaVuSerif-108"/>
      <use x="576.953125" xlink:href="#DejaVuSerif-102"/>
      <use x="613.964844" xlink:href="#DejaVuSerif-32"/>
      <use x="645.751953" xlink:href="#DejaVuSerif-73"/>
      <use x="685.253906" xlink:href="#DejaVuSerif-115"/>
      <use x="736.572266" xlink:href="#DejaVuSerif-111"/>
      <use x="796.777344" xlink:href="#DejaVuSerif-108"/>
      <use x="828.759766" xlink:href="#DejaVuSerif-97"/>
      <use x="888.378906" xlink:href="#DejaVuSerif-116"/>
      <use x="928.564453" xlink:href="#DejaVuSerif-105"/>
      <use x="960.546875" xlink:href="#DejaVuSerif-111"/>
      <use x="1020.751953" xlink:href="#DejaVuSerif-110"/>
      <use x="1085.15625" xlink:href="#DejaVuSerif-32"/>
      <use x="1116.943359" xlink:href="#DejaVuSerif-71"/>
      <use x="1196.826172" xlink:href="#DejaVuSerif-117"/>
      <use x="1261.230469" xlink:href="#DejaVuSerif-105"/>
      <use x="1293.212891" xlink:href="#DejaVuSerif-100"/>
      <use x="1357.226562" xlink:href="#DejaVuSerif-101"/>
      <use x="1416.40625" xlink:href="#DejaVuSerif-108"/>
      <use x="1448.388672" xlink:href="#DejaVuSerif-105"/>
      <use x="1480.371094" xlink:href="#DejaVuSerif-110"/>
      <use x="1544.775391" xlink:href="#DejaVuSerif-101"/>
      <use x="1603.955078" xlink:href="#DejaVuSerif-115"/>
     </g>
    </g>
    <g id="line2d_37">
     <path d="M 370.32 147.249125 
L 398.32 147.249125 
" style="fill:none;stroke:#ff00ff;stroke-linecap:square;stroke-width:0.5;"/>
    </g>
    <g id="line2d_38"/>
    <g id="text_23">
     <!-- 3/26/20 Mask Guidelines -->
     <defs>
      <path d="M 5.515625 0 
L 5.515625 5.171875 
L 14.796875 5.171875 
L 14.796875 67.671875 
L 4.984375 67.671875 
L 4.984375 72.90625 
L 26.21875 72.90625 
L 51.8125 21 
L 77.390625 72.90625 
L 97.3125 72.90625 
L 97.3125 67.671875 
L 87.59375 67.671875 
L 87.59375 5.171875 
L 96.921875 5.171875 
L 96.921875 0 
L 68.40625 0 
L 68.40625 5.171875 
L 77.6875 5.171875 
L 77.6875 61.53125 
L 52.6875 10.6875 
L 45.796875 10.6875 
L 20.796875 61.53125 
L 20.796875 5.171875 
L 30.078125 5.171875 
L 30.078125 0 
z
" id="DejaVuSerif-77"/>
     </defs>
     <g transform="translate(409.52 152.149125)scale(0.14 -0.14)">
      <use xlink:href="#DejaVuSerif-51"/>
      <use x="63.623047" xlink:href="#DejaVuSerif-47"/>
      <use x="97.314453" xlink:href="#DejaVuSerif-50"/>
      <use x="160.9375" xlink:href="#DejaVuSerif-54"/>
      <use x="224.560547" xlink:href="#DejaVuSerif-47"/>
      <use x="258.251953" xlink:href="#DejaVuSerif-50"/>
      <use x="321.875" xlink:href="#DejaVuSerif-48"/>
      <use x="385.498047" xlink:href="#DejaVuSerif-32"/>
      <use x="417.285156" xlink:href="#DejaVuSerif-77"/>
      <use x="519.677734" xlink:href="#DejaVuSerif-97"/>
      <use x="579.296875" xlink:href="#DejaVuSerif-115"/>
      <use x="630.615234" xlink:href="#DejaVuSerif-107"/>
      <use x="691.210938" xlink:href="#DejaVuSerif-32"/>
      <use x="722.998047" xlink:href="#DejaVuSerif-71"/>
      <use x="802.880859" xlink:href="#DejaVuSerif-117"/>
      <use x="867.285156" xlink:href="#DejaVuSerif-105"/>
      <use x="899.267578" xlink:href="#DejaVuSerif-100"/>
      <use x="963.28125" xlink:href="#DejaVuSerif-101"/>
      <use x="1022.460938" xlink:href="#DejaVuSerif-108"/>
      <use x="1054.443359" xlink:href="#DejaVuSerif-105"/>
      <use x="1086.425781" xlink:href="#DejaVuSerif-110"/>
      <use x="1150.830078" xlink:href="#DejaVuSerif-101"/>
      <use x="1210.009766" xlink:href="#DejaVuSerif-115"/>
     </g>
    </g>
    <g id="line2d_39">
     <path d="M 370.32 167.7985 
L 398.32 167.7985 
" style="fill:none;stroke:#006400;stroke-linecap:square;stroke-width:0.5;"/>
    </g>
    <g id="line2d_40"/>
    <g id="text_24">
     <!-- 4/7/20 Mask Recommendations -->
     <defs>
      <path d="M 47.90625 36.1875 
Q 51.3125 35.25 53.78125 33.03125 
Q 56.25 30.8125 58.203125 26.8125 
L 68.796875 5.171875 
L 77.6875 5.171875 
L 77.6875 0 
L 60.5 0 
L 49.125 23.1875 
Q 45.84375 29.9375 43.109375 31.90625 
Q 40.375 33.890625 35.59375 33.890625 
L 24.703125 33.890625 
L 24.703125 5.171875 
L 35.015625 5.171875 
L 35.015625 0 
L 5.515625 0 
L 5.515625 5.171875 
L 14.796875 5.171875 
L 14.796875 67.671875 
L 5.515625 67.671875 
L 5.515625 72.90625 
L 42.484375 72.90625 
Q 53.125 72.90625 58.90625 67.828125 
Q 64.703125 62.75 64.703125 53.421875 
Q 64.703125 45.90625 60.46875 41.578125 
Q 56.25 37.25 47.90625 36.1875 
z
M 24.703125 39.109375 
L 39.109375 39.109375 
Q 46.484375 39.109375 50 42.59375 
Q 53.515625 46.09375 53.515625 53.421875 
Q 53.515625 60.75 50 64.203125 
Q 46.484375 67.671875 39.109375 67.671875 
L 24.703125 67.671875 
z
" id="DejaVuSerif-82"/>
     </defs>
     <g transform="translate(409.52 172.6985)scale(0.14 -0.14)">
      <use xlink:href="#DejaVuSerif-52"/>
      <use x="63.623047" xlink:href="#DejaVuSerif-47"/>
      <use x="97.314453" xlink:href="#DejaVuSerif-55"/>
      <use x="160.9375" xlink:href="#DejaVuSerif-47"/>
      <use x="194.628906" xlink:href="#DejaVuSerif-50"/>
      <use x="258.251953" xlink:href="#DejaVuSerif-48"/>
      <use x="321.875" xlink:href="#DejaVuSerif-32"/>
      <use x="353.662109" xlink:href="#DejaVuSerif-77"/>
      <use x="456.054688" xlink:href="#DejaVuSerif-97"/>
      <use x="515.673828" xlink:href="#DejaVuSerif-115"/>
      <use x="566.992188" xlink:href="#DejaVuSerif-107"/>
      <use x="627.587891" xlink:href="#DejaVuSerif-32"/>
      <use x="659.375" xlink:href="#DejaVuSerif-82"/>
      <use x="734.667969" xlink:href="#DejaVuSerif-101"/>
      <use x="793.847656" xlink:href="#DejaVuSerif-99"/>
      <use x="849.853516" xlink:href="#DejaVuSerif-111"/>
      <use x="910.058594" xlink:href="#DejaVuSerif-109"/>
      <use x="1004.882812" xlink:href="#DejaVuSerif-109"/>
      <use x="1099.707031" xlink:href="#DejaVuSerif-101"/>
      <use x="1158.886719" xlink:href="#DejaVuSerif-110"/>
      <use x="1223.291016" xlink:href="#DejaVuSerif-100"/>
      <use x="1287.304688" xlink:href="#DejaVuSerif-97"/>
      <use x="1346.923828" xlink:href="#DejaVuSerif-116"/>
      <use x="1387.109375" xlink:href="#DejaVuSerif-105"/>
      <use x="1419.091797" xlink:href="#DejaVuSerif-111"/>
      <use x="1479.296875" xlink:href="#DejaVuSerif-110"/>
      <use x="1543.701172" xlink:href="#DejaVuSerif-115"/>
     </g>
    </g>
    <g id="line2d_41">
     <path d="M 370.32 188.347875 
L 398.32 188.347875 
" style="fill:none;stroke:#191970;stroke-linecap:square;stroke-width:0.5;"/>
    </g>
    <g id="line2d_42"/>
    <g id="text_25">
     <!-- 4/17/20 Mandatory Masks for Air/Rail Travel -->
     <defs>
      <path d="M 21.578125 -9.515625 
L 25 -0.875 
L 5.609375 46.6875 
L -0.296875 46.6875 
L -0.296875 51.90625 
L 23.578125 51.90625 
L 23.578125 46.6875 
L 15.28125 46.6875 
L 29.890625 10.984375 
L 44.484375 46.6875 
L 36.71875 46.6875 
L 36.71875 51.90625 
L 56.203125 51.90625 
L 56.203125 46.6875 
L 50.390625 46.6875 
L 26.609375 -11.71875 
Q 24.171875 -17.78125 21.1875 -20 
Q 18.21875 -22.21875 12.796875 -22.21875 
Q 10.5 -22.21875 8.078125 -21.828125 
Q 5.671875 -21.4375 3.21875 -20.703125 
L 3.21875 -10.796875 
L 7.8125 -10.796875 
Q 8.109375 -14.109375 9.5 -15.546875 
Q 10.890625 -17 13.8125 -17 
Q 16.5 -17 18.140625 -15.5 
Q 19.78125 -14.015625 21.578125 -9.515625 
z
" id="DejaVuSerif-121"/>
      <path d="M 20.015625 26.421875 
L 46.78125 26.421875 
L 33.40625 61.078125 
z
M -0.59375 0 
L -0.59375 5.171875 
L 5.8125 5.171875 
L 31.78125 72.90625 
L 39.984375 72.90625 
L 66.015625 5.171875 
L 73.1875 5.171875 
L 73.1875 0 
L 46.6875 0 
L 46.6875 5.171875 
L 54.78125 5.171875 
L 48.6875 21.1875 
L 18.015625 21.1875 
L 11.921875 5.171875 
L 19.921875 5.171875 
L 19.921875 0 
z
" id="DejaVuSerif-65"/>
     </defs>
     <g transform="translate(409.52 193.247875)scale(0.14 -0.14)">
      <use xlink:href="#DejaVuSerif-52"/>
      <use x="63.623047" xlink:href="#DejaVuSerif-47"/>
      <use x="97.314453" xlink:href="#DejaVuSerif-49"/>
      <use x="160.9375" xlink:href="#DejaVuSerif-55"/>
      <use x="224.560547" xlink:href="#DejaVuSerif-47"/>
      <use x="258.251953" xlink:href="#DejaVuSerif-50"/>
      <use x="321.875" xlink:href="#DejaVuSerif-48"/>
      <use x="385.498047" xlink:href="#DejaVuSerif-32"/>
      <use x="417.285156" xlink:href="#DejaVuSerif-77"/>
      <use x="519.677734" xlink:href="#DejaVuSerif-97"/>
      <use x="579.296875" xlink:href="#DejaVuSerif-110"/>
      <use x="643.701172" xlink:href="#DejaVuSerif-100"/>
      <use x="707.714844" xlink:href="#DejaVuSerif-97"/>
      <use x="767.333984" xlink:href="#DejaVuSerif-116"/>
      <use x="807.519531" xlink:href="#DejaVuSerif-111"/>
      <use x="867.724609" xlink:href="#DejaVuSerif-114"/>
      <use x="915.527344" xlink:href="#DejaVuSerif-121"/>
      <use x="972.021484" xlink:href="#DejaVuSerif-32"/>
      <use x="1003.808594" xlink:href="#DejaVuSerif-77"/>
      <use x="1106.201172" xlink:href="#DejaVuSerif-97"/>
      <use x="1165.820312" xlink:href="#DejaVuSerif-115"/>
      <use x="1217.138672" xlink:href="#DejaVuSerif-107"/>
      <use x="1277.734375" xlink:href="#DejaVuSerif-115"/>
      <use x="1329.052734" xlink:href="#DejaVuSerif-32"/>
      <use x="1360.839844" xlink:href="#DejaVuSerif-102"/>
      <use x="1397.851562" xlink:href="#DejaVuSerif-111"/>
      <use x="1458.056641" xlink:href="#DejaVuSerif-114"/>
      <use x="1505.859375" xlink:href="#DejaVuSerif-32"/>
      <use x="1537.646484" xlink:href="#DejaVuSerif-65"/>
      <use x="1609.863281" xlink:href="#DejaVuSerif-105"/>
      <use x="1641.845703" xlink:href="#DejaVuSerif-114"/>
      <use x="1689.648438" xlink:href="#DejaVuSerif-47"/>
      <use x="1723.339844" xlink:href="#DejaVuSerif-82"/>
      <use x="1798.664062" xlink:href="#DejaVuSerif-97"/>
      <use x="1858.283203" xlink:href="#DejaVuSerif-105"/>
      <use x="1890.265625" xlink:href="#DejaVuSerif-108"/>
      <use x="1922.248047" xlink:href="#DejaVuSerif-32"/>
      <use x="1954.035156" xlink:href="#DejaVuSerif-84"/>
      <use x="2020.734375" xlink:href="#DejaVuSerif-114"/>
      <use x="2068.537109" xlink:href="#DejaVuSerif-97"/>
      <use x="2128.15625" xlink:href="#DejaVuSerif-118"/>
      <use x="2184.650391" xlink:href="#DejaVuSerif-101"/>
      <use x="2243.830078" xlink:href="#DejaVuSerif-108"/>
     </g>
    </g>
    <g id="line2d_43">
     <path d="M 370.32 209.096312 
L 398.32 209.096312 
" style="fill:none;stroke:#a0522d;stroke-linecap:square;stroke-width:0.5;"/>
    </g>
    <g id="line2d_44"/>
    <g id="text_26">
     <!-- 5/12/20 First Seralogical COVID Test -->
     <g transform="translate(409.52 213.996312)scale(0.14 -0.14)">
      <use xlink:href="#DejaVuSerif-53"/>
      <use x="63.623047" xlink:href="#DejaVuSerif-47"/>
      <use x="97.314453" xlink:href="#DejaVuSerif-49"/>
      <use x="160.9375" xlink:href="#DejaVuSerif-50"/>
      <use x="224.560547" xlink:href="#DejaVuSerif-47"/>
      <use x="258.251953" xlink:href="#DejaVuSerif-50"/>
      <use x="321.875" xlink:href="#DejaVuSerif-48"/>
      <use x="385.498047" xlink:href="#DejaVuSerif-32"/>
      <use x="417.285156" xlink:href="#DejaVuSerif-70"/>
      <use x="486.669922" xlink:href="#DejaVuSerif-105"/>
      <use x="518.652344" xlink:href="#DejaVuSerif-114"/>
      <use x="566.455078" xlink:href="#DejaVuSerif-115"/>
      <use x="617.773438" xlink:href="#DejaVuSerif-116"/>
      <use x="657.958984" xlink:href="#DejaVuSerif-32"/>
      <use x="689.746094" xlink:href="#DejaVuSerif-83"/>
      <use x="758.251953" xlink:href="#DejaVuSerif-101"/>
      <use x="817.431641" xlink:href="#DejaVuSerif-114"/>
      <use x="865.234375" xlink:href="#DejaVuSerif-97"/>
      <use x="924.853516" xlink:href="#DejaVuSerif-108"/>
      <use x="956.835938" xlink:href="#DejaVuSerif-111"/>
      <use x="1017.041016" xlink:href="#DejaVuSerif-103"/>
      <use x="1081.054688" xlink:href="#DejaVuSerif-105"/>
      <use x="1113.037109" xlink:href="#DejaVuSerif-99"/>
      <use x="1169.042969" xlink:href="#DejaVuSerif-97"/>
      <use x="1228.662109" xlink:href="#DejaVuSerif-108"/>
      <use x="1260.644531" xlink:href="#DejaVuSerif-32"/>
      <use x="1292.431641" xlink:href="#DejaVuSerif-67"/>
      <use x="1368.945312" xlink:href="#DejaVuSerif-79"/>
      <use x="1450.912109" xlink:href="#DejaVuSerif-86"/>
      <use x="1523.128906" xlink:href="#DejaVuSerif-73"/>
      <use x="1562.630859" xlink:href="#DejaVuSerif-68"/>
      <use x="1642.806641" xlink:href="#DejaVuSerif-32"/>
      <use x="1674.59375" xlink:href="#DejaVuSerif-84"/>
      <use x="1741.183594" xlink:href="#DejaVuSerif-101"/>
      <use x="1800.363281" xlink:href="#DejaVuSerif-115"/>
      <use x="1851.681641" xlink:href="#DejaVuSerif-116"/>
     </g>
    </g>
    <g id="line2d_45">
     <path d="M 370.32 229.84475 
L 398.32 229.84475 
" style="fill:none;stroke:#00008b;stroke-linecap:square;stroke-width:0.5;"/>
    </g>
    <g id="line2d_46"/>
    <g id="text_27">
     <!-- 6/4/20 Mandatory Masks for Transportation Workers -->
     <defs>
      <path d="M 20.515625 28.515625 
L 20.515625 23.390625 
Q 20.515625 14.015625 24.09375 9.109375 
Q 27.6875 4.203125 34.515625 4.203125 
Q 41.40625 4.203125 44.9375 9.71875 
Q 48.484375 15.234375 48.484375 25.984375 
Q 48.484375 36.765625 44.9375 42.234375 
Q 41.40625 47.703125 34.515625 47.703125 
Q 27.6875 47.703125 24.09375 42.765625 
Q 20.515625 37.84375 20.515625 28.515625 
z
M 11.53125 46.6875 
L 2.875 46.6875 
L 2.875 51.90625 
L 20.515625 51.90625 
L 20.515625 43.796875 
Q 23.140625 48.6875 27.21875 51 
Q 31.296875 53.328125 37.3125 53.328125 
Q 46.875 53.328125 52.921875 45.75 
Q 58.984375 38.1875 58.984375 25.984375 
Q 58.984375 13.765625 52.921875 6.171875 
Q 46.875 -1.421875 37.3125 -1.421875 
Q 31.296875 -1.421875 27.21875 0.890625 
Q 23.140625 3.21875 20.515625 8.109375 
L 20.515625 -15.578125 
L 29 -15.578125 
L 29 -20.796875 
L 2.875 -20.796875 
L 2.875 -15.578125 
L 11.53125 -15.578125 
z
" id="DejaVuSerif-112"/>
     </defs>
     <g transform="translate(409.52 234.74475)scale(0.14 -0.14)">
      <use xlink:href="#DejaVuSerif-54"/>
      <use x="63.623047" xlink:href="#DejaVuSerif-47"/>
      <use x="97.314453" xlink:href="#DejaVuSerif-52"/>
      <use x="160.9375" xlink:href="#DejaVuSerif-47"/>
      <use x="194.628906" xlink:href="#DejaVuSerif-50"/>
      <use x="258.251953" xlink:href="#DejaVuSerif-48"/>
      <use x="321.875" xlink:href="#DejaVuSerif-32"/>
      <use x="353.662109" xlink:href="#DejaVuSerif-77"/>
      <use x="456.054688" xlink:href="#DejaVuSerif-97"/>
      <use x="515.673828" xlink:href="#DejaVuSerif-110"/>
      <use x="580.078125" xlink:href="#DejaVuSerif-100"/>
      <use x="644.091797" xlink:href="#DejaVuSerif-97"/>
      <use x="703.710938" xlink:href="#DejaVuSerif-116"/>
      <use x="743.896484" xlink:href="#DejaVuSerif-111"/>
      <use x="804.101562" xlink:href="#DejaVuSerif-114"/>
      <use x="851.904297" xlink:href="#DejaVuSerif-121"/>
      <use x="908.398438" xlink:href="#DejaVuSerif-32"/>
      <use x="940.185547" xlink:href="#DejaVuSerif-77"/>
      <use x="1042.578125" xlink:href="#DejaVuSerif-97"/>
      <use x="1102.197266" xlink:href="#DejaVuSerif-115"/>
      <use x="1153.515625" xlink:href="#DejaVuSerif-107"/>
      <use x="1214.111328" xlink:href="#DejaVuSerif-115"/>
      <use x="1265.429688" xlink:href="#DejaVuSerif-32"/>
      <use x="1297.216797" xlink:href="#DejaVuSerif-102"/>
      <use x="1334.228516" xlink:href="#DejaVuSerif-111"/>
      <use x="1394.433594" xlink:href="#DejaVuSerif-114"/>
      <use x="1442.236328" xlink:href="#DejaVuSerif-32"/>
      <use x="1474.023438" xlink:href="#DejaVuSerif-84"/>
      <use x="1540.722656" xlink:href="#DejaVuSerif-114"/>
      <use x="1588.525391" xlink:href="#DejaVuSerif-97"/>
      <use x="1648.144531" xlink:href="#DejaVuSerif-110"/>
      <use x="1712.548828" xlink:href="#DejaVuSerif-115"/>
      <use x="1763.867188" xlink:href="#DejaVuSerif-112"/>
      <use x="1827.880859" xlink:href="#DejaVuSerif-111"/>
      <use x="1888.085938" xlink:href="#DejaVuSerif-114"/>
      <use x="1935.888672" xlink:href="#DejaVuSerif-116"/>
      <use x="1976.074219" xlink:href="#DejaVuSerif-97"/>
      <use x="2035.693359" xlink:href="#DejaVuSerif-116"/>
      <use x="2075.878906" xlink:href="#DejaVuSerif-105"/>
      <use x="2107.861328" xlink:href="#DejaVuSerif-111"/>
      <use x="2168.066406" xlink:href="#DejaVuSerif-110"/>
      <use x="2232.470703" xlink:href="#DejaVuSerif-32"/>
      <use x="2264.257812" xlink:href="#DejaVuSerif-87"/>
      <use x="2366.947266" xlink:href="#DejaVuSerif-111"/>
      <use x="2427.152344" xlink:href="#DejaVuSerif-114"/>
      <use x="2474.955078" xlink:href="#DejaVuSerif-107"/>
      <use x="2535.550781" xlink:href="#DejaVuSerif-101"/>
      <use x="2594.730469" xlink:href="#DejaVuSerif-114"/>
      <use x="2642.533203" xlink:href="#DejaVuSerif-115"/>
     </g>
    </g>
    <g id="line2d_47">
     <path d="M 370.32 250.593187 
L 398.32 250.593187 
" style="fill:none;stroke:#8b4513;stroke-linecap:square;stroke-width:0.5;"/>
    </g>
    <g id="line2d_48"/>
    <g id="text_28">
     <!-- 6/18/20 Contact Tracing App -->
     <g transform="translate(409.52 255.493187)scale(0.14 -0.14)">
      <use xlink:href="#DejaVuSerif-54"/>
      <use x="63.623047" xlink:href="#DejaVuSerif-47"/>
      <use x="97.314453" xlink:href="#DejaVuSerif-49"/>
      <use x="160.9375" xlink:href="#DejaVuSerif-56"/>
      <use x="224.560547" xlink:href="#DejaVuSerif-47"/>
      <use x="258.251953" xlink:href="#DejaVuSerif-50"/>
      <use x="321.875" xlink:href="#DejaVuSerif-48"/>
      <use x="385.498047" xlink:href="#DejaVuSerif-32"/>
      <use x="417.285156" xlink:href="#DejaVuSerif-67"/>
      <use x="493.798828" xlink:href="#DejaVuSerif-111"/>
      <use x="554.003906" xlink:href="#DejaVuSerif-110"/>
      <use x="618.408203" xlink:href="#DejaVuSerif-116"/>
      <use x="658.59375" xlink:href="#DejaVuSerif-97"/>
      <use x="718.212891" xlink:href="#DejaVuSerif-99"/>
      <use x="774.21875" xlink:href="#DejaVuSerif-116"/>
      <use x="814.404297" xlink:href="#DejaVuSerif-32"/>
      <use x="846.191406" xlink:href="#DejaVuSerif-84"/>
      <use x="912.890625" xlink:href="#DejaVuSerif-114"/>
      <use x="960.693359" xlink:href="#DejaVuSerif-97"/>
      <use x="1020.3125" xlink:href="#DejaVuSerif-99"/>
      <use x="1076.318359" xlink:href="#DejaVuSerif-105"/>
      <use x="1108.300781" xlink:href="#DejaVuSerif-110"/>
      <use x="1172.705078" xlink:href="#DejaVuSerif-103"/>
      <use x="1236.71875" xlink:href="#DejaVuSerif-32"/>
      <use x="1268.505859" xlink:href="#DejaVuSerif-65"/>
      <use x="1340.722656" xlink:href="#DejaVuSerif-112"/>
      <use x="1404.736328" xlink:href="#DejaVuSerif-112"/>
     </g>
    </g>
    <g id="line2d_49">
     <path d="M 370.32 271.341625 
L 398.32 271.341625 
" style="fill:none;stroke:#708090;stroke-linecap:square;stroke-width:0.5;"/>
    </g>
    <g id="line2d_50"/>
    <g id="text_29">
     <!-- 6/30/20 Air Traveller Screening -->
     <g transform="translate(409.52 276.241625)scale(0.14 -0.14)">
      <use xlink:href="#DejaVuSerif-54"/>
      <use x="63.623047" xlink:href="#DejaVuSerif-47"/>
      <use x="97.314453" xlink:href="#DejaVuSerif-51"/>
      <use x="160.9375" xlink:href="#DejaVuSerif-48"/>
      <use x="224.560547" xlink:href="#DejaVuSerif-47"/>
      <use x="258.251953" xlink:href="#DejaVuSerif-50"/>
      <use x="321.875" xlink:href="#DejaVuSerif-48"/>
      <use x="385.498047" xlink:href="#DejaVuSerif-32"/>
      <use x="417.285156" xlink:href="#DejaVuSerif-65"/>
      <use x="489.501953" xlink:href="#DejaVuSerif-105"/>
      <use x="521.484375" xlink:href="#DejaVuSerif-114"/>
      <use x="569.287109" xlink:href="#DejaVuSerif-32"/>
      <use x="601.074219" xlink:href="#DejaVuSerif-84"/>
      <use x="667.773438" xlink:href="#DejaVuSerif-114"/>
      <use x="715.576172" xlink:href="#DejaVuSerif-97"/>
      <use x="775.195312" xlink:href="#DejaVuSerif-118"/>
      <use x="831.689453" xlink:href="#DejaVuSerif-101"/>
      <use x="890.869141" xlink:href="#DejaVuSerif-108"/>
      <use x="922.851562" xlink:href="#DejaVuSerif-108"/>
      <use x="954.833984" xlink:href="#DejaVuSerif-101"/>
      <use x="1014.013672" xlink:href="#DejaVuSerif-114"/>
      <use x="1061.816406" xlink:href="#DejaVuSerif-32"/>
      <use x="1093.603516" xlink:href="#DejaVuSerif-83"/>
      <use x="1162.109375" xlink:href="#DejaVuSerif-99"/>
      <use x="1218.115234" xlink:href="#DejaVuSerif-114"/>
      <use x="1265.917969" xlink:href="#DejaVuSerif-101"/>
      <use x="1325.097656" xlink:href="#DejaVuSerif-101"/>
      <use x="1384.277344" xlink:href="#DejaVuSerif-110"/>
      <use x="1448.681641" xlink:href="#DejaVuSerif-105"/>
      <use x="1480.664062" xlink:href="#DejaVuSerif-110"/>
      <use x="1545.068359" xlink:href="#DejaVuSerif-103"/>
     </g>
    </g>
   </g>
  </g>
 </g>
 <defs>
  <clipPath id="pa609fec4ef">
   <rect height="652.32" width="1004.4" x="76.286875" y="25.965375"/>
  </clipPath>
 </defs>
</svg>
